<svg xmlns="http://www.w3.org/2000/svg" width="120" height="120" viewBox="0 0 120 120">
  <g id="Grupo_1187248" data-name="Grupo 1187248" transform="translate(-334.711 -1678)">
    <rect id="Rectángulo_459442" data-name="Rectángulo 459442" width="120" height="120" transform="translate(334.711 1678)" fill="#ffe79e"/>
    <path id="prototipado-rapido" d="M130.654,89.58h1.415a1.535,1.535,0,0,1,1.535,1.535v6.775a1.535,1.535,0,0,1-1.271,1.512l-16.117,2.808a1.533,1.533,0,0,1-.263.023H75.579a1.533,1.533,0,0,1-.263-.023L59.2,99.4a1.535,1.535,0,0,1-1.271-1.512V91.114a1.535,1.535,0,0,1,1.535-1.535h3.147V52.963a4.635,4.635,0,0,1,4.622-4.622h3.736V27.528A1.536,1.536,0,0,1,72.5,25.992H89.626l0-13.615A5.374,5.374,0,0,1,95,7l1.535,0h0a5.388,5.388,0,0,1,5.376,5.374V25.992h18.852a1.536,1.536,0,0,1,1.536,1.536V48.341h3.736a4.635,4.635,0,0,1,4.622,4.622Zm-64.976,0h61.906V52.963a1.557,1.557,0,0,0-1.552-1.552H122.3V82.977a1.536,1.536,0,0,1-1.536,1.536H72.5a1.536,1.536,0,0,1-1.536-1.536V51.41H67.231a1.557,1.557,0,0,0-1.553,1.552ZM83.4,92.649H61V96.6l14.715,2.564h40.107L130.535,96.6V92.649h-22.4v3.044a1.535,1.535,0,0,1-1.535,1.535H84.935A1.535,1.535,0,0,1,83.4,95.694Zm6.225-63.585H74.039V81.441h45.186V29.064H101.908V40.958a16.436,16.436,0,0,1,1.821.86l2.129-.946a1.536,1.536,0,0,1,1.71.317l3.352,3.352a1.536,1.536,0,0,1,.318,1.708l-.943,2.129q.226.412.429.836a16.394,16.394,0,0,1,.949,2.491l2.17.835a1.536,1.536,0,0,1,.984,1.433v4.742a1.536,1.536,0,0,1-.984,1.433l-2.171.836a16.567,16.567,0,0,1-1.377,3.32l.944,2.131a1.535,1.535,0,0,1-.318,1.708L107.567,71.5a1.536,1.536,0,0,1-1.708.318l-2.128-.943a16.4,16.4,0,0,1-3.323,1.376l-.836,2.171a1.536,1.536,0,0,1-1.433.984H93.4a1.536,1.536,0,0,1-1.434-.984l-.835-2.171A16.548,16.548,0,0,1,87.8,70.87l-2.131.944a1.536,1.536,0,0,1-1.708-.318l-3.352-3.352a1.536,1.536,0,0,1-.317-1.71l.946-2.128a16.536,16.536,0,0,1-1.378-3.32l-2.173-.836a1.536,1.536,0,0,1-.984-1.433V53.973a1.536,1.536,0,0,1,.984-1.433l2.173-.836a16.556,16.556,0,0,1,1.379-3.325l-.946-2.129a1.536,1.536,0,0,1,.317-1.71l3.352-3.352a1.536,1.536,0,0,1,1.71-.317l2.129.946a16.4,16.4,0,0,1,1.82-.859ZM92.7,18.393l-.005,31.441h6.141l0-31.441Zm6.139-3.072V12.377a2.309,2.309,0,0,0-2.3-2.3l-1.534,0H95a2.3,2.3,0,0,0-2.3,2.3v2.946Zm6.224,77.328H86.47v1.51h18.592ZM89.622,47.623V44.329q-.469.24-.92.518a1.536,1.536,0,0,1-1.43.1l-1.882-.837-1.86,1.86.837,1.882a1.536,1.536,0,0,1-.1,1.43,13.5,13.5,0,0,0-1.633,3.936A1.535,1.535,0,0,1,81.7,54.29l-1.919.739v2.632L81.7,58.4a1.536,1.536,0,0,1,.942,1.074A13.461,13.461,0,0,0,84.27,63.4a1.536,1.536,0,0,1,.1,1.432l-.837,1.882,1.861,1.861,1.883-.834a1.536,1.536,0,0,1,1.425.095,13.484,13.484,0,0,0,3.935,1.63,1.535,1.535,0,0,1,1.079.943l.739,1.919h2.632l.739-1.919a1.536,1.536,0,0,1,1.078-.943,13.316,13.316,0,0,0,3.926-1.627,1.536,1.536,0,0,1,1.43-.1l1.883.834L108,66.716l-.834-1.883a1.535,1.535,0,0,1,.095-1.424,13.511,13.511,0,0,0,1.63-3.931,1.536,1.536,0,0,1,.943-1.078l1.919-.738V55.028l-1.919-.739a1.536,1.536,0,0,1-.943-1.079,13.35,13.35,0,0,0-1.628-3.932,1.536,1.536,0,0,1-.1-1.428L108,45.968l-1.861-1.861-1.882.837a1.536,1.536,0,0,1-1.43-.1q-.452-.278-.922-.519V47.62a10.665,10.665,0,1,1-12.285,0Zm8.09,5.284H93.818l1.947,3.373Zm3.988-.763L97.1,60.119a1.536,1.536,0,0,1-2.66,0l-4.607-7.98a1.532,1.532,0,0,1-.145-.341,7.6,7.6,0,1,0,12.167,0,1.533,1.533,0,0,1-.148.351Z" transform="translate(298.737 1683.166)" fill-rule="evenodd"/>
  </g>
</svg>
