<svg xmlns="http://www.w3.org/2000/svg" width="84" height="75" viewBox="0 0 84 75">
  <g id="Grupo_1187272" data-name="Grupo 1187272" transform="translate(-289.711 -3879)">
    <rect id="Rectángulo_459477" data-name="Rectángulo 459477" width="84" height="75" transform="translate(289.711 3879)" fill="#ffe79e"/>
    <g id="Page-1" transform="translate(303.712 3887)">
      <g id="_043---Online-Test" data-name="043---Online-Test" transform="translate(-1)">
        <path id="Shape" d="M13,15a3,3,0,1,0-3-3A3,3,0,0,0,13,15Zm0-4a1,1,0,1,1-1,1A1,1,0,0,1,13,11Z"/>
        <path id="Shape-2" data-name="Shape" d="M19,13h9a1,1,0,0,0,0-2H19a1,1,0,0,0,0,2Z"/>
        <path id="Shape-3" data-name="Shape" d="M32.293,13.707a1,1,0,0,0,1.414,0l2-2a1,1,0,0,0-1.414-1.414L33,11.586l-.293-.293a1,1,0,0,0-1.414,1.414Z"/>
        <path id="Shape-4" data-name="Shape" d="M13,23a3,3,0,1,0-3-3A3,3,0,0,0,13,23Zm0-4a1,1,0,1,1-1,1A1,1,0,0,1,13,19Z"/>
        <path id="Shape-5" data-name="Shape" d="M19,21h9a1,1,0,0,0,0-2H19a1,1,0,0,0,0,2Z"/>
        <path id="Shape-6" data-name="Shape" d="M32.293,21.707a1,1,0,0,0,1.414,0l2-2a1,1,0,0,0-1.414-1.414L33,19.586l-.293-.293a1,1,0,0,0-1.414,1.414Z"/>
        <path id="Shape-7" data-name="Shape" d="M13,31a3,3,0,1,0-3-3A3,3,0,0,0,13,31Zm0-4a1,1,0,1,1-1,1A1,1,0,0,1,13,27Z"/>
        <path id="Shape-8" data-name="Shape" d="M19,29h9a1,1,0,0,0,0-2H19a1,1,0,0,0,0,2Z"/>
        <path id="Shape-9" data-name="Shape" d="M32.293,29.707a1,1,0,0,0,1.414,0l2-2a1,1,0,0,0-1.414-1.414L33,27.586l-.293-.293a1,1,0,0,0-1.414,1.414Z"/>
        <path id="Shape-10" data-name="Shape" d="M16,36a3,3,0,1,0-3,3A3,3,0,0,0,16,36Zm-3,1a1,1,0,1,1,1-1A1,1,0,0,1,13,37Z"/>
        <path id="Shape-11" data-name="Shape" d="M19,37h9a1,1,0,0,0,0-2H19a1,1,0,0,0,0,2Z"/>
        <path id="Shape-12" data-name="Shape" d="M32.293,37.707a1,1,0,0,0,1.414,0l2-2a1,1,0,0,0-1.414-1.414L33,35.586l-.293-.293a1,1,0,0,0-1.414,1.414Z"/>
        <path id="Shape-13" data-name="Shape" d="M49,0H45a3,3,0,0,0-3,3V4H37.414L33.707.293A1,1,0,0,0,33,0H9A3,3,0,0,0,6,3V4H4A3.1,3.1,0,0,0,1,7.18V46.82A3.1,3.1,0,0,0,4,50H19.382l-2,4H14a3,3,0,0,0,0,6H44a3,3,0,0,0,0-6H40.618l-2-4H54a3.1,3.1,0,0,0,3-3.18V7.18A3.1,3.1,0,0,0,54,4H52V3A3,3,0,0,0,49,0ZM47,36.79l-2.436-3.785h4.865Zm-3-5.785V8h2V31Zm6,0H48V8h2ZM44,3a1,1,0,0,1,1-1h4a1,1,0,0,1,1,1V6H44ZM34,3.414l2.292,2.292L36.586,6H35a1,1,0,0,1-1-1ZM4,6H6V42H3V7.18A1.116,1.116,0,0,1,4,6ZM45,57a1,1,0,0,1-1,1H14a1,1,0,0,1,0-2H44A1,1,0,0,1,45,57Zm-6.618-3H19.618l2-4H36.382ZM54,48H4a1.116,1.116,0,0,1-1-1.18V44h8a1,1,0,0,0,0-2H8V3A1,1,0,0,1,9,2H32V5a3,3,0,0,0,3,3h3V42H15a1,1,0,0,0,0,2H55v2.82A1.116,1.116,0,0,1,54,48ZM54,6a1.116,1.116,0,0,1,1,1.18V42H40V7a1,1,0,0,0-.293-.707L39.414,6H42V32.129a1.939,1.939,0,0,0,.307,1.048l3.2,4.99a1.774,1.774,0,0,0,2.986,0l3.194-4.981A1.97,1.97,0,0,0,52,32.119V6Z"/>
      </g>
    </g>
  </g>
</svg>
