<svg xmlns="http://www.w3.org/2000/svg" xmlns:xlink="http://www.w3.org/1999/xlink" width="47" height="47" viewBox="0 0 47 47">
  <defs>
    <clipPath id="clip-path">
      <rect id="Rectángulo_454907" data-name="Rectángulo 454907" width="27.673" height="21.446" fill="#fff"/>
    </clipPath>
  </defs>
  <g id="Grupo_1212235" data-name="Grupo 1212235" transform="translate(-186 -6247)">
    <path id="Trazado_997406" data-name="Trazado 997406" d="M23.5,0A23.5,23.5,0,1,1,0,23.5,23.5,23.5,0,0,1,23.5,0Z" transform="translate(186 6247)" fill="#644602"/>
    <g id="Grupo_1177801" data-name="Grupo 1177801" transform="translate(195.662 6259.777)">
      <g id="Grupo_1177800" data-name="Grupo 1177800" clip-path="url(#clip-path)">
        <path id="Trazado_997472" data-name="Trazado 997472" d="M157.044,21.489h-4.672a2.233,2.233,0,0,1-2.273-2.033L150.05,2.6A2.313,2.313,0,0,1,152.284.083l4.659-.025a2.33,2.33,0,0,1,2.393,2.048l.032,17.445a2.364,2.364,0,0,1-2.324,1.938m-.127-17.243a1.1,1.1,0,0,0-.971-1.069L153.73,3.16a1.161,1.161,0,0,0-1.235,1.071,1.153,1.153,0,0,0,1.133,1.2c1.224.038,3.414.332,3.289-1.179m-.832,5.675a1.108,1.108,0,0,0-.291-2.184c-1.545-.034-3.253-.331-3.3,1.165a1.032,1.032,0,0,0,1,1.067,12.9,12.9,0,0,0,2.587-.048m-.821,6.038a1.474,1.474,0,0,0,.8-1.919,1.4,1.4,0,0,0-1.809-.834,1.492,1.492,0,0,0-.92,1.949,1.4,1.4,0,0,0,1.931.8" transform="translate(-131.695 -0.051)" fill="#fff"/>
        <path id="Trazado_997473" data-name="Trazado 997473" d="M16.141,13.769l.02,3.09L2.832,16.822A2.81,2.81,0,0,1,.116,14.435C-.061,10.494-.007,6.566.09,2.57.126,1.092,1.756.1,3.064,0l13.7.011a7.993,7.993,0,0,0-.621,3.1L3.208,3.12l0,10.642Z" transform="translate(0)" fill="#fff"/>
        <path id="Trazado_997474" data-name="Trazado 997474" d="M49.616,158.6l-11.307-.04c-.443,0-.9-.747-.892-1.117a1.328,1.328,0,0,1,1.442-1.173L49,156.295a8.079,8.079,0,0,0,.614,2.306" transform="translate(-32.84 -137.155)" fill="#fff"/>
      </g>
    </g>
  </g>
</svg>
