<svg xmlns="http://www.w3.org/2000/svg" width="84" height="73" viewBox="0 0 84 73">
  <g id="Grupo_1186408" data-name="Grupo 1186408" transform="translate(-185.711 -1002)">
    <rect id="Rectángulo_459188" data-name="Rectángulo 459188" width="84" height="73" transform="translate(185.711 1002)" fill="#ffe79e"/>
    <g id="User_Interface" data-name="User Interface" transform="translate(199.077 1009.866)">
      <path id="Trazado_1032464" data-name="Trazado 1032464" d="M54.583,48.319h-.895V16.106a3.579,3.579,0,0,0-3.579-3.579H45.635V.895A.9.9,0,0,0,44.74,0H12.527a.9.9,0,0,0-.895.895V12.527H7.158a3.579,3.579,0,0,0-3.579,3.579V48.319H2.684A2.684,2.684,0,0,0,0,51v1.79a4.474,4.474,0,0,0,4.474,4.474H52.793a4.474,4.474,0,0,0,4.474-4.474V51A2.684,2.684,0,0,0,54.583,48.319ZM8.948,44.74V17.9h2.684V44.74ZM13.422,7.158H43.845V44.74H13.422ZM45.635,17.9h2.684V44.74H45.635ZM13.422,1.79H43.845V5.369H13.422ZM5.369,16.106a1.79,1.79,0,0,1,1.79-1.79h4.474v1.79H8.053A.9.9,0,0,0,7.158,17V45.635a.9.9,0,0,0,.895.895H49.214a.9.9,0,0,0,.895-.895V17a.9.9,0,0,0-.895-.895H45.635v-1.79h4.474a1.79,1.79,0,0,1,1.79,1.79V48.319H5.369Zm30.54,34-.6.895H21.958l-.6-.895Zm19.569,2.684a2.684,2.684,0,0,1-2.684,2.684H4.474A2.684,2.684,0,0,1,1.79,52.793V51a.9.9,0,0,1,.895-.895H19.2l1.53,2.282c.376.573-.367.4,15.06.4.617,0,.662-.268,2.273-2.684H54.583a.9.9,0,0,1,.895.895Z" transform="translate(0)"/>
      <path id="Trazado_1032465" data-name="Trazado 1032465" d="M17.895,3a.895.895,0,1,0,.895.895A.895.895,0,0,0,17.895,3Z" transform="translate(-1.788 -0.316)"/>
      <path id="Trazado_1032466" data-name="Trazado 1032466" d="M21.895,3a.895.895,0,1,0,.895.895A.895.895,0,0,0,21.895,3Z" transform="translate(-2.209 -0.316)"/>
      <path id="Trazado_1032467" data-name="Trazado 1032467" d="M25.895,3a.895.895,0,1,0,.895.895A.895.895,0,0,0,25.895,3Z" transform="translate(-2.63 -0.316)"/>
      <path id="Trazado_1032468" data-name="Trazado 1032468" d="M42.16,10H18.895a.9.9,0,0,0-.895.895v8.948a.9.9,0,0,0,.895.895H42.16a.9.9,0,0,0,.895-.895V10.895A.9.9,0,0,0,42.16,10Zm-.895,8.948H19.79V11.79H41.265Z" transform="translate(-1.894 -1.052)"/>
      <path id="Trazado_1032469" data-name="Trazado 1032469" d="M31.579,31.158A3.579,3.579,0,1,0,28,27.579,3.579,3.579,0,0,0,31.579,31.158Zm0-5.369a1.79,1.79,0,1,1-1.79,1.79A1.79,1.79,0,0,1,31.579,25.79Z" transform="translate(-2.946 -2.525)"/>
      <path id="Trazado_1032470" data-name="Trazado 1032470" d="M41.579,24a3.579,3.579,0,1,0,3.579,3.579A3.579,3.579,0,0,0,41.579,24Zm0,5.369a1.79,1.79,0,1,1,1.79-1.79A1.79,1.79,0,0,1,41.579,29.369Z" transform="translate(-3.998 -2.525)"/>
      <path id="Trazado_1032471" data-name="Trazado 1032471" d="M21.579,31.158A3.579,3.579,0,1,0,18,27.579,3.579,3.579,0,0,0,21.579,31.158Zm0-5.369a1.79,1.79,0,1,1-1.79,1.79A1.79,1.79,0,0,1,21.579,25.79Z" transform="translate(-1.894 -2.525)"/>
      <path id="Trazado_1032472" data-name="Trazado 1032472" d="M18.895,35.79h5.369a.895.895,0,0,0,0-1.79H18.895a.895.895,0,0,0,0,1.79Z" transform="translate(-1.894 -3.577)"/>
      <path id="Trazado_1032473" data-name="Trazado 1032473" d="M18.895,39.79h5.369a.895.895,0,0,0,0-1.79H18.895a.895.895,0,0,0,0,1.79Z" transform="translate(-1.894 -3.998)"/>
      <path id="Trazado_1032474" data-name="Trazado 1032474" d="M28.895,35.79h5.369a.895.895,0,0,0,0-1.79H28.895a.895.895,0,0,0,0,1.79Z" transform="translate(-2.946 -3.577)"/>
      <path id="Trazado_1032475" data-name="Trazado 1032475" d="M28.895,39.79h5.369a.895.895,0,0,0,0-1.79H28.895a.895.895,0,0,0,0,1.79Z" transform="translate(-2.946 -3.998)"/>
      <path id="Trazado_1032476" data-name="Trazado 1032476" d="M44.264,34H38.895a.895.895,0,0,0,0,1.79h5.369a.895.895,0,0,0,0-1.79Z" transform="translate(-3.998 -3.577)"/>
      <path id="Trazado_1032477" data-name="Trazado 1032477" d="M44.264,38H38.895a.895.895,0,0,0,0,1.79h5.369a.895.895,0,0,0,0-1.79Z" transform="translate(-3.998 -3.998)"/>
      <path id="Trazado_1032478" data-name="Trazado 1032478" d="M42.16,42H18.895a.9.9,0,0,0-.895.895v3.579a.9.9,0,0,0,.895.895H42.16a.9.9,0,0,0,.895-.895V42.895A.9.9,0,0,0,42.16,42Zm-.895,3.579H19.79V43.79H41.265Z" transform="translate(-1.894 -4.418)"/>
    </g>
  </g>
</svg>
