<svg xmlns="http://www.w3.org/2000/svg" xmlns:xlink="http://www.w3.org/1999/xlink" width="500" height="263" viewBox="0 0 500 263">
  <defs>
    <clipPath id="clip-path">
      <rect id="Rectángulo_459305" data-name="Rectángulo 459305" width="460.135" height="219.536" fill="none"/>
    </clipPath>
    <clipPath id="clip-path-2">
      <rect id="Rectángulo_459304" data-name="Rectángulo 459304" width="460.136" height="219.536" fill="none"/>
    </clipPath>
    <clipPath id="clip-path-3">
      <rect id="Rectángulo_459296" data-name="Rectángulo 459296" width="56.68" height="108.312" fill="none"/>
    </clipPath>
    <clipPath id="clip-path-4">
      <rect id="Rectángulo_459300" data-name="Rectángulo 459300" width="46.615" height="76.709" fill="none"/>
    </clipPath>
    <clipPath id="clip-path-5">
      <rect id="Rectángulo_459301" data-name="Rectángulo 459301" width="32.764" height="76.709" fill="none"/>
    </clipPath>
    <clipPath id="clip-path-6">
      <rect id="Rectángulo_459302" data-name="Rectángulo 459302" width="40.424" height="46.352" fill="none"/>
    </clipPath>
  </defs>
  <g id="Grupo_1186433" data-name="Grupo 1186433" transform="translate(-809.711 -4859)">
    <rect id="Rectángulo_459290" data-name="Rectángulo 459290" width="500" height="263" transform="translate(809.711 4859)" fill="#cfe8ff"/>
    <g id="Grupo_1186432" data-name="Grupo 1186432" transform="translate(832.865 4882.464)">
      <g id="Grupo_1186431" data-name="Grupo 1186431" clip-path="url(#clip-path)">
        <g id="Grupo_1186430" data-name="Grupo 1186430">
          <g id="Grupo_1186429" data-name="Grupo 1186429" clip-path="url(#clip-path-2)">
            <path id="Trazado_1032520" data-name="Trazado 1032520" d="M419.164,51.207c-2.662-2.317-7.887-2.15-8.335,2.491s2.21,6.117,2.21,6.117a18.371,18.371,0,0,1,2.935-5.335c1.727-1.863,3.191-3.273,3.191-3.273" transform="translate(-107.222 -12.985)" fill="#f05823"/>
            <path id="Trazado_1032521" data-name="Trazado 1032521" d="M422.977,50.4c-2.543-.994-4.533,1.8-5.2,4.2s2.462.932,2.462.932Z" transform="translate(-109.024 -13.102)" fill="#e2d771"/>
            <path id="Trazado_1032522" data-name="Trazado 1032522" d="M434.192,59.11c.78-7.857-4.994-9.321-10.026-8.922s-6.895,5.866-6.23,8.922,3.79,8.107,3.79,8.107L427.865,63Z" transform="translate(-109.057 -13.085)" fill="#f05823"/>
            <path id="Trazado_1032523" data-name="Trazado 1032523" d="M22.541,228.132c-21.378-15.063-2.45-35.972,13.383-32.693S72.433,170.393,59.6,144.467s18.754-88.8,69.828-57.94,131.8,36.4,158.18-.15,103-4.281,96.925,41.667,5.007,39.5,28.869,49.724,41.677,24.225,27.426,41.345c0,0,16.389-2.736,15.677,9.019Z" transform="translate(-3.388 -18.421)" fill="#f3f6ff"/>
            <path id="Trazado_1032524" data-name="Trazado 1032524" d="M455,292.36H5.132a5.132,5.132,0,1,1,0-10.264H455a5.132,5.132,0,1,1,0,10.264" transform="translate(0 -73.633)" fill="#6cb9ff"/>
            <path id="Trazado_1032525" data-name="Trazado 1032525" d="M110.768,278.059c6.663-10.708-6.281-15.108-9.8-9.338,0,0,1.257-12.308-9.185-12.485s-8.591,14.854-8.591,14.854-.579-7.536-7.694-6.193-.327,10.8-.327,10.8-1.6-5.174-5.676-1.207,3.123,2.64,3.123,2.64Z" transform="translate(-17.813 -66.883)" fill="#588e4d"/>
            <path id="Trazado_1032526" data-name="Trazado 1032526" d="M501.841,272.168c13.1-23.684,39.849-15.125,39.849-15.125l-29.348,17.707h-7.635Z" transform="translate(-130.992 -66.701)" fill="#406d35"/>
            <path id="Trazado_1032527" data-name="Trazado 1032527" d="M491.866,262.593c14.333-44.886,32.76-46.527,32.76-46.527s-3.276,31.959-22.523,48.383Z" transform="translate(-128.388 -56.398)" fill="#588e4d"/>
            <path id="Trazado_1032528" data-name="Trazado 1032528" d="M500.954,252.41c-2.2-18.2-14.076-20.2-14.076-20.2l3.685,34.6,10.391-.726v-15.6" transform="translate(-127.086 -60.611)" fill="#406d35"/>
            <path id="Trazado_1032529" data-name="Trazado 1032529" d="M489.327,268.289c-3.538-14.157-13.084-12.687-13.084-12.687l3.8,16.21H491.14Z" transform="translate(-124.31 -66.707)" fill="#406d35"/>
            <path id="Trazado_1032530" data-name="Trazado 1032530" d="M513.6,279.5c7.2-5.247,19.242-2.252,19.242-2.252l-15.483,7.659-8.028-2.825Z" transform="translate(-132.946 -72.147)" fill="#406d35"/>
            <path id="Trazado_1032531" data-name="Trazado 1032531" d="M455.287,283.664C458.874,269,469.062,270,472.012,274.139c0,0,1.967-8.129,12.786-6.8s10.818,9.721,10.818,9.721,5.245-2.039,7.212.786a7.992,7.992,0,0,1,1.312,5.814Z" transform="translate(-118.84 -69.744)" fill="#588e4d"/>
            <path id="Trazado_1032532" data-name="Trazado 1032532" d="M327.453,283.968c2.436-9.956,9.352-9.279,11.355-6.467,0,0,1.336-5.519,8.681-4.614s7.345,6.6,7.345,6.6,3.561-1.384,4.9.534a5.427,5.427,0,0,1,.89,3.948Z" transform="translate(-85.473 -71.203)" fill="#588e4d"/>
            <rect id="Rectángulo_459291" data-name="Rectángulo 459291" width="113.362" height="43.079" transform="translate(127.049 162.026)" fill="#6e80db"/>
            <path id="Trazado_1032533" data-name="Trazado 1032533" d="M285.289,273.721c0,5.991-25.377,10.848-56.682,10.848s-56.681-4.857-56.681-10.848,25.378-10.848,56.681-10.848,56.682,4.857,56.682,10.848" transform="translate(-44.877 -68.616)" fill="#6e80db"/>
            <path id="Trazado_1032534" data-name="Trazado 1032534" d="M285.289,215.425c0,5.991-25.377,10.848-56.682,10.848s-56.681-4.857-56.681-10.848,25.378-10.848,56.681-10.848,56.682,4.857,56.682,10.848" transform="translate(-44.877 -53.399)" fill="#a0b2f2"/>
            <rect id="Rectángulo_459292" data-name="Rectángulo 459292" width="104.029" height="37.955" transform="translate(131.716 120.921)" fill="#465daf"/>
            <path id="Trazado_1032535" data-name="Trazado 1032535" d="M282.27,211.619c0,5.279-23.287,9.558-52.014,9.558s-52.014-4.279-52.014-9.558,23.287-9.558,52.014-9.558,52.014,4.279,52.014,9.558" transform="translate(-46.525 -52.742)" fill="#465daf"/>
            <rect id="Rectángulo_459293" data-name="Rectángulo 459293" width="113.362" height="43.079" transform="translate(127.049 108.619)" fill="#6e80db"/>
            <path id="Trazado_1032536" data-name="Trazado 1032536" d="M285.289,201.449c0,5.991-25.377,10.848-56.682,10.848s-56.681-4.857-56.681-10.848S197.3,190.6,228.607,190.6s56.682,4.857,56.682,10.848" transform="translate(-44.877 -49.751)" fill="#6e80db"/>
            <path id="Trazado_1032537" data-name="Trazado 1032537" d="M285.289,143.154c0,5.991-25.377,10.848-56.682,10.848s-56.681-4.857-56.681-10.848,25.378-10.848,56.681-10.848,56.682,4.857,56.682,10.848" transform="translate(-44.877 -34.535)" fill="#a0b2f2"/>
            <rect id="Rectángulo_459294" data-name="Rectángulo 459294" width="104.029" height="37.955" transform="translate(131.716 67.514)" fill="#465daf"/>
            <path id="Trazado_1032538" data-name="Trazado 1032538" d="M282.27,139.348c0,5.279-23.287,9.558-52.014,9.558s-52.014-4.279-52.014-9.558,23.287-9.558,52.014-9.558,52.014,4.279,52.014,9.558" transform="translate(-46.525 -33.878)" fill="#465daf"/>
            <rect id="Rectángulo_459295" data-name="Rectángulo 459295" width="113.362" height="43.079" transform="translate(127.049 53.644)" fill="#6e80db"/>
            <path id="Trazado_1032539" data-name="Trazado 1032539" d="M285.289,127.056c0,5.991-25.377,10.848-56.682,10.848s-56.681-4.857-56.681-10.848,25.378-10.848,56.681-10.848,56.682,4.857,56.682,10.848" transform="translate(-44.877 -30.333)" fill="#6e80db"/>
            <path id="Trazado_1032540" data-name="Trazado 1032540" d="M285.289,68.76c0,5.992-25.377,10.849-56.682,10.849s-56.681-4.857-56.681-10.849S197.3,57.913,228.607,57.913s56.682,4.857,56.682,10.847" transform="translate(-44.877 -15.117)" fill="#d7e2ff"/>
            <path id="Trazado_1032541" data-name="Trazado 1032541" d="M276.713,69.657c0,4.591-19.441,8.311-43.423,8.311s-43.422-3.721-43.422-8.311,19.441-8.31,43.422-8.31,43.423,3.721,43.423,8.31" transform="translate(-49.56 -16.013)" fill="#a0b2f2"/>
            <path id="Trazado_1032542" data-name="Trazado 1032542" d="M214.221,113.918a3.567,3.567,0,1,1-3.567-3.567,3.567,3.567,0,0,1,3.567,3.567" transform="translate(-54.054 -28.804)" fill="#2b417f"/>
            <path id="Trazado_1032543" data-name="Trazado 1032543" d="M238.358,113.918a3.567,3.567,0,1,1-3.567-3.567,3.567,3.567,0,0,1,3.567,3.567" transform="translate(-60.354 -28.804)" fill="#57ea5f"/>
            <path id="Trazado_1032544" data-name="Trazado 1032544" d="M262.495,113.918a3.567,3.567,0,1,1-3.567-3.567,3.567,3.567,0,0,1,3.567,3.567" transform="translate(-66.655 -28.804)" fill="#465daf"/>
            <path id="Trazado_1032545" data-name="Trazado 1032545" d="M293.347,117.485H278.073a2.867,2.867,0,0,1-2.867-2.867v-1.4a2.867,2.867,0,0,1,2.867-2.867h15.274a2.866,2.866,0,0,1,2.866,2.867v1.4a2.866,2.866,0,0,1-2.866,2.867" transform="translate(-71.835 -28.804)" fill="#465daf"/>
            <path id="Trazado_1032546" data-name="Trazado 1032546" d="M214.221,189.342a3.567,3.567,0,1,1-3.567-3.567,3.567,3.567,0,0,1,3.567,3.567" transform="translate(-54.054 -48.491)" fill="#465daf"/>
            <path id="Trazado_1032547" data-name="Trazado 1032547" d="M238.358,189.342a3.567,3.567,0,1,1-3.567-3.567,3.567,3.567,0,0,1,3.567,3.567" transform="translate(-60.354 -48.491)" fill="#fff"/>
            <path id="Trazado_1032548" data-name="Trazado 1032548" d="M262.495,189.342a3.567,3.567,0,1,1-3.567-3.567,3.567,3.567,0,0,1,3.567,3.567" transform="translate(-66.655 -48.491)" fill="#57ea5f"/>
            <path id="Trazado_1032549" data-name="Trazado 1032549" d="M293.347,192.909H278.073a2.867,2.867,0,0,1-2.867-2.867v-1.4a2.867,2.867,0,0,1,2.867-2.867h15.274a2.866,2.866,0,0,1,2.866,2.867v1.4a2.866,2.866,0,0,1-2.866,2.867" transform="translate(-71.835 -48.491)" fill="#2b417f"/>
            <path id="Trazado_1032550" data-name="Trazado 1032550" d="M214.221,264.766a3.567,3.567,0,1,1-3.567-3.567,3.567,3.567,0,0,1,3.567,3.567" transform="translate(-54.054 -68.179)" fill="#2b417f"/>
            <path id="Trazado_1032551" data-name="Trazado 1032551" d="M238.358,264.766a3.567,3.567,0,1,1-3.567-3.567,3.567,3.567,0,0,1,3.567,3.567" transform="translate(-60.354 -68.179)" fill="#465daf"/>
            <path id="Trazado_1032552" data-name="Trazado 1032552" d="M262.495,264.766a3.567,3.567,0,1,1-3.567-3.567,3.567,3.567,0,0,1,3.567,3.567" transform="translate(-66.655 -68.179)" fill="#fff"/>
            <path id="Trazado_1032553" data-name="Trazado 1032553" d="M293.347,268.333H278.073a2.867,2.867,0,0,1-2.867-2.867v-1.4a2.867,2.867,0,0,1,2.867-2.867h15.274a2.866,2.866,0,0,1,2.866,2.867v1.4a2.866,2.866,0,0,1-2.866,2.867" transform="translate(-71.835 -68.179)" fill="#465daf"/>
            <path id="Trazado_1032554" data-name="Trazado 1032554" d="M235.692,219.333H177.677a3.06,3.06,0,0,0-1.961.712l-7.093,8.675,70.127,42.451V222.392a3.059,3.059,0,0,0-3.059-3.059" transform="translate(-44.014 -57.251)" fill="#ffbe5f"/>
            <path id="Trazado_1032555" data-name="Trazado 1032555" d="M238.55,256.882V194.729H190.967V257.3Z" transform="translate(-49.847 -50.829)" fill="#d2dfff"/>
            <path id="Trazado_1032556" data-name="Trazado 1032556" d="M224.676,276.8h-77.5a3.239,3.239,0,0,1-3.24-3.24L127.11,235.275a3.239,3.239,0,0,1,3.24-3.239H211.09l16.825,41.527a3.24,3.24,0,0,1-3.24,3.24" transform="translate(-33.179 -60.567)" fill="#ffcf73"/>
            <g id="Grupo_1186419" data-name="Grupo 1186419" transform="translate(183.731 107.643)" opacity="0.17" style="mix-blend-mode: multiply;isolation: isolate">
              <g id="Grupo_1186418" data-name="Grupo 1186418">
                <g id="Grupo_1186417" data-name="Grupo 1186417" clip-path="url(#clip-path-3)">
                  <path id="Trazado_1032557" data-name="Trazado 1032557" d="M300.646,194.031v1.707c2.993,1.315,4.663,2.779,4.663,4.308v43.082c0,5.986-25.376,10.848-56.68,10.848V228.054l36.587-82.389,20.093,9.452v34.606c0,1.53-1.67,2.985-4.663,4.308" transform="translate(-248.629 -145.665)" fill="#383736"/>
                </g>
              </g>
            </g>
            <path id="Trazado_1032558" data-name="Trazado 1032558" d="M395.242,277.063H368.62c.287-5.4,9.1-6.253,9.386-19.906l3.925.654,3.925-.654c.282,13.653,9.1,14.5,9.386,19.906" transform="translate(-96.218 -67.124)" fill="#1e1e1e"/>
            <path id="Trazado_1032559" data-name="Trazado 1032559" d="M421.567,230.261H304.306a8.456,8.456,0,0,1-8.455-8.455V152.978a8.456,8.456,0,0,1,8.455-8.456H421.567a8.456,8.456,0,0,1,8.455,8.456v68.828a8.456,8.456,0,0,1-8.455,8.455" transform="translate(-77.224 -37.724)" fill="#383736"/>
            <path id="Trazado_1032560" data-name="Trazado 1032560" d="M422.04,135.483H303.833a7.982,7.982,0,0,0-7.982,7.982v68.727H430.023V143.465a7.982,7.982,0,0,0-7.982-7.982" transform="translate(-77.224 -35.364)" fill="#383736"/>
            <path id="Trazado_1032561" data-name="Trazado 1032561" d="M388.791,247.951a3.336,3.336,0,1,1-3.337-3.336,3.337,3.337,0,0,1,3.337,3.336" transform="translate(-99.742 -63.85)" fill="#1e1e1e"/>
            <path id="Trazado_1032562" data-name="Trazado 1032562" d="M426.976,213.711h-123.7V143.205a1.9,1.9,0,0,1,1.905-1.9H425.072a1.9,1.9,0,0,1,1.9,1.9Z" transform="translate(-79.162 -36.883)" fill="#6e80db"/>
            <path id="Trazado_1032563" data-name="Trazado 1032563" d="M395.159,286.087H368.01a.72.72,0,0,1-.719-.72v-.553a.72.72,0,0,1,.719-.72h27.149a.72.72,0,0,1,.72.72v.553a.72.72,0,0,1-.72.72" transform="translate(-95.871 -74.155)" fill="#1e1e1e"/>
            <path id="Trazado_1032564" data-name="Trazado 1032564" d="M424.365,149.106H307.911a1.6,1.6,0,0,1-1.6-1.6v-1.23a1.6,1.6,0,0,1,1.6-1.6H424.365a1.6,1.6,0,0,1,1.6,1.6v1.23a1.6,1.6,0,0,1-1.6,1.6" transform="translate(-79.954 -37.763)" fill="#a0b2f2"/>
            <path id="Trazado_1032565" data-name="Trazado 1032565" d="M452.123,147.331a.969.969,0,1,1-.97-.969.969.969,0,0,1,.97.969" transform="translate(-117.508 -38.204)" fill="#d7e2ff"/>
            <path id="Trazado_1032566" data-name="Trazado 1032566" d="M456.273,147.331a.969.969,0,1,1-.969-.969.969.969,0,0,1,.969.969" transform="translate(-118.592 -38.204)" fill="#d7e2ff"/>
            <path id="Trazado_1032567" data-name="Trazado 1032567" d="M460.424,147.331a.969.969,0,1,1-.97-.969.969.969,0,0,1,.97.969" transform="translate(-119.675 -38.204)" fill="#d7e2ff"/>
            <path id="Trazado_1032568" data-name="Trazado 1032568" d="M334.69,174.217a11.191,11.191,0,1,1-11.191-11.19,11.19,11.19,0,0,1,11.191,11.19" transform="translate(-81.519 -42.554)" fill="#a0b2f2"/>
            <path id="Trazado_1032569" data-name="Trazado 1032569" d="M333.428,206.029H313.571a1.263,1.263,0,0,1-1.263-1.262v-.97a1.263,1.263,0,0,1,1.263-1.263h19.857a1.263,1.263,0,0,1,1.262,1.263v.97a1.262,1.262,0,0,1-1.262,1.262" transform="translate(-81.519 -52.866)" fill="#4b62b2"/>
            <rect id="Rectángulo_459297" data-name="Rectángulo 459297" width="22.382" height="9.837" transform="translate(230.789 156.011)" fill="#a0b2f2"/>
            <path id="Trazado_1032570" data-name="Trazado 1032570" d="M385.326,167.182H356.468a1.5,1.5,0,0,1-1.5-1.5v-1.154a1.5,1.5,0,0,1,1.5-1.5h28.858a1.5,1.5,0,0,1,1.5,1.5v1.154a1.5,1.5,0,0,1-1.5,1.5" transform="translate(-92.654 -42.554)" fill="#4b62b2"/>
            <path id="Trazado_1032571" data-name="Trazado 1032571" d="M408.874,179.514H356.469a1.5,1.5,0,0,1-1.5-1.5V176.86a1.5,1.5,0,0,1,1.5-1.5h52.405a1.5,1.5,0,0,1,1.5,1.5v1.154a1.5,1.5,0,0,1-1.5,1.5" transform="translate(-92.655 -45.773)" fill="#a0b2f2"/>
            <rect id="Rectángulo_459298" data-name="Rectángulo 459298" width="31.86" height="20.282" transform="translate(262.313 138.699)" fill="#a0b2f2"/>
            <path id="Trazado_1032572" data-name="Trazado 1032572" d="M385.326,223.373H356.468a1.5,1.5,0,0,1-1.5-1.5v-1.154a1.5,1.5,0,0,1,1.5-1.5h28.858a1.5,1.5,0,0,1,1.5,1.5v1.154a1.5,1.5,0,0,1-1.5,1.5" transform="translate(-92.654 -57.221)" fill="#4b62b2"/>
            <rect id="Rectángulo_459299" data-name="Rectángulo 459299" width="31.86" height="20.282" transform="translate(301.652 138.699)" fill="#a0b2f2"/>
            <path id="Trazado_1032573" data-name="Trazado 1032573" d="M438.561,223.373H409.7a1.5,1.5,0,0,1-1.5-1.5v-1.154a1.5,1.5,0,0,1,1.5-1.5h28.858a1.5,1.5,0,0,1,1.5,1.5v1.154a1.5,1.5,0,0,1-1.5,1.5" transform="translate(-106.55 -57.221)" fill="#4b62b2"/>
            <g id="Grupo_1186422" data-name="Grupo 1186422" transform="translate(246.531 100.119)" opacity="0.2" style="mix-blend-mode: overlay;isolation: isolate">
              <g id="Grupo_1186421" data-name="Grupo 1186421">
                <g id="Grupo_1186420" data-name="Grupo 1186420" clip-path="url(#clip-path-4)">
                  <path id="Trazado_1032574" data-name="Trazado 1032574" d="M333.611,135.483l15.929,76.71h30.687l-18.913-76.71Z" transform="translate(-333.611 -135.483)" fill="#fff"/>
                </g>
              </g>
            </g>
            <g id="Grupo_1186425" data-name="Grupo 1186425" transform="translate(284.952 100.119)" opacity="0.2" style="mix-blend-mode: overlay;isolation: isolate">
              <g id="Grupo_1186424" data-name="Grupo 1186424">
                <g id="Grupo_1186423" data-name="Grupo 1186423" clip-path="url(#clip-path-5)">
                  <path id="Trazado_1032575" data-name="Trazado 1032575" d="M385.6,135.483l15.929,76.71h16.835l-18.912-76.71Z" transform="translate(-385.603 -135.483)" fill="#fff"/>
                </g>
              </g>
            </g>
            <g id="Grupo_1186428" data-name="Grupo 1186428" transform="translate(312.375 100.081)" opacity="0.17" style="mix-blend-mode: multiply;isolation: isolate">
              <g id="Grupo_1186427" data-name="Grupo 1186427">
                <g id="Grupo_1186426" data-name="Grupo 1186426" clip-path="url(#clip-path-6)">
                  <path id="Trazado_1032576" data-name="Trazado 1032576" d="M422.712,135.47c1.338,14.884,16.983,15.272,22.092,25.473s12,22.953,18.333,20.545v-38.54l-24.547-7.516Z" transform="translate(-422.712 -135.432)" fill="#383736"/>
                </g>
              </g>
            </g>
            <path id="Trazado_1032577" data-name="Trazado 1032577" d="M458.388,163.172l.1,4.43,4.544.277.049-5.288Z" transform="translate(-119.65 -42.44)" fill="#ffca9f"/>
            <path id="Trazado_1032578" data-name="Trazado 1032578" d="M432.748,130.982l24.359-.33.506-5.709a5.115,5.115,0,0,0-4.749-5.556l-19.745-1.342a6.325,6.325,0,0,0-6.725,5.723l-.028.3a6.324,6.324,0,0,0,6.383,6.91" transform="translate(-111.284 -30.809)" fill="#5d74c6"/>
            <path id="Trazado_1032579" data-name="Trazado 1032579" d="M456.286,123.358l1.5,31.208,4.834.294,2.521-25.19Z" transform="translate(-119.101 -32.199)" fill="#ffca9f"/>
            <path id="Trazado_1032580" data-name="Trazado 1032580" d="M464.2,157.291c-1.3,3.882-4.339,3.7-4.339,3.7l4.1.249Z" transform="translate(-120.035 -41.057)" fill="#ffca9f"/>
            <path id="Trazado_1032581" data-name="Trazado 1032581" d="M456.624,176.927l14.5.883a2.306,2.306,0,0,0-.116-.734l0,0c-.493-1.484-2.468-2.216-4.694-3.341a5.606,5.606,0,0,1-2.858-4.141l.069-1.125a.829.829,0,0,0-.777-.879l-4.359-.265a.825.825,0,0,0-.879.873,4.225,4.225,0,0,0,.081.583h0a3.278,3.278,0,0,0,.178.6c-.809,2.051-1.144,7.549-1.144,7.549" transform="translate(-119.189 -43.674)" fill="#fff"/>
            <path id="Trazado_1032582" data-name="Trazado 1032582" d="M466.356,173.976a3.318,3.318,0,0,0-2.772,2.3" transform="translate(-121.006 -45.412)" fill="none" stroke="#383736" stroke-miterlimit="10" stroke-width="1"/>
            <path id="Trazado_1032583" data-name="Trazado 1032583" d="M468.906,175.58a3.512,3.512,0,0,0-1.567,1.993" transform="translate(-121.986 -45.83)" fill="none" stroke="#383736" stroke-miterlimit="10" stroke-width="1"/>
            <path id="Trazado_1032584" data-name="Trazado 1032584" d="M456.624,177.442l14.5.883a2.306,2.306,0,0,0-.116-.734l0,0a17.585,17.585,0,0,1-5.12.06c-3.271-.347-6.913-.062-7.88-1.312s-.5-4.408-.022-5.541c.251-.576,1.133-.7,1.948-.688a4.848,4.848,0,0,1-2.337-.814,3.278,3.278,0,0,0,.178.6c-.809,2.051-1.144,7.549-1.144,7.549" transform="translate(-119.189 -44.189)" fill="#ddd"/>
            <path id="Trazado_1032585" data-name="Trazado 1032585" d="M471.057,181.179a2.139,2.139,0,0,1-.06.978l-14.617-.891a1.871,1.871,0,0,1,.179-.97c.231-.374,14.5.883,14.5.883" transform="translate(-119.124 -47.043)" fill="#eae9e8"/>
            <path id="Trazado_1032586" data-name="Trazado 1032586" d="M445.049,165.493l.233,4.425,4.551.135-.117-5.287Z" transform="translate(-116.168 -43.008)" fill="#ffca9f"/>
            <path id="Trazado_1032587" data-name="Trazado 1032587" d="M419.59,133.27l23.075-1.049.328-5.72a5.115,5.115,0,0,0-4.919-5.406l-20.983-2.959c-3.429-.126-5.36,3.985-5.7,8.169l-.019.3c-.882,5.873,4.465,6.83,8.22,6.662" transform="translate(-107.352 -30.835)" fill="#6e80db"/>
            <path id="Trazado_1032588" data-name="Trazado 1032588" d="M441.7,125.816l2.475,31.146,4.841.144,1.737-25.258Z" transform="translate(-115.295 -32.841)" fill="#ffca9f"/>
            <path id="Trazado_1032589" data-name="Trazado 1032589" d="M412.8,118.885c-4.406,5.108-4.487,14.395,1.329,14.99s19.2-.609,19.2-.609l-.116,5.119h21.522s.684-16.687-1.966-17.461-24.013-2.873-24.013-2.873Z" transform="translate(-106.919 -30.814)" fill="#ffcf73"/>
            <path id="Trazado_1032590" data-name="Trazado 1032590" d="M450.712,159.439c-1.179,3.92-4.222,3.83-4.222,3.83l4.1.122Z" transform="translate(-116.544 -41.617)" fill="#ffca9f"/>
            <path id="Trazado_1032591" data-name="Trazado 1032591" d="M443.813,179.33l14.519.432a2.312,2.312,0,0,0-.139-.73l0,0c-.539-1.467-2.536-2.139-4.8-3.193a5.6,5.6,0,0,1-2.985-4.05l.033-1.126a.829.829,0,0,0-.8-.854l-4.364-.13a.827.827,0,0,0-.852.9,4.4,4.4,0,0,0,.1.58h0a3.274,3.274,0,0,0,.2.6c-.746,2.075-.909,7.58-.909,7.58" transform="translate(-115.845 -44.288)" fill="#fff"/>
            <path id="Trazado_1032592" data-name="Trazado 1032592" d="M453.369,176.065a3.318,3.318,0,0,0-2.7,2.388" transform="translate(-117.635 -45.957)" fill="none" stroke="#383736" stroke-miterlimit="10" stroke-width="1"/>
            <path id="Trazado_1032593" data-name="Trazado 1032593" d="M455.964,177.6a3.512,3.512,0,0,0-1.5,2.041" transform="translate(-118.624 -46.358)" fill="none" stroke="#383736" stroke-miterlimit="10" stroke-width="1"/>
            <path id="Trazado_1032594" data-name="Trazado 1032594" d="M443.813,179.853l14.519.432a2.312,2.312,0,0,0-.139-.73l0,0a17.576,17.576,0,0,1-5.117.219c-3.279-.245-6.911.153-7.917-1.066s-.641-4.39-.194-5.537c.232-.584,1.11-.735,1.925-.749a4.85,4.85,0,0,1-2.362-.741,3.274,3.274,0,0,0,.2.6c-.746,2.075-.909,7.58-.909,7.58" transform="translate(-115.845 -44.811)" fill="#ddd"/>
            <path id="Trazado_1032595" data-name="Trazado 1032595" d="M458.276,183.136a2.137,2.137,0,0,1-.029.979l-14.638-.435a1.877,1.877,0,0,1,.148-.975c.219-.381,14.519.432,14.519.432" transform="translate(-115.789 -47.663)" fill="#eae9e8"/>
            <path id="Trazado_1032596" data-name="Trazado 1032596" d="M415.428,82.183l-7.15,17.711-5.969-2.164,5.471-18.278a4.033,4.033,0,0,1,3.393-2.849h2.745Z" transform="translate(-105.012 -19.995)" fill="#79ba6e"/>
            <path id="Trazado_1032597" data-name="Trazado 1032597" d="M412.178,117.867s.882.522,7.153,1.282,14.55-.76,14.55-.76a4.621,4.621,0,0,0-2.024-2.82H414.194c-.816.228-1.514,1.349-1.836,1.938-.114.216-.18.361-.18.361" transform="translate(-107.588 -30.166)" fill="#eae9e8"/>
            <path id="Trazado_1032598" data-name="Trazado 1032598" d="M412.178,117.867s.882.522,7.153,1.282,14.55-.76,14.55-.76a4.621,4.621,0,0,0-2.024-2.82h-1.051c1.773,2.314-1.8,3.408-5.294,3.216s-8.726.372-11.032-.636a7.854,7.854,0,0,0-2.122-.643c-.114.216-.18.361-.18.361" transform="translate(-107.588 -30.166)" fill="#d6d5d4"/>
            <path id="Trazado_1032599" data-name="Trazado 1032599" d="M434.15,76.4c-2.6-2.092-9.848-3.69-9.848-3.69H422.1s-8.787,1.636-10.2,3.535l2.227,28.133h17.663Z" transform="translate(-107.513 -18.979)" fill="#79ba6e"/>
            <path id="Trazado_1032600" data-name="Trazado 1032600" d="M413.837,102.085c1.737,7.615,13.293,9.964,13.293,9.964h-12.5Z" transform="translate(-108.021 -26.646)" fill="#5d8c53"/>
            <path id="Trazado_1032601" data-name="Trazado 1032601" d="M426.865,120.735c2.31-.766,3.877-1,4.661-.2s1.019,2.837,1.489,3.461-1.771.185-1.865-.458c0,0-3.715,1.513-5.863-.505s0-2.5,0-2.5Z" transform="translate(-110.76 -31.332)" fill="#ffca9f"/>
            <path id="Trazado_1032602" data-name="Trazado 1032602" d="M402.927,114.26l16.031,5.378,1.577-2.293-19.313-10.293-.7,1.421a4.16,4.16,0,0,0,2.408,5.787" transform="translate(-104.432 -27.943)" fill="#ffca9f"/>
            <path id="Trazado_1032603" data-name="Trazado 1032603" d="M407.832,108.046l-.5,1.795-5.935-2.764.529-1.241,5.909,1.85Z" transform="translate(-104.773 -27.626)" fill="#fca781"/>
            <path id="Trazado_1032604" data-name="Trazado 1032604" d="M433.557,82.183l7.15,17.711,5.969-2.164L441.2,79.451a4.033,4.033,0,0,0-3.393-2.849h-2.8Z" transform="translate(-113.168 -19.995)" fill="#79ba6e"/>
            <path id="Trazado_1032605" data-name="Trazado 1032605" d="M440.1,98.128l.532-6.284s1.318,10.235,5.041,10.092-3.064,2.416-3.064,2.416Z" transform="translate(-114.875 -23.973)" fill="#5d8c53"/>
            <path id="Trazado_1032606" data-name="Trazado 1032606" d="M405.918,99.084c4.072.662,6.417-5.618,6.417-5.618l.5,1.591-2.505,6.483L405.918,99.5Z" transform="translate(-105.954 -24.397)" fill="#5d8c53"/>
            <path id="Trazado_1032607" data-name="Trazado 1032607" d="M419.911,73.7,425.6,81.78l4.285-8.017-4.567-.614-1.765-.3-4.07.959Z" transform="translate(-109.494 -19.016)" fill="#eae9e8"/>
            <path id="Trazado_1032608" data-name="Trazado 1032608" d="M424.053,70.083v3.511a1.953,1.953,0,1,0,3.905,0V70.083l-1.568-.523-.383-.126-.382.126Z" transform="translate(-110.687 -18.124)" fill="#ffab8a"/>
            <path id="Trazado_1032609" data-name="Trazado 1032609" d="M438.21,64.918c.847-1.253,1.283-.568,1.043.5s-1.456,2.456-1.809,1.706l.311-1.8Z" transform="translate(-114.183 -16.769)" fill="#ffab8a"/>
            <path id="Trazado_1032610" data-name="Trazado 1032610" d="M422.306,62.3c-.377-1.465-1.018-.965-1.15.12s.547,2.8,1.131,2.215l.311-1.8Z" transform="translate(-109.927 -16.023)" fill="#ffab8a"/>
            <path id="Trazado_1032611" data-name="Trazado 1032611" d="M422.31,62.8c-.253-.661-.624-.617-.658-.261s-.013,1.4.338,1.7c0,0-.352-1.285-.1-1.521s.42.085.42.085" transform="translate(-110.058 -16.257)" fill="#f99273"/>
            <path id="Trazado_1032612" data-name="Trazado 1032612" d="M422.576,60.868c-.218,3.88.1,8.033,4.946,8.773,4.126.63,5.718-3.007,6.819-6.734,1.562-5.543-3.212-7.311-4.69-7.716-.078-.021-.145-.038-.2-.052l-.024,0-.209-.019c-1.531-.115-6.249.006-6.638,5.752" transform="translate(-110.289 -14.381)" fill="#ffca9f"/>
            <path id="Trazado_1032613" data-name="Trazado 1032613" d="M434.357,65.241c-.08.46.024.863.233.9s.441-.308.521-.769-.024-.863-.233-.9-.441.308-.521.769" transform="translate(-113.37 -16.828)" fill="#5c301d"/>
            <path id="Trazado_1032614" data-name="Trazado 1032614" d="M428.011,64.142c-.08.461.024.864.233.9s.441-.308.521-.769-.024-.863-.233-.9-.441.308-.521.769" transform="translate(-111.713 -16.541)" fill="#5c301d"/>
            <path id="Trazado_1032615" data-name="Trazado 1032615" d="M431.419,68.693l.388.12a.273.273,0,0,0,.353-.253l.061-2.205Z" transform="translate(-112.61 -17.32)" fill="#ffab8a"/>
            <path id="Trazado_1032616" data-name="Trazado 1032616" d="M431.564,71.131l-2.738-.488a1.613,1.613,0,0,0,1.355,1.122,1.181,1.181,0,0,0,1.383-.634" transform="translate(-111.933 -18.439)" fill="#fff"/>
            <path id="Trazado_1032617" data-name="Trazado 1032617" d="M434.448,61.2l-.771,2.024.216-3.2-.474-1.512-1.141-1.442s-3.566,1.332-5.921.6a4.422,4.422,0,0,0,1.663-1.336,13.09,13.09,0,0,1-4.213,1.414s-1.629,1.694-1.584,2.945a2.715,2.715,0,0,1-1.069-2.589,12.279,12.279,0,0,1,2.271-4.351,15.093,15.093,0,0,1,3.778-.97c.428.074,4.052,1.621,4.052,1.621s2.538,1.63,2.879,1.852.681,2.066.771,2.3a18.866,18.866,0,0,1-.459,2.651" transform="translate(-109.921 -13.774)" fill="#f05823"/>
            <path id="Trazado_1032618" data-name="Trazado 1032618" d="M450.307,109.935l.768,2.949-1.279,4.692-4.375-.919.65-3.852-1.45-2.508Z" transform="translate(-116.056 -28.696)" fill="#ffca9f"/>
            <path id="Trazado_1032619" data-name="Trazado 1032619" d="M449.7,103.891l.67,4.187-6.866,2.5-1.585-4.084Z" transform="translate(-115.351 -27.118)" fill="#eae9e8"/>
            <path id="Trazado_1032620" data-name="Trazado 1032620" d="M410,102.767l-7.744-3.182-.147,4.619,6.706,2.414Z" transform="translate(-104.96 -25.994)" fill="#eae9e8"/>
            <path id="Trazado_1032621" data-name="Trazado 1032621" d="M438.56,65.451c.46-.537.794-.372.707-.024s-.458,1.322-.888,1.485c0,0,.763-1.092.6-1.4s-.423-.061-.423-.061" transform="translate(-114.427 -16.994)" fill="#f99273"/>
            <path id="Trazado_1032622" data-name="Trazado 1032622" d="M456.635,118.544H431.47a1.48,1.48,0,0,1-1.451-1.774l2.272-11.193a1.48,1.48,0,0,1,1.451-1.185h25.165a1.48,1.48,0,0,1,1.45,1.774l-2.272,11.193a1.48,1.48,0,0,1-1.45,1.185" transform="translate(-112.237 -27.249)" fill="#e3f5fc"/>
            <path id="Trazado_1032623" data-name="Trazado 1032623" d="M457.927,118.544H432.761a1.48,1.48,0,0,1-1.45-1.774l2.272-11.193a1.48,1.48,0,0,1,1.451-1.185H460.2a1.48,1.48,0,0,1,1.45,1.774l-2.272,11.193a1.48,1.48,0,0,1-1.45,1.185" transform="translate(-112.574 -27.249)" fill="#f8fdff"/>
            <path id="Trazado_1032624" data-name="Trazado 1032624" d="M452.882,125.907H427.06a1.182,1.182,0,1,1,0-2.363h25.822a1.182,1.182,0,1,1,0,2.363" transform="translate(-111.164 -32.248)" fill="#e3f5fc"/>
            <path id="Trazado_1032625" data-name="Trazado 1032625" d="M457.838,125.907H432.016a1.182,1.182,0,1,1,0-2.363h25.822a1.182,1.182,0,1,1,0,2.363" transform="translate(-112.457 -32.248)" fill="#f8fdff"/>
            <path id="Trazado_1032626" data-name="Trazado 1032626" d="M453.764,113.687a1.6,1.6,0,1,1-1.6-1.6,1.6,1.6,0,0,1,1.6,1.6" transform="translate(-117.606 -29.256)" fill="#e3f5fc"/>
            <path id="Trazado_1032627" data-name="Trazado 1032627" d="M102.6,277.212l.369,4.472h4.61l-.277-5.348Z" transform="translate(-26.78 -72.13)" fill="#ffca9f"/>
            <path id="Trazado_1032628" data-name="Trazado 1032628" d="M58.181,217.951a6.081,6.081,0,0,0-.134,3.171c.454,1.321.159,2.536.763,4.241-.248.644-1.307-.154-1.554-1.417s-.251-.94-.251-.94-1.094,3.119-1.44,4.366-1.267.715-1.005-.231c.275-.992.606-3.162.606-3.162s-1.543,4.5-2.164,4.324c-.712-.2-.167-1.612.729-4.8,0,0-1.207,3.506-1.862,3.214-.763-.341.914-4.369.914-4.369s-.914,2.766-1.669,2.518c-.562-.185.85-2.525,2.039-4.657s1.785-1.594,2.119-3.068Z" transform="translate(-13.308 -56.679)" fill="#ffca9f"/>
            <path id="Trazado_1032629" data-name="Trazado 1032629" d="M63.137,181.537l-1,1.222a5.833,5.833,0,0,0-1.191,2.485L56.785,207.85l2.952,1.236,9.4-24.974Z" transform="translate(-14.822 -47.385)" fill="#79ba6e"/>
            <path id="Trazado_1032630" data-name="Trazado 1032630" d="M79,156.775,71.21,176.062l-6.5-2.357,5.958-19.9a4.394,4.394,0,0,1,3.7-3.1h2.99Z" transform="translate(-16.891 -39.336)" fill="#79ba6e"/>
            <rect id="Rectángulo_459303" data-name="Rectángulo 459303" width="14.426" height="16.152" transform="translate(62.666 142.718)" fill="#464461"/>
            <path id="Trazado_1032631" data-name="Trazado 1032631" d="M93.44,194.425l3.376,31.612h9.905l.4-31.612Z" transform="translate(-24.39 -50.749)" fill="#464461"/>
            <path id="Trazado_1032632" data-name="Trazado 1032632" d="M96.806,200.693v8.5l-1.458,1.164v-9.994Z" transform="translate(-24.888 -52.3)" fill="#2f2f47"/>
            <path id="Trazado_1032633" data-name="Trazado 1032633" d="M80.091,194.425l.5,31.612h9.9l.4-31.612Z" transform="translate(-20.906 -50.749)" fill="#464461"/>
            <path id="Trazado_1032634" data-name="Trazado 1032634" d="M110.925,152.852l16.219,8.187-.913,6.583-19.92-7.822a4.118,4.118,0,0,1-2.609-3.695l.847-2.224,3.147-1.2a4,4,0,0,1,3.229.168" transform="translate(-27.069 -39.786)" fill="#79ba6e"/>
            <path id="Trazado_1032635" data-name="Trazado 1032635" d="M101.87,150.777c-1.379-1.793-11.141-4.289-11.141-4.289H88.536s-10.4,1.216-12.4,3.744l2.038,39.615,26.53-.315Z" transform="translate(-19.874 -38.237)" fill="#79ba6e"/>
            <path id="Trazado_1032636" data-name="Trazado 1032636" d="M78.055,188.81c.014.039.028.078.043.117,2.147,5.669,12.688,8.247,16.9,8.633,4.243.389-4.078,1.721-4.078,1.721H78.594" transform="translate(-20.374 -49.284)" fill="#5d9352"/>
            <path id="Trazado_1032637" data-name="Trazado 1032637" d="M97,148.006c-1.44,4.4-6.355,5.262-8.921-.188a1.325,1.325,0,0,1,.928-1.873,14.424,14.424,0,0,1,7.141.39,1.321,1.321,0,0,1,.851,1.67" transform="translate(-22.958 -38.023)" fill="#add3a5"/>
            <path id="Trazado_1032638" data-name="Trazado 1032638" d="M98.009,237.2l3.441,31.449h4.9l1.559-31.449Z" transform="translate(-25.583 -61.915)" fill="#464461"/>
            <path id="Trazado_1032639" data-name="Trazado 1032639" d="M54.611,268.649l-2.582,3.67,3.539,2.954,3.215-4.282Z" transform="translate(-13.581 -70.123)" fill="#ffca9f"/>
            <path id="Trazado_1032640" data-name="Trazado 1032640" d="M74.719,235.682,54.141,261.347l3.765,3.142,23.964-21.3a4.832,4.832,0,0,0,1.607-3.234l.246-3.149Z" transform="translate(-14.132 -61.518)" fill="#464461"/>
            <path id="Trazado_1032641" data-name="Trazado 1032641" d="M96.265,121.176l-.93.172a11.46,11.46,0,0,0-3.387-2.325c-1.641-.582-6.6.516-6.555.507s-3.843,3.843-3.843,3.843-.623,5.021-.163,6.744a9.947,9.947,0,0,0,.43,1.241,12.942,12.942,0,0,0,6.217,6.538c.827.413,2.088.758,2.1.608.029-.415,3.5-12,3.5-12l5.109,3.091Z" transform="translate(-21.2 -31.023)" fill="#d38d4f"/>
            <path id="Trazado_1032642" data-name="Trazado 1032642" d="M91.522,142.779V146.6a2.126,2.126,0,0,0,4.253,0v-3.823l-1.708-.569-.417-.137-.416.137Z" transform="translate(-23.889 -37.084)" fill="#ffab8a"/>
            <path id="Trazado_1032643" data-name="Trazado 1032643" d="M103.606,132.714c.391-1.6,1.1-1.065,1.253.116s-.558,3.058-1.2,2.426l-.363-1.955Z" transform="translate(-26.962 -34.381)" fill="#ffab8a"/>
            <path id="Trazado_1032644" data-name="Trazado 1032644" d="M86.083,134.22c1.508,3.957,5.2,7.089,8.679,6.444.077-.014.161-.015.24-.03s.154-.054.229-.086c4.487-1.772,5.194-5.533,4.693-9.738-.824-6.222-6.69-5.817-8.443-5.55l-.24.041-.028.007c-.064.021-.143.046-.231.076-1.679.579-7.061,2.945-4.9,8.837" transform="translate(-22.338 -32.663)" fill="#ffca9f"/>
            <path id="Trazado_1032645" data-name="Trazado 1032645" d="M101.233,134.345c.093.5.352.873.578.831s.334-.482.241-.983-.352-.873-.577-.831-.335.482-.242.983" transform="translate(-26.415 -34.81)" fill="#5c301d"/>
            <path id="Trazado_1032646" data-name="Trazado 1032646" d="M95.094,135.484c.093.5.352.873.578.831s.334-.482.241-.983-.352-.873-.578-.831-.334.482-.241.983" transform="translate(-24.813 -35.107)" fill="#5c301d"/>
            <path id="Trazado_1032647" data-name="Trazado 1032647" d="M99.211,139.043l.442-.024a.3.3,0,0,0,.265-.392l-.771-2.275Z" transform="translate(-25.879 -35.591)" fill="#ffab8a"/>
            <path id="Trazado_1032648" data-name="Trazado 1032648" d="M98.725,141.629l-2.98.537a1.755,1.755,0,0,0,1.808.633c1.185-.267,1.172-1.17,1.172-1.17" transform="translate(-24.992 -36.968)" fill="#fff"/>
            <path id="Trazado_1032649" data-name="Trazado 1032649" d="M85.9,132.836l1.046,1.179-.575,1.341,1.806,4.158s-4.091-4.453-4.184-4.952-.392-4.3-.392-4.3l2.352-.436.525,1.663Z" transform="translate(-21.823 -33.888)" fill="#d38d4f"/>
            <path id="Trazado_1032650" data-name="Trazado 1032650" d="M88.157,135.506c-1.227-1.77-2-.732-1.643.784s2.116,3.472,2.606,2.4l-.474-2.556Z" transform="translate(-22.559 -35.127)" fill="#ffca9f"/>
            <path id="Trazado_1032651" data-name="Trazado 1032651" d="M77.23,171.452l-.531-6.2-1.743,11.955Z" transform="translate(-19.565 -43.135)" fill="#5d9352"/>
            <path id="Trazado_1032652" data-name="Trazado 1032652" d="M58.177,264.3c-1.74,3.763.627,5.738.627,5.738l-3.192-2.665Z" transform="translate(-14.516 -68.988)" fill="#2f2f47"/>
            <path id="Trazado_1032653" data-name="Trazado 1032653" d="M108.5,271.9c-.16,3.219-3.421,4-3.421,4H108.3Z" transform="translate(-27.429 -70.973)" fill="#2f2f47"/>
            <path id="Trazado_1032654" data-name="Trazado 1032654" d="M108.292,277.319h-7.127l.666,2.674h5.928Z" transform="translate(-26.406 -72.387)" fill="#b4c4fc"/>
            <path id="Trazado_1032655" data-name="Trazado 1032655" d="M60.056,272.522l-5.471-4.567-1.2,2.48,4.551,3.8Z" transform="translate(-13.934 -69.942)" fill="#b4c4fc"/>
            <path id="Trazado_1032656" data-name="Trazado 1032656" d="M101.817,292.271h14.708a2.324,2.324,0,0,0-.163-.735l0,0c-.59-1.469-2.631-2.088-4.95-3.087a5.676,5.676,0,0,1-3.144-4.01v-1.141a.84.84,0,0,0-.84-.84H103a.836.836,0,0,0-.835.936,4.329,4.329,0,0,0,.118.584h0a3.278,3.278,0,0,0,.217.6c-.692,2.123-.692,7.7-.692,7.7" transform="translate(-26.577 -73.727)" fill="#5f7e93"/>
            <path id="Trazado_1032657" data-name="Trazado 1032657" d="M111.314,288.666a3.359,3.359,0,0,0-2.66,2.5" transform="translate(-28.361 -75.348)" fill="none" stroke="#fff" stroke-miterlimit="10" stroke-width="1"/>
            <path id="Trazado_1032658" data-name="Trazado 1032658" d="M113.983,290.157a3.556,3.556,0,0,0-1.462,2.111" transform="translate(-29.371 -75.738)" fill="none" stroke="#fff" stroke-miterlimit="10" stroke-width="1"/>
            <path id="Trazado_1032659" data-name="Trazado 1032659" d="M101.817,292.808h14.708a2.324,2.324,0,0,0-.163-.735l0,0a17.806,17.806,0,0,1-5.172.376c-3.326-.15-6.991.363-8.045-.842s-.782-4.424-.364-5.6c.218-.6,1.1-.777,1.927-.816a4.905,4.905,0,0,1-2.413-.679,3.277,3.277,0,0,0,.217.6c-.692,2.123-.692,7.7-.692,7.7" transform="translate(-26.577 -74.264)" fill="#426070"/>
            <path id="Trazado_1032660" data-name="Trazado 1032660" d="M116.477,295.677a2.17,2.17,0,0,1,0,.992H101.648a1.894,1.894,0,0,1,.12-.992c.211-.392,14.708,0,14.708,0" transform="translate(-26.527 -77.133)" fill="#eae9e8"/>
            <path id="Trazado_1032661" data-name="Trazado 1032661" d="M43.013,279.473,54.3,288.9a2.318,2.318,0,0,0,.346-.668v-.006c.488-1.505-.682-3.288-1.822-5.542a5.676,5.676,0,0,1,.156-5.093l.732-.876a.841.841,0,0,0-.106-1.184L50.215,272.7a.836.836,0,0,0-1.241.184,4.357,4.357,0,0,0-.284.524l0,0a3.305,3.305,0,0,0-.217.6c-1.891,1.187-5.465,5.468-5.465,5.468" transform="translate(-11.227 -71.128)" fill="#5f7e93"/>
            <path id="Trazado_1032662" data-name="Trazado 1032662" d="M54.27,283.031a3.36,3.36,0,0,0-3.642.214" transform="translate(-13.215 -73.758)" fill="none" stroke="#fff" stroke-miterlimit="10" stroke-width="1"/>
            <path id="Trazado_1032663" data-name="Trazado 1032663" d="M55.452,285.774a3.559,3.559,0,0,0-2.475.684" transform="translate(-13.828 -74.592)" fill="none" stroke="#fff" stroke-miterlimit="10" stroke-width="1"/>
            <path id="Trazado_1032664" data-name="Trazado 1032664" d="M43.013,279.793,54.3,289.217a2.318,2.318,0,0,0,.346-.668v-.006a17.792,17.792,0,0,1-4.211-3.025c-2.459-2.246-5.6-4.2-5.638-5.8s2.235-3.9,3.308-4.531c.551-.319,1.344.109,2,.608a4.906,4.906,0,0,1-1.417-2.067,3.3,3.3,0,0,0-.217.6c-1.891,1.187-5.465,5.468-5.465,5.468" transform="translate(-11.227 -71.449)" fill="#426070"/>
            <path id="Trazado_1032665" data-name="Trazado 1032665" d="M54.047,291.359a2.163,2.163,0,0,1-.636.761l-11.385-9.5a1.9,1.9,0,0,1,.729-.684c.413-.167,11.292,9.424,11.292,9.424" transform="translate(-10.97 -73.591)" fill="#eae9e8"/>
            <path id="Trazado_1032666" data-name="Trazado 1032666" d="M88.505,136.558c-.56-.814-1.017-.48-1.134-.2a3.119,3.119,0,0,0,1.392,2.125s-1.031-.956-.91-1.716.625-.086.625-.086Z" transform="translate(-22.803 -35.511)" fill="#f99273"/>
            <path id="Trazado_1032667" data-name="Trazado 1032667" d="M99.344,127.757c.882-4.549-.533-7.964-3.064-9.947s-4.646-1.181-4.646-1.181-2.289.834-2.367,1.767-.294,1.022-.294,1.022-4.8,3.3-4.837,4.868,7.617-.732,7.617-.732l3.946-.075,2.466,2.207Z" transform="translate(-21.962 -30.401)" fill="#d38d4f"/>
            <path id="Trazado_1032668" data-name="Trazado 1032668" d="M97.945,126.8c-2.069-1.329-4.472-.548-5.91.086A19.456,19.456,0,0,0,89.09,128.6s-.251-1.118.508-1.564c0,0-2.274,1.975-1.968,3.986s.515,2.776.515,2.776-.919-1.6-2.026-1.935-1.7-1.527-1.491-2.034,1.6-4.014,1.6-4.014,2.493-1.366,3.031-1.533a27.684,27.684,0,0,1,4.8-.521,17.759,17.759,0,0,1,2.606.755l1.408,1.045Z" transform="translate(-22.08 -32.302)" fill="#d38d4f"/>
            <path id="Trazado_1032669" data-name="Trazado 1032669" d="M77.612,203.012a1.966,1.966,0,0,1,1.905-1.964c7.7-.247,24.342-.785,26.025-.225,1.839.613.46,5.917.46,5.917s-21.546,1.7-25.158,1.021c-2.951-.552-3.229-2.144-3.232-4.749" transform="translate(-20.258 -52.355)" fill="#a5d39b"/>
            <path id="Trazado_1032670" data-name="Trazado 1032670" d="M140.885,136.865a5.576,5.576,0,0,0-.152-2.909c-.529-1.167-.364-2.3-1.063-3.809.171-.61,1.207.029,1.542,1.16s.312.837.312.837.729-2.944.938-4.114,1.1-.761.938.125c-.166.93-.28,2.941-.28,2.941s1.021-4.241,1.6-4.137c.667.118.292,1.458-.251,4.446,0,0,.8-3.308,1.423-3.1.726.245-.457,4.07-.457,4.07s.6-2.606,1.307-2.444c.53.12-.558,2.38-1.459,4.431s-1.493,1.61-1.671,2.986Z" transform="translate(-36.457 -33.139)" fill="#ffca9f"/>
            <path id="Trazado_1032671" data-name="Trazado 1032671" d="M142.484,134.35c1.162.621,1.189,2.461,1.189,2.461s.916-1.463,1.822-1.421a1.305,1.305,0,0,0-1.513.352,1.422,1.422,0,0,0-1.5-1.391" transform="translate(-37.192 -35.068)" fill="#ffb185"/>
            <path id="Trazado_1032672" data-name="Trazado 1032672" d="M131.793,163.55l1.448.5a4.3,4.3,0,0,0,5.652-3.4l2.714-20.96-2.424-1.055L132.927,157Z" transform="translate(-34.401 -36.187)" fill="#79ba6e"/>
            <path id="Trazado_1032673" data-name="Trazado 1032673" d="M56,213.889l4.739,1.423s-.249,2.274-1.183,2.586-4.3-1.184-4.3-1.184A3.707,3.707,0,0,1,56,213.889" transform="translate(-14.415 -55.83)" fill="#a5d39b"/>
            <path id="Trazado_1032674" data-name="Trazado 1032674" d="M140.554,138.636a6.034,6.034,0,0,1,3.489,1l-.42,2.428s-3.611-.568-3.994-1.219.28-2.213.925-2.213" transform="translate(-36.417 -36.187)" fill="#a5d39b"/>
            <path id="Trazado_1032675" data-name="Trazado 1032675" d="M509.881,68.226h25.96s-1.519-9.033-10.19-6.142c0,0-1.712-12.237-12.238-12.237s-7.651,12.6-7.651,12.6-8.1-9.347-12.715-3.41,3.328,9.191,3.328,9.191Z" transform="translate(-128.32 -13.011)" fill="#6cb9ff"/>
            <path id="Trazado_1032676" data-name="Trazado 1032676" d="M128.014,47.612h25.96s-1.519-9.033-10.19-6.142c0,0-1.712-12.238-12.238-12.238s-7.651,12.6-7.651,12.6-8.1-9.347-12.715-3.409,3.328,9.19,3.328,9.19Z" transform="translate(-28.644 -7.63)" fill="#6cb9ff"/>
            <path id="Trazado_1032677" data-name="Trazado 1032677" d="M318.782,18.381h25.96s-1.519-9.033-10.19-6.142c0,0-1.712-12.238-12.238-12.238s-7.651,12.6-7.651,12.6-8.1-9.347-12.715-3.409,3.328,9.19,3.328,9.19Z" transform="translate(-78.439)" fill="#6cb9ff"/>
          </g>
        </g>
      </g>
    </g>
  </g>
</svg>
