<svg xmlns="http://www.w3.org/2000/svg" width="188.37" height="123.679" viewBox="0 0 188.37 123.679">
  <g id="Grupo_1184738" data-name="Grupo 1184738" transform="translate(-288.63 -853)">
    <path id="Trazado_1033166" data-name="Trazado 1033166" d="M0,0H188.37V123.679H0Z" transform="translate(288.63 853)" fill="#ffe79e"/>
    <g id="Grupo_1187280" data-name="Grupo 1187280" transform="translate(318.63 870)">
      <path id="Trazado_1033167" data-name="Trazado 1033167" d="M52.814,0c29.168,0,52.814,4.1,52.814,9.162s-23.646,9.162-52.814,9.162S0,14.221,0,9.162,23.646,0,52.814,0Z" transform="translate(7.545 81.044)" fill="#dfc681"/>
      <g id="pruebas" transform="translate(0 0)">
        <path id="Trazado_1030476" data-name="Trazado 1030476" d="M266.3,375.658h16.927v6.64H266.3Z" transform="translate(-207.221 -305.903)" fill="#445ea0" fill-rule="evenodd"/>
        <path id="Trazado_1030477" data-name="Trazado 1030477" d="M266.3,375.658H271.4v6.64H266.3Z" transform="translate(-207.221 -305.903)" fill="#2e4c89" fill-rule="evenodd"/>
        <path id="Trazado_1030478" data-name="Trazado 1030478" d="M101.22,61.242h83.494a4.31,4.31,0,0,1,4.3,4.3V126.7a4.309,4.309,0,0,1-4.3,4.293H101.22a4.307,4.307,0,0,1-4.293-4.293V65.542a4.309,4.309,0,0,1,4.293-4.3Z" transform="translate(-75.423 -61.242)" fill="#445ea0" fill-rule="evenodd"/>
        <path id="Trazado_1030479" data-name="Trazado 1030479" d="M124.408,88.753h79.887v57.555H124.408Z" transform="translate(-96.807 -82.65)" fill="#e9e9ff" fill-rule="evenodd"/>
        <path id="Trazado_1030480" data-name="Trazado 1030480" d="M249.33,415.609V410.6a5.027,5.027,0,0,0-5.011-5.011H210.376a5.028,5.028,0,0,0-5.011,5.011v5.011Z" transform="translate(-159.803 -329.193)" fill="#293d7c" fill-rule="evenodd"/>
        <path id="Trazado_1030481" data-name="Trazado 1030481" d="M274.922,112.5h18.22a1.6,1.6,0,0,1,1.6,1.6v18.22a1.6,1.6,0,0,1-1.6,1.6h-18.22a1.6,1.6,0,0,1-1.6-1.6V114.1A1.592,1.592,0,0,1,274.922,112.5Z" transform="translate(-212.686 -101.131)" fill="#43cb8e"/>
        <path id="Trazado_1030482" data-name="Trazado 1030482" d="M274.922,227.878h18.22a1.6,1.6,0,0,1,1.6,1.6V247.7a1.6,1.6,0,0,1-1.6,1.6h-18.22a1.6,1.6,0,0,1-1.6-1.6V229.475A1.6,1.6,0,0,1,274.922,227.878Z" transform="translate(-212.686 -190.909)" fill="#ed524e"/>
        <path id="Trazado_1030483" data-name="Trazado 1030483" d="M385.639,119.6h17.566V122.8H385.639Zm0-7.1V115.7h17.566V112.5Zm0,35.89h17.566V145.2H385.639Zm0-7.1h17.566V138.1H385.639Z" transform="translate(-300.082 -101.13)" fill="#cfcfff"/>
        <g id="Grupo_1184736" data-name="Grupo 1184736" transform="translate(64.698 16.185)">
          <path id="Trazado_1030484" data-name="Trazado 1030484" d="M296.22,145.327h-.061a1.6,1.6,0,0,1-1.211-.629l-3.327-4.375,2.543-1.934,2.15,2.828,6.229-7.021,2.389,2.12-7.519,8.475A1.6,1.6,0,0,1,296.22,145.327Z" transform="translate(-291.622 -134.196)" fill="#e9e9ff"/>
        </g>
        <path id="Trazado_1030485" data-name="Trazado 1030485" d="M308.173,254.316l-2.257-2.259-3.092,3.088-3.092-3.088-2.257,2.259,3.089,3.086-3.089,3.086,2.257,2.259,3.092-3.088,3.092,3.088,2.257-2.259-3.089-3.086Z" transform="translate(-231.478 -209.723)" fill="#e9e9ff"/>
        <g id="Grupo_1184737" data-name="Grupo 1184737" transform="translate(0 0.42)">
          <path id="Trazado_1030486" data-name="Trazado 1030486" d="M215.109,405.587h-4.733a5.028,5.028,0,0,0-5.011,5.011v5.011H210.1V410.6A5.022,5.022,0,0,1,215.109,405.587Z" transform="translate(-159.803 -329.612)" fill="#1a2b63" fill-rule="evenodd"/>
          <path id="Trazado_1030487" data-name="Trazado 1030487" d="M276,132.32V114.1a1.6,1.6,0,0,1,1.6-1.6h-2.677a1.592,1.592,0,0,0-1.6,1.6v18.22a1.6,1.6,0,0,0,1.6,1.6H277.6A1.6,1.6,0,0,1,276,132.32Z" transform="translate(-212.686 -101.552)" fill="#00ba66" fill-rule="evenodd"/>
          <path id="Trazado_1030488" data-name="Trazado 1030488" d="M274.922,227.878a1.6,1.6,0,0,0-1.6,1.6V247.7a1.6,1.6,0,0,0,1.6,1.6H277.6a1.6,1.6,0,0,1-1.6-1.6V229.475a1.6,1.6,0,0,1,1.6-1.6Z" transform="translate(-212.686 -191.329)" fill="#c0433f" fill-rule="evenodd"/>
          <path id="Trazado_1030489" data-name="Trazado 1030489" d="M188.645,129.912a4.316,4.316,0,0,1-3.931,2.56H101.22a4.307,4.307,0,0,1-4.293-4.293V67.016a4.308,4.308,0,0,1,2.444-3.879A4.32,4.32,0,0,0,99,64.876v61.156a4.314,4.314,0,0,0,4.3,4.3H186.8A4.242,4.242,0,0,0,188.645,129.912Z" transform="translate(-75.423 -63.137)" fill="#2e4c89" fill-rule="evenodd"/>
          <path id="Trazado_1030490" data-name="Trazado 1030490" d="M28.939,115.063a19.512,19.512,0,0,1,6.142,2.547l3.453-3.453a24.81,24.81,0,0,1,6.2,6.207l-3.446,3.446a19.789,19.789,0,0,1,2.547,6.149H48.71a24.553,24.553,0,0,1,0,8.767H43.835a19.788,19.788,0,0,1-2.547,6.149l3.446,3.446a24.81,24.81,0,0,1-6.2,6.207l-3.453-3.453a19.512,19.512,0,0,1-6.142,2.547V158.5a25.006,25.006,0,0,1-8.774,0v-4.881a19.512,19.512,0,0,1-6.142-2.547l-3.453,3.453a24.807,24.807,0,0,1-6.2-6.207l3.446-3.446a19.788,19.788,0,0,1-2.547-6.149H.394a24.551,24.551,0,0,1,0-8.767H5.269a19.789,19.789,0,0,1,2.547-6.149l-3.446-3.446a24.806,24.806,0,0,1,6.2-6.207l3.453,3.453a19.512,19.512,0,0,1,6.142-2.547v-4.881a24.992,24.992,0,0,1,8.774,0v4.881Z" transform="translate(0 -99.443)" fill="#0cb4fb" fill-rule="evenodd"/>
          <path id="Trazado_1030491" data-name="Trazado 1030491" d="M63.077,159.306A13.564,13.564,0,1,1,49.513,172.87,13.567,13.567,0,0,1,63.077,159.306Z" transform="translate(-38.528 -137.97)" fill="#e9e9ff" fill-rule="evenodd"/>
        </g>
        <path id="Trazado_1030492" data-name="Trazado 1030492" d="M68.3,196.76l-2.259,2.258-4.931-4.931a1.6,1.6,0,0,1,0-2.259l4.932-4.923,2.256,2.26-3.8,3.794Zm14.071-4.944-4.931-4.931-2.259,2.258,3.8,3.8-3.8,3.794L77.44,199l4.932-4.923a1.6,1.6,0,0,0,0-2.259Zm-10.186-6.7-3.974,14.852,3.085.826,3.974-14.852Z" transform="translate(-47.19 -157.631)" fill="#293d7c"/>
        <path id="Trazado_1030493" data-name="Trazado 1030493" d="M63.077,159.306c.349,0,.692.013,1.028.032a13.572,13.572,0,0,0,0,27.064c-.336.019-.679.032-1.028.032a13.565,13.565,0,0,1,0-27.129Z" transform="translate(-38.528 -137.55)" fill="#cfcfff" fill-rule="evenodd"/>
      </g>
    </g>
  </g>
</svg>
