<svg xmlns="http://www.w3.org/2000/svg" xmlns:xlink="http://www.w3.org/1999/xlink" width="98" height="98" viewBox="0 0 98 98">
  <defs>
    <clipPath id="clip-path">
      <rect id="Rectángulo_454829" data-name="Rectángulo 454829" width="98" height="98" fill="#1e535a"/>
    </clipPath>
  </defs>
  <g id="Grupo_1184656" data-name="Grupo 1184656" transform="translate(-186 -4323.629)">
    <g id="Grupo_1177591" data-name="Grupo 1177591" transform="translate(186 4323.629)">
      <g id="Grupo_1177589" data-name="Grupo 1177589" transform="translate(0 0)">
        <g id="Grupo_1177587" data-name="Grupo 1177587" clip-path="url(#clip-path)">
          <path id="Trazado_997422" data-name="Trazado 997422" d="M93.682,43.23A44.9,44.9,0,0,0,83.539,19.863a5.164,5.164,0,0,0-7.266-6.957A44.838,44.838,0,0,0,53.059,3.836a5.165,5.165,0,0,0-10.032.2,44.9,44.9,0,0,0-22.274,9.522,5.167,5.167,0,0,0-7.171,7.22,44.862,44.862,0,0,0-9.4,22.4A5.169,5.169,0,0,0,4.06,53.308a44.849,44.849,0,0,0,9.1,22.859,5.166,5.166,0,0,0,7.019,7.295,44.9,44.9,0,0,0,22.8,9.973,5.167,5.167,0,0,0,10.122.2A44.858,44.858,0,0,0,76.492,84.4a5.165,5.165,0,0,0,7.23-6.993A44.915,44.915,0,0,0,93.8,53.259a5.167,5.167,0,0,0-.121-10.03M79.093,22.408a5.137,5.137,0,0,0,2.861-.866,42.642,42.642,0,0,1,9.411,21.675,5.174,5.174,0,0,0-3.3,2.392L74.858,40.657c.01-.144.021-.291.021-.441a5.167,5.167,0,0,0-2.188-4.222l5.777-13.628a5.6,5.6,0,0,0,.626.041M76.3,21.585l-5.74,13.538a5.114,5.114,0,0,0-5.691,3.287l-23.89-5.5a5.027,5.027,0,0,0-.108-1.028l33.9-11.806A5.183,5.183,0,0,0,76.3,21.585M48.068,10.342a5.171,5.171,0,0,0,5.075-4.194A42.572,42.572,0,0,1,74.67,14.566a5.142,5.142,0,0,0-.748,2.67,5.429,5.429,0,0,0,.049.683L39.9,29.782a5.186,5.186,0,0,0-.936-.936L47.9,10.334c.057,0,.111.008.168.008m-5.029-3.99a5.172,5.172,0,0,0,2.6,3.384L36.879,27.88a5.185,5.185,0,0,0-1.067-.111,5.133,5.133,0,0,0-2.946.925L22.48,20.021a5.14,5.14,0,0,0-.175-4.758A42.606,42.606,0,0,1,43.039,6.351M10.215,47.138l21.48-11.079a5.152,5.152,0,0,0,4.075,2.049l7.362,23.531a5.256,5.256,0,0,0-1.139,1.26L10.151,49.633a5.136,5.136,0,0,0,.191-1.371,5.2,5.2,0,0,0-.126-1.124m5.073-24.815a5.167,5.167,0,0,0,5.771-.492l10.254,8.563a5.156,5.156,0,0,0-.57,3.573L9.228,45.06a5.169,5.169,0,0,0-2.737-1.794,42.587,42.587,0,0,1,8.8-20.943m2.139,51.6a5.155,5.155,0,0,0-2.567.686A42.549,42.549,0,0,1,6.372,53.285a5.175,5.175,0,0,0,2.683-1.619l32.159,13.4a5.543,5.543,0,0,0-.041.621,5.169,5.169,0,0,0,.309,1.748L22.034,76.752a5.17,5.17,0,0,0-4.606-2.83M43.086,91.133A42.648,42.648,0,0,1,21.81,81.825a5.117,5.117,0,0,0,.789-2.732l0-.059,20.137-9.651a5.17,5.17,0,0,0,1.825,1.152l1.206,17.34a5.171,5.171,0,0,0-2.678,3.258m2.142-30.491-7.2-23.034a5.178,5.178,0,0,0,2.457-2.457L64.563,40.7a5.14,5.14,0,0,0,.822,2.351L48.867,61.175a5.107,5.107,0,0,0-3.64-.534M53.1,91.334a5.169,5.169,0,0,0-5.034-4.006l-.039,0-1.147-16.5a5.162,5.162,0,0,0,3.16-1.534l24.078,10.62c0,.046-.008.088-.008.134a5.145,5.145,0,0,0,.766,2.7A42.569,42.569,0,0,1,53.1,91.334M74.7,77.662,51.249,67.315a5.14,5.14,0,0,0-.678-4.6L67.04,44.64a5.14,5.14,0,0,0,2.668.748,5.691,5.691,0,0,0,.634-.041L76.5,75.7a5.159,5.159,0,0,0-1.8,1.962m7.419-1.933a5.139,5.139,0,0,0-3.436-.812L72.525,44.55a5.191,5.191,0,0,0,1.629-1.7l13.2,4.949a4.584,4.584,0,0,0-.023.464,5.169,5.169,0,0,0,4.155,5.068,42.6,42.6,0,0,1-9.365,22.4" transform="translate(0 0.331)" fill="#1e535a"/>
        </g>
      </g>
    </g>
    <g id="Trazado_1030180" data-name="Trazado 1030180" transform="translate(201.16 4339.102)" fill="#1e535a">
      <path d="M 33.68505859375 65.87094116210938 C 29.33944892883301 65.87094116210938 25.12461853027344 65.02017211914062 21.15764808654785 63.34226226806641 C 17.32525825500488 61.72127914428711 13.88309860229492 59.4003791809082 10.92678833007812 56.44404220581055 C 7.970488548278809 53.48770141601562 5.649618625640869 50.04550170898438 4.028648376464844 46.21305084228516 C 2.35075855255127 42.24602890014648 1.499998569488525 38.0311393737793 1.499998569488525 33.68547058105469 C 1.499998569488525 29.33979988098145 2.35075855255127 25.12491035461426 4.028648376464844 21.15789031982422 C 5.649618625640869 17.32544136047363 7.970488548278809 13.88324069976807 10.92678833007812 10.92690086364746 C 13.88309860229492 7.970560550689697 17.32525825500488 5.649660587310791 21.15764808654785 4.028680801391602 C 25.12461853027344 2.350770473480225 29.33944892883301 1.500000596046448 33.68505859375 1.500000596046448 C 38.03067779541016 1.500000596046448 42.24551010131836 2.350770473480225 46.21246719360352 4.028680801391602 C 50.04486846923828 5.649660587310791 53.48703002929688 7.970560550689697 56.44332885742188 10.92690086364746 C 59.39962768554688 13.88324069976807 61.72050857543945 17.32544136047363 63.34146881103516 21.15789031982422 C 65.01935577392578 25.12491035461426 65.8701171875 29.33979988098145 65.8701171875 33.68547058105469 C 65.8701171875 38.0311393737793 65.01935577392578 42.24602890014648 63.34146881103516 46.21305084228516 C 61.72050857543945 50.04550170898438 59.39962768554688 53.48770141601562 56.44332885742188 56.44404220581055 C 53.48703002929688 59.4003791809082 50.04486846923828 61.72127914428711 46.21246719360352 63.34226226806641 C 42.24551010131836 65.02017211914062 38.03067779541016 65.87094116210938 33.68505859375 65.87094116210938 Z" stroke="none"/>
      <path d="M 33.68505859375 3.000007629394531 C 29.54128265380859 3.000007629394531 25.52304840087891 3.810905456542969 21.74198150634766 5.410182952880859 C 18.08838272094727 6.955535888671875 14.80649185180664 9.168491363525391 11.98745727539062 11.987548828125 C 9.168426513671875 14.80661392211914 6.955501556396484 18.08855819702148 5.410160064697266 21.74220275878906 C 3.810890197753906 25.52333831787109 3 29.5416259765625 3 33.68547058105469 C 3 37.82931518554688 3.810890197753906 41.84760284423828 5.410160064697266 45.62873840332031 C 6.955501556396484 49.28237915039062 9.168426513671875 52.56432723999023 11.98745727539062 55.38339233398438 C 14.80649185180664 58.20244598388672 18.08838272094727 60.4154052734375 21.74198150634766 61.96075820922852 C 25.52304840087891 63.56003570556641 29.54128265380859 64.37094116210938 33.68505859375 64.37094116210938 C 37.82883453369141 64.37094116210938 41.84706878662109 63.56003570556641 45.62813568115234 61.96075820922852 C 49.28173828125 60.4154052734375 52.56362533569336 58.20244598388672 55.38265991210938 55.38339233398438 C 58.20169067382812 52.56432723999023 60.41461563110352 49.28237915039062 61.95995712280273 45.62873840332031 C 63.55922698974609 41.84760284423828 64.3701171875 37.82931518554688 64.3701171875 33.68547058105469 C 64.3701171875 29.5416259765625 63.55922698974609 25.52333831787109 61.95995712280273 21.74220275878906 C 60.41461563110352 18.08855819702148 58.20169067382812 14.80661392211914 55.38265991210938 11.987548828125 C 52.56362533569336 9.168491363525391 49.28173828125 6.955535888671875 45.62813568115234 5.410182952880859 C 41.84706878662109 3.810905456542969 37.82883453369141 3.000007629394531 33.68505859375 3.000007629394531 M 33.68505859375 7.62939453125e-06 C 52.28880310058594 7.62939453125e-06 67.3701171875 15.08149337768555 67.3701171875 33.68547058105469 C 67.3701171875 52.28944778442383 52.28880310058594 67.37093353271484 33.68505859375 67.37093353271484 C 15.08131408691406 67.37093353271484 0 52.28944778442383 0 33.68547058105469 C 0 15.08149337768555 15.08131408691406 7.62939453125e-06 33.68505859375 7.62939453125e-06 Z" stroke="none" fill="#1e535a"/>
    </g>
    <g id="navegador-web_1_" data-name="navegador-web (1)" transform="translate(216.156 4353.589)">
      <path id="Trazado_1030643" data-name="Trazado 1030643" d="M276.94.25H255.414l1.646,5.019h21v-3.9A1.12,1.12,0,0,0,276.94.25Zm0,0" transform="translate(-240.374)" fill="#fff"/>
      <path id="Trazado_1030644" data-name="Trazado 1030644" d="M15.875,7.51a1.119,1.119,0,0,1-1.063-.771L12.684.253H1.12A1.12,1.12,0,0,0,0,1.372V36.713A1.12,1.12,0,0,0,1.12,37.832H36.566a1.12,1.12,0,0,0,1.119-1.119V7.51ZM7.033,3.223h3.209a1.119,1.119,0,1,1,0,2.238H7.033a1.119,1.119,0,1,1,0-2.238ZM2.749,4.342A1.119,1.119,0,1,1,3.868,5.461,1.12,1.12,0,0,1,2.749,4.342ZM31.942,35.379H5.744a1.119,1.119,0,1,1,0-2.238h26.2a1.119,1.119,0,1,1,0,2.238ZM4.624,30.354a1.12,1.12,0,0,1,1.119-1.119h7.428a1.119,1.119,0,1,1,0,2.239H5.744a1.119,1.119,0,0,1-1.119-1.119Zm28.437-3.98a1.12,1.12,0,0,1-1.119,1.119H5.744a1.12,1.12,0,0,1-1.119-1.119V11.668a1.12,1.12,0,0,1,1.119-1.119h26.2a1.12,1.12,0,0,1,1.119,1.119Z" transform="translate(0 -0.002)" fill="#fff"/>
      <rect id="Rectángulo_458422" data-name="Rectángulo 458422" width="24" height="12" transform="translate(6.555 13.04)" fill="#fff"/>
    </g>
  </g>
</svg>
