<svg xmlns="http://www.w3.org/2000/svg" xmlns:xlink="http://www.w3.org/1999/xlink" width="129" height="129" viewBox="0 0 129 129">
  <defs>
    <clipPath id="clip-path">
      <rect id="Rectángulo_454829" data-name="Rectángulo 454829" width="129" height="129" fill="#1e535a"/>
    </clipPath>
  </defs>
  <g id="Grupo_1184645" data-name="Grupo 1184645" transform="translate(-186 -4323.945)">
    <g id="Grupo_1177591" data-name="Grupo 1177591" transform="translate(186 4323.945)">
      <g id="Grupo_1177589" data-name="Grupo 1177589" transform="translate(0 0)">
        <g id="Grupo_1177587" data-name="Grupo 1177587" clip-path="url(#clip-path)">
          <path id="Trazado_997422" data-name="Trazado 997422" d="M123.733,57.1a59.308,59.308,0,0,0-13.4-30.862,6.821,6.821,0,0,0-9.6-9.189A59.221,59.221,0,0,0,70.078,5.066a6.822,6.822,0,0,0-13.25.269A59.3,59.3,0,0,0,27.41,17.911a6.824,6.824,0,0,0-9.471,9.536A59.253,59.253,0,0,0,5.526,57.039a6.827,6.827,0,0,0-.163,13.369A59.236,59.236,0,0,0,17.387,100.6a6.823,6.823,0,0,0,9.27,9.635,59.3,59.3,0,0,0,30.116,13.172,6.824,6.824,0,0,0,13.369.269,59.247,59.247,0,0,0,30.886-12.2,6.822,6.822,0,0,0,9.55-9.236,59.323,59.323,0,0,0,13.315-31.893,6.824,6.824,0,0,0-.16-13.247M104.464,29.6a6.785,6.785,0,0,0,3.779-1.144,56.321,56.321,0,0,1,12.43,28.628,6.834,6.834,0,0,0-4.361,3.159L98.87,53.7c.014-.191.027-.385.027-.582a6.825,6.825,0,0,0-2.89-5.577l7.629-18a7.392,7.392,0,0,0,.827.054m-3.687-1.086L93.195,46.39a6.754,6.754,0,0,0-7.517,4.341L54.125,43.462a6.639,6.639,0,0,0-.143-1.358L98.758,26.511a6.846,6.846,0,0,0,2.019,2m-37.29-14.85a6.83,6.83,0,0,0,6.7-5.539A56.228,56.228,0,0,1,98.622,19.239a6.792,6.792,0,0,0-.987,3.527,7.17,7.17,0,0,0,.065.9l-45,15.668A6.85,6.85,0,0,0,51.462,38.1l11.8-24.451c.075,0,.146.01.221.01m-6.642-5.27a6.831,6.831,0,0,0,3.435,4.47L48.708,36.823a6.848,6.848,0,0,0-1.409-.146A6.78,6.78,0,0,0,43.407,37.9L29.691,26.443a6.789,6.789,0,0,0-.232-6.285A56.272,56.272,0,0,1,56.845,8.389M13.492,62.258l28.37-14.633a6.8,6.8,0,0,0,5.383,2.707l9.723,31.08a6.941,6.941,0,0,0-1.5,1.665L13.407,65.554a6.784,6.784,0,0,0,.252-1.811,6.863,6.863,0,0,0-.167-1.484m6.7-32.775a6.824,6.824,0,0,0,7.623-.65l13.543,11.31a6.81,6.81,0,0,0-.752,4.719L12.188,59.514a6.827,6.827,0,0,0-3.616-2.37,56.248,56.248,0,0,1,11.62-27.662m2.826,68.151a6.809,6.809,0,0,0-3.391.906A56.2,56.2,0,0,1,8.416,70.378,6.835,6.835,0,0,0,11.96,68.24l42.475,17.7a7.323,7.323,0,0,0-.054.82,6.828,6.828,0,0,0,.409,2.308L29.1,101.373a6.828,6.828,0,0,0-6.084-3.738m33.888,22.732a56.328,56.328,0,0,1-28.1-12.294,6.758,6.758,0,0,0,1.042-3.609l0-.078,26.6-12.746a6.829,6.829,0,0,0,2.41,1.522l1.593,22.9a6.829,6.829,0,0,0-3.537,4.3m2.829-40.272L50.22,49.672a6.839,6.839,0,0,0,3.244-3.244L85.273,53.75a6.789,6.789,0,0,0,1.086,3.1L64.543,80.8a6.745,6.745,0,0,0-4.807-.7m10.4,40.537a6.827,6.827,0,0,0-6.649-5.291l-.051,0L61.921,93.552a6.817,6.817,0,0,0,4.174-2.026l31.8,14.027c0,.061-.01.116-.01.177a6.8,6.8,0,0,0,1.011,3.561,56.224,56.224,0,0,1-28.761,11.34m28.526-18.058L67.688,88.909a6.789,6.789,0,0,0-.9-6.074L88.544,58.959a6.789,6.789,0,0,0,3.524.987,7.517,7.517,0,0,0,.838-.054l8.13,40.091a6.814,6.814,0,0,0-2.373,2.591m9.8-2.553a6.788,6.788,0,0,0-4.538-1.072L95.789,58.84a6.857,6.857,0,0,0,2.152-2.247l17.431,6.537a6.057,6.057,0,0,0-.031.613,6.827,6.827,0,0,0,5.488,6.693,56.271,56.271,0,0,1-12.369,29.585" transform="translate(0 0.001)" fill="#1e535a"/>
        </g>
      </g>
    </g>
    <g id="Elipse_13614" data-name="Elipse 13614" transform="translate(210.273 4348.213)" fill="#d5f4f8" stroke="#1e535a" stroke-width="3">
      <ellipse cx="40.232" cy="40.233" rx="40.232" ry="40.233" stroke="none"/>
      <ellipse cx="40.232" cy="40.233" rx="38.732" ry="38.733" fill="none"/>
    </g>
    <g id="_x39_2" transform="translate(221.785 4360.291)">
      <path id="Trazado_1030513" data-name="Trazado 1030513" d="M19.774,27.5H12.918a14.67,14.67,0,0,0,4.316,9.355,16.9,16.9,0,0,1,3.48-2.085,33.624,33.624,0,0,1-.94-7.27Z" transform="translate(0.616 2.024)" fill="#1e535a"/>
      <path id="Trazado_1030514" data-name="Trazado 1030514" d="M20.714,18.934a16.9,16.9,0,0,1-3.48-2.085A14.672,14.672,0,0,0,12.918,26.2h6.856a33.621,33.621,0,0,1,.94-7.271Z" transform="translate(0.616 1.162)" fill="#1e535a"/>
      <path id="Trazado_1030515" data-name="Trazado 1030515" d="M18.443,37.6l.016.012a14.485,14.485,0,0,0,4.187,2.118,15.467,15.467,0,0,1-1.748-3.57,14.747,14.747,0,0,0-2.455,1.44Z" transform="translate(1.064 2.725)" fill="#1e535a"/>
      <path id="Trazado_1030516" data-name="Trazado 1030516" d="M22.647,13.547a14.5,14.5,0,0,0-4.19,2.12l-.014.011a14.763,14.763,0,0,0,2.456,1.44,15.467,15.467,0,0,1,1.748-3.571Z" transform="translate(1.064 0.894)" fill="#1e535a"/>
      <path id="Trazado_1030517" data-name="Trazado 1030517" d="M25.715,40.225V34.9a14.707,14.707,0,0,0-3.121.581C23.443,37.9,24.567,39.565,25.715,40.225Z" transform="translate(1.4 2.623)" fill="#1e535a"/>
      <path id="Trazado_1030518" data-name="Trazado 1030518" d="M32.834,18.937a33.626,33.626,0,0,1,.939,7.267h6.865a14.67,14.67,0,0,0-4.316-9.355,16.906,16.906,0,0,1-3.488,2.088Z" transform="translate(2.229 1.162)" fill="#1e535a"/>
      <path id="Trazado_1030519" data-name="Trazado 1030519" d="M32.834,34.771a16.9,16.9,0,0,1,3.488,2.088A14.673,14.673,0,0,0,40.637,27.5H33.773a33.629,33.629,0,0,1-.939,7.267Z" transform="translate(2.229 2.024)" fill="#1e535a"/>
      <path id="Trazado_1030520" data-name="Trazado 1030520" d="M27.482,40.225c1.149-.66,2.273-2.325,3.122-4.743a14.708,14.708,0,0,0-3.122-.579Z" transform="translate(1.795 2.623)" fill="#1e535a"/>
      <path id="Trazado_1030521" data-name="Trazado 1030521" d="M22.1,34.009a16.855,16.855,0,0,1,3.728-.663V27.5H21.26a31.4,31.4,0,0,0,.835,6.505Z" transform="translate(1.292 2.024)" fill="#1e535a"/>
      <path id="Trazado_1030522" data-name="Trazado 1030522" d="M30.63,39.731a14.367,14.367,0,0,0,4.2-2.123l.014-.011a14.756,14.756,0,0,0-2.463-1.444,15.467,15.467,0,0,1-1.751,3.577Z" transform="translate(2.05 2.725)" fill="#1e535a"/>
      <path id="Trazado_1030523" data-name="Trazado 1030523" d="M31.21,19.488a16.856,16.856,0,0,1-3.728.661v5.842h4.563a31.4,31.4,0,0,0-.835-6.5Z" transform="translate(1.795 1.375)" fill="#1e535a"/>
      <path id="Trazado_1030524" data-name="Trazado 1030524" d="M32.045,27.5H27.482v5.842a16.86,16.86,0,0,1,3.728.661,31.4,31.4,0,0,0,.835-6.5Z" transform="translate(1.795 2.024)" fill="#1e535a"/>
      <path id="Trazado_1030525" data-name="Trazado 1030525" d="M21.26,25.991h4.563V20.148a16.856,16.856,0,0,1-3.728-.663,31.4,31.4,0,0,0-.835,6.506Z" transform="translate(1.292 1.375)" fill="#1e535a"/>
      <path id="Trazado_1030526" data-name="Trazado 1030526" d="M27.482,13.181V18.5a14.7,14.7,0,0,0,3.122-.579C29.755,15.506,28.631,13.841,27.482,13.181Z" transform="translate(1.795 0.865)" fill="#1e535a"/>
      <path id="Trazado_1030527" data-name="Trazado 1030527" d="M22.594,17.922a14.7,14.7,0,0,0,3.121.581V13.181c-1.149.66-2.273,2.324-3.121,4.741Z" transform="translate(1.4 0.865)" fill="#1e535a"/>
      <path id="Trazado_1030528" data-name="Trazado 1030528" d="M34.843,15.678l-.015-.012a15.182,15.182,0,0,0-4.2-2.122,15.466,15.466,0,0,1,1.751,3.577,14.759,14.759,0,0,0,2.463-1.443Z" transform="translate(2.05 0.894)" fill="#1e535a"/>
      <path id="Trazado_1030529" data-name="Trazado 1030529" d="M48.738,36.377V20.509a3.469,3.469,0,1,0-3.394-5.88L31.583,6.694a3.237,3.237,0,0,0,.1-.713,3.481,3.481,0,1,0-6.961,0,4.014,4.014,0,0,0,.086.713L11.077,14.618a3.534,3.534,0,0,0-2.292-.876A3.483,3.483,0,0,0,5.3,17.212a3.438,3.438,0,0,0,2.357,3.275v15.9A3.449,3.449,0,0,0,5.3,39.674a3.492,3.492,0,0,0,3.481,3.481,3.457,3.457,0,0,0,2.292-.876L24.806,50.2a3.781,3.781,0,0,0-.086.7,3.481,3.481,0,0,0,6.961,0,3.781,3.781,0,0,0-.086-.7l13.75-7.945a3.469,3.469,0,1,0,3.394-5.88Zm-4.5,3.945a.211.211,0,0,0,.011.076L30.524,48.322a.224.224,0,0,0-.065-.043,3.43,3.43,0,0,0-4.529,0,.108.108,0,0,0-.054.043l-13.685-7.9c.011-.022,0-.043.011-.076a3.451,3.451,0,0,0-2.378-4v-15.8A3.513,3.513,0,0,0,12.2,16.552v-.086L25.876,8.575a.226.226,0,0,0,.065.043,3.464,3.464,0,0,0,4.529,0,.108.108,0,0,1,.054-.043L44.241,16.5a3.509,3.509,0,0,0,2.335,4.032V36.356a3.506,3.506,0,0,0-2.335,3.967Z" transform="translate(0 0)" fill="#1e535a"/>
    </g>
  </g>
</svg>
