<svg xmlns="http://www.w3.org/2000/svg" xmlns:xlink="http://www.w3.org/1999/xlink" width="129" height="129" viewBox="0 0 129 129">
  <defs>
    <clipPath id="clip-path">
      <rect id="Rectángulo_454829" data-name="Rectángulo 454829" width="129" height="129" fill="#1e535a"/>
    </clipPath>
  </defs>
  <g id="Grupo_1184646" data-name="Grupo 1184646" transform="translate(-186 -4323.945)">
    <g id="Grupo_1177591" data-name="Grupo 1177591" transform="translate(186 4323.945)">
      <g id="Grupo_1177589" data-name="Grupo 1177589" transform="translate(0 0)">
        <g id="Grupo_1177587" data-name="Grupo 1177587" clip-path="url(#clip-path)">
          <path id="Trazado_997422" data-name="Trazado 997422" d="M123.733,57.1a59.308,59.308,0,0,0-13.4-30.862,6.821,6.821,0,0,0-9.6-9.189A59.221,59.221,0,0,0,70.078,5.066a6.822,6.822,0,0,0-13.25.269A59.3,59.3,0,0,0,27.41,17.911a6.824,6.824,0,0,0-9.471,9.536A59.253,59.253,0,0,0,5.526,57.039a6.827,6.827,0,0,0-.163,13.369A59.236,59.236,0,0,0,17.387,100.6a6.823,6.823,0,0,0,9.27,9.635,59.3,59.3,0,0,0,30.116,13.172,6.824,6.824,0,0,0,13.369.269,59.247,59.247,0,0,0,30.886-12.2,6.822,6.822,0,0,0,9.55-9.236,59.323,59.323,0,0,0,13.315-31.893,6.824,6.824,0,0,0-.16-13.247M104.464,29.6a6.785,6.785,0,0,0,3.779-1.144,56.321,56.321,0,0,1,12.43,28.628,6.834,6.834,0,0,0-4.361,3.159L98.87,53.7c.014-.191.027-.385.027-.582a6.825,6.825,0,0,0-2.89-5.577l7.629-18a7.392,7.392,0,0,0,.827.054m-3.687-1.086L93.195,46.39a6.754,6.754,0,0,0-7.517,4.341L54.125,43.462a6.639,6.639,0,0,0-.143-1.358L98.758,26.511a6.846,6.846,0,0,0,2.019,2m-37.29-14.85a6.83,6.83,0,0,0,6.7-5.539A56.228,56.228,0,0,1,98.622,19.239a6.792,6.792,0,0,0-.987,3.527,7.17,7.17,0,0,0,.065.9l-45,15.668A6.85,6.85,0,0,0,51.462,38.1l11.8-24.451c.075,0,.146.01.221.01m-6.642-5.27a6.831,6.831,0,0,0,3.435,4.47L48.708,36.823a6.848,6.848,0,0,0-1.409-.146A6.78,6.78,0,0,0,43.407,37.9L29.691,26.443a6.789,6.789,0,0,0-.232-6.285A56.272,56.272,0,0,1,56.845,8.389M13.492,62.258l28.37-14.633a6.8,6.8,0,0,0,5.383,2.707l9.723,31.08a6.941,6.941,0,0,0-1.5,1.665L13.407,65.554a6.784,6.784,0,0,0,.252-1.811,6.863,6.863,0,0,0-.167-1.484m6.7-32.775a6.824,6.824,0,0,0,7.623-.65l13.543,11.31a6.81,6.81,0,0,0-.752,4.719L12.188,59.514a6.827,6.827,0,0,0-3.616-2.37,56.248,56.248,0,0,1,11.62-27.662m2.826,68.151a6.809,6.809,0,0,0-3.391.906A56.2,56.2,0,0,1,8.416,70.378,6.835,6.835,0,0,0,11.96,68.24l42.475,17.7a7.323,7.323,0,0,0-.054.82,6.828,6.828,0,0,0,.409,2.308L29.1,101.373a6.828,6.828,0,0,0-6.084-3.738m33.888,22.732a56.328,56.328,0,0,1-28.1-12.294,6.758,6.758,0,0,0,1.042-3.609l0-.078,26.6-12.746a6.829,6.829,0,0,0,2.41,1.522l1.593,22.9a6.829,6.829,0,0,0-3.537,4.3m2.829-40.272L50.22,49.672a6.839,6.839,0,0,0,3.244-3.244L85.273,53.75a6.789,6.789,0,0,0,1.086,3.1L64.543,80.8a6.745,6.745,0,0,0-4.807-.7m10.4,40.537a6.827,6.827,0,0,0-6.649-5.291l-.051,0L61.921,93.552a6.817,6.817,0,0,0,4.174-2.026l31.8,14.027c0,.061-.01.116-.01.177a6.8,6.8,0,0,0,1.011,3.561,56.224,56.224,0,0,1-28.761,11.34m28.526-18.058L67.688,88.909a6.789,6.789,0,0,0-.9-6.074L88.544,58.959a6.789,6.789,0,0,0,3.524.987,7.517,7.517,0,0,0,.838-.054l8.13,40.091a6.814,6.814,0,0,0-2.373,2.591m9.8-2.553a6.788,6.788,0,0,0-4.538-1.072L95.789,58.84a6.857,6.857,0,0,0,2.152-2.247l17.431,6.537a6.057,6.057,0,0,0-.031.613,6.827,6.827,0,0,0,5.488,6.693,56.271,56.271,0,0,1-12.369,29.585" transform="translate(0 0.001)" fill="#1e535a"/>
        </g>
      </g>
    </g>
    <g id="Elipse_13614" data-name="Elipse 13614" transform="translate(210.273 4348.213)" fill="#d5f4f8" stroke="#1e535a" stroke-width="3">
      <ellipse cx="40.232" cy="40.233" rx="40.232" ry="40.233" stroke="none"/>
      <ellipse cx="40.232" cy="40.233" rx="38.732" ry="38.733" fill="none"/>
    </g>
    <g id="www" transform="translate(228.057 4364.473)">
      <path id="Trazado_1030530" data-name="Trazado 1030530" d="M354.753,47.629H359.8a19.3,19.3,0,0,0-7.431-10.5v8.118a2.385,2.385,0,0,0,2.382,2.382Zm0,0" transform="translate(-318.921 -33.652)" fill="#1e535a"/>
      <path id="Trazado_1030531" data-name="Trazado 1030531" d="M41.271,143.65v-5.473a4.174,4.174,0,0,0-1.229-2.97l-8.218-8.218a19.2,19.2,0,0,0,1.041,16.661Zm0,0" transform="translate(-27.102 -115.097)" fill="#1e535a"/>
      <path id="Trazado_1030532" data-name="Trazado 1030532" d="M71.88,43.862v5.473h7.11l1.784-2.215a2.029,2.029,0,0,0,.7-1.44,1.809,1.809,0,0,0-.493-1.267A3.42,3.42,0,0,0,78.446,43H75.921a2.4,2.4,0,0,1-1.694-4.09L78.4,34.734a1.221,1.221,0,0,0,0-1.729L68.328,22.929a19.011,19.011,0,0,0-7.464,6.934l8.907,8.908a7.152,7.152,0,0,1,2.109,5.091Zm0,0" transform="translate(-54.711 -20.782)" fill="#1e535a"/>
      <path id="Trazado_1030533" data-name="Trazado 1030533" d="M181.777,16.073l-3.145,3.146H179.7a5.894,5.894,0,0,1,4.415,2.056c.151.156.14.135.2.192a4.78,4.78,0,0,1,1.412,3.465,5.235,5.235,0,0,1-1.629,3.62h10.979a19.07,19.07,0,0,0,2.358-11.577H191.8a5.387,5.387,0,0,1-5.381-5.382V1.751A19.229,19.229,0,0,0,172.578.9l9.2,9.2a4.219,4.219,0,0,1,0,5.971Zm0,0" transform="translate(-155.964)" fill="#1e535a"/>
      <path id="Trazado_1030534" data-name="Trazado 1030534" d="M43.139,336.945H1.75a1.251,1.251,0,0,0-1.25,1.25v13.893a1.251,1.251,0,0,0,1.25,1.25H43.139a1.25,1.25,0,0,0,1.248-1.25V338.195A1.25,1.25,0,0,0,43.139,336.945Zm-28.559,5-2.08,8.016a1.5,1.5,0,0,1-2.806.266l-1.143-2.41-1.143,2.41a1.5,1.5,0,0,1-2.806-.266l-2.08-8.016a1.5,1.5,0,0,1,2.9-.753l1.043,4.018.728-1.537a1.5,1.5,0,0,1,2.711,0l.729,1.537,1.042-4.018a1.5,1.5,0,0,1,2.9.753Zm13.894,0-2.08,8.016a1.5,1.5,0,0,1-2.806.266l-1.143-2.41-1.143,2.41a1.5,1.5,0,0,1-2.806-.266l-2.081-8.016a1.5,1.5,0,0,1,2.9-.753l1.043,4.018.729-1.537a1.5,1.5,0,0,1,2.709,0l.729,1.537,1.043-4.018a1.5,1.5,0,0,1,2.9.753Zm13.893,0-2.08,8.016a1.5,1.5,0,0,1-2.806.266l-1.143-2.41-1.143,2.41a1.5,1.5,0,0,1-2.806-.266l-2.079-8.016a1.5,1.5,0,0,1,2.9-.753l1.042,4.018.729-1.537a1.5,1.5,0,0,1,2.71,0l.728,1.537,1.042-4.018a1.5,1.5,0,0,1,2.9.753Zm0,0" transform="translate(0 -305.393)" fill="#1e535a"/>
    </g>
  </g>
</svg>
