<svg xmlns="http://www.w3.org/2000/svg" width="84" height="78" viewBox="0 0 84 78">
  <g id="Grupo_1186065" data-name="Grupo 1186065" transform="translate(-185.711 -4212)">
    <rect id="Rectángulo_458372" data-name="Rectángulo 458372" width="84" height="78" transform="translate(185.711 4212)" fill="#ffe79e"/>
    <g id="telefono-inteligente_3_" data-name="telefono-inteligente (3)" transform="translate(197.218 4221.507)">
      <g id="Grupo_1186067" data-name="Grupo 1186067">
        <g id="Grupo_1186066" data-name="Grupo 1186066">
          <rect id="Rectángulo_458852" data-name="Rectángulo 458852" width="2" height="2" transform="translate(4.493 4.493)"/>
          <rect id="Rectángulo_458853" data-name="Rectángulo 458853" width="14" height="2" transform="translate(7.493 4.493)"/>
          <rect id="Rectángulo_458854" data-name="Rectángulo 458854" width="2" height="2" transform="translate(19.493 11.493)"/>
          <rect id="Rectángulo_458855" data-name="Rectángulo 458855" width="13" height="2" transform="translate(4.493 11.493)"/>
          <rect id="Rectángulo_458856" data-name="Rectángulo 458856" width="17" height="3" transform="translate(4.493 7.493)"/>
          <path id="Trazado_1032105" data-name="Trazado 1032105" d="M55.724,43.015H51.185A24.444,24.444,0,0,0,30.306,5.866a24.628,24.628,0,0,0-4.888.5V4.888A4.894,4.894,0,0,0,20.53,0H4.888A4.894,4.894,0,0,0,0,4.888v7.821A4.894,4.894,0,0,0,4.888,17.6H9.427A24.444,24.444,0,0,0,30.306,54.747a24.635,24.635,0,0,0,4.888-.5v1.474a4.894,4.894,0,0,0,4.888,4.888H55.724a4.894,4.894,0,0,0,4.888-4.888V47.9A4.894,4.894,0,0,0,55.724,43.015ZM25.418,8.364c.558-.123,1.12-.228,1.687-.309-.522.464-1.092,1.011-1.687,1.642ZM4.888,15.642a2.936,2.936,0,0,1-2.933-2.933V4.888A2.936,2.936,0,0,1,4.888,1.955H20.53a2.936,2.936,0,0,1,2.933,2.933v7.821a2.936,2.936,0,0,1-2.933,2.933h-.978V22.08l-6.439-6.439ZM7.845,31.284H9.776V29.329H7.859A22.278,22.278,0,0,1,11.771,17.6H12.3l5.975,5.975a32.9,32.9,0,0,0-.656,5.756H11.731v1.955h5.887a30.89,30.89,0,0,0,2.544,11.741A19.116,19.116,0,0,0,14.7,46.474,22.417,22.417,0,0,1,7.845,31.284Zm8.333,16.5a17.642,17.642,0,0,1,4.84-2.984,27.44,27.44,0,0,0,6.065,7.759A22.39,22.39,0,0,1,16.179,47.781Zm13.15,4.089a24.882,24.882,0,0,1-4.17-4.269A26.621,26.621,0,0,1,22.9,44.114a24.109,24.109,0,0,1,6.427-1.067Zm0-10.778a26.115,26.115,0,0,0-7.3,1.238,28.7,28.7,0,0,1-2.436-11.046h9.741Zm0-11.764H19.578a31.641,31.641,0,0,1,.373-4.084L21.508,26.8V18.105a25.786,25.786,0,0,0,7.821,1.425Zm0-11.754a24.42,24.42,0,0,1-5.945-.921,4.867,4.867,0,0,0,2.034-3.945v-.024a24.866,24.866,0,0,1,3.91-3.944ZM48.841,43.015h-.533L42.333,37.04a32.9,32.9,0,0,0,.656-5.756h9.764A22.278,22.278,0,0,1,48.841,43.015Zm3.926-13.687H42.995a30.89,30.89,0,0,0-2.544-11.741,19.116,19.116,0,0,0,5.458-3.449A22.42,22.42,0,0,1,52.767,29.329Zm-8.333-16.5a17.642,17.642,0,0,1-4.84,2.984,27.44,27.44,0,0,0-6.065-7.759A22.39,22.39,0,0,1,44.434,12.831ZM31.284,8.742a24.882,24.882,0,0,1,4.17,4.269A26.621,26.621,0,0,1,37.711,16.5a24.109,24.109,0,0,1-6.427,1.067V8.742Zm0,10.778a26.115,26.115,0,0,0,7.3-1.238,28.7,28.7,0,0,1,2.436,11.046H31.284Zm0,11.764h9.751a31.641,31.641,0,0,1-.373,4.084L39.1,33.812v8.695a25.786,25.786,0,0,0-7.821-1.425Zm3.91,20.964c-.558.123-1.12.228-1.687.309.522-.464,1.092-1.008,1.687-1.64Zm0-4.345v.024a24.851,24.851,0,0,1-3.91,3.943V43.038a24.42,24.42,0,0,1,5.945.921A4.867,4.867,0,0,0,35.194,47.9Zm23.463,7.821a2.936,2.936,0,0,1-2.933,2.933H40.082a2.936,2.936,0,0,1-2.933-2.933V47.9a2.936,2.936,0,0,1,2.933-2.933h.978V38.532L47.5,44.97h8.226A2.936,2.936,0,0,1,58.657,47.9Z"/>
          <rect id="Rectángulo_458857" data-name="Rectángulo 458857" width="3" height="3" transform="translate(54.493 54.493)"/>
          <rect id="Rectángulo_458858" data-name="Rectángulo 458858" width="14" height="3" transform="translate(39.493 54.493)"/>
          <rect id="Rectángulo_458859" data-name="Rectángulo 458859" width="2" height="1" transform="translate(39.493 47.493)"/>
          <rect id="Rectángulo_458860" data-name="Rectángulo 458860" width="14" height="1" transform="translate(43.493 47.493)"/>
          <rect id="Rectángulo_458861" data-name="Rectángulo 458861" width="18" height="2" transform="translate(39.493 51.493)"/>
        </g>
      </g>
    </g>
  </g>
</svg>
