<svg xmlns="http://www.w3.org/2000/svg" xmlns:xlink="http://www.w3.org/1999/xlink" width="133" height="133" viewBox="0 0 133 133">
  <defs>
    <clipPath id="clip-path">
      <rect id="Rectángulo_454829" data-name="Rectángulo 454829" width="133" height="133" fill="#1e535a"/>
    </clipPath>
  </defs>
  <g id="Grupo_1184708" data-name="Grupo 1184708" transform="translate(-186 -4323.945)">
    <g id="Grupo_1177591" data-name="Grupo 1177591" transform="translate(186 4323.945)">
      <g id="Grupo_1177589" data-name="Grupo 1177589" transform="translate(0 0)">
        <g id="Grupo_1177587" data-name="Grupo 1177587" clip-path="url(#clip-path)">
          <path id="Trazado_997422" data-name="Trazado 997422" d="M127.57,58.867a61.147,61.147,0,0,0-13.812-31.819,7.032,7.032,0,0,0-9.895-9.474A61.057,61.057,0,0,0,72.251,5.223,7.034,7.034,0,0,0,58.59,5.5,61.141,61.141,0,0,0,28.26,18.467,7.036,7.036,0,0,0,18.495,28.3,61.09,61.09,0,0,0,5.7,58.808a7.039,7.039,0,0,0-.168,13.784,61.072,61.072,0,0,0,12.4,31.127,7.035,7.035,0,0,0,9.558,9.934,61.136,61.136,0,0,0,31.05,13.58,7.036,7.036,0,0,0,13.784.277,61.084,61.084,0,0,0,31.843-12.58,7.034,7.034,0,0,0,9.846-9.523,61.162,61.162,0,0,0,13.728-32.882,7.036,7.036,0,0,0-.165-13.658M107.7,30.513a7,7,0,0,0,3.9-1.179A58.067,58.067,0,0,1,124.414,58.85a7.046,7.046,0,0,0-4.5,3.257l-17.982-6.743c.014-.2.028-.4.028-.6a7.036,7.036,0,0,0-2.98-5.749l7.866-18.558a7.621,7.621,0,0,0,.853.056m-3.8-1.12L96.085,47.828a6.963,6.963,0,0,0-7.75,4.475L55.8,44.81a6.845,6.845,0,0,0-.147-1.4L101.82,27.333a7.058,7.058,0,0,0,2.081,2.06M65.456,14.082a7.041,7.041,0,0,0,6.911-5.711A57.971,57.971,0,0,1,101.68,19.835a7,7,0,0,0-1.018,3.636,7.392,7.392,0,0,0,.067.93l-46.4,16.153a7.062,7.062,0,0,0-1.274-1.274L65.228,14.072c.077,0,.151.011.228.011M58.608,8.649a7.043,7.043,0,0,0,3.542,4.609L50.219,37.965a7.061,7.061,0,0,0-1.453-.151,6.99,6.99,0,0,0-4.012,1.26L30.611,27.263a7,7,0,0,0-.239-6.48A58.017,58.017,0,0,1,58.608,8.649m-44.7,55.54L43.16,49.1a7.015,7.015,0,0,0,5.549,2.791L58.734,83.936a7.157,7.157,0,0,0-1.551,1.716L13.823,67.586a6.994,6.994,0,0,0,.26-1.867,7.076,7.076,0,0,0-.172-1.53M20.818,30.4a7.036,7.036,0,0,0,7.859-.67L42.64,41.387a7.022,7.022,0,0,0-.776,4.865L12.566,61.36a7.039,7.039,0,0,0-3.728-2.443A57.992,57.992,0,0,1,20.818,30.4m2.913,70.265a7.02,7.02,0,0,0-3.5.934A57.94,57.94,0,0,1,8.677,72.56a7.047,7.047,0,0,0,3.654-2.2L56.122,88.6a7.55,7.55,0,0,0-.056.846,7.04,7.04,0,0,0,.421,2.38L30,104.516a7.04,7.04,0,0,0-6.272-3.854M58.671,124.1A58.075,58.075,0,0,1,29.7,111.424a6.967,6.967,0,0,0,1.074-3.721l0-.081L58.19,94.481a7.041,7.041,0,0,0,2.485,1.569l1.643,23.612a7.041,7.041,0,0,0-3.647,4.437m2.917-41.521L51.777,51.212a7.051,7.051,0,0,0,3.345-3.345l32.795,7.55a7,7,0,0,0,1.12,3.2L66.544,83.3a6.954,6.954,0,0,0-4.956-.727m10.723,41.794a7.039,7.039,0,0,0-6.855-5.455l-.053,0L63.841,96.453a7.028,7.028,0,0,0,4.3-2.088l32.788,14.462c0,.063-.011.119-.011.183a7.006,7.006,0,0,0,1.042,3.672,57.968,57.968,0,0,1-29.653,11.692m29.411-18.617L69.787,91.666a7,7,0,0,0-.923-6.262L91.29,60.787a7,7,0,0,0,3.633,1.018,7.75,7.75,0,0,0,.863-.056l8.382,41.335a7.025,7.025,0,0,0-2.447,2.671m10.1-2.633a7,7,0,0,0-4.679-1.106L98.759,60.665a7.069,7.069,0,0,0,2.218-2.317l17.972,6.739a6.245,6.245,0,0,0-.032.632,7.039,7.039,0,0,0,5.658,6.9,58.016,58.016,0,0,1-12.752,30.5" transform="translate(0 0.001)" fill="#1e535a"/>
        </g>
      </g>
    </g>
    <g id="Elipse_13614" data-name="Elipse 13614" transform="translate(210.273 4348.213)" fill="#fff" stroke="#1e535a" stroke-width="3">
      <ellipse cx="42.232" cy="42.233" rx="42.232" ry="42.233" stroke="none"/>
      <ellipse cx="42.232" cy="42.233" rx="40.732" ry="40.733" fill="none"/>
    </g>
    <g id="_05_Barcode_Scan_laptop" data-name="05 Barcode,Scan,laptop" transform="translate(226.211 4364.225)">
      <path id="Trazado_1032249" data-name="Trazado 1032249" d="M46.674,36.272H6.467a3.351,3.351,0,0,1-3.351-3.351V8.351A3.351,3.351,0,0,1,6.467,5H46.674a3.351,3.351,0,0,1,3.351,3.351V32.921A3.351,3.351,0,0,1,46.674,36.272ZM6.467,7.234A1.117,1.117,0,0,0,5.351,8.351V32.921a1.117,1.117,0,0,0,1.117,1.117H46.674a1.117,1.117,0,0,0,1.117-1.117V8.351a1.117,1.117,0,0,0-1.117-1.117ZM50.025,38.506H3.117A1.117,1.117,0,0,0,2,39.622v3.351A4.467,4.467,0,0,0,6.467,47.44H46.674a4.467,4.467,0,0,0,4.467-4.467V39.622A1.117,1.117,0,0,0,50.025,38.506Zm-20.1,5.584h-6.7V41.856h6.7ZM42.207,9.467H38.856V21.753H36.622V9.467H34.389V21.753H32.155V9.467H29.921V21.753H27.688V9.467H10.935a1.117,1.117,0,0,0-1.117,1.117v20.1A1.117,1.117,0,0,0,10.935,31.8h3.351V18.4h2.234V31.8h2.234V18.4h2.234V31.8H23.22V18.4h2.234V31.8H42.207a1.117,1.117,0,0,0,1.117-1.117v-20.1A1.117,1.117,0,0,0,42.207,9.467Zm-25.688,6.7H14.285V13.935h2.234Zm4.467,0H18.753V13.935h2.234Zm4.467,0H23.22V13.935h2.234ZM29.921,26.22H27.688V23.987h2.234Zm4.467,0H32.155V23.987h2.234Zm4.467,0H36.622V23.987h2.234Z" transform="translate(0 0)" fill="#1e535a"/>
    </g>
  </g>
</svg>
