<svg xmlns="http://www.w3.org/2000/svg" width="67" height="67" viewBox="0 0 67 67">
  <g id="Grupo_1187277" data-name="Grupo 1187277" transform="translate(6173 7461)">
    <rect id="Rectángulo_459488" data-name="Rectángulo 459488" width="67" height="67" transform="translate(-6173 -7461)" fill="#ffe79e"/>
    <path id="libro-de-codificacion" d="M57.81,26.677H54.233V24.754a.817.817,0,0,0-.817-.817c-8.976,0-11.858.781-17.6,2.336l-1.388.375-1.388-.375c-5.742-1.556-8.625-2.336-17.6-2.336a.817.817,0,0,0-.817.817v1.924H11.045a.817.817,0,0,0-.817.817V53.664A11.01,11.01,0,1,0,29.9,61.951h.31a2.553,2.553,0,0,0,2.549,2.527h3.373a2.553,2.553,0,0,0,2.549-2.527H57.81a.817.817,0,0,0,.817-.817V27.494A.817.817,0,0,0,57.81,26.677ZM36.242,27.85A50.18,50.18,0,0,1,52.6,25.572V56.489c-7.538.067-13.242,1.069-17.356,3.052V28.12l1-.27Zm-3.63,0,1,.27V59.543a24.271,24.271,0,0,0-3.8-1.424,10.961,10.961,0,0,0-1.845-4.229,30.12,30.12,0,0,1,3.192.934.817.817,0,0,0,.548-1.539,33.805,33.805,0,0,0-5.649-1.449,11.005,11.005,0,0,0-9.8-2.2V25.572A50.183,50.183,0,0,1,32.612,27.85Zm-17.99.461V50.2a11.037,11.037,0,0,0-2.761,1.731V28.31Zm4.39,41.367A9.379,9.379,0,1,1,28.391,60.3a9.39,9.39,0,0,1-9.379,9.379Zm37.981-9.359H37.865a.817.817,0,0,0-.817.817v.794a.917.917,0,0,1-.916.916H32.759a.918.918,0,0,1-.916-.916v-.794a.817.817,0,0,0-.817-.817h-1c0-.007,0-.013,0-.02,0-.138,0-.275-.008-.411a20.12,20.12,0,0,1,4,1.715.816.816,0,0,0,.817,0c4.06-2.344,10.138-3.483,18.581-3.483a.817.817,0,0,0,.817-.817V28.31h2.761ZM32.2,48.856a.816.816,0,0,1-1.035.511,42.332,42.332,0,0,0-12.755-2.04.817.817,0,1,1,.054-1.632A43.855,43.855,0,0,1,31.69,47.821.816.816,0,0,1,32.2,48.856Zm0-5.485a.816.816,0,0,1-1.027.527,43.559,43.559,0,0,0-12.766-1.994.817.817,0,0,1,.051-1.632,45.052,45.052,0,0,1,13.215,2.071A.817.817,0,0,1,32.205,43.371Zm0-5.5a.816.816,0,0,1-1.018.545,43.948,43.948,0,0,0-12.777-1.938.817.817,0,0,1,.048-1.632,45.391,45.391,0,0,1,13.2,2.007A.816.816,0,0,1,32.21,37.876ZM17.622,30.223a.819.819,0,0,1,.838-.794,46.574,46.574,0,0,1,13.192,1.934.816.816,0,1,1-.447,1.571,45.161,45.161,0,0,0-12.789-1.872A.816.816,0,0,1,17.622,30.223Zm19.024,2.231a.816.816,0,0,1,.545-1.018,45.4,45.4,0,0,1,13.2-2.007h.024a.817.817,0,0,1,.023,1.633A43.955,43.955,0,0,0,37.663,33a.816.816,0,0,1-1.018-.545ZM51.233,51.9a.817.817,0,0,1-.788.844A41.89,41.89,0,0,0,37.7,54.825a.817.817,0,1,1-.547-1.539,43.44,43.44,0,0,1,13.236-2.169h.028a.816.816,0,0,1,.816.788Zm0-5.421a.817.817,0,0,1-.789.843,42.338,42.338,0,0,0-12.755,2.04.817.817,0,1,1-.525-1.546A43.857,43.857,0,0,1,50.39,45.695a.817.817,0,0,1,.843.789Zm0-5.42a.817.817,0,0,1-.791.842A43.556,43.556,0,0,0,37.677,43.9a.817.817,0,1,1-.5-1.555,45.049,45.049,0,0,1,13.215-2.071.814.814,0,0,1,.841.791ZM36.645,37.876a.816.816,0,0,1,.545-1.018,45.4,45.4,0,0,1,13.2-2.007h.024a.817.817,0,0,1,.023,1.633,43.953,43.953,0,0,0-12.777,1.938.816.816,0,0,1-1.018-.545Zm-15.6,18L18.56,65.142a.817.817,0,1,1-1.577-.423l2.482-9.265a.817.817,0,0,1,1.577.423Zm-5.175,1.637-3.3,2.784,3.3,2.784a.817.817,0,0,1-1.052,1.249L10.77,60.922a.817.817,0,0,1,0-1.249l4.045-3.409a.817.817,0,0,1,1.052,1.249Zm7.342-1.249,4.045,3.409a.817.817,0,0,1,0,1.249l-4.045,3.409a.817.817,0,0,1-1.052-1.249l3.3-2.784-3.3-2.784a.817.817,0,0,1,1.052-1.249Z" transform="translate(-6172.813 -7474.937)"/>
  </g>
</svg>
