<svg xmlns="http://www.w3.org/2000/svg" width="67" height="67" viewBox="0 0 67 67">
  <g id="Grupo_1187276" data-name="Grupo 1187276" transform="translate(6569 7461)">
    <rect id="Rectángulo_459487" data-name="Rectángulo 459487" width="67" height="67" transform="translate(-6569 -7461)" fill="#ffe79e"/>
    <path id="codificacion_2_" data-name="codificacion (2)" d="M58,82.952H56.281V58.1a2.875,2.875,0,0,0-2.872-2.872H34.2V50.265a1.838,1.838,0,0,0-1.836-1.836H9.836A1.838,1.838,0,0,0,8,50.265V66.839a1.838,1.838,0,0,0,1.836,1.836h1.611V82.952H9.731a.82.82,0,0,0-.82.82v4.506a.82.82,0,0,0,.679.808L20.3,90.949a.828.828,0,0,0,.141.012H47.284a.828.828,0,0,0,.141-.012l10.712-1.865a.82.82,0,0,0,.679-.808V83.771A.82.82,0,0,0,58,82.952ZM15.8,68.675h16.56A1.838,1.838,0,0,0,34.2,66.839V59.758H50.953c.528,0,.975.337.975.735V80.168H15.8ZM9.836,50.068H32.359a.2.2,0,0,1,.2.2V52.3H9.639v-2.03a.2.2,0,0,1,.2-.2Zm-.2,16.77v-12.9H32.556v12.9a.2.2,0,0,1-.2.2H9.836A.2.2,0,0,1,9.639,66.839Zm3.447,1.836H14.16V80.987a.82.82,0,0,0,.82.82H52.747a.82.82,0,0,0,.82-.82V60.493a2.505,2.505,0,0,0-2.614-2.374H34.2V56.871H53.409A1.234,1.234,0,0,1,54.641,58.1V82.952H13.086Zm14.4,15.916H40.243V86H27.484Zm29.693,3-9.963,1.735h-26.7L10.55,87.587v-3H25.845v2.226a.82.82,0,0,0,.82.82h14.4a.82.82,0,0,0,.82-.82V84.591H57.177ZM49,76.665a.82.82,0,0,1-.82.82H43.7a.82.82,0,1,1,0-1.639h4.473A.82.82,0,0,1,49,76.665Zm0-10.311a.82.82,0,0,1-.82.82H36.83a.82.82,0,1,1,0-1.639H48.176A.82.82,0,0,1,49,66.354Zm0,3.093a.82.82,0,0,1-.82.82H36.83a.82.82,0,1,1,0-1.639H48.176A.82.82,0,0,1,49,69.447ZM26.981,73.572a.82.82,0,0,1,.82-.82h3.92a.82.82,0,1,1,0,1.639H27.8A.82.82,0,0,1,26.981,73.572Zm-8.249,0a.82.82,0,0,1,.82-.82h5.563a.82.82,0,1,1,0,1.639H19.552A.82.82,0,0,1,18.732,73.572Zm23.045,3.093a.82.82,0,0,1-.82.82H31.926a.82.82,0,1,1,0-1.639h9.032A.82.82,0,0,1,41.777,76.665Zm-12.374,0a.82.82,0,0,1-.82.82H19.552a.82.82,0,1,1,0-1.639h9.032A.82.82,0,0,1,29.4,76.665ZM49,73.572a.82.82,0,0,1-.82.82H34.207a.82.82,0,1,1,0-1.639H48.176A.82.82,0,0,1,49,73.572ZM49,63.26a.82.82,0,0,1-.82.82H36.83a.82.82,0,0,1,0-1.639H48.176A.82.82,0,0,1,49,63.26ZM11.486,51.182a.594.594,0,1,1,.594.594A.594.594,0,0,1,11.486,51.182Zm2.281,0a.594.594,0,1,1,.594.594.594.594,0,0,1-.594-.594Zm2.28,0a.594.594,0,1,1,.594.594.594.594,0,0,1-.594-.594Zm6.936,5.3L20.8,64.641a.82.82,0,1,1-1.583-.424L21.4,56.054a.82.82,0,0,1,1.583.424Zm-4.591,1.493-2.82,2.376,2.82,2.376a.82.82,0,0,1-1.056,1.254l-3.564-3a.82.82,0,0,1,0-1.254l3.564-3a.82.82,0,0,1,1.056,1.254Zm10.324,2.376a.82.82,0,0,1-.291.627l-3.564,3A.82.82,0,0,1,23.8,62.724l2.82-2.376L23.8,57.971a.82.82,0,1,1,1.056-1.253l3.564,3A.819.819,0,0,1,28.715,60.347Z" transform="translate(-6569 -7497.429)"/>
  </g>
</svg>
