<svg xmlns="http://www.w3.org/2000/svg" width="188" height="152" viewBox="0 0 188 152">
  <g id="Grupo_1186334" data-name="Grupo 1186334" transform="translate(-1121.711 -7553)">
    <rect id="Rectángulo_459177" data-name="Rectángulo 459177" width="188" height="152" transform="translate(1121.711 7553)" fill="#a4e7f0"/>
    <path id="Trazado_1032342" data-name="Trazado 1032342" d="M39.434,0H148.161L188,32H0Z" transform="translate(1121.711 7673)" fill="#6da3ab"/>
    <g id="codigo-fuente" transform="translate(1128.279 7563.242)">
      <path id="Trazado_1032323" data-name="Trazado 1032323" d="M196.853,397.348h25.193V422.97H196.853Z" transform="translate(-121.806 -290.941)" fill="#d5e3f2"/>
      <path id="Trazado_1032324" data-name="Trazado 1032324" d="M145.792,492.6h52.541v-3.27c0-2.107-2.131-3.824-4.737-3.824H150.53c-2.607,0-4.738,1.717-4.738,3.824Z" transform="translate(-84.418 -355.493)" fill="#b7cfe8" fill-rule="evenodd"/>
      <path id="Trazado_1032325" data-name="Trazado 1032325" d="M144.788,204.9a5.013,5.013,0,0,1-4.807,5.174H35.307A5.013,5.013,0,0,1,30.5,204.9V132.592a5.018,5.018,0,0,1,4.808-5.175H139.981a5.018,5.018,0,0,1,4.807,5.175Z" transform="translate(0 -93.296)" fill="#3f5163" fill-rule="evenodd"/>
      <path id="Trazado_1032326" data-name="Trazado 1032326" d="M157.728,220.006v-62.6H58.361v62.6Z" transform="translate(-20.401 -115.254)" fill="#69a7ff" fill-rule="evenodd"/>
      <path id="Trazado_1032327" data-name="Trazado 1032327" d="M224.047,410.265a1.928,1.928,0,1,1,0-3.856h7.8a1.928,1.928,0,1,1,0,3.856Z" transform="translate(-140.306 -297.576)" fill="#d5e3f2"/>
      <g id="Grupo_1186333" data-name="Grupo 1186333" transform="translate(49.206)">
        <path id="Trazado_1032328" data-name="Trazado 1032328" d="M145.035,0V81.3h64.91V14.571L195.374,0Z" transform="translate(-133.071)" fill="#ffab02" fill-rule="evenodd"/>
        <path id="Trazado_1032329" data-name="Trazado 1032329" d="M333.013,0l14.571,14.571H333.013Z" transform="translate(-270.71)" fill="#ed9e00" fill-rule="evenodd"/>
        <path id="Trazado_1032330" data-name="Trazado 1032330" d="M100.357,44.678v81.3h64.91V59.249L150.7,44.678Z" transform="translate(-100.357 -32.714)" fill="#d5e3f2" fill-rule="evenodd"/>
        <path id="Trazado_1032331" data-name="Trazado 1032331" d="M288.335,44.678l14.571,14.571H288.335Z" transform="translate(-237.996 -32.714)" fill="#b7cfe8" fill-rule="evenodd"/>
      </g>
      <path id="Trazado_1032332" data-name="Trazado 1032332" d="M125.57,86.254a1.928,1.928,0,0,1,0-3.856H158.81a1.928,1.928,0,1,1,0,3.856Zm0-10.474a1.928,1.928,0,0,1,0-3.856H158.81a1.928,1.928,0,1,1,0,3.856Zm0,31.429a1.928,1.928,0,1,1,0-3.856H158a1.928,1.928,0,1,1,0,3.856Zm0,31.421a1.928,1.928,0,0,1,0-3.856h32.654a1.928,1.928,0,1,1,0,3.856Zm0-10.474a1.928,1.928,0,0,1,0-3.856h32.654a1.928,1.928,0,1,1,0,3.856Zm0-10.474a1.928,1.928,0,0,1,0-3.856h32.654a1.928,1.928,0,1,1,0,3.856Zm0-20.955a1.924,1.924,0,1,1,0-3.848h32.5a1.924,1.924,0,1,1,0,3.848Z" transform="translate(-68.2 -52.663)" fill="#3f5163"/>
      <path id="Trazado_1032333" data-name="Trazado 1032333" d="M281.953,190.718H335.39v34.5H281.953Z" transform="translate(-184.117 -139.645)" fill="#ff3d50"/>
      <path id="Trazado_1032334" data-name="Trazado 1032334" d="M322.818,228.453a1.919,1.919,0,1,1-2.529,2.888l-5.791-5.065a1.923,1.923,0,0,1-.179-2.708,2.234,2.234,0,0,1,.2-.2l5.775-5.049a1.919,1.919,0,1,1,2.528,2.888l-4.136,3.621Zm9.811-13.346a1.928,1.928,0,0,1,3.722,1l-4.94,18.442a1.926,1.926,0,1,1-3.723-.991ZM343.75,231.34a1.919,1.919,0,1,1-2.529-2.888l4.136-3.621-4.136-3.621a1.919,1.919,0,1,1,2.529-2.888l5.775,5.05a2.278,2.278,0,0,1,.2.2,1.916,1.916,0,0,1-.18,2.708Z" transform="translate(-207.468 -156.503)" fill="#d5e3f2"/>
      <path id="Trazado_1032335" data-name="Trazado 1032335" d="M61.927,220.006v-62.6H58.361v62.6Z" transform="translate(-20.401 -115.254)" fill="#5f96e6" fill-rule="evenodd"/>
      <path id="Trazado_1032336" data-name="Trazado 1032336" d="M37.96,198.048v-62.6h3.566v-2.856a5.018,5.018,0,0,1,4.808-5.175H35.307a5.018,5.018,0,0,0-4.808,5.175V204.9a5.013,5.013,0,0,0,4.808,5.174H46.334a5.013,5.013,0,0,1-4.808-5.174v-6.853Z" transform="translate(0 -93.296)" fill="#334454" fill-rule="evenodd"/>
      <path id="Trazado_1032337" data-name="Trazado 1032337" d="M104.743,125.978v-81.3h-4.386v81.3Z" transform="translate(-51.151 -32.714)" fill="#b7cfe8" fill-rule="evenodd"/>
      <path id="Trazado_1032338" data-name="Trazado 1032338" d="M145.035,0h4.386V11.964h-4.386Z" transform="translate(-83.864)" fill="#ed9e00"/>
      <path id="Trazado_1032339" data-name="Trazado 1032339" d="M285.426,220.945V190.718h-3.473v34.5H335.39v-3.972H285.426Z" transform="translate(-184.117 -139.645)" fill="#e82e41" fill-rule="evenodd"/>
      <path id="Trazado_1032340" data-name="Trazado 1032340" d="M196.853,436.08h4.6v13.236h-4.6Z" transform="translate(-121.806 -319.301)" fill="#b7cfe8"/>
      <path id="Trazado_1032341" data-name="Trazado 1032341" d="M147.97,490.958c0-2.1,2.131-3.817,4.737-3.817h43.065a5.617,5.617,0,0,1,1.975.351,5.029,5.029,0,0,0-4.151-1.982H150.53c-2.607,0-4.738,1.717-4.738,3.824V492.6h2.178Z" transform="translate(-84.418 -355.495)" fill="#a7bed6" fill-rule="evenodd"/>
    </g>
  </g>
</svg>
