<svg xmlns="http://www.w3.org/2000/svg" width="83.986" height="123.847" viewBox="0 0 83.986 123.847">
  <g id="alojamiento-web_1_" data-name="alojamiento-web (1)" transform="translate(-11.8 -1.502)">
    <g id="Grupo_1186710" data-name="Grupo 1186710" transform="translate(11.8 1.502)">
      <g id="Grupo_1186635" data-name="Grupo 1186635">
        <g id="Grupo_1186634" data-name="Grupo 1186634">
          <g id="Grupo_1186633" data-name="Grupo 1186633">
            <g id="Grupo_1186632" data-name="Grupo 1186632">
              <g id="Grupo_1186631" data-name="Grupo 1186631">
                <g id="Grupo_1186629" data-name="Grupo 1186629">
                  <g id="Grupo_1186628" data-name="Grupo 1186628">
                    <g id="Grupo_1186623" data-name="Grupo 1186623" transform="translate(0.016 12.171)">
                      <g id="Grupo_1186615" data-name="Grupo 1186615" transform="translate(0.154 105.209)">
                        <path id="Trazado_1033037" data-name="Trazado 1033037" d="M20.1,68.42l-7.328-4.331a2.108,2.108,0,0,1-.879-1.932l7.328,4.331A2.108,2.108,0,0,0,20.1,68.42Z" transform="translate(-11.889 -62.157)" fill="#c4c2c0"/>
                      </g>
                      <g id="Grupo_1186617" data-name="Grupo 1186617" transform="translate(0 39.828)">
                        <g id="Grupo_1186616" data-name="Grupo 1186616">
                          <path id="Trazado_1033038" data-name="Trazado 1033038" d="M19.291,98.084l-7.328-4.331-.154-65.38L19.137,32.7Z" transform="translate(-11.809 -28.372)" fill="#d6d4d2"/>
                        </g>
                      </g>
                      <g id="Grupo_1186619" data-name="Grupo 1186619" transform="translate(0 53.576)">
                        <g id="Grupo_1186618" data-name="Grupo 1186618">
                          <path id="Trazado_1033039" data-name="Trazado 1033039" d="M19.291,91.44l-7.328-4.331-.154-51.633,7.328,4.331Z" transform="translate(-11.809 -35.476)" fill="#c4c2c0"/>
                        </g>
                      </g>
                      <g id="Grupo_1186621" data-name="Grupo 1186621" transform="translate(0 81.072)">
                        <g id="Grupo_1186620" data-name="Grupo 1186620">
                          <path id="Trazado_1033040" data-name="Trazado 1033040" d="M19.291,78.153l-7.328-4.331-.154-24.137,7.328,4.331Z" transform="translate(-11.809 -49.684)" fill="#d6d4d2"/>
                        </g>
                      </g>
                      <g id="Grupo_1186622" data-name="Grupo 1186622" transform="translate(7.328 0)">
                        <path id="Trazado_1033041" data-name="Trazado 1033041" d="M92.083,7.791l.154,65.38a6.615,6.615,0,0,1-3,5.2L18.771,119.053c-1.663.96-3.015.189-3.021-1.722L15.6,51.951Z" transform="translate(-15.596 -7.791)" fill="#e9e8e6"/>
                        <path id="Trazado_1033042" data-name="Trazado 1033042" d="M16.845,51.324,88.51,9.948l.144,61.211a4.283,4.283,0,0,1-1.794,3.1L17.013,114.588Z" transform="translate(-14.427 -5.773)" fill="#fff"/>
                      </g>
                    </g>
                    <g id="Grupo_1186627" data-name="Grupo 1186627">
                      <g id="Grupo_1186625" data-name="Grupo 1186625">
                        <path id="Trazado_1033043" data-name="Trazado 1033043" d="M14.8,25.007a6.611,6.611,0,0,0-3,5.2l.016,5.7,7.329,4.331-.017-5.7a6.615,6.615,0,0,1,3-5.2l8.133-4.7-7.328-4.331Z" transform="translate(-11.8 16.089)" fill="#3f9ae0"/>
                        <path id="Trazado_1033044" data-name="Trazado 1033044" d="M17.554,25.3l7.328,4.331L42.774,19.3l-7.328-4.331Z" transform="translate(-6.42 11.097)" fill="#006cb5"/>
                        <path id="Trazado_1033045" data-name="Trazado 1033045" d="M64.383,7.625,57.055,3.293,36.31,15.271,43.638,19.6Z" transform="translate(11.12 0.174)" fill="#006cb5"/>
                        <g id="Grupo_1186624" data-name="Grupo 1186624" transform="translate(29.026)">
                          <path id="Trazado_1033046" data-name="Trazado 1033046" d="M45.2,9.483,26.8,20.108l7.328,4.331,18.4-10.625Z" transform="translate(-26.8 5.962)" fill="#3f9ae0"/>
                          <path id="Trazado_1033047" data-name="Trazado 1033047" d="M59.649,6.246a2.123,2.123,0,0,1,2.142-.21L54.463,1.7a2.126,2.126,0,0,0-2.143.21L47.03,4.969,54.358,9.3Z" transform="translate(-7.881 -1.502)" fill="#3f9ae0"/>
                        </g>
                      </g>
                      <g id="Grupo_1186626" data-name="Grupo 1186626" transform="translate(7.328 4.331)">
                        <path id="Trazado_1033048" data-name="Trazado 1033048" d="M89.053,4.153c1.663-.96,3.016-.19,3.021,1.721l.016,5.7L15.6,55.739l-.016-5.7a6.614,6.614,0,0,1,3-5.2Z" transform="translate(-15.587 -3.74)" fill="#0074d1"/>
                      </g>
                    </g>
                  </g>
                </g>
                <g id="Grupo_1186630" data-name="Grupo 1186630" transform="translate(10.345 40.895)">
                  <path id="Trazado_1033049" data-name="Trazado 1033049" d="M18.842,26.171c.92-.531,1.678-.113,1.681.958a3.706,3.706,0,0,1-1.67,2.908c-.932.538-1.7.113-1.707-.958a3.71,3.71,0,0,1,1.7-2.908Z" transform="translate(-17.146 -19.541)" fill="#fff"/>
                  <path id="Trazado_1033050" data-name="Trazado 1033050" d="M21.694,24.523c.932-.538,1.691-.121,1.694.951a3.71,3.71,0,0,1-1.683,2.915c-.933.538-1.691.106-1.694-.965A3.684,3.684,0,0,1,21.694,24.523Z" transform="translate(-14.467 -21.087)" fill="#fff"/>
                  <path id="Trazado_1033051" data-name="Trazado 1033051" d="M24.559,22.869c.932-.538,1.691-.121,1.694.951a3.71,3.71,0,0,1-1.683,2.915c-.933.538-1.691.106-1.694-.965a3.684,3.684,0,0,1,1.683-2.9Z" transform="translate(-11.787 -22.634)" fill="#fff"/>
                </g>
              </g>
            </g>
          </g>
        </g>
      </g>
      <g id="Grupo_1186709" data-name="Grupo 1186709" transform="translate(16.023 42.481)">
        <g id="Grupo_1186690" data-name="Grupo 1186690">
          <g id="Grupo_1186653" data-name="Grupo 1186653" transform="translate(22.13 41.728)">
            <g id="Grupo_1186652" data-name="Grupo 1186652">
              <g id="Grupo_1186651" data-name="Grupo 1186651">
                <g id="Grupo_1186638" data-name="Grupo 1186638" transform="translate(18.837 16.242)">
                  <g id="Grupo_1186636" data-name="Grupo 1186636" transform="translate(0 6.827)">
                    <path id="Trazado_1033052" data-name="Trazado 1033052" d="M43.351,57.226a4.572,4.572,0,0,1,2.079,3.612c0,1.316-.937,1.848-2.092,1.181a4.586,4.586,0,0,1-2.088-3.595c0-1.339.947-1.865,2.1-1.2Z" transform="translate(-41.249 -56.937)" fill="#e9e8e6"/>
                  </g>
                  <g id="Grupo_1186637" data-name="Grupo 1186637" transform="translate(0.613)">
                    <path id="Trazado_1033053" data-name="Trazado 1033053" d="M53.939,53.7l-11.4,6.824a4.829,4.829,0,0,1,1.405,1.96l11.4-6.821a4.75,4.75,0,0,0-1.4-1.963Z" transform="translate(-40.656 -53.138)" fill="#c4c2c0"/>
                    <path id="Trazado_1033054" data-name="Trazado 1033054" d="M43.709,62.919a1.417,1.417,0,0,1-.613,1.319l11.4-6.822a1.452,1.452,0,0,0,.6-1.334,3.748,3.748,0,0,0-.271-1.368l-11.4,6.821A3.85,3.85,0,0,1,43.709,62.919Z" transform="translate(-40.136 -52.189)" fill="#b2b0af"/>
                    <path id="Trazado_1033055" data-name="Trazado 1033055" d="M54.45,53.7a1.49,1.49,0,0,0-1.488-.153l-11.4,6.837a1.445,1.445,0,0,1,1.487.138,3.309,3.309,0,0,1,.395.275l11.4-6.824a3.186,3.186,0,0,0-.4-.273Z" transform="translate(-41.566 -53.409)" fill="#d6d4d2"/>
                  </g>
                </g>
                <g id="Grupo_1186647" data-name="Grupo 1186647" transform="translate(9.727)">
                  <g id="Grupo_1186640" data-name="Grupo 1186640" transform="translate(0 20.07)">
                    <path id="Trazado_1033056" data-name="Trazado 1033056" d="M44.23,55.485a7.467,7.467,0,0,1-6.139,13.263A7.468,7.468,0,1,0,44.23,55.485Z" transform="translate(-35.093 -55.296)" fill="#7e8a8c"/>
                    <g id="Grupo_1186639" data-name="Grupo 1186639">
                      <path id="Trazado_1033057" data-name="Trazado 1033057" d="M45.107,55.577a7.436,7.436,0,0,0-2.9-.085,7.468,7.468,0,0,1-5.049,11.4,7.5,7.5,0,0,0,1.814,1.951,7.469,7.469,0,0,0,6.139-13.263Z" transform="translate(-35.97 -55.388)" fill="#8d9799"/>
                      <path id="Trazado_1033058" data-name="Trazado 1033058" d="M43.957,59.467a7.422,7.422,0,0,0-1.182-4.026,7.465,7.465,0,0,0-5.049,11.4,7.47,7.47,0,0,0,6.231-7.371Z" transform="translate(-36.542 -55.338)" fill="#a0a8aa"/>
                    </g>
                  </g>
                  <g id="Grupo_1186646" data-name="Grupo 1186646" transform="translate(3.773)">
                    <g id="Grupo_1186645" data-name="Grupo 1186645">
                      <g id="Grupo_1186641" data-name="Grupo 1186641" transform="translate(0 1.65)">
                        <path id="Trazado_1033059" data-name="Trazado 1033059" d="M44.265,45.884l-.05,20.87a1.421,1.421,0,0,1-.832,1.163,4.454,4.454,0,0,1-4.044,0,1.433,1.433,0,0,1-.846-1.18l.051-20.87a1.433,1.433,0,0,0,.846,1.18,4.454,4.454,0,0,0,4.044,0,1.421,1.421,0,0,0,.832-1.163Z" transform="translate(-38.492 -45.869)" fill="#d6d4d2"/>
                      </g>
                      <g id="Grupo_1186642" data-name="Grupo 1186642" transform="translate(1.63 1.665)">
                        <path id="Trazado_1033060" data-name="Trazado 1033060" d="M42.645,47.04a4.507,4.507,0,0,1-3.311.308V68.232a4.5,4.5,0,0,0,3.26-.321,1.421,1.421,0,0,0,.832-1.163l.05-20.87a1.421,1.421,0,0,1-.832,1.163Z" transform="translate(-39.334 -45.877)" fill="#c4c2c0"/>
                      </g>
                      <g id="Grupo_1186643" data-name="Grupo 1186643" transform="translate(4.526 1.665)">
                        <path id="Trazado_1033061" data-name="Trazado 1033061" d="M41.245,47.04a3.085,3.085,0,0,1-.414.2V68.087a3.045,3.045,0,0,0,.364-.177,1.421,1.421,0,0,0,.832-1.163l.05-20.87a1.421,1.421,0,0,1-.832,1.163Z" transform="translate(-40.831 -45.877)" fill="#b2b0af"/>
                      </g>
                      <g id="Grupo_1186644" data-name="Grupo 1186644" transform="translate(0.05)">
                        <path id="Trazado_1033062" data-name="Trazado 1033062" d="M43.4,45.5a1.237,1.237,0,0,1,.012,2.342,4.454,4.454,0,0,1-4.044,0,1.238,1.238,0,0,1-.013-2.344,4.452,4.452,0,0,1,4.046,0Z" transform="translate(-38.518 -45.016)" fill="#e9e8e6"/>
                      </g>
                    </g>
                  </g>
                </g>
                <g id="Grupo_1186650" data-name="Grupo 1186650" transform="translate(0 27.806)">
                  <g id="Grupo_1186648" data-name="Grupo 1186648" transform="translate(0 6.462)">
                    <path id="Trazado_1033063" data-name="Trazado 1033063" d="M33.618,63.012A4.572,4.572,0,0,1,35.7,66.624c0,1.316-.937,1.848-2.092,1.181a4.586,4.586,0,0,1-2.088-3.595C31.519,62.871,32.462,62.345,33.618,63.012Z" transform="translate(-31.516 -62.724)" fill="#e9e8e6"/>
                  </g>
                  <g id="Grupo_1186649" data-name="Grupo 1186649" transform="translate(0.613)">
                    <path id="Trazado_1033064" data-name="Trazado 1033064" d="M43.592,59.675,32.8,66.134a4.829,4.829,0,0,1,1.405,1.96l10.783-6.456A4.75,4.75,0,0,0,43.592,59.675Z" transform="translate(-30.923 -59.113)" fill="#c4c2c0"/>
                    <path id="Trazado_1033065" data-name="Trazado 1033065" d="M33.975,68.529a1.417,1.417,0,0,1-.613,1.319l10.784-6.456a1.452,1.452,0,0,0,.6-1.334,3.748,3.748,0,0,0-.271-1.368L33.69,67.146a3.85,3.85,0,0,1,.285,1.384Z" transform="translate(-30.402 -58.164)" fill="#b2b0af"/>
                    <path id="Trazado_1033066" data-name="Trazado 1033066" d="M44.1,59.674a1.49,1.49,0,0,0-1.488-.153L31.832,65.993a1.444,1.444,0,0,1,1.487.138,3.311,3.311,0,0,1,.395.275L44.5,59.947a3.184,3.184,0,0,0-.4-.273Z" transform="translate(-31.832 -59.385)" fill="#d6d4d2"/>
                  </g>
                </g>
              </g>
            </g>
          </g>
          <g id="Grupo_1186669" data-name="Grupo 1186669" transform="translate(0 13.3)">
            <g id="Grupo_1186660" data-name="Grupo 1186660">
              <g id="Grupo_1186659" data-name="Grupo 1186659">
                <g id="Grupo_1186654" data-name="Grupo 1186654" transform="translate(17.355)">
                  <path id="Trazado_1033067" data-name="Trazado 1033067" d="M45.914,30.376l28.642,16.65a.49.49,0,0,0-.468.022q-8.182,4-16.4,8.729L29.048,39.127q8.2-4.716,16.4-8.729a.49.49,0,0,1,.468-.022Z" transform="translate(-29.048 -30.326)" fill="#e9e8e6"/>
                </g>
                <g id="Grupo_1186655" data-name="Grupo 1186655" transform="translate(0 8.801)">
                  <path id="Trazado_1033068" data-name="Trazado 1033068" d="M49.248,71.711,20.607,55.061a.443.443,0,0,1-.2-.339,29.749,29.749,0,0,1-.032-8.573,1.646,1.646,0,0,1,.663-1.07q8.178-5.441,16.4-10.205l28.642,16.65q-8.21,4.761-16.4,10.205a1.646,1.646,0,0,0-.663,1.07,29.749,29.749,0,0,0,.032,8.573.443.443,0,0,0,.2.339Z" transform="translate(-20.08 -34.874)" fill="#d6d4d2"/>
                </g>
                <g id="Grupo_1186656" data-name="Grupo 1186656" transform="translate(0 19.007)">
                  <path id="Trazado_1033069" data-name="Trazado 1033069" d="M49.013,57.87a29.871,29.871,0,0,0,.038,8.573.452.452,0,0,0,.195.339L20.608,50.126a.435.435,0,0,1-.2-.339,29.654,29.654,0,0,1-.031-8.573,1.647,1.647,0,0,1,.659-1.067L49.679,56.8a1.654,1.654,0,0,0-.665,1.073Z" transform="translate(-20.08 -40.148)" fill="#e9e8e6"/>
                </g>
                <g id="Grupo_1186658" data-name="Grupo 1186658" transform="translate(28.642 16.65)">
                  <path id="Trazado_1033070" data-name="Trazado 1033070" d="M52.235,47.731q8.2-4.716,16.4-8.729c.333-.164.61-.039.667.3a29.789,29.789,0,0,1,.016,8.582,1.645,1.645,0,0,1-.663,1.084Q60.47,54.414,52.268,59.163q-8.2,4.716-16.4,8.734a.417.417,0,0,1-.663-.318,29.749,29.749,0,0,1-.032-8.573,1.646,1.646,0,0,1,.663-1.07q8.178-5.441,16.4-10.205Z" transform="translate(-34.88 -38.93)" fill="#c4c2c0"/>
                  <g id="Grupo_1186657" data-name="Grupo 1186657" transform="translate(0.636 0.727)">
                    <path id="Trazado_1033071" data-name="Trazado 1033071" d="M68.31,39.306c-.186.091-.375.189-.561.281a30.381,30.381,0,0,1-.087,7.612,1.03,1.03,0,0,1-.386.639C61.912,51.406,56.41,54.829,50.92,58.013c-5.233,3.008-10.475,5.805-15.6,8.334.022.179.032.361.057.539,5.3-2.6,10.739-5.5,16.162-8.617,5.49-3.184,10.992-6.607,16.355-10.175a1.03,1.03,0,0,0,.386-.639,29.7,29.7,0,0,0,.028-8.15Z" transform="translate(-35.104 -39.306)" fill="#e9e8e6"/>
                    <path id="Trazado_1033072" data-name="Trazado 1033072" d="M67.768,47.063a1.05,1.05,0,0,1-.389.64c-5.359,3.565-10.863,6.991-16.354,10.173-5.234,3.012-10.474,5.805-15.6,8.334a29.722,29.722,0,0,1,.063-7.606,1.021,1.021,0,0,1,.389-.628c5.4-3.6,10.9-7.023,16.367-10.192C57.445,44.8,62.691,42,67.856,39.451a30.823,30.823,0,0,1-.088,7.612Z" transform="translate(-35.209 -39.171)" fill="#434240"/>
                  </g>
                </g>
              </g>
            </g>
            <g id="Grupo_1186668" data-name="Grupo 1186668" transform="translate(56.55 20.026)">
              <g id="Grupo_1186667" data-name="Grupo 1186667">
                <g id="Grupo_1186661" data-name="Grupo 1186661" transform="translate(0.012 6.367)">
                  <path id="Trazado_1033073" data-name="Trazado 1033073" d="M50.189,44.67l-.762-.443a.286.286,0,0,1-.119-.262l.762.443A.286.286,0,0,0,50.189,44.67Z" transform="translate(-49.308 -43.965)" fill="#6dcb60"/>
                </g>
                <g id="Grupo_1186662" data-name="Grupo 1186662" transform="translate(2.86)">
                  <path id="Trazado_1033074" data-name="Trazado 1033074" d="M51.073,40.7l.762.443a.291.291,0,0,0-.293.028l-.762-.443A.291.291,0,0,1,51.073,40.7Z" transform="translate(-50.78 -40.674)" fill="#6dcb60"/>
                </g>
                <g id="Grupo_1186663" data-name="Grupo 1186663" transform="translate(0 2.176)">
                  <path id="Trazado_1033075" data-name="Trazado 1033075" d="M50.076,46.433l-.762-.443L49.3,41.8l.762.443Z" transform="translate(-49.302 -41.799)" fill="#3db542"/>
                </g>
                <g id="Grupo_1186664" data-name="Grupo 1186664" transform="translate(0.406 0.056)">
                  <path id="Trazado_1033076" data-name="Trazado 1033076" d="M50.274,42.563l-.762-.443L51.965,40.7l.762.443Z" transform="translate(-49.512 -40.703)" fill="#3db542"/>
                </g>
                <g id="Grupo_1186665" data-name="Grupo 1186665" transform="translate(0 1.473)">
                  <path id="Trazado_1033077" data-name="Trazado 1033077" d="M50.064,42.581l-.762-.443a.891.891,0,0,1,.406-.7l.762.443A.891.891,0,0,0,50.064,42.581Z" transform="translate(-49.302 -41.435)" fill="#6dcb60"/>
                </g>
                <g id="Grupo_1186666" data-name="Grupo 1186666" transform="translate(0.762 0.443)">
                  <path id="Trazado_1033078" data-name="Trazado 1033078" d="M52.555,40.959c.224-.13.411-.027.412.231l.012,4.192a.9.9,0,0,1-.409.705L50.116,47.5c-.228.132-.408.025-.409-.233L49.7,43.079a.891.891,0,0,1,.406-.7Z" transform="translate(-49.696 -40.903)" fill="#81d672"/>
                </g>
              </g>
            </g>
          </g>
          <g id="Grupo_1186671" data-name="Grupo 1186671" transform="translate(6.341 15.617)">
            <g id="Grupo_1186670" data-name="Grupo 1186670">
              <path id="Trazado_1033079" data-name="Trazado 1033079" d="M47.334,39.043a3.673,3.673,0,0,1,3.336,0,1.52,1.52,0,0,1,.545.5c.3-.483.123-1.044-.545-1.43a3.672,3.672,0,0,0-3.336,0c-.662.384-.836.941-.537,1.422A1.515,1.515,0,0,1,47.334,39.043Z" transform="translate(-1.568 -25.733)" fill="#fff"/>
              <path id="Trazado_1033080" data-name="Trazado 1033080" d="M36.608,32.851a3.678,3.678,0,0,1,3.336,0,1.525,1.525,0,0,1,.548.505c.3-.484.123-1.045-.548-1.432a3.678,3.678,0,0,0-3.336,0c-.661.384-.834.941-.536,1.422A1.51,1.51,0,0,1,36.608,32.851Z" transform="translate(-11.597 -31.524)" fill="#fff"/>
              <path id="Trazado_1033081" data-name="Trazado 1033081" d="M38.1,45.422a3.678,3.678,0,0,0-3.336,0c-.664.386-.839.943-.539,1.425a1.52,1.52,0,0,1,.539-.5,3.678,3.678,0,0,1,3.336,0,1.515,1.515,0,0,1,.544.5C38.943,46.369,38.766,45.808,38.1,45.422Z" transform="translate(-13.327 -18.9)" fill="#fff"/>
              <path id="Trazado_1033082" data-name="Trazado 1033082" d="M27.373,39.23a3.684,3.684,0,0,0-3.336,0c-.664.386-.837.943-.539,1.425a1.515,1.515,0,0,1,.539-.5,3.684,3.684,0,0,1,3.336,0,1.521,1.521,0,0,1,.547.5C28.22,40.179,28.043,39.617,27.373,39.23Z" transform="translate(-23.357 -24.69)" fill="#fff"/>
            </g>
            <path id="Trazado_1033083" data-name="Trazado 1033083" d="M47.279,39.6a3.669,3.669,0,0,0,3.327,0,1.52,1.52,0,0,0,.54-.5,1.52,1.52,0,0,0-.545-.5,3.673,3.673,0,0,0-3.336,0,1.514,1.514,0,0,0-.537.5,1.532,1.532,0,0,0,.551.509Z" transform="translate(-1.499 -25.285)" fill="#b2b0af"/>
            <path id="Trazado_1033084" data-name="Trazado 1033084" d="M36.554,33.406a3.671,3.671,0,0,0,3.33,0,1.521,1.521,0,0,0,.54-.5,1.525,1.525,0,0,0-.548-.505,3.678,3.678,0,0,0-3.336,0A1.51,1.51,0,0,0,36,32.9a1.527,1.527,0,0,0,.55.509Z" transform="translate(-11.529 -31.076)" fill="#b2b0af"/>
            <path id="Trazado_1033085" data-name="Trazado 1033085" d="M38.03,45.9a3.678,3.678,0,0,0-3.336,0,1.52,1.52,0,0,0-.539.5,1.531,1.531,0,0,0,.55.508,3.67,3.67,0,0,0,3.33,0,1.514,1.514,0,0,0,.54-.5,1.515,1.515,0,0,0-.544-.5Z" transform="translate(-13.259 -18.452)" fill="#b2b0af"/>
            <path id="Trazado_1033086" data-name="Trazado 1033086" d="M27.3,39.709a3.684,3.684,0,0,0-3.336,0,1.516,1.516,0,0,0-.539.5,1.526,1.526,0,0,0,.549.508,3.672,3.672,0,0,0,3.333,0,1.515,1.515,0,0,0,.539-.5,1.521,1.521,0,0,0-.547-.505Z" transform="translate(-23.289 -24.242)" fill="#b2b0af"/>
          </g>
          <g id="Grupo_1186687" data-name="Grupo 1186687">
            <g id="Grupo_1186678" data-name="Grupo 1186678">
              <g id="Grupo_1186677" data-name="Grupo 1186677">
                <g id="Grupo_1186672" data-name="Grupo 1186672" transform="translate(17.355)">
                  <path id="Trazado_1033087" data-name="Trazado 1033087" d="M45.914,23.5l28.642,16.65a.49.49,0,0,0-.468.022q-8.182,4-16.4,8.729L29.048,32.255q8.2-4.716,16.4-8.729a.49.49,0,0,1,.468-.022Z" transform="translate(-29.048 -23.454)" fill="#e9e8e6"/>
                </g>
                <g id="Grupo_1186673" data-name="Grupo 1186673" transform="translate(0 8.801)">
                  <path id="Trazado_1033088" data-name="Trazado 1033088" d="M49.248,64.838,20.607,48.188a.443.443,0,0,1-.2-.339,29.749,29.749,0,0,1-.032-8.573,1.646,1.646,0,0,1,.663-1.07Q29.215,32.766,37.435,28l28.642,16.65q-8.21,4.761-16.4,10.205a1.646,1.646,0,0,0-.663,1.07,29.749,29.749,0,0,0,.032,8.573.443.443,0,0,0,.2.339Z" transform="translate(-20.08 -28.001)" fill="#d6d4d2"/>
                </g>
                <g id="Grupo_1186674" data-name="Grupo 1186674" transform="translate(0 19.007)">
                  <path id="Trazado_1033089" data-name="Trazado 1033089" d="M49.013,51a29.871,29.871,0,0,0,.038,8.573.452.452,0,0,0,.195.339L20.608,43.254a.435.435,0,0,1-.2-.339,29.654,29.654,0,0,1-.031-8.573,1.647,1.647,0,0,1,.659-1.067L49.679,49.924A1.654,1.654,0,0,0,49.013,51Z" transform="translate(-20.08 -33.275)" fill="#e9e8e6"/>
                </g>
                <g id="Grupo_1186676" data-name="Grupo 1186676" transform="translate(28.642 16.65)">
                  <path id="Trazado_1033090" data-name="Trazado 1033090" d="M52.235,40.859q8.2-4.716,16.4-8.729c.333-.164.61-.039.667.3a29.789,29.789,0,0,1,.016,8.582,1.645,1.645,0,0,1-.663,1.084Q60.47,47.541,52.268,52.291q-8.2,4.716-16.4,8.734a.417.417,0,0,1-.663-.318,29.749,29.749,0,0,1-.032-8.573,1.646,1.646,0,0,1,.663-1.07q8.178-5.441,16.4-10.205Z" transform="translate(-34.88 -32.057)" fill="#c4c2c0"/>
                  <g id="Grupo_1186675" data-name="Grupo 1186675" transform="translate(0.636 0.727)">
                    <path id="Trazado_1033091" data-name="Trazado 1033091" d="M68.31,32.433c-.186.091-.375.189-.561.281a30.381,30.381,0,0,1-.087,7.612,1.03,1.03,0,0,1-.386.639C61.912,44.533,56.41,47.956,50.92,51.14c-5.233,3.008-10.475,5.805-15.6,8.334.022.179.032.361.057.539,5.3-2.6,10.739-5.5,16.162-8.617,5.49-3.184,10.992-6.607,16.355-10.175a1.03,1.03,0,0,0,.386-.639,29.7,29.7,0,0,0,.028-8.15Z" transform="translate(-35.104 -32.433)" fill="#e9e8e6"/>
                    <path id="Trazado_1033092" data-name="Trazado 1033092" d="M67.768,40.19a1.05,1.05,0,0,1-.389.64C62.02,44.395,56.516,47.821,51.025,51c-5.234,3.012-10.474,5.805-15.6,8.334a29.722,29.722,0,0,1,.063-7.606,1.021,1.021,0,0,1,.389-.628c5.4-3.6,10.9-7.023,16.367-10.192,5.2-2.987,10.449-5.786,15.614-8.334a30.823,30.823,0,0,1-.088,7.612Z" transform="translate(-35.209 -32.298)" fill="#434240"/>
                  </g>
                </g>
              </g>
            </g>
            <g id="Grupo_1186686" data-name="Grupo 1186686" transform="translate(56.55 20.026)">
              <g id="Grupo_1186685" data-name="Grupo 1186685">
                <g id="Grupo_1186679" data-name="Grupo 1186679" transform="translate(0.012 6.367)">
                  <path id="Trazado_1033093" data-name="Trazado 1033093" d="M50.189,37.8l-.762-.443a.286.286,0,0,1-.119-.262l.762.443A.286.286,0,0,0,50.189,37.8Z" transform="translate(-49.308 -37.092)" fill="#dd4a4a"/>
                </g>
                <g id="Grupo_1186680" data-name="Grupo 1186680" transform="translate(2.86)">
                  <path id="Trazado_1033094" data-name="Trazado 1033094" d="M51.073,33.83l.762.443a.291.291,0,0,0-.293.028l-.762-.443A.291.291,0,0,1,51.073,33.83Z" transform="translate(-50.78 -33.802)" fill="#dd4a4a"/>
                </g>
                <g id="Grupo_1186681" data-name="Grupo 1186681" transform="translate(0 2.176)">
                  <path id="Trazado_1033095" data-name="Trazado 1033095" d="M50.076,39.56l-.762-.443L49.3,34.926l.762.443Z" transform="translate(-49.302 -34.926)" fill="#cc4848"/>
                </g>
                <g id="Grupo_1186682" data-name="Grupo 1186682" transform="translate(0.406 0.056)">
                  <path id="Trazado_1033096" data-name="Trazado 1033096" d="M50.274,35.69l-.762-.443,2.454-1.417.762.443Z" transform="translate(-49.512 -33.831)" fill="#cc4848"/>
                </g>
                <g id="Grupo_1186683" data-name="Grupo 1186683" transform="translate(0 1.473)">
                  <path id="Trazado_1033097" data-name="Trazado 1033097" d="M50.064,35.709l-.762-.443a.891.891,0,0,1,.406-.7l.762.443A.891.891,0,0,0,50.064,35.709Z" transform="translate(-49.302 -34.563)" fill="#dd4a4a"/>
                </g>
                <g id="Grupo_1186684" data-name="Grupo 1186684" transform="translate(0.762 0.443)">
                  <path id="Trazado_1033098" data-name="Trazado 1033098" d="M52.555,34.086c.224-.13.411-.027.412.231l.012,4.192a.9.9,0,0,1-.409.705l-2.454,1.417c-.228.132-.408.025-.409-.233L49.7,36.206a.891.891,0,0,1,.406-.7Z" transform="translate(-49.696 -34.03)" fill="#f25a5a"/>
                </g>
              </g>
            </g>
          </g>
          <g id="Grupo_1186689" data-name="Grupo 1186689" transform="translate(6.341 2.317)">
            <g id="Grupo_1186688" data-name="Grupo 1186688">
              <path id="Trazado_1033099" data-name="Trazado 1033099" d="M47.334,32.17a3.673,3.673,0,0,1,3.336,0,1.52,1.52,0,0,1,.545.5c.3-.483.123-1.044-.545-1.43a3.672,3.672,0,0,0-3.336,0c-.662.384-.836.941-.537,1.422A1.515,1.515,0,0,1,47.334,32.17Z" transform="translate(-1.568 -18.86)" fill="#fff"/>
              <path id="Trazado_1033100" data-name="Trazado 1033100" d="M36.608,25.978a3.678,3.678,0,0,1,3.336,0,1.525,1.525,0,0,1,.548.505c.3-.484.123-1.045-.548-1.432a3.678,3.678,0,0,0-3.336,0c-.661.384-.834.941-.536,1.422A1.51,1.51,0,0,1,36.608,25.978Z" transform="translate(-11.597 -24.651)" fill="#fff"/>
              <path id="Trazado_1033101" data-name="Trazado 1033101" d="M38.1,38.55a3.678,3.678,0,0,0-3.336,0c-.664.386-.839.943-.539,1.425a1.52,1.52,0,0,1,.539-.5,3.678,3.678,0,0,1,3.336,0,1.515,1.515,0,0,1,.544.5C38.943,39.5,38.766,38.935,38.1,38.55Z" transform="translate(-13.327 -12.027)" fill="#fff"/>
              <path id="Trazado_1033102" data-name="Trazado 1033102" d="M27.373,32.357a3.684,3.684,0,0,0-3.336,0c-.664.386-.837.943-.539,1.425a1.516,1.516,0,0,1,.539-.5,3.684,3.684,0,0,1,3.336,0,1.521,1.521,0,0,1,.547.5C28.22,33.306,28.043,32.744,27.373,32.357Z" transform="translate(-23.357 -17.817)" fill="#fff"/>
            </g>
            <path id="Trazado_1033103" data-name="Trazado 1033103" d="M47.279,32.726a3.669,3.669,0,0,0,3.327,0,1.52,1.52,0,0,0,.54-.5,1.52,1.52,0,0,0-.545-.5,3.673,3.673,0,0,0-3.336,0,1.514,1.514,0,0,0-.537.5,1.532,1.532,0,0,0,.551.509Z" transform="translate(-1.499 -18.412)" fill="#b2b0af"/>
            <path id="Trazado_1033104" data-name="Trazado 1033104" d="M36.554,26.534a3.671,3.671,0,0,0,3.33,0,1.521,1.521,0,0,0,.54-.5,1.525,1.525,0,0,0-.548-.505,3.678,3.678,0,0,0-3.336,0,1.51,1.51,0,0,0-.536.495,1.527,1.527,0,0,0,.55.509Z" transform="translate(-11.529 -24.203)" fill="#b2b0af"/>
            <path id="Trazado_1033105" data-name="Trazado 1033105" d="M38.03,39.029a3.678,3.678,0,0,0-3.336,0,1.52,1.52,0,0,0-.539.5,1.531,1.531,0,0,0,.55.508,3.67,3.67,0,0,0,3.33,0,1.514,1.514,0,0,0,.54-.5,1.515,1.515,0,0,0-.544-.5Z" transform="translate(-13.259 -11.579)" fill="#b2b0af"/>
            <path id="Trazado_1033106" data-name="Trazado 1033106" d="M27.3,32.836a3.684,3.684,0,0,0-3.336,0,1.515,1.515,0,0,0-.539.5,1.526,1.526,0,0,0,.549.508,3.672,3.672,0,0,0,3.333,0,1.515,1.515,0,0,0,.539-.5,1.521,1.521,0,0,0-.547-.5Z" transform="translate(-23.289 -17.369)" fill="#b2b0af"/>
          </g>
        </g>
        <g id="Grupo_1186696" data-name="Grupo 1186696" transform="translate(32.882 40.769)">
          <g id="Grupo_1186691" data-name="Grupo 1186691" transform="translate(16.833)">
            <path id="Trazado_1033107" data-name="Trazado 1033107" d="M46.495,44.589l.733.426a.719.719,0,0,0-.725.071l-.733-.426A.719.719,0,0,1,46.495,44.589Z" transform="translate(-45.77 -44.52)" fill="#e9e8e6"/>
          </g>
          <g id="Grupo_1186692" data-name="Grupo 1186692" transform="translate(1.015 0.14)">
            <path id="Trazado_1033108" data-name="Trazado 1033108" d="M38.329,54.151l-.733-.426,15.818-9.132.733.426Z" transform="translate(-37.596 -44.593)" fill="#e9e8e6"/>
          </g>
          <g id="Grupo_1186693" data-name="Grupo 1186693" transform="translate(1.015 3.944)">
            <path id="Trazado_1033109" data-name="Trazado 1033109" d="M38.329,52.312l-.733-.426,9.229-5.329.733.426Z" transform="translate(-37.596 -46.558)" fill="#d6d4d2"/>
          </g>
          <g id="Grupo_1186694" data-name="Grupo 1186694" transform="translate(0 9.272)">
            <path id="Trazado_1033110" data-name="Trazado 1033110" d="M38.1,52.148l-.733-.426a.713.713,0,0,1-.3-.653,2.236,2.236,0,0,1,1.015-1.758l.733.426A2.236,2.236,0,0,0,37.8,51.5.713.713,0,0,0,38.1,52.148Z" transform="translate(-37.072 -49.312)" fill="#e9e8e6"/>
          </g>
          <g id="Grupo_1186695" data-name="Grupo 1186695" transform="translate(0.733 0.426)">
            <path id="Trazado_1033111" data-name="Trazado 1033111" d="M54.283,44.88c.563-.325,1.02-.064,1.022.582A2.237,2.237,0,0,1,54.29,47.22L38.472,56.353c-.563.325-1.02.064-1.022-.582a2.236,2.236,0,0,1,1.015-1.758Z" transform="translate(-37.45 -44.74)" fill="#c4c2c0"/>
          </g>
        </g>
        <g id="Grupo_1186702" data-name="Grupo 1186702" transform="translate(32.882 40.769)">
          <g id="Grupo_1186697" data-name="Grupo 1186697" transform="translate(16.833)">
            <path id="Trazado_1033112" data-name="Trazado 1033112" d="M46.495,44.589l.733.426a.719.719,0,0,0-.725.071l-.733-.426A.719.719,0,0,1,46.495,44.589Z" transform="translate(-45.77 -44.52)" fill="#e9e8e6"/>
          </g>
          <g id="Grupo_1186698" data-name="Grupo 1186698" transform="translate(1.015 0.14)">
            <path id="Trazado_1033113" data-name="Trazado 1033113" d="M38.329,54.151l-.733-.426,15.818-9.132.733.426Z" transform="translate(-37.596 -44.593)" fill="#e9e8e6"/>
          </g>
          <g id="Grupo_1186699" data-name="Grupo 1186699" transform="translate(1.015 3.944)">
            <path id="Trazado_1033114" data-name="Trazado 1033114" d="M38.329,52.312l-.733-.426,9.229-5.329.733.426Z" transform="translate(-37.596 -46.558)" fill="#d6d4d2"/>
          </g>
          <g id="Grupo_1186700" data-name="Grupo 1186700" transform="translate(0 9.272)">
            <path id="Trazado_1033115" data-name="Trazado 1033115" d="M38.1,52.148l-.733-.426a.713.713,0,0,1-.3-.653,2.236,2.236,0,0,1,1.015-1.758l.733.426A2.236,2.236,0,0,0,37.8,51.5.713.713,0,0,0,38.1,52.148Z" transform="translate(-37.072 -49.312)" fill="#e9e8e6"/>
          </g>
          <g id="Grupo_1186701" data-name="Grupo 1186701" transform="translate(0.733 0.426)">
            <path id="Trazado_1033116" data-name="Trazado 1033116" d="M54.283,44.88c.563-.325,1.02-.064,1.022.582A2.237,2.237,0,0,1,54.29,47.22L38.472,56.353c-.563.325-1.02.064-1.022-.582a2.236,2.236,0,0,1,1.015-1.758Z" transform="translate(-37.45 -44.74)" fill="#c4c2c0"/>
          </g>
        </g>
        <g id="Grupo_1186708" data-name="Grupo 1186708" transform="translate(32.882 27.469)">
          <g id="Grupo_1186703" data-name="Grupo 1186703" transform="translate(16.833)">
            <path id="Trazado_1033117" data-name="Trazado 1033117" d="M46.495,37.716l.733.426a.719.719,0,0,0-.725.071l-.733-.426A.719.719,0,0,1,46.495,37.716Z" transform="translate(-45.77 -37.648)" fill="#e9e8e6"/>
          </g>
          <g id="Grupo_1186704" data-name="Grupo 1186704" transform="translate(1.015 0.14)">
            <path id="Trazado_1033118" data-name="Trazado 1033118" d="M38.329,47.278l-.733-.426L53.414,37.72l.733.426Z" transform="translate(-37.596 -37.72)" fill="#e9e8e6"/>
          </g>
          <g id="Grupo_1186705" data-name="Grupo 1186705" transform="translate(1.015 3.944)">
            <path id="Trazado_1033119" data-name="Trazado 1033119" d="M38.329,45.44l-.733-.426,9.229-5.329.733.426Z" transform="translate(-37.596 -39.686)" fill="#d6d4d2"/>
          </g>
          <g id="Grupo_1186706" data-name="Grupo 1186706" transform="translate(0 9.272)">
            <path id="Trazado_1033120" data-name="Trazado 1033120" d="M38.1,45.276l-.733-.426a.713.713,0,0,1-.3-.653,2.236,2.236,0,0,1,1.015-1.758l.733.426A2.236,2.236,0,0,0,37.8,44.623.713.713,0,0,0,38.1,45.276Z" transform="translate(-37.072 -42.439)" fill="#e9e8e6"/>
          </g>
          <g id="Grupo_1186707" data-name="Grupo 1186707" transform="translate(0.733 0.426)">
            <path id="Trazado_1033121" data-name="Trazado 1033121" d="M54.283,38.007c.563-.325,1.02-.064,1.022.582a2.237,2.237,0,0,1-1.015,1.758L38.472,49.48c-.563.325-1.02.064-1.022-.582a2.236,2.236,0,0,1,1.015-1.758Z" transform="translate(-37.45 -37.868)" fill="#c4c2c0"/>
          </g>
        </g>
      </g>
    </g>
  </g>
</svg>
