<svg xmlns="http://www.w3.org/2000/svg" width="90" height="90" viewBox="0 0 90 90">
  <g id="Grupo_1186442" data-name="Grupo 1186442" transform="translate(-332.711 -1334)">
    <circle id="Elipse_13738" data-name="Elipse 13738" cx="45" cy="45" r="45" transform="translate(332.711 1334)" fill="#fff"/>
    <g id="diseno-de-paginas-web" transform="translate(350.71 1352.044)">
      <path id="Trazado_1032796" data-name="Trazado 1032796" d="M41.649,18.877v32.7A2.651,2.651,0,0,1,39,54.224H3.651A2.651,2.651,0,0,1,1,51.573v-32.7l.884-.884,39.2-.052Z" transform="translate(0 -1.971)" fill="#d6dbe3"/>
      <path id="Trazado_1032797" data-name="Trazado 1032797" d="M41.649,13.651v4.418H1V13.651A2.651,2.651,0,0,1,3.651,11H39a2.651,2.651,0,0,1,2.651,2.651Z" transform="translate(0 -1.164)" fill="#276f82"/>
      <path id="Trazado_1032798" data-name="Trazado 1032798" d="M36.885,27.342l-4.825.866a.884.884,0,0,1-1.043-1.043l.866-4.825,3.535,1.467Z" transform="translate(-3.49 -2.483)" fill="#a0724b"/>
      <path id="Trazado_1032799" data-name="Trazado 1032799" d="M52.325,9.995,37,25.325l-5-5,5.6-5.6,1.767-1.767L47.329,5Z" transform="translate(-3.606 -0.466)" fill="#faa116"/>
      <path id="Trazado_1032800" data-name="Trazado 1032800" d="M49.347,4.534l3.016-3.013a1.755,1.755,0,0,1,2.5,0l2.492,2.492a1.755,1.755,0,0,1,0,2.5L54.342,9.529Z" transform="translate(-5.624)" fill="#ec3a48"/>
      <path id="Trazado_1032801" data-name="Trazado 1032801" d="M0,0H3.535V7.069H0Z" transform="translate(42.358 5.896) rotate(-45)" fill="#ccd0da"/>
      <rect id="Rectángulo_459319" data-name="Rectángulo 459319" width="19" height="11" rx="1" transform="translate(5.001 20.25)" fill="#b9bfcc"/>
      <rect id="Rectángulo_459320" data-name="Rectángulo 459320" width="19" height="10" rx="1" transform="translate(19.001 38.25)" fill="#b9bfcc"/>
      <path id="Trazado_1032802" data-name="Trazado 1032802" d="M5.767,15.767H4.884a.884.884,0,1,1,0-1.767h.884a.884.884,0,1,1,0,1.767Z" transform="translate(-0.349 -1.512)" fill="#f8536c"/>
      <path id="Trazado_1032803" data-name="Trazado 1032803" d="M10.767,15.767H9.884a.884.884,0,1,1,0-1.767h.884a.884.884,0,0,1,0,1.767Z" transform="translate(-0.931 -1.512)" fill="#fccb55"/>
      <path id="Trazado_1032804" data-name="Trazado 1032804" d="M15.767,15.767h-.884a.884.884,0,1,1,0-1.767h.884a.884.884,0,0,1,0,1.767Z" transform="translate(-1.512 -1.512)" fill="#a9dc62"/>
      <path id="Trazado_1032805" data-name="Trazado 1032805" d="M39.254,14l-1.767,1.767h-5.6a.884.884,0,1,1,0-1.767Z" transform="translate(-3.49 -1.512)" fill="#1e505b"/>
      <path id="Trazado_1032806" data-name="Trazado 1032806" d="M49.717,9.907,38.872,20.751a.884.884,0,1,1-1.25-1.25L48.467,8.657Z" transform="translate(-4.23 -0.891)" fill="#f28f02"/>
      <g id="Grupo_1186445" data-name="Grupo 1186445" transform="translate(3.651 20.441)">
        <path id="Trazado_1032807" data-name="Trazado 1032807" d="M41.6,35.767h-9.72a.884.884,0,1,1,0-1.767H41.6a.884.884,0,0,1,0,1.767Z" transform="translate(-7.141 -24.28)" fill="#a7adb7"/>
        <path id="Trazado_1032808" data-name="Trazado 1032808" d="M14.6,43.767H4.884a.884.884,0,0,1,0-1.767H14.6a.884.884,0,0,1,0,1.767Z" transform="translate(-4 -25.21)" fill="#a7adb7"/>
        <path id="Trazado_1032809" data-name="Trazado 1032809" d="M14.6,47.767H4.884a.884.884,0,1,1,0-1.767H14.6a.884.884,0,1,1,0,1.767Z" transform="translate(-4 -25.675)" fill="#a7adb7"/>
        <path id="Trazado_1032810" data-name="Trazado 1032810" d="M15.186,51.767h-5.3a.884.884,0,1,1,0-1.767h5.3a.884.884,0,0,1,0,1.767Z" transform="translate(-4.582 -26.141)" fill="#a7adb7"/>
        <path id="Trazado_1032811" data-name="Trazado 1032811" d="M5.767,51.767H4.884a.884.884,0,0,1,0-1.767h.884a.884.884,0,0,1,0,1.767Z" transform="translate(-4 -26.141)" fill="#a7adb7"/>
        <path id="Trazado_1032812" data-name="Trazado 1032812" d="M11.953,55.767H4.884a.884.884,0,1,1,0-1.767h7.069a.884.884,0,1,1,0,1.767Z" transform="translate(-4 -26.606)" fill="#a7adb7"/>
        <path id="Trazado_1032813" data-name="Trazado 1032813" d="M42.651,39.767H40.884a.884.884,0,0,1,0-1.767h1.767a.884.884,0,0,1,0,1.767Z" transform="translate(-8.188 -24.745)" fill="#a7adb7"/>
        <path id="Trazado_1032814" data-name="Trazado 1032814" d="M33.161,39.767H4.884a.884.884,0,0,1,0-1.767H33.161a.884.884,0,0,1,0,1.767Z" transform="translate(-4 -24.745)" fill="#a7adb7"/>
        <path id="Trazado_1032815" data-name="Trazado 1032815" d="M24.441,24.007,16.567,28.3,24.441,32.6v.124a.884.884,0,0,1-.884.884h-.972L14.72,29.309,6.856,33.6H5.884A.884.884,0,0,1,5,32.72V32.6L12.874,28.3,5,24.007v-.124A.884.884,0,0,1,5.884,23h.972l7.865,4.295L22.585,23h.972a.884.884,0,0,1,.884.884Z" transform="translate(-4.116 -23)" fill="#a7adb7"/>
        <path id="Trazado_1032816" data-name="Trazado 1032816" d="M40.441,44.007,32.567,48.3,40.441,52.6v.124a.884.884,0,0,1-.884.884h-.972L30.72,49.309,22.856,53.6h-.972A.884.884,0,0,1,21,52.72V52.6L28.874,48.3,21,44.007v-.124A.884.884,0,0,1,21.884,43h.972l7.865,4.295L38.585,43h.972a.884.884,0,0,1,.884.884Z" transform="translate(-5.978 -25.326)" fill="#a7adb7"/>
        <path id="Trazado_1032817" data-name="Trazado 1032817" d="M14.6,43.767H4.884a.884.884,0,0,1,0-1.767H14.6a.884.884,0,0,1,0,1.767Z" transform="translate(1.302 -57.21)" fill="#a7adb7"/>
        <path id="Trazado_1032818" data-name="Trazado 1032818" d="M33.161,39.767H4.884a.884.884,0,0,1,0-1.767H33.161a.884.884,0,0,1,0,1.767Z" transform="translate(1.302 -56.745)" fill="#a7adb7"/>
      </g>
    </g>
  </g>
</svg>
