<svg xmlns="http://www.w3.org/2000/svg" xmlns:xlink="http://www.w3.org/1999/xlink" width="151.457" height="151.466" viewBox="0 0 151.457 151.466">
  <defs>
    <radialGradient id="radial-gradient" cx="0.5" cy="0.5" r="0.5" gradientUnits="objectBoundingBox">
      <stop offset="0" stop-color="#fff"/>
      <stop offset="0.866" stop-color="#fff" stop-opacity="0.078"/>
      <stop offset="1" stop-color="#fff" stop-opacity="0"/>
    </radialGradient>
    <clipPath id="clip-path">
      <rect id="Rectángulo_454829" data-name="Rectángulo 454829" width="96.667" height="96.667" fill="none"/>
    </clipPath>
    <clipPath id="clip-path-2">
      <rect id="Rectángulo_454808" data-name="Rectángulo 454808" width="151.457" height="151.466" fill="none"/>
    </clipPath>
  </defs>
  <g id="Grupo_1184535" data-name="Grupo 1184535" transform="translate(13073 12011)">
    <circle id="Elipse_13694" data-name="Elipse 13694" cx="71" cy="71" r="71" transform="translate(-13068 -12006)" fill="url(#radial-gradient)"/>
    <g id="Grupo_1184530" data-name="Grupo 1184530" transform="translate(-14255.376 -12499.983)">
      <g id="Grupo_1177593" data-name="Grupo 1177593" transform="translate(297.438 346.529)">
        <g id="Grupo_1177591" data-name="Grupo 1177591">
          <g id="Grupo_1177589" data-name="Grupo 1177589" transform="translate(912.333 169.854)">
            <g id="Grupo_1177587" data-name="Grupo 1177587" transform="translate(0 0)" clip-path="url(#clip-path)">
              <path id="Trazado_997422" data-name="Trazado 997422" d="M92.72,42.786A44.443,44.443,0,0,0,82.681,19.659a5.111,5.111,0,0,0-7.192-6.886A44.377,44.377,0,0,0,52.514,3.8a5.112,5.112,0,0,0-9.929.2A44.438,44.438,0,0,0,20.54,13.422a5.114,5.114,0,0,0-7.1,7.146,44.4,44.4,0,0,0-9.3,22.175,5.116,5.116,0,0,0-.122,10.019,44.388,44.388,0,0,0,9.011,22.624,5.113,5.113,0,0,0,6.947,7.22,44.435,44.435,0,0,0,22.568,9.871,5.114,5.114,0,0,0,10.019.2,44.4,44.4,0,0,0,23.144-9.143,5.112,5.112,0,0,0,7.156-6.921,44.454,44.454,0,0,0,9.978-23.9,5.114,5.114,0,0,0-.12-9.927M78.281,22.177a5.085,5.085,0,0,0,2.832-.857,42.2,42.2,0,0,1,9.314,21.453,5.121,5.121,0,0,0-3.268,2.367l-13.07-4.9c.01-.143.02-.288.02-.436a5.114,5.114,0,0,0-2.166-4.179l5.717-13.488a5.54,5.54,0,0,0,.62.041m-2.763-.814-5.681,13.4A5.061,5.061,0,0,0,64.2,38.015L40.559,32.568a4.975,4.975,0,0,0-.107-1.018L74,19.866a5.13,5.13,0,0,0,1.513,1.5M47.575,10.235A5.118,5.118,0,0,0,52.6,6.085a42.135,42.135,0,0,1,21.3,8.332,5.089,5.089,0,0,0-.74,2.643,5.372,5.372,0,0,0,.048.676L39.49,29.476a5.133,5.133,0,0,0-.926-.926l8.845-18.323c.056,0,.11.008.166.008M42.6,6.286a5.119,5.119,0,0,0,2.574,3.35L36.5,27.594a5.132,5.132,0,0,0-1.056-.11,5.08,5.08,0,0,0-2.916.916L22.249,19.815a5.087,5.087,0,0,0-.173-4.709A42.168,42.168,0,0,1,42.6,6.286M10.11,46.654,31.369,35.689A5.1,5.1,0,0,0,35.4,37.717l7.286,23.29a5.2,5.2,0,0,0-1.128,1.248L10.047,49.123a5.083,5.083,0,0,0,.189-1.357,5.143,5.143,0,0,0-.125-1.112m5.021-24.56a5.114,5.114,0,0,0,5.712-.487l10.149,8.475a5.1,5.1,0,0,0-.564,3.536L9.133,44.6a5.116,5.116,0,0,0-2.709-1.776,42.149,42.149,0,0,1,8.707-20.728m2.117,51.07a5.1,5.1,0,0,0-2.541.679,42.112,42.112,0,0,1-8.4-21.1,5.122,5.122,0,0,0,2.656-1.6L40.791,64.4a5.487,5.487,0,0,0-.041.615,5.117,5.117,0,0,0,.306,1.73L21.808,75.964a5.117,5.117,0,0,0-4.559-2.8M42.643,90.2a42.21,42.21,0,0,1-21.057-9.212,5.064,5.064,0,0,0,.781-2.7l0-.059,19.93-9.552a5.118,5.118,0,0,0,1.806,1.14l1.194,17.162A5.117,5.117,0,0,0,42.643,90.2m2.12-30.178-7.131-22.8a5.125,5.125,0,0,0,2.431-2.431L63.9,40.278a5.087,5.087,0,0,0,.814,2.327L48.365,60.547a5.054,5.054,0,0,0-3.6-.528M52.557,90.4a5.116,5.116,0,0,0-4.982-3.965l-.038,0L46.4,70.1a5.108,5.108,0,0,0,3.128-1.518L73.359,79.1c0,.046-.008.087-.008.133a5.092,5.092,0,0,0,.758,2.669,42.132,42.132,0,0,1-21.552,8.5M73.933,76.865,50.723,66.624a5.087,5.087,0,0,0-.671-4.551l16.3-17.891a5.087,5.087,0,0,0,2.64.74,5.635,5.635,0,0,0,.628-.041l6.092,30.043a5.106,5.106,0,0,0-1.778,1.941m7.342-1.913a5.087,5.087,0,0,0-3.4-.8L71.78,44.092a5.138,5.138,0,0,0,1.612-1.684l13.062,4.9a4.535,4.535,0,0,0-.023.459,5.116,5.116,0,0,0,4.113,5.016,42.167,42.167,0,0,1-9.268,22.17" transform="translate(0 0.001)" fill="#fff"/>
            </g>
          </g>
        </g>
      </g>
      <circle id="Elipse_13615" data-name="Elipse 13615" cx="28" cy="28" r="28" transform="translate(1230.32 536.983)" fill="#fff"/>
      <g id="wifi" transform="translate(1237.291 490.318)">
        <g id="Grupo_1184537" data-name="Grupo 1184537" transform="translate(17.375 85.396)">
          <g id="Grupo_1184536" data-name="Grupo 1184536">
            <path id="Trazado_1030198" data-name="Trazado 1030198" d="M213.162,358.88a3.633,3.633,0,1,0,3.646,3.633A3.644,3.644,0,0,0,213.162,358.88Z" transform="translate(-209.516 -358.88)" fill="#6cb9ff"/>
          </g>
        </g>
        <g id="Grupo_1184539" data-name="Grupo 1184539" transform="translate(11.428 76.767)">
          <g id="Grupo_1184538" data-name="Grupo 1184538" transform="translate(0 0)">
            <path id="Trazado_1030199" data-name="Trazado 1030199" d="M156.295,258.512a12.593,12.593,0,0,0-17.767-.024A2.454,2.454,0,0,0,142,261.957a7.666,7.666,0,0,1,10.815.014,2.453,2.453,0,0,0,3.48-3.458Z" transform="translate(-137.807 -254.833)" fill="#6cb9ff"/>
          </g>
        </g>
        <g id="Grupo_1184541" data-name="Grupo 1184541" transform="translate(0 60.665)">
          <g id="Grupo_1184540" data-name="Grupo 1184540" transform="translate(0 0)">
            <path id="Trazado_1030200" data-name="Trazado 1030200" d="M41.342,69.058a28.8,28.8,0,0,0-40.623-.02A2.453,2.453,0,0,0,4.193,72.5a23.868,23.868,0,0,1,33.671.017,2.453,2.453,0,1,0,3.477-3.461Z" transform="translate(0 -60.665)" fill="#6cb9ff"/>
          </g>
        </g>
        <g id="Grupo_1184543" data-name="Grupo 1184543" transform="translate(5.857 68.92)">
          <g id="Grupo_1184542" data-name="Grupo 1184542" transform="translate(0 0)">
            <path id="Trazado_1030201" data-name="Trazado 1030201" d="M100.255,166.176a20.49,20.49,0,0,0-28.905-.02,2.453,2.453,0,0,0,3.473,3.466,15.561,15.561,0,0,1,21.954.016,2.453,2.453,0,1,0,3.478-3.461Z" transform="translate(-70.628 -160.2)" fill="#6cb9ff"/>
          </g>
        </g>
      </g>
    </g>
  </g>
</svg>
