<svg xmlns="http://www.w3.org/2000/svg" width="90" height="90" viewBox="0 0 90 90">
  <g id="Grupo_1186437" data-name="Grupo 1186437" transform="translate(-332.711 -1334)">
    <circle id="Elipse_13738" data-name="Elipse 13738" cx="45" cy="45" r="45" transform="translate(332.711 1334)" fill="#fff"/>
    <g id="programacion-web_2_" data-name="programacion-web (2)" transform="translate(350.627 1351)">
      <path id="Trazado_1032731" data-name="Trazado 1032731" d="M43.484,8.768V44.136H9.884L9,8.768,26.684,7Z" transform="translate(-0.926 -0.695)" fill="#d6dbe3"/>
      <path id="Trazado_1032732" data-name="Trazado 1032732" d="M8.958,8.884V44.252H3.653A2.653,2.653,0,0,1,1,41.6V8.884L4.537,8Z" transform="translate(0 -0.811)" fill="#b9bfcc"/>
      <path id="Trazado_1032733" data-name="Trazado 1032733" d="M42.557,3.653V8.074H1V3.653A2.653,2.653,0,0,1,3.653,1H39.9A2.653,2.653,0,0,1,42.557,3.653Z" transform="translate(0 0)" fill="#276f82"/>
      <path id="Trazado_1032734" data-name="Trazado 1032734" d="M47.842,56.1l3.84-1.536a7.958,7.958,0,0,0,5-7.388V37.228a.878.878,0,0,0-.826-.884c-1.638-.1-5.324-.5-7.5-2.172a.849.849,0,0,0-1.033,0c-2.176,1.68-5.862,2.076-7.5,2.172a.878.878,0,0,0-.826.884V47.18a7.958,7.958,0,0,0,5,7.388Z" transform="translate(-4.4 -3.821)" fill="#37cba1"/>
      <path id="Trazado_1032735" data-name="Trazado 1032735" d="M5.768,5.768H4.884A.884.884,0,1,1,4.884,4h.884a.884.884,0,1,1,0,1.768Z" transform="translate(-0.347 -0.347)" fill="#f8536c"/>
      <path id="Trazado_1032736" data-name="Trazado 1032736" d="M10.768,5.768H9.884A.884.884,0,1,1,9.884,4h.884a.884.884,0,0,1,0,1.768Z" transform="translate(-0.926 -0.347)" fill="#fccb55"/>
      <path id="Trazado_1032737" data-name="Trazado 1032737" d="M15.768,5.768h-.884a.884.884,0,0,1,0-1.768h.884a.884.884,0,0,1,0,1.768Z" transform="translate(-1.505 -0.347)" fill="#a9dc62"/>
      <g id="Grupo_1186439" data-name="Grupo 1186439" transform="translate(3.653 10.726)">
        <path id="Trazado_1032738" data-name="Trazado 1032738" d="M5.768,13.768H4.884a.884.884,0,0,1,0-1.768h.884a.884.884,0,0,1,0,1.768Z" transform="translate(-4 -12)" fill="#fff"/>
        <path id="Trazado_1032739" data-name="Trazado 1032739" d="M5.768,17.768H4.884a.884.884,0,1,1,0-1.768h.884a.884.884,0,1,1,0,1.768Z" transform="translate(-4 -12.463)" fill="#fff"/>
        <path id="Trazado_1032740" data-name="Trazado 1032740" d="M5.768,21.768H4.884a.884.884,0,1,1,0-1.768h.884a.884.884,0,1,1,0,1.768Z" transform="translate(-4 -12.926)" fill="#fff"/>
        <path id="Trazado_1032741" data-name="Trazado 1032741" d="M5.768,25.768H4.884a.884.884,0,1,1,0-1.768h.884a.884.884,0,1,1,0,1.768Z" transform="translate(-4 -13.39)" fill="#fff"/>
        <path id="Trazado_1032742" data-name="Trazado 1032742" d="M5.768,29.768H4.884a.884.884,0,1,1,0-1.768h.884a.884.884,0,1,1,0,1.768Z" transform="translate(-4 -13.853)" fill="#fff"/>
        <path id="Trazado_1032743" data-name="Trazado 1032743" d="M5.768,33.768H4.884a.884.884,0,0,1,0-1.768h.884a.884.884,0,0,1,0,1.768Z" transform="translate(-4 -14.316)" fill="#fff"/>
        <path id="Trazado_1032744" data-name="Trazado 1032744" d="M5.768,37.768H4.884a.884.884,0,0,1,0-1.768h.884a.884.884,0,0,1,0,1.768Z" transform="translate(-4 -14.779)" fill="#fff"/>
        <path id="Trazado_1032745" data-name="Trazado 1032745" d="M5.768,41.768H4.884a.884.884,0,1,1,0-1.768h.884a.884.884,0,1,1,0,1.768Z" transform="translate(-4 -15.242)" fill="#fff"/>
      </g>
      <path id="Trazado_1032746" data-name="Trazado 1032746" d="M18.305,41.768H13.884a.884.884,0,1,1,0-1.768h4.421a.884.884,0,1,1,0,1.768Z" transform="translate(-1.39 -4.516)" fill="#2bb6e8"/>
      <path id="Trazado_1032747" data-name="Trazado 1032747" d="M30.842,41.768H22.884a.884.884,0,0,1,0-1.768h7.958a.884.884,0,0,1,0,1.768Z" transform="translate(-2.432 -4.516)" fill="#9e82ec"/>
      <path id="Trazado_1032748" data-name="Trazado 1032748" d="M18.305,29.768H13.884a.884.884,0,1,1,0-1.768h4.421a.884.884,0,0,1,0,1.768Z" transform="translate(-1.39 -3.127)" fill="#2bb6e8"/>
      <path id="Trazado_1032749" data-name="Trazado 1032749" d="M18.305,33.768H13.884a.884.884,0,0,1,0-1.768h4.421a.884.884,0,0,1,0,1.768Z" transform="translate(-1.39 -3.59)" fill="#2bb6e8"/>
      <path id="Trazado_1032750" data-name="Trazado 1032750" d="M29.074,29.768H22.884a.884.884,0,1,1,0-1.768h6.189a.884.884,0,1,1,0,1.768Z" transform="translate(-2.432 -3.127)" fill="#9e82ec"/>
      <path id="Trazado_1032751" data-name="Trazado 1032751" d="M27.305,33.768H22.884a.884.884,0,0,1,0-1.768h4.421a.884.884,0,0,1,0,1.768Z" transform="translate(-2.432 -3.59)" fill="#9e82ec"/>
      <path id="Trazado_1032752" data-name="Trazado 1032752" d="M14.768,25.768h-.884a.884.884,0,1,1,0-1.768h.884a.884.884,0,1,1,0,1.768Z" transform="translate(-1.39 -2.663)" fill="#2bb6e8"/>
      <path id="Trazado_1032753" data-name="Trazado 1032753" d="M25.074,25.768H18.884a.884.884,0,1,1,0-1.768h6.189a.884.884,0,0,1,0,1.768Z" transform="translate(-1.969 -2.663)" fill="#9e82ec"/>
      <path id="Trazado_1032754" data-name="Trazado 1032754" d="M39.61,25.768H29.884a.884.884,0,0,1,0-1.768H39.61a.884.884,0,0,1,0,1.768Z" transform="translate(-3.242 -2.663)" fill="#faa116"/>
      <path id="Trazado_1032755" data-name="Trazado 1032755" d="M38.452,17.768H19.884a.884.884,0,0,1,0-1.768H38.452a.884.884,0,0,1,0,1.768Z" transform="translate(-2.084 -1.737)" fill="#9e82ec"/>
      <path id="Trazado_1032756" data-name="Trazado 1032756" d="M15.653,17.768H13.884a.884.884,0,1,1,0-1.768h1.768a.884.884,0,1,1,0,1.768Z" transform="translate(-1.39 -1.737)" fill="#2bb6e8"/>
      <path id="Trazado_1032757" data-name="Trazado 1032757" d="M14.768,37.768h-.884a.884.884,0,0,1,0-1.768h.884a.884.884,0,0,1,0,1.768Z" transform="translate(-1.39 -4.053)" fill="#2bb6e8"/>
      <path id="Trazado_1032758" data-name="Trazado 1032758" d="M25.074,37.768H18.884a.884.884,0,1,1,0-1.768h6.189a.884.884,0,0,1,0,1.768Z" transform="translate(-1.969 -4.053)" fill="#9e82ec"/>
      <path id="Trazado_1032759" data-name="Trazado 1032759" d="M32.537,37.768H29.884a.884.884,0,0,1,0-1.768h2.653a.884.884,0,0,1,0,1.768Z" transform="translate(-3.242 -4.053)" fill="#faa116"/>
      <path id="Trazado_1032760" data-name="Trazado 1032760" d="M17.421,21.768H13.884a.884.884,0,1,1,0-1.768h3.537a.884.884,0,1,1,0,1.768Z" transform="translate(-1.39 -2.2)" fill="#2bb6e8"/>
      <path id="Trazado_1032761" data-name="Trazado 1032761" d="M25.421,21.768H21.884a.884.884,0,1,1,0-1.768h3.537a.884.884,0,0,1,0,1.768Z" transform="translate(-2.316 -2.2)" fill="#9e82ec"/>
      <path id="Trazado_1032762" data-name="Trazado 1032762" d="M17.421,13.768H13.884a.884.884,0,0,1,0-1.768h3.537a.884.884,0,1,1,0,1.768Z" transform="translate(-1.39 -1.274)" fill="#2bb6e8"/>
      <path id="Trazado_1032763" data-name="Trazado 1032763" d="M30.726,13.768H21.884a.884.884,0,1,1,0-1.768h8.842a.884.884,0,0,1,0,1.768Z" transform="translate(-2.316 -1.274)" fill="#9e82ec"/>
      <path id="Trazado_1032764" data-name="Trazado 1032764" d="M33.421,21.768H29.884a.884.884,0,0,1,0-1.768h3.537a.884.884,0,0,1,0,1.768Z" transform="translate(-3.242 -2.2)" fill="#faa116"/>
      <path id="Trazado_1032765" data-name="Trazado 1032765" d="M43.958,5.768H36.884a.884.884,0,0,1,0-1.768h7.074a.884.884,0,0,1,0,1.768Z" transform="translate(-4.053 -0.347)" fill="#1e505b"/>
      <path id="Trazado_1032766" data-name="Trazado 1032766" d="M46.653,50.611a.884.884,0,0,1-.625-.259l-1.769-1.769a.884.884,0,1,1,1.25-1.25l.966.968L51.2,40.432a.884.884,0,1,1,1.516.911l-5.305,8.842a.891.891,0,0,1-.756.426Z" transform="translate(-4.979 -4.517)" fill="#fff"/>
      <path id="Trazado_1032767" data-name="Trazado 1032767" d="M47.726,56.873a.876.876,0,0,1-.328-.063l-3.84-1.537A8.8,8.8,0,0,1,38,47.064V37.112a1.768,1.768,0,0,1,1.659-1.768c1.44-.083,5.005-.442,7.012-1.989a1.73,1.73,0,0,1,2.111,0c2.006,1.544,5.57,1.905,7.011,1.989a1.768,1.768,0,0,1,1.66,1.768v9.952a8.8,8.8,0,0,1-5.558,8.21l-3.84,1.537a.876.876,0,0,1-.328.063ZM47.7,34.759c-2.264,1.779-5.95,2.238-7.942,2.353l.007,9.952a7.039,7.039,0,0,0,4.446,6.568l3.512,1.4,3.512-1.4a7.039,7.039,0,0,0,4.446-6.568V37.112C53.7,37,50.013,36.536,47.7,34.759Z" transform="translate(-4.285 -3.705)" fill="#31b791"/>
    </g>
  </g>
</svg>
