<svg xmlns="http://www.w3.org/2000/svg" width="67" height="67" viewBox="0 0 67 67">
  <g id="Grupo_1187278" data-name="Grupo 1187278" transform="translate(5776 7461)">
    <rect id="Rectángulo_459489" data-name="Rectángulo 459489" width="67" height="67" transform="translate(-5776 -7461)" fill="#ffe79e"/>
    <g id="Artboard11" transform="translate(-5774.228 -7458.43)">
      <path id="Trazado_1034348" data-name="Trazado 1034348" d="M24.278,45.22H13.168a.765.765,0,0,1-.765-.765V32.924h-.491A4.123,4.123,0,0,1,7.789,28.8V20.443a3.355,3.355,0,0,1,3.355-3.355H27.006V12.605a1.953,1.953,0,0,1,1.914-1.989H53a1.953,1.953,0,0,1,1.914,1.989V31.39A1.953,1.953,0,0,1,53,33.379H41.723v2a2.414,2.414,0,1,1-1.53,0v-2H28.92a1.953,1.953,0,0,1-1.914-1.989V23.232H25.043V44.455a.765.765,0,0,1-.765.765Zm7.892-26.6H11.144a1.825,1.825,0,0,0-1.825,1.825V28.8a2.593,2.593,0,0,0,2.593,2.593H12.4V22.8a.765.765,0,0,1,1.53,0V43.69h4.026V34a.765.765,0,1,1,1.53,0V43.69h4.026V22.467a.765.765,0,0,1,.765-.765H32.17a1.542,1.542,0,0,0,1.542-1.542h0a1.542,1.542,0,0,0-1.542-1.542Zm-3.635,4.614V31.39a.425.425,0,0,0,.384.459H53a.425.425,0,0,0,.384-.459V12.605A.425.425,0,0,0,53,12.146H28.92a.425.425,0,0,0-.384.459v4.483H32.17a3.072,3.072,0,0,1,3.072,3.072h0a3.072,3.072,0,0,1-3.072,3.072Zm17.7-8.021a7.029,7.029,0,0,1,1.312.544l.842-.374a.765.765,0,0,1,.852.158l1.41,1.41a.765.765,0,0,1,.159.851l-.373.842a7.022,7.022,0,0,1,.544,1.315l.858.33a.765.765,0,0,1,.49.714V23a.765.765,0,0,1-.49.714l-.859.331a7.093,7.093,0,0,1-.544,1.312l.373.843a.765.765,0,0,1-.159.851l-1.41,1.41a.765.765,0,0,1-.851.159l-.842-.373a7.015,7.015,0,0,1-1.313.544l-.33.859a.765.765,0,0,1-.714.49H43.193a.765.765,0,0,1-.714-.49l-.33-.859a7.076,7.076,0,0,1-1.314-.545l-.843.373a.765.765,0,0,1-.851-.159l-1.41-1.41a.765.765,0,0,1-.158-.852l.374-.842a7.075,7.075,0,0,1-.545-1.312l-.86-.331a.765.765,0,0,1-.49-.714V21a.765.765,0,0,1,.49-.714l.859-.331a7.077,7.077,0,0,1,.545-1.314l-.374-.842a.765.765,0,0,1,.158-.852l1.41-1.41a.765.765,0,0,1,.852-.158l.842.374a7.029,7.029,0,0,1,1.313-.544l.332-.861a.765.765,0,0,1,.714-.49h1.995a.765.765,0,0,1,.714.491Zm-1.288.912-.282-.733h-.945l-.283.734a.765.765,0,0,1-.537.469,5.51,5.51,0,0,0-1.618.67.765.765,0,0,1-.712.048l-.717-.319-.667.667.319.717a.765.765,0,0,1-.048.712,5.557,5.557,0,0,0-.673,1.621.765.765,0,0,1-.469.535l-.731.281v.944l.731.281a.765.765,0,0,1,.469.535,5.544,5.544,0,0,0,.672,1.619.765.765,0,0,1,.048.713l-.319.717.668.668.718-.318a.765.765,0,0,1,.709.047A5.554,5.554,0,0,0,42.9,27.4a.765.765,0,0,1,.538.47l.281.731h.944l.281-.731a.765.765,0,0,1,.537-.469,5.483,5.483,0,0,0,1.617-.67.765.765,0,0,1,.712-.049l.718.318.668-.668-.318-.718a.765.765,0,0,1,.047-.709,5.562,5.562,0,0,0,.671-1.619.765.765,0,0,1,.469-.537l.731-.281v-.944l-.731-.281a.765.765,0,0,1-.47-.537,5.5,5.5,0,0,0-.67-1.619.765.765,0,0,1-.048-.711l.318-.718-.668-.668-.717.319a.765.765,0,0,1-.712-.048,5.511,5.511,0,0,0-1.618-.67A.765.765,0,0,1,44.944,16.123Zm-.755,1.631A4.245,4.245,0,1,1,39.945,22,4.245,4.245,0,0,1,44.189,17.753Zm0,1.53A2.715,2.715,0,1,0,46.906,22,2.714,2.714,0,0,0,44.189,19.283Zm-3.232,17.5a.884.884,0,1,0,.884.884A.885.885,0,0,0,40.958,36.784ZM54.3,54.422H25.765A.765.765,0,0,1,25,53.576,7.951,7.951,0,0,1,30.091,47a4.392,4.392,0,1,1,5.615,0,7.965,7.965,0,0,1,4.325,3.94A7.969,7.969,0,0,1,44.356,47a4.392,4.392,0,1,1,5.615,0,7.946,7.946,0,0,1,5.085,6.575.765.765,0,0,1-.761.846Zm-21.4-6.4a6.412,6.412,0,0,0-6.223,4.872H39.121A6.41,6.41,0,0,0,32.9,48.02Zm0-1.53a2.863,2.863,0,1,0-2.861-2.863A2.868,2.868,0,0,0,32.9,46.491Zm14.265,1.53a6.412,6.412,0,0,0-6.223,4.872H53.386A6.41,6.41,0,0,0,47.163,48.02Zm0-1.53A2.863,2.863,0,1,0,44.3,43.628,2.868,2.868,0,0,0,47.163,46.491ZM18.723,7a4.73,4.73,0,1,1-4.73,4.731A4.73,4.73,0,0,1,18.723,7Zm0,1.53a3.2,3.2,0,1,0,3.2,3.2A3.2,3.2,0,0,0,18.723,8.53Z" transform="translate(0 0)" fill-rule="evenodd"/>
    </g>
  </g>
</svg>
