<svg xmlns="http://www.w3.org/2000/svg" xmlns:xlink="http://www.w3.org/1999/xlink" width="396" height="362" viewBox="0 0 396 362">
  <defs>
    <clipPath id="clip-path">
      <path id="Trazado_1000654" data-name="Trazado 1000654" d="M323.737,0H.93L0,264.42l323.737.115Z" fill="none"/>
    </clipPath>
  </defs>
  <g id="Grupo_1187271" data-name="Grupo 1187271" transform="translate(-913.711 -424)">
    <rect id="Rectángulo_459478" data-name="Rectángulo 459478" width="396" height="362" transform="translate(913.711 424)" fill="#9ed1ff"/>
    <g id="Grupo_1187247" data-name="Grupo 1187247" transform="translate(-99.895 43.903)">
      <g id="Grupo_1180380" data-name="Grupo 1180380" transform="translate(1031.606 417.097)">
        <g id="Grupo_1180376" data-name="Grupo 1180376" transform="translate(0 0)">
          <ellipse id="Elipse_13860" data-name="Elipse 13860" cx="136.054" cy="136.054" rx="136.054" ry="136.054" transform="translate(87.366 7.28)" fill="#a4e7f0"/>
          <g id="Grupo_1180375" data-name="Grupo 1180375">
            <rect id="Rectángulo_456677" data-name="Rectángulo 456677" width="359.475" height="287.988" fill="none"/>
            <g id="Grupo_1180370" data-name="Grupo 1180370" transform="translate(11.402 23.452)">
              <g id="Enmascarar_grupo_1178533" data-name="Enmascarar grupo 1178533" clip-path="url(#clip-path)">
                <path id="Trazado_1000506" data-name="Trazado 1000506" d="M113.25,162.427H54a6.137,6.137,0,0,1-5.8-7.9L76.493,57a6.065,6.065,0,0,1,5.8-4.413h59.247a6.137,6.137,0,0,1,5.8,7.9l-28.293,97.529a6.066,6.066,0,0,1-5.8,4.413" transform="translate(113.461 16.155)" fill="#101010"/>
                <path id="Trazado_1000507" data-name="Trazado 1000507" d="M111.845,162.427H60.239a6.137,6.137,0,0,1-5.8-7.9L82.729,57a6.065,6.065,0,0,1,5.8-4.413h51.606a6.137,6.137,0,0,1,5.8,7.9l-28.293,97.529a6.066,6.066,0,0,1-5.8,4.413" transform="translate(106.714 16.155)" fill="#c2b3a3"/>
                <rect id="Rectángulo_456813" data-name="Rectángulo 456813" width="55.591" height="5.333" transform="translate(163.039 252.725)" fill="#101010"/>
                <path id="Trazado_1000508" data-name="Trazado 1000508" d="M129.141,197.591a5.083,5.083,0,1,1-5.846-4.183,5.084,5.084,0,0,1,5.846,4.183" transform="translate(38.912 59.396)" fill="#101010"/>
                <rect id="Rectángulo_456814" data-name="Rectángulo 456814" width="5.333" height="77.15" transform="translate(188.318 177.757)" fill="#101010"/>
                <path id="Trazado_1000509" data-name="Trazado 1000509" d="M86.615,197.591a5.083,5.083,0,1,1-5.846-4.183,5.084,5.084,0,0,1,5.846,4.183" transform="translate(137.029 59.396)" fill="#101010"/>
                <path id="Trazado_1000510" data-name="Trazado 1000510" d="M139.453,139.1H76.745a5.3,5.3,0,1,1,0-10.591h62.708a5.3,5.3,0,1,1,0,10.591" transform="translate(85.591 39.48)" fill="#101010"/>
                <path id="Trazado_1000511" data-name="Trazado 1000511" d="M185.468,186.541H169.231l-26.853,14.877,46.172-.57Z" transform="translate(-50.932 57.308)" fill="#101010"/>
                <path id="Trazado_1000512" data-name="Trazado 1000512" d="M188.587,202.727l-.161-5.241-46.171.57.161,5.241Z" transform="translate(-50.809 60.67)" fill="#fff"/>
                <line id="Línea_3377" data-name="Línea 3377" x2="5.32" y2="1.506" transform="translate(107.076 249.328)" fill="none" stroke="#fff" stroke-linecap="round" stroke-linejoin="round" stroke-width="0.795"/>
                <line id="Línea_3378" data-name="Línea 3378" x2="5.32" y2="1.506" transform="translate(112.276 246.564)" fill="none" stroke="#fff" stroke-linecap="round" stroke-linejoin="round" stroke-width="0.795"/>
                <path id="Trazado_1000513" data-name="Trazado 1000513" d="M144.736,169.467h16.549l2.322,22.319H147.056Z" transform="translate(-29.071 52.063)" fill="#ecaea4"/>
                <path id="Trazado_1000514" data-name="Trazado 1000514" d="M190.58,110.2s1.735,24.11-23.2,24.11H140.895l5.544,69.914H115.3l-7.745-76.4c-1.668-9.154,5.11-17.625,14.1-17.625Z" transform="translate(-7.137 33.856)" fill="#273780"/>
                <path id="Trazado_1000515" data-name="Trazado 1000515" d="M151.6,186.1H135.364l-26.853,14.877,46.172-.57Z" transform="translate(27.207 57.173)" fill="#101010"/>
                <path id="Trazado_1000516" data-name="Trazado 1000516" d="M154.72,202.287l-.161-5.241-46.171.57.161,5.241Z" transform="translate(27.33 60.535)" fill="#fff"/>
                <line id="Línea_3379" data-name="Línea 3379" x2="5.32" y2="1.506" transform="translate(151.348 248.753)" fill="none" stroke="#fff" stroke-linecap="round" stroke-linejoin="round" stroke-width="0.795"/>
                <line id="Línea_3380" data-name="Línea 3380" x2="5.32" y2="1.506" transform="translate(156.548 245.989)" fill="none" stroke="#fff" stroke-linecap="round" stroke-linejoin="round" stroke-width="0.795"/>
                <path id="Trazado_1000517" data-name="Trazado 1000517" d="M110.869,169.027h16.549l6.395,22.319H117.262Z" transform="translate(44.995 51.927)" fill="#ecaea4"/>
                <path id="Trazado_1000518" data-name="Trazado 1000518" d="M162.09,110.2s1.735,24.11-23.2,24.11H112.4l11.722,69.914H92.99l-13.923-76.4c-1.668-9.154,5.11-17.625,14.1-17.625Z" transform="translate(58.595 33.856)" fill="#3a4b9e"/>
                <path id="Trazado_1000519" data-name="Trazado 1000519" d="M151.231,62.2c-18.455,13.075-37.811,38.837-37.811,38.837l-1.6,11.421h19.7L152.6,89.616Z" transform="translate(24.96 19.109)" fill="#508b5f"/>
                <path id="Trazado_1000520" data-name="Trazado 1000520" d="M161.159,63.308s-10.361,4.732-12.7,2.5c-4.089-3.906-6.607-17.135-6.607-17.135s19.075-5.377,18.877-5.12.429,19.759.429,19.759" transform="translate(-22.854 13.376)" fill="#d38580"/>
                <path id="Trazado_1000521" data-name="Trazado 1000521" d="M139.47,62.841c-.089-1.01,4.672-11.411,6.335-15.322a1.783,1.783,0,0,0-1.213-2.357,2.06,2.06,0,0,0-2.366.74l-5.316,7.523Z" transform="translate(-1.165 13.843)" fill="#d38580"/>
                <path id="Trazado_1000522" data-name="Trazado 1000522" d="M146.911,53.971l-1.821-16.1a2,2,0,0,0-2.167-1.778,1.723,1.723,0,0,0-1.573,1.782l.374,11.907Z" transform="translate(-7.947 11.084)" fill="#d38580"/>
                <path id="Trazado_1000523" data-name="Trazado 1000523" d="M152.827,47.973,149.478,36.3a1.991,1.991,0,0,0-2.35-1.42,1.716,1.716,0,0,0-1.3,1.931l2.084,13.338Z" transform="translate(-19.688 10.699)" fill="#d38580"/>
                <path id="Trazado_1000524" data-name="Trazado 1000524" d="M158.061,50.179,153.55,38.6a2.183,2.183,0,0,0-2.684-1.3,1.9,1.9,0,0,0-1.192,2.417l3.458,10.86Z" transform="translate(-29.853 11.426)" fill="#d38580"/>
                <path id="Trazado_1000525" data-name="Trazado 1000525" d="M157.144,49.639l-3.7-7.173a1.542,1.542,0,0,1,.927-1.988,1.762,1.762,0,0,1,2.09.808l4.967,8.31Z" transform="translate(-38.146 12.406)" fill="#d38580"/>
                <path id="Trazado_1000526" data-name="Trazado 1000526" d="M148.388,48.445a7.518,7.518,0,0,0-6.833,6.407" transform="translate(-9.693 14.883)" fill="none" stroke="#1e0a00" stroke-linecap="round" stroke-linejoin="round" stroke-width="0.393"/>
                <path id="Trazado_1000527" data-name="Trazado 1000527" d="M152.35,58.662l2.8,19.534-14.074,3.114-1.37-22.647Z" transform="translate(-14.045 18.022)" fill="#d38580"/>
                <path id="Trazado_1000528" data-name="Trazado 1000528" d="M153.228,62.9,159.4,99.679,147.06,112.242h-7.766L133.583,64.73Z" transform="translate(-10.28 19.325)" fill="#508b5f"/>
                <path id="Trazado_1000529" data-name="Trazado 1000529" d="M112.4,58.93,126.97,63.2a9.724,9.724,0,0,1,7.4,9.085l-4.784,53.668H75.173L81.5,70.067c.7-4.243,2.527-7.511,6.8-8.017l8.107-.958Z" transform="translate(91.102 18.104)" fill="#508b5f"/>
                <line id="Línea_3381" data-name="Línea 3381" y1="23.383" x2="2.731" transform="translate(169.259 94.341)" fill="none" stroke="#1e0a00" stroke-linecap="round" stroke-linejoin="round" stroke-width="0.421"/>
                <path id="Trazado_1000530" data-name="Trazado 1000530" d="M50.754,63c16.84,11.93,33.229,32.58,38.311,39.084a8.824,8.824,0,0,1-6.956,14.251H74.8a8.821,8.821,0,0,1-6.484-2.839L48.127,91.618Z" transform="translate(169.891 19.354)" fill="#508b5f"/>
                <line id="Línea_3382" data-name="Línea 3382" x1="10.139" y1="10.283" transform="translate(213.004 106.207)" fill="none" stroke="#1e0a00" stroke-linecap="round" stroke-linejoin="round" stroke-width="0.421"/>
                <path id="Trazado_1000531" data-name="Trazado 1000531" d="M113.021,94.076s-23.78-4.628-29.339,12.9h26.854Z" transform="translate(101.326 28.732)" fill="#d38580"/>
                <path id="Trazado_1000532" data-name="Trazado 1000532" d="M53.717,90.184l34.631-1.765A5.94,5.94,0,0,1,93.237,90.7l7.432,8.154a5.944,5.944,0,0,1-4.762,9.6l-42.967.068Z" transform="translate(152.609 27.162)" fill="#508b5f"/>
                <path id="Trazado_1000533" data-name="Trazado 1000533" d="M96.7,88.661,68.3,90.109l-.209,4.936" transform="translate(138.027 27.238)" fill="none" stroke="#1e0a00" stroke-linecap="round" stroke-linejoin="round" stroke-width="0.421"/>
                <path id="Trazado_1000534" data-name="Trazado 1000534" d="M99.88,40.651s-.548,9.345-7.658,7.46l-1.884-2.19Z" transform="translate(105.764 12.489)"/>
                <path id="Trazado_1000535" data-name="Trazado 1000535" d="M119.164,41.7a4.7,4.7,0,1,1-4.153-5.195,4.7,4.7,0,0,1,4.153,5.195" transform="translate(61.03 11.206)" fill="#c16e6a"/>
                <path id="Trazado_1000536" data-name="Trazado 1000536" d="M91.976,52.752l1.146,13.955,1.85,9.971,14.143-12.132-6.394-23.895Z" transform="translate(94.39 12.489)" fill="#d38580"/>
                <path id="Trazado_1000537" data-name="Trazado 1000537" d="M97.743,59.846l9.843-10.867L96.95,50.193Z" transform="translate(89.416 15.047)" fill="#1e0a00"/>
                <path id="Trazado_1000538" data-name="Trazado 1000538" d="M102.575,23.437A10.919,10.919,0,0,0,93.9,34.611c.162,6.126.759,16.081,2.9,19.851,3.182,5.609,8.864,8.5,16.587,5.579,0,0,9.2-2.072,8.931-15.829-.294-14.888-10.954-22.355-19.744-20.776" transform="translate(78.664 7.136)" fill="#d38580"/>
                <path id="Trazado_1000539" data-name="Trazado 1000539" d="M98.424,44.106,96.7,37.24S95.4,23.8,90.979,23.594c0,0-1.893-2.39,5.4-1.237s14.08,5.32,8.266,19.1Z" transform="translate(98.262 6.772)"/>
                <path id="Trazado_1000540" data-name="Trazado 1000540" d="M115.012,39.875a1.076,1.076,0,1,1-.91-1.221,1.078,1.078,0,0,1,.91,1.221" transform="translate(61.167 11.871)" fill="#171717"/>
                <path id="Trazado_1000541" data-name="Trazado 1000541" d="M107.836,39.217a1.076,1.076,0,1,1-.91-1.221,1.078,1.078,0,0,1,.91,1.221" transform="translate(77.723 11.669)" fill="#171717"/>
                <path id="Trazado_1000542" data-name="Trazado 1000542" d="M110.886,40.074l-.625,3.063a.654.654,0,0,0,.549.779l1.494-.176" transform="translate(67.315 12.311)" fill="none" stroke="#1e0a00" stroke-linecap="round" stroke-linejoin="round" stroke-width="0.421"/>
                <path id="Trazado_1000543" data-name="Trazado 1000543" d="M103.289,35.2l8.493.817a4.852,4.852,0,0,0-3.973-2.561,5.3,5.3,0,0,0-4.52,1.744" transform="translate(76.934 10.271)"/>
                <path id="Trazado_1000544" data-name="Trazado 1000544" d="M116.969,35.148l-4.434,1.179s.139-1.889,1.68-2.288a3,3,0,0,1,2.754,1.109" transform="translate(59.661 10.437)"/>
                <path id="Trazado_1000545" data-name="Trazado 1000545" d="M110.685,43.726a4.355,4.355,0,0,1-4.851,1.926" transform="translate(74.704 13.433)" fill="none" stroke="#1e0a00" stroke-linecap="round" stroke-linejoin="round" stroke-width="0.421"/>
                <path id="Trazado_1000546" data-name="Trazado 1000546" d="M111.753,42.884s-5.577-5.86-4.714-9.969c.7-3.357-2.184-3.169-3.745-2.746a29.621,29.621,0,0,1-3.795.8c-3.078.412-8.131.886-11.579.193,0,0-1.444-1.039.55-5.316s6.281-6.1,14.847-6.1c7.085,0,11.375.7,15.43,3.626,2.884,2.08,8.732,10.083,1.66,22Z" transform="translate(85.7 6.068)"/>
                <path id="Trazado_1000547" data-name="Trazado 1000547" d="M99.611,41.143a5.159,5.159,0,1,1-4.556-5.7,5.161,5.161,0,0,1,4.556,5.7" transform="translate(107.327 10.879)" fill="#d38580"/>
                <path id="Trazado_1000548" data-name="Trazado 1000548" d="M95.878,37.9a3.78,3.78,0,0,0-4.148,3.9" transform="translate(107.949 11.642)" fill="none" stroke="#1e0a00" stroke-linecap="round" stroke-linejoin="round" stroke-width="0.38"/>
                <path id="Trazado_1000549" data-name="Trazado 1000549" d="M163.7,104.794H126.192v-4.233H163.7a2.116,2.116,0,1,1,0,4.233" transform="translate(-7.042 30.894)" fill="#121314"/>
                <path id="Trazado_1000550" data-name="Trazado 1000550" d="M220.66,114.519H169.576a6.377,6.377,0,0,1-6.143-4.667L152.811,71.691a2.2,2.2,0,0,1,2.116-2.786H206.65a2.621,2.621,0,0,1,2.533,1.954Z" transform="translate(-96.573 21.169)" fill="#445158"/>
                <path id="Trazado_1000551" data-name="Trazado 1000551" d="M185.106,87.365a3.939,3.939,0,1,1-3.94-3.939,3.939,3.939,0,0,1,3.94,3.939" transform="translate(-93.042 25.63)" fill="#83949a"/>
                <rect id="Rectángulo_456815" data-name="Rectángulo 456815" width="268.401" height="8.374" transform="translate(22.85 135.687)" fill="#fff"/>
                <line id="Línea_3383" data-name="Línea 3383" y2="119.33" transform="translate(249.255 144.061)" fill="none" stroke="#221913" stroke-miterlimit="10" stroke-width="1.952"/>
                <line id="Línea_3384" data-name="Línea 3384" y2="119.33" transform="translate(60.03 144.061)" fill="none" stroke="#221913" stroke-miterlimit="10" stroke-width="1.952"/>
                <path id="Trazado_1000552" data-name="Trazado 1000552" d="M5.3,49.263H45.066a6.993,6.993,0,0,0,6.992-6.994V5.3a5.3,5.3,0,0,0-5.3-5.3H5.3A5.3,5.3,0,0,0,0,5.3v38.66a5.3,5.3,0,0,0,5.3,5.3" transform="translate(271.679 0)" fill="#fff"/>
              </g>
            </g>
            <path id="Trazado_1034342" data-name="Trazado 1034342" d="M6.872-10.112,2.155,2.875H.227l5.432-14.25H6.9ZM10.826,2.875,6.1-10.112,6.07-11.375H7.313l5.452,14.25ZM10.582-2.4V-.854H2.576V-2.4Zm9.347-.313H16.121V-4.25h3.807A3.922,3.922,0,0,0,21.719-4.6a2.226,2.226,0,0,0,1-.979,3.112,3.112,0,0,0,.318-1.429,3.082,3.082,0,0,0-.318-1.38,2.445,2.445,0,0,0-1-1.042,3.553,3.553,0,0,0-1.791-.4H16.562v12.7H14.673v-14.25h5.256a6.062,6.062,0,0,1,2.731.558,3.954,3.954,0,0,1,1.693,1.541,4.353,4.353,0,0,1,.577,2.246,4.49,4.49,0,0,1-.577,2.339,3.663,3.663,0,0,1-1.693,1.473A6.616,6.616,0,0,1,19.928-2.713Zm9.415-8.662V2.875H27.455v-14.25Z" transform="translate(294.063 52.562)" fill="#344866"/>
          </g>
        </g>
        <g id="Grupo_1180379" data-name="Grupo 1180379" transform="translate(31.279)">
          <path id="Trazado_1000657" data-name="Trazado 1000657" d="M173.316,47.742h94.648a3.344,3.344,0,0,0,3.345-3.345V15.955a3.344,3.344,0,0,0-3.345-3.343H173.316a3.345,3.345,0,0,0-3.345,3.343V44.4a3.346,3.346,0,0,0,3.345,3.345" transform="translate(-169.971 -12.612)" fill="#3a4b9e"/>
          <line id="Línea_3398" data-name="Línea 3398" x1="66.706" transform="translate(18.586 12.051)" fill="none" stroke="#fff" stroke-miterlimit="10" stroke-width="2"/>
          <line id="Línea_3399" data-name="Línea 3399" x1="23.887" transform="translate(61.405 21.472)" fill="none" stroke="#fff" stroke-miterlimit="10" stroke-width="2"/>
          <path id="Trazado_1000658" data-name="Trazado 1000658" d="M192.729,27.688V40.869L176.151,27.688Z" transform="translate(-104.222 3.616)" fill="#3a4b9e"/>
          <line id="Línea_3400" data-name="Línea 3400" x1="66.706" transform="translate(258.586 88.051)" fill="none" stroke="#fff" stroke-miterlimit="10" stroke-width="2"/>
          <line id="Línea_3401" data-name="Línea 3401" x1="23.887" transform="translate(301.405 97.473)" fill="none" stroke="#fff" stroke-miterlimit="10" stroke-width="2"/>
          <line id="Línea_3402" data-name="Línea 3402" x1="66.706" transform="translate(-11.696 90.051)" fill="none" stroke="#fff" stroke-miterlimit="10" stroke-width="2"/>
          <line id="Línea_3403" data-name="Línea 3403" x1="23.887" transform="translate(31.123 99.473)" fill="none" stroke="#fff" stroke-miterlimit="10" stroke-width="2"/>
        </g>
      </g>
    </g>
  </g>
</svg>
