<svg xmlns="http://www.w3.org/2000/svg" xmlns:xlink="http://www.w3.org/1999/xlink" width="812" height="300" viewBox="0 0 812 300">
  <defs>
    <clipPath id="clip-path">
      <rect id="Rectángulo_459430" data-name="Rectángulo 459430" width="812" height="300" transform="translate(-12947 -857)" fill="#fff"/>
    </clipPath>
    <clipPath id="clip-path-2">
      <rect id="Rectángulo_459433" data-name="Rectángulo 459433" width="85.187" height="46.884" fill="none"/>
    </clipPath>
    <clipPath id="clip-path-3">
      <rect id="Rectángulo_459436" data-name="Rectángulo 459436" width="161.543" height="58.515" fill="none"/>
    </clipPath>
    <clipPath id="clip-path-5">
      <rect id="Rectángulo_459434" data-name="Rectángulo 459434" width="111.624" height="15.498" fill="none"/>
    </clipPath>
    <clipPath id="clip-path-6">
      <rect id="Rectángulo_459438" data-name="Rectángulo 459438" width="182.458" height="55.223" fill="none"/>
    </clipPath>
    <clipPath id="clip-path-7">
      <rect id="Rectángulo_459431" data-name="Rectángulo 459431" width="77.265" height="99.296" fill="none"/>
    </clipPath>
  </defs>
  <g id="Grupo_1187065" data-name="Grupo 1187065" transform="translate(12947 857)">
    <g id="Grupo_1187068" data-name="Grupo 1187068">
      <rect id="Rectángulo_458295" data-name="Rectángulo 458295" width="812" height="300" transform="translate(-12947 -857)" fill="#fff"/>
      <g id="Enmascarar_grupo_1178576" data-name="Enmascarar grupo 1178576" clip-path="url(#clip-path)">
        <path id="Unión_12" data-name="Unión 12" d="M13.872,46.516,0,21.867,18.034,6.272s.991.107,2.654.294C21.138,2.91,26.709,0,33.543,0,51.6,0,61.145,5.266,68.079,9.073c5.691,3.165,8.831,4.909,16.089,4.909s10.4-1.744,16.156-4.909C107.257,5.266,116.741,0,134.794,0s27.537,5.266,34.469,9.073c5.756,3.165,8.9,4.909,16.156,4.909s10.4-1.744,16.157-4.909C208.508,5.266,217.991,0,236.044,0s27.6,5.266,34.535,9.073c5.692,3.165,8.831,4.909,16.09,4.909,7.326,0,10.465-1.744,16.157-4.909C309.758,5.266,319.308,0,337.359,0s27.536,5.266,34.47,9.073c5.756,3.165,8.9,4.909,16.157,4.909,7.325,0,10.464-1.744,16.154-4.909C411.073,5.266,420.622,0,438.676,0c7.129,0,12.884,3.167,12.884,7.044q0,.134-.009.266l17.333,1.728-6.012,25.908,6.012,11.57Z" transform="translate(-12975.681 -586.758)" fill="#5cbeff"/>
      </g>
    </g>
    <path id="Rectángulo_459432" data-name="Rectángulo 459432" d="M40,0H474a0,0,0,0,1,0,0V61a0,0,0,0,1,0,0H0a0,0,0,0,1,0,0V40A40,40,0,0,1,40,0Z" transform="translate(-12609 -618)" fill="#bbd1c9"/>
    <g id="Grupo_1187081" data-name="Grupo 1187081" transform="translate(-12573 -641.442)">
      <g id="Grupo_1187080" data-name="Grupo 1187080" clip-path="url(#clip-path-2)">
        <path id="Trazado_1034121" data-name="Trazado 1034121" d="M84.276,164.476c0,2.01-17.894,3.64-39.968,3.64S4.34,166.486,4.34,164.476s17.894-3.64,39.968-3.64,39.968,1.629,39.968,3.64" transform="translate(-3.271 -121.231)" fill="#7ea295"/>
        <path id="Trazado_1034122" data-name="Trazado 1034122" d="M100.866,49.189c3.91,0-5.465,7.6-8.463,7.6H41.647c-3,0-10.018-9.243-6.109-9.154,3.853.088,8.531-14.483,8.531-14.483A5.716,5.716,0,0,1,49.133,29.2H78.957a5.717,5.717,0,0,1,5.065,3.952S91.5,49.189,100.866,49.189" transform="translate(-25.916 -22.012)" fill="#d6563e"/>
        <path id="Trazado_1034123" data-name="Trazado 1034123" d="M88.725,112.4c0,3.837-2.51,5.342-5.606,5.342H12.54c-3.1,0-5.606-3.11-5.606-6.946s2.51-6.946,5.606-6.946l70.58,1.6c3.1,0,5.606,3.11,5.606,6.946" transform="translate(-5.227 -78.28)" fill="#cd523b"/>
        <path id="Trazado_1034124" data-name="Trazado 1034124" d="M111.4,54.452c-4.572-7.329-8.775-15.152-8.775-15.152a5.079,5.079,0,0,0-4.506-3.485H72.041A5.079,5.079,0,0,0,67.535,39.3s-2.494,6.412-5.1,12.7a.594.594,0,0,1,.069.056L75.864,65.413l25.046-.474L111.4,54.452" transform="translate(-47.064 -26.996)" fill="#a83923"/>
        <path id="Trazado_1034125" data-name="Trazado 1034125" d="M112.782,56.564c-4.164-7-8.781-15.145-8.781-15.145a4.218,4.218,0,0,0-4.02-2.666H74.729a4.265,4.265,0,0,0-4.2,2.891S67.7,48.068,65.36,54q6.449,6.45,12.88,12.9l24.338-.429c3.3-3.3,6.9-6.606,10.2-9.909" transform="translate(-49.265 -29.21)" fill="#cd523b"/>
        <path id="Trazado_1034126" data-name="Trazado 1034126" d="M155.408,37.722l.616,28.926c.012.547-.267.991-.622.991s-.652-.443-.664-.991l-.616-28.926Z" transform="translate(-116.17 -28.433)" fill="#a83923"/>
        <path id="Trazado_1034127" data-name="Trazado 1034127" d="M169.124,57.188H185.8a88.882,88.882,0,0,1-5.145-9.537,4.537,4.537,0,0,0-3.779-2.877l-8.1-.005Z" transform="translate(-127.213 -33.745)" fill="#88b1b3"/>
        <path id="Trazado_1034128" data-name="Trazado 1034128" d="M94.38,44.769H85.067A4.4,4.4,0,0,0,81.2,47.895s-1.765,5.816-3.165,9.293h16.7Z" transform="translate(-58.816 -33.745)" fill="#88b1b3"/>
        <path id="Trazado_1034129" data-name="Trazado 1034129" d="M216.51,80.5c-.4-.683-.787-1.382-1.157-2.065q-2.077,2.062-4.15,4.129h3.242L216.51,80.5" transform="translate(-159.196 -59.118)" fill="#fffefd"/>
        <path id="Trazado_1034130" data-name="Trazado 1034130" d="M181.127,51.517,170.37,62.274h3.479l8.5-8.5c-.31-.644-.491-1.037-.491-1.037a4.736,4.736,0,0,0-.731-1.22" transform="translate(-128.417 -38.831)" fill="#fffefd"/>
        <path id="Trazado_1034131" data-name="Trazado 1034131" d="M175.032,44.779h-2.35a.464.464,0,0,1-.142.289l-3.349,3.349.061,2.144,5.78-5.78" transform="translate(-127.528 -33.752)" fill="#fffefd"/>
        <path id="Trazado_1034132" data-name="Trazado 1034132" d="M106.45,46.763l-.056-1.994h0L93.97,57.188h2.055L106.45,46.763" transform="translate(-70.83 -33.745)" fill="#fffefd"/>
        <path id="Trazado_1034133" data-name="Trazado 1034133" d="M117.178,63.134l-.135-4.768-9.07,9.07h4.9l4.3-4.3" transform="translate(-81.385 -43.994)" fill="#fffefd"/>
        <path id="Trazado_1034134" data-name="Trazado 1034134" d="M91.777,44.769H87.984a4.4,4.4,0,0,0-3.871,3.126s-1.074,3.542-2.212,6.75l9.876-9.876" transform="translate(-61.733 -33.745)" fill="#fffefd"/>
        <path id="Trazado_1034135" data-name="Trazado 1034135" d="M91.861,151.944a1.329,1.329,0,0,1-1.329,1.329H17.483a1.329,1.329,0,1,1,0-2.658H90.532a1.329,1.329,0,0,1,1.329,1.329" transform="translate(-12.176 -113.527)" fill="#6e5541"/>
        <path id="Trazado_1034136" data-name="Trazado 1034136" d="M90.532,154.1H17.483a1.323,1.323,0,0,1-1.158-.689,1.316,1.316,0,0,0-.171.64,1.329,1.329,0,0,0,1.329,1.329H90.532a1.32,1.32,0,0,0,1.158-1.97,1.323,1.323,0,0,1-1.158.689" transform="translate(-12.176 -115.633)" fill="#4f3d2f"/>
        <path id="Trazado_1034137" data-name="Trazado 1034137" d="M279.392,144.783a2.941,2.941,0,0,1-2.941,2.94H260.881a2.941,2.941,0,1,1,0-5.881h15.571a2.941,2.941,0,0,1,2.941,2.941" transform="translate(-194.423 -106.914)" fill="#6e5541"/>
        <path id="Trazado_1034138" data-name="Trazado 1034138" d="M282.086,147.5a.465.465,0,0,1-.465.464H263.493a.464.464,0,0,1,0-.929h18.128a.465.465,0,0,1,.465.464" transform="translate(-198.259 -110.831)" fill="#47372a"/>
        <path id="Trazado_1034139" data-name="Trazado 1034139" d="M282.086,155.673a.465.465,0,0,1-.465.465H263.493a.465.465,0,0,1,0-.929h18.128a.465.465,0,0,1,.465.464" transform="translate(-198.259 -116.989)" fill="#47372a"/>
        <path id="Trazado_1034140" data-name="Trazado 1034140" d="M282.086,164.3a.465.465,0,0,1-.465.465H263.493a.465.465,0,0,1,0-.929h18.128a.465.465,0,0,1,.465.464" transform="translate(-198.259 -123.493)" fill="#47372a"/>
        <path id="Trazado_1034141" data-name="Trazado 1034141" d="M63.526,140.8a6.014,6.014,0,1,1-6.014-6.014,6.014,6.014,0,0,1,6.014,6.014" transform="translate(-38.817 -101.598)"/>
        <path id="Trazado_1034142" data-name="Trazado 1034142" d="M66.8,145.666a4.425,4.425,0,1,1-4.425-4.425,4.425,4.425,0,0,1,4.425,4.425" transform="translate(-43.681 -106.461)" fill="#9e9e9e"/>
        <path id="Trazado_1034143" data-name="Trazado 1034143" d="M69.913,150.289A2.915,2.915,0,1,1,67,147.374a2.915,2.915,0,0,1,2.915,2.915" transform="translate(-48.303 -111.084)" fill="#c4c4c4"/>
        <path id="Trazado_1034144" data-name="Trazado 1034144" d="M248,140.8a6.014,6.014,0,1,1-6.014-6.014A6.014,6.014,0,0,1,248,140.8" transform="translate(-177.861 -101.598)"/>
        <path id="Trazado_1034145" data-name="Trazado 1034145" d="M251.27,145.666a4.425,4.425,0,1,1-4.425-4.425,4.425,4.425,0,0,1,4.425,4.425" transform="translate(-182.725 -106.461)" fill="#9e9e9e"/>
        <path id="Trazado_1034146" data-name="Trazado 1034146" d="M254.383,150.289a2.915,2.915,0,1,1-2.915-2.915,2.915,2.915,0,0,1,2.915,2.915" transform="translate(-187.348 -111.084)" fill="#c4c4c4"/>
        <path id="Trazado_1034147" data-name="Trazado 1034147" d="M5.143,141.437A2.27,2.27,0,1,1,.783,142.7l-.692-2.38a2.27,2.27,0,1,1,4.36-1.267Z" transform="translate(0 -103.581)" fill="#3b2d23"/>
        <path id="Trazado_1034148" data-name="Trazado 1034148" d="M331.182,143.246a2.12,2.12,0,0,1-4.217-.443l.435-4.142a2.12,2.12,0,0,1,4.217.443Z" transform="translate(-246.442 -103.085)" fill="#3b2d23"/>
        <path id="Trazado_1034149" data-name="Trazado 1034149" d="M323.98,117.177h-.173a2.168,2.168,0,1,0,0,4.337h2.076a7.518,7.518,0,0,0-1.9-4.337" transform="translate(-242.437 -88.323)" fill="#fffefd"/>
        <path id="Trazado_1034150" data-name="Trazado 1034150" d="M8.247,117.177H7.779a8.173,8.173,0,0,0-.844,3.665c0,.227.009.451.027.672H8.247a2.168,2.168,0,1,0,0-4.337" transform="translate(-5.227 -88.323)" fill="#fffefd"/>
        <path id="Trazado_1034151" data-name="Trazado 1034151" d="M305.921,120.417a1.1,1.1,0,1,1-2.195,0v-2.143a1.1,1.1,0,0,1,2.195,0Z" transform="translate(-228.935 -88.323)" fill="#ff812b"/>
        <path id="Trazado_1034152" data-name="Trazado 1034152" d="M28.5,120.417a1.1,1.1,0,0,1-2.195,0v-2.143a1.1,1.1,0,0,1,2.195,0Z" transform="translate(-19.827 -88.323)" fill="#ff812b"/>
        <path id="Trazado_1034153" data-name="Trazado 1034153" d="M15.636,97.186c-.071.007-.143.014-.213.024l-.114.018q-.1.016-.2.036L15,97.289c-.067.016-.134.033-.2.052l-.1.028c-.078.024-.154.05-.23.078l-.062.022c-.1.038-.2.079-.295.123l0,0c-.094.043-.186.09-.278.138l-.063.035c-.072.04-.144.081-.214.125l-.07.045q-.1.066-.2.137l-.063.045c-.073.053-.145.108-.215.165l-.039.031a6.03,6.03,0,0,0-.729.711l-.018.021q-.1.119-.2.244l-.028.036q-.095.123-.184.252l-.022.031q-.1.143-.191.292H15.36c1.872,0,4.756,0,5.967-4.922h0c-.983,1.36-2,2.259-2.966,2.237l-2.309-.052c-.106,0-.211,0-.316.012l-.1.009" transform="translate(-8.739 -71.592)" fill="#a83923"/>
        <path id="Trazado_1034154" data-name="Trazado 1034154" d="M173.726,100.957a.511.511,0,0,1-.511.511h-2.828a.511.511,0,0,1,0-1.022h2.828a.511.511,0,0,1,.511.511" transform="translate(-128.044 -75.712)" fill="#a83923"/>
        <path id="Trazado_1034155" data-name="Trazado 1034155" d="M81.885,100.957a.512.512,0,0,1-.511.511H78.545a.511.511,0,0,1,0-1.022h2.829a.511.511,0,0,1,.511.511" transform="translate(-58.818 -75.712)" fill="#a83923"/>
        <path id="Trazado_1034156" data-name="Trazado 1034156" d="M233.564,79.465a1.492,1.492,0,0,1-2.733,1.2l-1.115-2.538a1.492,1.492,0,0,1,2.733-1.2Z" transform="translate(-173.054 -57.311)" fill="#47372a"/>
        <path id="Trazado_1034157" data-name="Trazado 1034157" d="M110.384,18.37a.791.791,0,0,0-.791.791v2.713a.791.791,0,1,0,1.582,0V19.161a.791.791,0,0,0-.791-.791" transform="translate(-82.606 -13.846)" fill="#47372a"/>
        <path id="Trazado_1034158" data-name="Trazado 1034158" d="M197.708,18.37a.791.791,0,0,0-.791.791v2.713a.791.791,0,1,0,1.583,0V19.161a.791.791,0,0,0-.791-.791" transform="translate(-148.427 -13.846)" fill="#47372a"/>
        <path id="Trazado_1034159" data-name="Trazado 1034159" d="M116.221,5.106a2.679,2.679,0,0,1-2.679,2.679H78.373a2.679,2.679,0,1,1,0-5.358h35.17a2.679,2.679,0,0,1,2.679,2.679" transform="translate(-57.055 -1.829)" fill="#47372a"/>
        <path id="Trazado_1034160" data-name="Trazado 1034160" d="M115.126,2.885c0-.045.007-.09.007-.136A2.749,2.749,0,0,0,112.384,0H76.3a2.749,2.749,0,0,0-2.749,2.749c0,.046,0,.09.007.136Z" transform="translate(-55.438)" fill="#fffefd"/>
        <path id="Trazado_1034161" data-name="Trazado 1034161" d="M111.251,10.537a.9.9,0,0,1-.9.9H66.8a.9.9,0,1,1,0-1.809h43.542a.9.9,0,0,1,.9.9" transform="translate(-49.672 -7.261)" fill="#735f4f"/>
      </g>
    </g>
    <g id="Grupo_1187088" data-name="Grupo 1187088" transform="translate(-12868.613 -623.815)">
      <g id="Grupo_1187087" data-name="Grupo 1187087" clip-path="url(#clip-path-3)">
        <g id="Grupo_1187086" data-name="Grupo 1187086">
          <g id="Grupo_1187085" data-name="Grupo 1187085" clip-path="url(#clip-path-3)">
            <path id="Trazado_1034162" data-name="Trazado 1034162" d="M152.24,25.323c1.056,4.133-6.591,7.6-10.312,7.6H37.079c-3.72,0-5.85-3.464-4.794-7.6L37.237,5.952A8.042,8.042,0,0,1,44.538,0H128.6c3.191,0,5.261,3.184,7.3,5.952,5.667,7.692,16.341,19.371,16.341,19.371" transform="translate(-17.888)" fill="#fff7df"/>
            <path id="Trazado_1034163" data-name="Trazado 1034163" d="M148.911,48.982a14.225,14.225,0,0,1-4.458.906H33l-.717,2.8c-1.056,4.133,1.074,7.6,4.794,7.6H141.928c3.72,0,11.368-3.464,10.312-7.6,0,0-1.345-1.472-3.329-3.709" transform="translate(-17.888 -27.368)" fill="#e2d7b6"/>
            <path id="Trazado_1034165" data-name="Trazado 1034165" d="M0,58.167c4.576,8.475,4.838,20.2,23.256,27.742a.962.962,0,0,1,.38-.075c6.893,0,13.761.115,20.456,1.485q.627-.131,1.261-.243c4.036-.7,7.739,1.086,11.719,1.218,4.983.166,9.823-.9,14.766-1.291,4.9-.384,9.73.481,14.633.237,5.289-.264,10.549-1.075,15.846-1.175a43.879,43.879,0,0,1,7.138.26c1.1,0,2.19-.193,2.559-.2,6.585-.039,13.3-.964,19.955-1.3,17.135-7.55,23.107-18.583,27.472-26.668Z" transform="translate(0 -32.5)" fill="#fff0d1"/>
            <path id="Trazado_1034166" data-name="Trazado 1034166" d="M151.01,76.853A56.821,56.821,0,0,0,159.6,64.925H3.2c1.6,3.742,2.9,7.888,5.451,11.928Z" transform="translate(-1.791 -36.276)" fill="#f5e0b3"/>
            <path id="Trazado_1034167" data-name="Trazado 1034167" d="M81.026,95.92c-22.526,0-43.42-2.435-60.652-6.588,2.985,3.621,7.344,7.044,14.264,9.88a.954.954,0,0,1,.381-.075c6.892,0,13.761.115,20.456,1.485.418-.087.838-.169,1.261-.243,4.036-.7,7.739,1.086,11.719,1.219,4.983.166,9.823-.9,14.766-1.291,4.9-.384,9.729.482,14.633.237,5.289-.263,10.549-1.074,15.846-1.175a43.879,43.879,0,0,1,7.138.26c1.1,0,2.19-.192,2.559-.2,6.585-.039,13.3-.964,19.955-1.3,10.4-4.583,16.687-10.45,21-16.162-19.59,8.5-49.633,13.945-83.324,13.945" transform="translate(-11.384 -45.802)" fill="#f5e0b3"/>
            <path id="Trazado_1034168" data-name="Trazado 1034168" d="M247.7,9.89H234.2l6.868,15.062s12.265,2.821,20.175,1.472Z" transform="translate(-130.855 -5.526)" fill="#448cbc"/>
            <path id="Trazado_1034169" data-name="Trazado 1034169" d="M34.339,30.232a84.12,84.12,0,0,0,10.953-1.3l3.97-14.043H38.377Z" transform="translate(-19.186 -8.321)" fill="#448cbc"/>
            <path id="Trazado_1034170" data-name="Trazado 1034170" d="M211.28,24.952s1.717,1.837,6.132,1.837c3.558,0,4.17-1.837,4.17-1.837L215.573,9.89h-9.444Z" transform="translate(-115.171 -5.526)" fill="#448cbc"/>
            <path id="Trazado_1034171" data-name="Trazado 1034171" d="M182.118,24.952s1.5,1.837,5.919,1.837c3.558,0,4.384-1.837,4.384-1.837L188.16,9.89h-9.444Z" transform="translate(-99.854 -5.526)" fill="#448cbc"/>
            <path id="Trazado_1034172" data-name="Trazado 1034172" d="M151.6,24.952s1.261,1.837,5.676,1.837c3.557,0,4.626-1.837,4.626-1.837L159.628,9.89h-9.444Z" transform="translate(-83.913 -5.526)" fill="#448cbc"/>
            <path id="Trazado_1034173" data-name="Trazado 1034173" d="M121.111,20.487a6.753,6.753,0,1,1-6.753-6.753,6.753,6.753,0,0,1,6.753,6.753" transform="translate(-60.123 -7.674)" fill="#448cbc"/>
            <path id="Trazado_1034174" data-name="Trazado 1034174" d="M82.239,23.079a4.707,4.707,0,1,1-4.706-4.707,4.706,4.706,0,0,1,4.706,4.707" transform="translate(-40.69 -10.265)" fill="#448cbc"/>
            <path id="Trazado_1034175" data-name="Trazado 1034175" d="M153.887,70.1H3.489L0,58.168H161.543Z" transform="translate(0 -32.5)" fill="#32688c"/>
            <path id="Trazado_1034176" data-name="Trazado 1034176" d="M3.953,71.683,5.7,77.647H156.1l3.828-5.964Z" transform="translate(-2.209 -40.052)" fill="#2b5978"/>
            <g id="Grupo_1187084" data-name="Grupo 1187084" transform="translate(16.958 5.308)" opacity="0.5">
              <g id="Grupo_1187083" data-name="Grupo 1187083">
                <g id="Grupo_1187082" data-name="Grupo 1187082" clip-path="url(#clip-path-5)">
                  <path id="Trazado_1034177" data-name="Trazado 1034177" d="M240.472,12.029h-.793l-1.058,1.058.248.545Z" transform="translate(-150.283 -12.029)" fill="#fff"/>
                  <path id="Trazado_1034178" data-name="Trazado 1034178" d="M247.218,12.029h-2.705l-3.436,3.436.848,1.859,5.293-5.294" transform="translate(-151.656 -12.029)" fill="#fff"/>
                  <path id="Trazado_1034179" data-name="Trazado 1034179" d="M263.371,24.379l-.292-.357-8.314,8.313.547.1,8.058-8.059" transform="translate(-159.304 -18.73)" fill="#fff"/>
                  <path id="Trazado_1034180" data-name="Trazado 1034180" d="M267.063,37.58l.534.067,5.457-5.457-.271-.33-5.72,5.72" transform="translate(-166.175 -23.109)" fill="#fff"/>
                  <path id="Trazado_1034181" data-name="Trazado 1034181" d="M274.953,40.622c1.361.108,2.753.175,4.113.175h0c1.127,0,2.177-.046,3.141-.137l-3.284-4.009-3.971,3.971" transform="translate(-170.583 -25.786)" fill="#fff"/>
                  <path id="Trazado_1034182" data-name="Trazado 1034182" d="M247.245,22.9l.9,1.972,8.64-8.64-1.292-1.578L247.245,22.9" transform="translate(-155.102 -13.497)" fill="#fff"/>
                  <path id="Trazado_1034183" data-name="Trazado 1034183" d="M46.936,17.032H43.653L42.48,21.488l4.456-4.456" transform="translate(-40.693 -14.824)" fill="#fff"/>
                  <path id="Trazado_1034184" data-name="Trazado 1034184" d="M49.947,24.673l.337-1.191L39.84,33.926c.313-.026.621-.054.926-.083q4.611-4.564,9.181-9.17" transform="translate(-39.218 -18.428)" fill="#fff"/>
                  <path id="Trazado_1034185" data-name="Trazado 1034185" d="M53.007,37.83l.9-3.184q-2.54,2.551-5.09,5.091c1.037-.136,1.941-.273,2.657-.389.513-.5,1.022-1.013,1.533-1.518" transform="translate(-44.234 -24.666)" fill="#fff"/>
                  <path id="Trazado_1034186" data-name="Trazado 1034186" d="M49.673,17.032H47.342l-8.078,8.079-.834,3.165L49.673,17.032" transform="translate(-38.43 -14.824)" fill="#fff"/>
                  <path id="Trazado_1034187" data-name="Trazado 1034187" d="M209.165,12.087l.535,1.562,1.62-1.62h-2.1l-.059.058" transform="translate(-133.825 -12.029)" fill="#fff"/>
                  <path id="Trazado_1034188" data-name="Trazado 1034188" d="M223.253,23.272l-.226-.567-5.776,5.777.2.591Z" transform="translate(-138.343 -17.994)" fill="#fff"/>
                  <path id="Trazado_1034189" data-name="Trazado 1034189" d="M220.719,35.431l5.184-5.184-.771-1.934L219.249,34.2l.175.512a5.441,5.441,0,0,0,1.3.724" transform="translate(-139.46 -21.127)" fill="#fff"/>
                  <path id="Trazado_1034190" data-name="Trazado 1034190" d="M234.819,43.883a2.977,2.977,0,0,0,1.743-.855l-.253-.635Z" transform="translate(-148.159 -28.994)" fill="#fff"/>
                  <path id="Trazado_1034191" data-name="Trazado 1034191" d="M216.9,12.029h-1.37l-3.609,3.61.35,1.021,4.629-4.63" transform="translate(-135.363 -12.029)" fill="#fff"/>
                  <path id="Trazado_1034192" data-name="Trazado 1034192" d="M185.337,12.029h-2.331L181.938,13.1l.43,1.9Z" transform="translate(-118.612 -12.029)" fill="#fff"/>
                  <path id="Trazado_1034193" data-name="Trazado 1034193" d="M186.538,26.79l.384,1.7,6.408-6.407-.462-1.632q-3.165,3.169-6.33,6.339" transform="translate(-121.183 -16.735)" fill="#fff"/>
                  <path id="Trazado_1034194" data-name="Trazado 1034194" d="M195.5,29.933l-.3-1.068-6.367,6.368a5.056,5.056,0,0,0,.878.492l5.791-5.791" transform="translate(-122.465 -21.436)" fill="#fff"/>
                  <path id="Trazado_1034195" data-name="Trazado 1034195" d="M156.181,33.378l6.629-6.629-.306-2.025-7.234,7.235.083.88a3.665,3.665,0,0,0,.828.54" transform="translate(-103.712 -19.122)" fill="#fff"/>
                  <path id="Trazado_1034196" data-name="Trazado 1034196" d="M159.372,12.029H155.31l-2.289,2.288.349,3.713,6-6" transform="translate(-102.456 -12.029)" fill="#fff"/>
                  <path id="Trazado_1034197" data-name="Trazado 1034197" d="M154.333,22.274l.184,1.956,7.113-7.114-.281-1.858-7.016,7.016" transform="translate(-103.189 -13.833)" fill="#fff"/>
                  <path id="Trazado_1034198" data-name="Trazado 1034198" d="M116.322,15.929a5.765,5.765,0,0,0-6.578,5.752,5.729,5.729,0,0,0,.057.769l6.521-6.521" transform="translate(-78.276 -14.176)" fill="#fff"/>
                  <path id="Trazado_1034199" data-name="Trazado 1034199" d="M121.6,34.07c.065.007.128.018.194.022l6.17-6.171c0-.065-.015-.129-.022-.194L121.6,34.07" transform="translate(-84.899 -20.801)" fill="#fff"/>
                  <path id="Trazado_1034200" data-name="Trazado 1034200" d="M130.352,37.984a5.86,5.86,0,0,0,1.5-1.5Z" transform="translate(-89.79 -25.692)" fill="#fff"/>
                  <path id="Trazado_1034201" data-name="Trazado 1034201" d="M112.36,26.7l8.207-8.207a5.877,5.877,0,0,0-1.329-1l-7.88,7.88a5.827,5.827,0,0,0,1,1.329" transform="translate(-79.177 -15.078)" fill="#fff"/>
                  <path id="Trazado_1034202" data-name="Trazado 1034202" d="M76.37,27.219l5.3-5.3a3.767,3.767,0,0,0-1.886-1.14q-2.278,2.282-4.558,4.562a3.774,3.774,0,0,0,1.139,1.882" transform="translate(-58.992 -16.916)" fill="#fff"/>
                  <path id="Trazado_1034203" data-name="Trazado 1034203" d="M83.437,31.775l2.792-2.791a3.642,3.642,0,0,0,.031-1.593l-4.417,4.416a3.661,3.661,0,0,0,1.593-.031" transform="translate(-62.687 -20.612)" fill="#fff"/>
                </g>
              </g>
            </g>
            <path id="Trazado_1034204" data-name="Trazado 1034204" d="M50.006,116.832c-3.81-.686,4.936-3.889,1.751-5.567,1.811.039,4.816.707,6.053-.676l-1.208-.026c4.611.9,9.436,1.209,14.249,2.117,2.406.453,8.631,1.191,10.009,2.63,3.395,1.28,4.418.5,8.045.373C85.519,114,87,110.811,82.959,111.328c9.649.609,18.846,3.625,28.705,3.836l-.4-.009c4.427.095,10.043,1.02,14.3-.3a7.366,7.366,0,0,0-5.6-1.931c4.457-1.314,10.236,1.428,11.692-.756,4.44-.509,8.605,2.4,12.651,1.478-4.105-5.725,6.12-3.3,8.774-2.89,9.875,1.543,14.231,1.4,11.969,2.529,0,0-6.872,1.28-13.732,2.03s-15.347.631-23.229,2.847-23.532.324-23.532.324-7.528.753-8.924,1.347-25.508-2.152-25.508-2.152Z" transform="translate(-27.392 -61.403)" fill="#9ed1ff"/>
          </g>
        </g>
      </g>
    </g>
    <g id="Grupo_1187090" data-name="Grupo 1187090" transform="translate(-12730.8 -744.611)">
      <g id="Grupo_1187089" data-name="Grupo 1187089" clip-path="url(#clip-path-6)">
        <path id="Trazado_1034205" data-name="Trazado 1034205" d="M46.3,23.978S30.492,22.2,17.865,0H0L10.849,28.1Z" transform="translate(0 0.001)" fill="#fff7df"/>
        <path id="Trazado_1034206" data-name="Trazado 1034206" d="M20.208,49.829l1.578,4.088,35.45-4.12a23.444,23.444,0,0,1-6.469-2.091H32.76c-4.19,0-9.12.522-12.552,2.123" transform="translate(-10.937 -25.819)" fill="#c2b48a"/>
        <path id="Trazado_1034207" data-name="Trazado 1034207" d="M182.462,62.2c-5.489-6.686-11.585-9.933-17.745-9.933H33.988c-7.283,0-16.807,1.569-16.807,7.661,0,7.283,27.716,17.414,41.381,17.414l109.9.388c.186,0,.371-.007.556-.015.43.009.863.015,1.3.015,15.27,0,21.44-2.532,21.44-7.347,0-3.472-2.444-5.537-9.3-8.183" transform="translate(-9.298 -28.286)" fill="#fff7df"/>
        <path id="Trazado_1034208" data-name="Trazado 1034208" d="M189.14,75.134c.011.158.019.317.019.482,0,4.815-6.17,7.346-21.44,7.346-.44,0-.875-.006-1.3-.014-.185.007-.37.014-.556.014l-109.9-.387c-10.85,0-32.172-5.907-38.7-12.522,1.015,7.294,27.986,16.913,41.341,16.913l109.9.387c.186,0,.371-.006.555-.014.43.009.863.014,1.3.014,15.27,0,21.44-2.531,21.44-7.346a5.707,5.707,0,0,0-2.664-4.873" transform="translate(-9.345 -37.913)" fill="#e2d7b6"/>
        <path id="Trazado_1034209" data-name="Trazado 1034209" d="M38.359,71.437H17.649A8.7,8.7,0,0,0,20.306,74.8H38.359a1.684,1.684,0,1,0,0-3.367" transform="translate(-9.552 -38.662)" fill="#ababab"/>
        <path id="Trazado_1034210" data-name="Trazado 1034210" d="M170.364,85.449c-.44,0-.874-.006-1.3-.014-.184.008-.369.014-.556.014l-109.9-.388c-10.737,0-30.27-6.217-38.046-12.444a18.853,18.853,0,0,1-3.3-2.564c1.015,7.294,27.986,16.913,41.341,16.913l109.9.388c.186,0,.372-.006.556-.014.43.008.863.014,1.3.014,15.27,0,21.44-2.532,21.44-7.347A6.409,6.409,0,0,0,191.726,79c-.751,4.232-7.071,6.45-21.363,6.45" transform="translate(-9.345 -37.913)" fill="#ababab"/>
        <path id="Trazado_1034211" data-name="Trazado 1034211" d="M203.492,91.554c0,3.753-3.685,6.8-8.231,6.8H183.447c-4.547,0-8.231-3.043-8.231-6.8s3.685-6.8,8.231-6.8h11.814c4.546,0,8.231,3.043,8.231,6.8" transform="translate(-94.827 -45.871)" fill="#bfbfbf"/>
        <rect id="Rectángulo_459437" data-name="Rectángulo 459437" width="11.214" height="15.246" transform="translate(88.621 38.06)" fill="#ababab"/>
        <path id="Trazado_1034212" data-name="Trazado 1034212" d="M190.46,78.776a1.572,1.572,0,0,0-1.573,1.572V96.285a1.573,1.573,0,0,0,3.145,0V80.348a1.572,1.572,0,0,0-1.572-1.572" transform="translate(-102.226 -42.634)" fill="#8a8a8a"/>
        <path id="Trazado_1034213" data-name="Trazado 1034213" d="M217.893,78.776a1.573,1.573,0,0,0-1.573,1.572V96.285a1.573,1.573,0,0,0,3.145,0V80.348a1.572,1.572,0,0,0-1.572-1.572" transform="translate(-117.073 -42.634)" fill="#8a8a8a"/>
        <path id="Trazado_1034214" data-name="Trazado 1034214" d="M343.446,62.887h9.37c-4.335-4.842-9.082-7.2-13.877-7.2h-.529Z" transform="translate(-183.148 -30.137)" fill="#448cbc"/>
        <path id="Trazado_1034215" data-name="Trazado 1034215" d="M323.361,56.963l4.345,6.335,5.105.281-4.627-6.615Z" transform="translate(-175.004 -30.828)" fill="#448cbc"/>
        <path id="Trazado_1034216" data-name="Trazado 1034216" d="M302.682,61.852a1.549,1.549,0,1,1-3.058.5l-.44-2.677a1.55,1.55,0,1,1,3.059-.5Z" transform="translate(-161.908 -31.323)" fill="#448cbc"/>
        <path id="Trazado_1034217" data-name="Trazado 1034217" d="M292.957,61.958a1.55,1.55,0,1,1-3.086.289l-.252-2.7a1.55,1.55,0,0,1,3.086-.289Z" transform="translate(-156.738 -31.31)" fill="#448cbc"/>
        <path id="Trazado_1034218" data-name="Trazado 1034218" d="M283.161,62.075a1.55,1.55,0,1,1-3.1.052l-.046-2.712a1.55,1.55,0,0,1,3.1-.052Z" transform="translate(-151.546 -31.303)" fill="#448cbc"/>
        <path id="Trazado_1034219" data-name="Trazado 1034219" d="M273.472,62.075a1.55,1.55,0,1,1-3.1.052l-.045-2.712a1.55,1.55,0,0,1,3.1-.052Z" transform="translate(-146.302 -31.303)" fill="#448cbc"/>
        <path id="Trazado_1034220" data-name="Trazado 1034220" d="M263.319,62.075a1.55,1.55,0,1,1-3.1.052l-.045-2.712a1.55,1.55,0,0,1,3.1-.052Z" transform="translate(-140.807 -31.303)" fill="#448cbc"/>
        <path id="Trazado_1034221" data-name="Trazado 1034221" d="M253.629,62.075a1.55,1.55,0,1,1-3.1.052l-.045-2.712a1.55,1.55,0,0,1,3.1-.052Z" transform="translate(-135.563 -31.303)" fill="#448cbc"/>
        <path id="Trazado_1034222" data-name="Trazado 1034222" d="M96.8,61.852a1.55,1.55,0,1,0,3.058.5l.44-2.677a1.549,1.549,0,1,0-3.058-.5Z" transform="translate(-52.376 -31.323)" fill="#448cbc"/>
        <path id="Trazado_1034223" data-name="Trazado 1034223" d="M106.747,61.958a1.549,1.549,0,1,0,3.085.289l.252-2.7A1.549,1.549,0,1,0,107,59.257Z" transform="translate(-57.768 -31.31)" fill="#448cbc"/>
        <path id="Trazado_1034224" data-name="Trazado 1034224" d="M116.787,62.075a1.549,1.549,0,1,0,3.1.052l.045-2.712a1.55,1.55,0,0,0-3.1-.052Z" transform="translate(-63.205 -31.303)" fill="#448cbc"/>
        <path id="Trazado_1034225" data-name="Trazado 1034225" d="M126.477,62.075a1.55,1.55,0,1,0,3.1.052l.045-2.712a1.55,1.55,0,0,0-3.1-.052Z" transform="translate(-68.449 -31.303)" fill="#448cbc"/>
        <path id="Trazado_1034226" data-name="Trazado 1034226" d="M136.628,62.075a1.55,1.55,0,1,0,3.1.052l.045-2.712a1.55,1.55,0,0,0-3.1-.052Z" transform="translate(-73.943 -31.303)" fill="#448cbc"/>
        <path id="Trazado_1034227" data-name="Trazado 1034227" d="M146.318,62.075a1.55,1.55,0,1,0,3.1.052l.044-2.712a1.55,1.55,0,0,0-3.1-.052Z" transform="translate(-79.187 -31.303)" fill="#448cbc"/>
        <path id="Trazado_1034228" data-name="Trazado 1034228" d="M228.351,62.075a1.55,1.55,0,1,1-3.1.052l-.045-2.712a1.55,1.55,0,0,1,3.1-.052Z" transform="translate(-121.882 -31.303)" fill="#448cbc"/>
        <path id="Trazado_1034229" data-name="Trazado 1034229" d="M218.061,62.075a1.55,1.55,0,1,1-3.1.052l-.045-2.712a1.549,1.549,0,1,1,3.1-.052Z" transform="translate(-116.314 -31.303)" fill="#448cbc"/>
        <path id="Trazado_1034230" data-name="Trazado 1034230" d="M207.771,62.075a1.55,1.55,0,1,1-3.1.052l-.044-2.712a1.55,1.55,0,0,1,3.1-.052Z" transform="translate(-110.745 -31.303)" fill="#448cbc"/>
        <path id="Trazado_1034231" data-name="Trazado 1034231" d="M197.48,62.075a1.549,1.549,0,1,1-3.1.052l-.045-2.712a1.55,1.55,0,0,1,3.1-.052Z" transform="translate(-105.175 -31.303)" fill="#448cbc"/>
        <path id="Trazado_1034232" data-name="Trazado 1034232" d="M187.192,62.075a1.55,1.55,0,1,1-3.1.052l-.045-2.712a1.55,1.55,0,0,1,3.1-.052Z" transform="translate(-99.607 -31.303)" fill="#448cbc"/>
        <path id="Trazado_1034233" data-name="Trazado 1034233" d="M176.9,62.075a1.55,1.55,0,1,1-3.1.052l-.045-2.712a1.55,1.55,0,0,1,3.1-.052Z" transform="translate(-94.038 -31.303)" fill="#448cbc"/>
        <path id="Trazado_1034234" data-name="Trazado 1034234" d="M36.67,69.451a1.684,1.684,0,0,1-1.684,1.683H13.1a1.684,1.684,0,1,1,0-3.367H34.986a1.684,1.684,0,0,1,1.684,1.684" transform="translate(-6.178 -36.676)" fill="#c2b48a"/>
        <path id="Trazado_1034235" data-name="Trazado 1034235" d="M200.5,78.1a2.993,2.993,0,0,1-2.993,2.993H150.183a2.993,2.993,0,1,1,0-5.986h47.327A2.993,2.993,0,0,1,200.5,78.1" transform="translate(-79.66 -40.648)" fill="#e2d7b6"/>
        <path id="Trazado_1034236" data-name="Trazado 1034236" d="M193.434,78.268a2.617,2.617,0,0,1-2.361,2.814H149.55a2.857,2.857,0,0,1,0-5.628h41.524a2.617,2.617,0,0,1,2.361,2.814" transform="translate(-79.659 -40.836)" fill="#c2b48a"/>
        <path id="Trazado_1034237" data-name="Trazado 1034237" d="M191.037,79.2a2.063,2.063,0,0,1-2.063,2.063H156.353a2.063,2.063,0,0,1,0-4.126h32.621a2.063,2.063,0,0,1,2.063,2.063" transform="translate(-83.502 -41.745)" fill="#fff7df"/>
      </g>
    </g>
    <g id="_x38_4" transform="translate(-12923.937 -841.15)">
      <g id="Grupo_1187138" data-name="Grupo 1187138" transform="translate(1.775 7.15)">
        <g id="Grupo_1187137" data-name="Grupo 1187137">
          <g id="Grupo_1187102" data-name="Grupo 1187102" transform="translate(57.793)">
            <g id="Grupo_1187099" data-name="Grupo 1187099">
              <path id="Trazado_1034239" data-name="Trazado 1034239" d="M72.409,19.5v4.855c0,.221-.221.441-.441.662L50.559,37.376a2,2,0,0,1-2.207,0L28.489,25.9c-.221-.221-.441-.441-.441-.662V20.823c-.221-.441,0-.662.441-.883L49.676,7.581a2,2,0,0,1,2.207,0L71.746,19.058c.441,0,.662.221.662.441Z" transform="translate(-27.961 -7.029)" fill="#e9e7fc"/>
              <path id="Trazado_1034240" data-name="Trazado 1034240" d="M72.241,12.8v4.635c0,.221-.221.441-.441.662L50.612,30.456a2,2,0,0,1-2.207,0L28.541,18.98c-.221-.221-.441-.441-.441-.662V13.683c0,.221.221.441.441.662L48.4,25.821a2,2,0,0,0,2.207,0L71.8,13.462c.221-.221.441-.441.441-.662Z" transform="translate(-27.793 -0.33)" fill="#e9e7fc"/>
              <path id="Trazado_1034241" data-name="Trazado 1034241" d="M71.829,18.958q.993.662,0,1.324L50.642,32.641a2,2,0,0,1-2.207,0L28.572,21.165q-.993-.662,0-1.324L49.759,7.481a2,2,0,0,1,2.207,0Z" transform="translate(-27.823 -7.15)" fill="#f3f1fc"/>
              <g id="Grupo_1187098" data-name="Grupo 1187098" transform="translate(3.452 1.931)">
                <g id="Grupo_1187091" data-name="Grupo 1187091" transform="translate(7.062 3.973)">
                  <path id="Trazado_1034242" data-name="Trazado 1034242" d="M46.133,14.4a.414.414,0,0,1,0,.662L41.5,17.715a1,1,0,0,1-1.1,0l-7.5-4.414a.414.414,0,0,1,0-.662l4.635-2.648a1,1,0,0,1,1.1,0Z" transform="translate(-32.725 -9.825)" fill="#423d9b"/>
                </g>
                <g id="Grupo_1187096" data-name="Grupo 1187096">
                  <g id="Grupo_1187092" data-name="Grupo 1187092" transform="translate(14.125)">
                    <path id="Trazado_1034243" data-name="Trazado 1034243" d="M49.333,12.6a.414.414,0,0,1,0,.662L44.7,15.915a1,1,0,0,1-1.1,0l-7.5-4.414a.414.414,0,0,1,0-.662l4.635-2.648a1,1,0,0,1,1.1,0Z" transform="translate(-35.925 -8.025)" fill="#423d9b"/>
                  </g>
                  <g id="Grupo_1187093" data-name="Grupo 1187093" transform="translate(24.057 5.738)">
                    <path id="Trazado_1034244" data-name="Trazado 1034244" d="M53.833,15.2a.414.414,0,0,1,0,.662L49.2,18.515a1,1,0,0,1-1.1,0l-7.5-4.414a.414.414,0,0,1,0-.662l4.635-2.648a1,1,0,0,1,1.1,0Z" transform="translate(-40.425 -10.625)" fill="#423d9b"/>
                  </g>
                  <g id="Grupo_1187094" data-name="Grupo 1187094" transform="translate(0 8.166)">
                    <path id="Trazado_1034245" data-name="Trazado 1034245" d="M42.933,16.3a.414.414,0,0,1,0,.662L38.3,19.615a1,1,0,0,1-1.1,0l-7.5-4.414a.414.414,0,0,1,0-.662l4.635-2.648a1,1,0,0,1,1.1,0Z" transform="translate(-29.525 -11.725)" fill="#423d9b"/>
                  </g>
                  <g id="Grupo_1187095" data-name="Grupo 1187095" transform="translate(9.932 13.904)">
                    <path id="Trazado_1034246" data-name="Trazado 1034246" d="M47.433,18.9a.414.414,0,0,1,0,.662L42.8,22.215a1,1,0,0,1-1.1,0l-7.5-4.414a.414.414,0,0,1,0-.662l4.635-2.648a1,1,0,0,1,1.1,0Z" transform="translate(-34.025 -14.325)" fill="#423d9b"/>
                  </g>
                </g>
                <g id="Grupo_1187097" data-name="Grupo 1187097" transform="translate(16.994 9.711)">
                  <path id="Trazado_1034247" data-name="Trazado 1034247" d="M50.633,17a.414.414,0,0,1,0,.662L46,20.315a1,1,0,0,1-1.1,0l-7.5-4.414a.414.414,0,0,1,0-.662l4.635-2.648a1,1,0,0,1,1.1,0Z" transform="translate(-37.225 -12.425)" fill="#423d9b"/>
                </g>
              </g>
            </g>
            <g id="Grupo_1187101" data-name="Grupo 1187101" transform="translate(1.411 20.47)">
              <g id="Grupo_1187100" data-name="Grupo 1187100">
                <path id="Trazado_1034248" data-name="Trazado 1034248" d="M28.6,21.225a.671.671,0,0,1,.883,0,3.364,3.364,0,0,1,1.324,2.428,1.147,1.147,0,0,1-.441.883L38.09,19.9a1.147,1.147,0,0,0,.441-.883,3.364,3.364,0,0,0-1.324-2.428c-.441-.221-.662-.221-.883,0Z" transform="translate(-28.6 -16.425)" fill="#b0b8cf"/>
              </g>
            </g>
          </g>
          <g id="Grupo_1187103" data-name="Grupo 1187103" transform="translate(23.45 11.339)">
            <path id="Trazado_1034249" data-name="Trazado 1034249" d="M48.816,24.454c-1.766-1.1-4.414-.883-7.062.662-5.518,3.09-9.932,11.035-9.932,17.215,0,3.09,1.1,5.3,2.869,6.4L15.269,37.254c-1.766-1.1-2.869-3.311-2.869-6.4,0-6.4,4.414-14.125,9.932-17.215,2.869-1.545,5.3-1.766,7.062-.662Z" transform="translate(-12.4 -12.287)" fill="#1d2943"/>
          </g>
          <g id="Grupo_1187107" data-name="Grupo 1187107" transform="translate(26.981 12.959)">
            <g id="Grupo_1187105" data-name="Grupo 1187105" transform="translate(26.484 43.872)">
              <g id="Grupo_1187104" data-name="Grupo 1187104">
                <path id="Trazado_1034250" data-name="Trazado 1034250" d="M26.662,33.341c-.221-.221-.441-.441-.662-.441C26.221,33.121,26.441,33.341,26.662,33.341Z" transform="translate(-26 -32.9)" fill="#455368"/>
              </g>
            </g>
            <g id="Grupo_1187106" data-name="Grupo 1187106">
              <path id="Trazado_1034251" data-name="Trazado 1034251" d="M62.113,35.485c0,7.725-5.518,17.215-12.139,21.187-3.531,1.986-6.621,2.207-8.828.883-.221-.221-.441-.221-.662-.441.221.221.441.221.662.441l-23.615-13.9C15.324,42.327,14,39.679,14,35.927c0-7.725,5.518-17.215,12.139-21.187,3.311-1.986,6.4-2.207,8.828-.883L58.8,27.981c-.221,0-.221-.221-.441-.221,2.207.662,3.752,3.531,3.752,7.725Z" transform="translate(-14 -13.022)" fill="#455368"/>
              <path id="Trazado_1034252" data-name="Trazado 1034252" d="M26.662,33.341c-.221-.221-.441-.441-.662-.441C26.221,33.121,26.441,33.341,26.662,33.341Z" transform="translate(0.484 10.972)" fill="#455368"/>
            </g>
          </g>
          <g id="Grupo_1187111" data-name="Grupo 1187111" transform="translate(26.981 12.518)">
            <g id="Grupo_1187109" data-name="Grupo 1187109">
              <g id="Grupo_1187108" data-name="Grupo 1187108">
                <path id="Trazado_1034253" data-name="Trazado 1034253" d="M58.582,27.781c-2.207-1.324-5.3-1.1-8.607.883-6.842,3.973-12.359,13.463-12.139,21.187,0,3.973,1.324,6.621,3.531,7.945L17.531,43.672C15.324,42.348,14,39.7,14,35.727,14,28,19.518,18.512,26.139,14.539c3.311-1.986,6.4-2.207,8.607-.883Z" transform="translate(-14 -12.822)" fill="#455368"/>
              </g>
            </g>
            <g id="Grupo_1187110" data-name="Grupo 1187110" transform="translate(23.615 14.154)">
              <path id="Trazado_1034254" data-name="Trazado 1034254" d="M36.839,20.924C43.68,16.951,49.2,20.261,49.2,27.986S43.68,45.2,37.059,49.173c-6.842,3.973-12.359.883-12.359-7.062,0-7.725,5.518-17.215,12.139-21.187Z" transform="translate(-24.7 -19.235)" fill="#4c5c75"/>
            </g>
          </g>
          <g id="Grupo_1187115" data-name="Grupo 1187115" transform="translate(54.789 31.803)">
            <g id="Grupo_1187113" data-name="Grupo 1187113">
              <g id="Grupo_1187112" data-name="Grupo 1187112">
                <path id="Trazado_1034255" data-name="Trazado 1034255" d="M55.512,30.918c-1.545-.883-3.752-.883-6.18.441-4.635,2.648-8.387,9.27-8.387,14.566,0,2.648.883,4.635,2.428,5.518L29.028,42.836c-1.545-.883-2.428-2.648-2.428-5.518,0-5.3,3.752-11.918,8.387-14.566q3.642-1.986,5.959-.662Z" transform="translate(-26.6 -21.56)" fill="#b0c0d2"/>
              </g>
            </g>
            <g id="Grupo_1187114" data-name="Grupo 1187114" transform="translate(14.346 8.677)">
              <path id="Trazado_1034256" data-name="Trazado 1034256" d="M41.487,26.614c4.635-2.648,8.387-.441,8.387,4.855s-3.752,11.918-8.387,14.566S33.1,46.477,33.1,41.18s3.752-11.7,8.387-14.566Z" transform="translate(-33.1 -25.492)" fill="#4c5c75"/>
            </g>
          </g>
          <g id="Grupo_1187124" data-name="Grupo 1187124" transform="translate(60.368 26.436)">
            <path id="Trazado_1034257" data-name="Trazado 1034257" d="M64.158,19.251c-9.049-.662-16.773,2.207-23.836,8.607A38.98,38.98,0,0,0,29.508,49.046c-1.324,10.594.883,18.1,5.518,22.732Z" transform="translate(-29.128 -19.092)" fill="#dedffb"/>
            <g id="Grupo_1187116" data-name="Grupo 1187116" transform="translate(2.804)">
              <path id="Trazado_1034258" data-name="Trazado 1034258" d="M52.252,22.156c12.139-7.062,22.07-1.324,22.07,12.58s-9.711,30.9-21.85,37.961S30.4,74.242,30.4,60.117c-.221-13.9,9.711-30.9,21.85-37.961Z" transform="translate(-30.398 -19.128)" fill="#4c5c75"/>
              <path id="Trazado_1034259" data-name="Trazado 1034259" d="M41.352,72.407c-6.18,0-9.932-5.076-10.152-13.463,0-13.021,9.49-29.574,20.967-36.2A18.294,18.294,0,0,1,60.995,20.1c6.18,0,9.932,5.076,9.932,13.463,0,13.242-9.27,29.353-20.746,36.2a18.294,18.294,0,0,1-8.828,2.648Z" transform="translate(-29.431 -17.955)" fill="#e2e5ef"/>
            </g>
            <g id="Grupo_1187123" data-name="Grupo 1187123" transform="translate(18.478 21.533)">
              <g id="Grupo_1187122" data-name="Grupo 1187122">
                <g id="Grupo_1187121" data-name="Grupo 1187121">
                  <g id="Grupo_1187117" data-name="Grupo 1187117">
                    <path id="Trazado_1034260" data-name="Trazado 1034260" d="M41.031,29.36c1.986-1.1,3.531-.221,3.531,1.986a7.858,7.858,0,0,1-3.531,6.18c-1.986,1.1-3.531.221-3.531-1.986A7.858,7.858,0,0,1,41.031,29.36Z" transform="translate(-37.5 -28.885)" fill="#4c5c75"/>
                  </g>
                  <g id="Grupo_1187120" data-name="Grupo 1187120" transform="translate(2.207 2.737)">
                    <g id="Grupo_1187119" data-name="Grupo 1187119">
                      <g id="Grupo_1187118" data-name="Grupo 1187118">
                        <path id="Trazado_1034261" data-name="Trazado 1034261" d="M50.418,35.808a.671.671,0,0,0-.883,0,2.927,2.927,0,0,0-1.324,2.207,1.147,1.147,0,0,0,.441.883L38.941,33.38A1.147,1.147,0,0,1,38.5,32.5a2.927,2.927,0,0,1,1.324-2.207c.441-.221.662-.221.883,0Z" transform="translate(-38.5 -30.125)" fill="#dedffb"/>
                      </g>
                    </g>
                    <path id="Trazado_1034262" data-name="Trazado 1034262" d="M52.194,36.8a5.3,5.3,0,1,1-5.3-5.3A5.371,5.371,0,0,1,52.194,36.8Z" transform="translate(-34.758 -28.465)" fill="#f45170"/>
                    <path id="Trazado_1034263" data-name="Trazado 1034263" d="M47.659,41.994H47A5.3,5.3,0,0,1,47,31.4a3.273,3.273,0,0,1,1.545.221,5.4,5.4,0,0,0-.883,10.373Z" transform="translate(-34.638 -28.586)" fill="#e93565"/>
                  </g>
                </g>
              </g>
            </g>
          </g>
          <g id="Grupo_1187136" data-name="Grupo 1187136" transform="translate(0 36.637)">
            <g id="Grupo_1187126" data-name="Grupo 1187126" transform="translate(28.967 1.931)">
              <g id="Grupo_1187125" data-name="Grupo 1187125">
                <path id="Trazado_1034264" data-name="Trazado 1034264" d="M14.9,29.425a.671.671,0,0,1,.883,0,3.364,3.364,0,0,1,1.324,2.428,1.147,1.147,0,0,1-.441.883L24.39,28.1a1.147,1.147,0,0,0,.441-.883,3.364,3.364,0,0,0-1.324-2.428c-.441-.221-.662-.221-.883,0Z" transform="translate(-14.9 -24.625)" fill="#b0b8cf"/>
              </g>
            </g>
            <g id="Grupo_1187135" data-name="Grupo 1187135">
              <path id="Trazado_1034265" data-name="Trazado 1034265" d="M46.161,36.22v4.635c0,.221-.221.441-.441.662L24.312,53.876a2,2,0,0,1-2.207,0L2.241,42.4c-.221-.221-.441-.441-.441-.662V37.1c0-.221.221-.441.441-.662L23.429,24.081a2,2,0,0,1,2.207,0L45.5,35.558q.662.331.662.662Z" transform="translate(-1.745 -23.75)" fill="#e9e7fc"/>
              <path id="Trazado_1034266" data-name="Trazado 1034266" d="M46.161,29.4v4.635c0,.221-.221.441-.441.662L24.312,47.056a2,2,0,0,1-2.207,0L2.241,35.58c-.221-.221-.441-.441-.441-.662V30.283c0,.221.221.441.441.662L22.1,42.421a2,2,0,0,0,2.207,0L45.5,30.062q.662-.331.662-.662Z" transform="translate(-1.745 -16.93)" fill="#e9e7fc"/>
              <path id="Trazado_1034267" data-name="Trazado 1034267" d="M45.529,35.558q.993.662,0,1.324L24.342,49.241a2,2,0,0,1-2.207,0L2.272,37.765q-.993-.662,0-1.324L23.459,24.081a2,2,0,0,1,2.207,0Z" transform="translate(-1.775 -23.75)" fill="#f3f1fc"/>
              <g id="Grupo_1187134" data-name="Grupo 1187134" transform="translate(3.421 1.71)">
                <g id="Grupo_1187127" data-name="Grupo 1187127" transform="translate(6.842 4.193)">
                  <path id="Trazado_1034268" data-name="Trazado 1034268" d="M20.053,31a.414.414,0,0,1,0,.662L15.2,34.315a1,1,0,0,1-1.1,0L6.591,29.9a.414.414,0,0,1,0-.662l4.635-2.648a1,1,0,0,1,1.1,0Z" transform="translate(-6.425 -26.425)" fill="#423d9b"/>
                </g>
                <g id="Grupo_1187132" data-name="Grupo 1187132">
                  <g id="Grupo_1187128" data-name="Grupo 1187128" transform="translate(14.125)">
                    <path id="Trazado_1034269" data-name="Trazado 1034269" d="M23.133,29.1a.414.414,0,0,1,0,.662L18.5,32.415a1,1,0,0,1-1.1,0L9.891,28a.414.414,0,0,1,0-.662l4.635-2.648a1,1,0,0,1,1.1,0Z" transform="translate(-9.725 -24.525)" fill="#423d9b"/>
                  </g>
                  <g id="Grupo_1187129" data-name="Grupo 1187129" transform="translate(24.057 5.738)">
                    <path id="Trazado_1034270" data-name="Trazado 1034270" d="M27.633,31.7a.414.414,0,0,1,0,.662L23,35.015a1,1,0,0,1-1.1,0l-7.5-4.414a.414.414,0,0,1,0-.662l4.635-2.648a1,1,0,0,1,1.1,0Z" transform="translate(-14.225 -27.125)" fill="#423d9b"/>
                  </g>
                  <g id="Grupo_1187130" data-name="Grupo 1187130" transform="translate(0 8.166)">
                    <path id="Trazado_1034271" data-name="Trazado 1034271" d="M16.733,32.8a.414.414,0,0,1,0,.662L12.1,36.115a1,1,0,0,1-1.1,0L3.491,31.7a.414.414,0,0,1,0-.662l4.635-2.648a1,1,0,0,1,1.1,0Z" transform="translate(-3.325 -28.225)" fill="#423d9b"/>
                  </g>
                  <g id="Grupo_1187131" data-name="Grupo 1187131" transform="translate(9.932 14.125)">
                    <path id="Trazado_1034272" data-name="Trazado 1034272" d="M21.233,35.284a.414.414,0,0,1,0,.662L16.6,38.594a1,1,0,0,1-1.1,0l-7.5-4.414a.414.414,0,0,1,0-.662l4.635-2.428a1,1,0,0,1,1.1,0Z" transform="translate(-7.825 -30.925)" fill="#423d9b"/>
                  </g>
                </g>
                <g id="Grupo_1187133" data-name="Grupo 1187133" transform="translate(16.994 9.932)">
                  <path id="Trazado_1034273" data-name="Trazado 1034273" d="M24.433,33.6a.414.414,0,0,1,0,.662L19.8,36.915a1,1,0,0,1-1.1,0l-7.5-4.414a.414.414,0,0,1,0-.662l4.635-2.648a1,1,0,0,1,1.1,0Z" transform="translate(-11.025 -29.025)" fill="#423d9b"/>
                </g>
              </g>
            </g>
          </g>
        </g>
      </g>
      <path id="Trazado_1034274" data-name="Trazado 1034274" d="M31.121,27.811a3.394,3.394,0,0,0-3.311,3.311,4.628,4.628,0,0,0-.883-2.428,3.319,3.319,0,0,0-2.428-.883,4.628,4.628,0,0,0,2.428-.883,3.319,3.319,0,0,0,.883-2.428,4.628,4.628,0,0,0,.883,2.428A4.628,4.628,0,0,0,31.121,27.811Z" transform="translate(27.43 20.942)" fill="#fff"/>
    </g>
    <g id="Elipse_13745" data-name="Elipse 13745" transform="translate(-12478 -842)" fill="#c3f0f6" stroke="#1f3596" stroke-width="2" stroke-dasharray="4">
      <circle cx="61" cy="61" r="61" stroke="none"/>
      <circle cx="61" cy="61" r="60" fill="none"/>
    </g>
    <path id="Trazado_1034275" data-name="Trazado 1034275" d="M-12860.086-736.391s-37.872,49.293,0,103.4" fill="none" stroke="#1f3596" stroke-width="2" stroke-dasharray="4"/>
    <path id="Trazado_1034276" data-name="Trazado 1034276" d="M-12575.295-629.471s-209.936,25.1-251.09-112.7" fill="none" stroke="#1f3596" stroke-width="2" stroke-dasharray="4"/>
    <path id="Trazado_1034277" data-name="Trazado 1034277" d="M-12734.364-725.524s-49.017,6.936-69.362-34.681" fill="none" stroke="#1f3596" stroke-width="2" stroke-dasharray="4"/>
    <path id="Trazado_1034278" data-name="Trazado 1034278" d="M-12452.755-674.054s12.449-29.167,54.066-22.409" fill="none" stroke="#1f3596" stroke-width="2" stroke-dasharray="4"/>
    <path id="Trazado_1034281" data-name="Trazado 1034281" d="M-12452.754-687.377s5.054-12.579,21.951-9.664" transform="translate(144.263 -11.291)" fill="none" stroke="#1f3596" stroke-width="2" stroke-dasharray="4"/>
    <path id="Trazado_1034279" data-name="Trazado 1034279" d="M-12477.78-679.119s-45.687-154.056-321.007-118.589" fill="none" stroke="#1f3596" stroke-width="2" stroke-dasharray="4"/>
    <path id="Trazado_1034280" data-name="Trazado 1034280" d="M-12268.43-703.261s10.887-55.138-76.2-77.5" transform="translate(-15.506 -22.245)" fill="none" stroke="#1f3596" stroke-width="2" stroke-dasharray="4"/>
    <g id="televisor_1_" data-name="televisor (1)" transform="translate(-12429.463 -830.166)">
      <path id="Trazado_1034282" data-name="Trazado 1034282" d="M21.734,4.237H13.218l2.069-3.15A.7.7,0,1,0,14.126.312L11.914,3.676,9.7.312a.7.7,0,1,0-1.162.774l2.069,3.15H2.094A2.1,2.1,0,0,0,0,6.331V20.293a2.1,2.1,0,0,0,2.094,2.094h.7v.745a.7.7,0,0,0,1.4,0v-.745H19.64v.745a.7.7,0,0,0,1.4,0v-.745h.7a2.1,2.1,0,0,0,2.094-2.094V6.331a2.1,2.1,0,0,0-2.094-2.094Zm-1.4,5.585a.7.7,0,1,1-.7.7A.7.7,0,0,1,20.336,9.822Zm0,2.793a.7.7,0,1,1-.7.7A.7.7,0,0,1,20.336,12.614ZM18.243,18.9a.7.7,0,0,1-.7.7H3.49a.7.7,0,0,1-.7-.7V7.727a.7.7,0,0,1,.7-.7H17.545a.7.7,0,0,1,.7.7Zm2.093-3.491a.7.7,0,1,1-.7.7A.7.7,0,0,1,20.336,15.407Zm0,0" transform="translate(0.001 -0.001)" fill="#344866"/>
      <path id="Trazado_1034283" data-name="Trazado 1034283" d="M90,181.008h12.659v9.774H90Zm0,0" transform="translate(-85.811 -172.584)" fill="#344866"/>
    </g>
    <g id="telefono-inteligente_4_" data-name="telefono-inteligente (4)" transform="translate(-12424.971 -758.888)">
      <g id="Grupo_1187139" data-name="Grupo 1187139" transform="translate(0)">
        <path id="Trazado_1034284" data-name="Trazado 1034284" d="M101.613,0H92.943a3.078,3.078,0,0,0-3.087,3.087v18.52a3.1,3.1,0,0,0,3.087,3.087h8.671a3.078,3.078,0,0,0,3.087-3.087V3.087A3.078,3.078,0,0,0,101.613,0ZM97.292,22.7a1.4,1.4,0,1,1,1.4-1.4A1.389,1.389,0,0,1,97.292,22.7Zm6-4.293H91.259V4.125H103.3Z" transform="translate(-89.856)" fill="#344866"/>
      </g>
    </g>
    <g id="computadora_10_" data-name="computadora (10)" transform="translate(-12393.518 -792.952)">
      <g id="Grupo_1187140" data-name="Grupo 1187140" transform="translate(0 5.519)">
        <path id="Trazado_1034285" data-name="Trazado 1034285" d="M19.765,19.75H4.667A1.919,1.919,0,0,0,2.75,21.667v10.7a1.919,1.919,0,0,0,1.917,1.922h15.1a1.92,1.92,0,0,0,1.917-1.922v-10.7a1.919,1.919,0,0,0-1.917-1.917ZM13.021,32.859H11.412a.441.441,0,0,1,0-.882h1.609a.441.441,0,0,1,0,.882Zm6.9-2.019H4.513V21.513H19.919Z" transform="translate(-2.75 -19.75)" fill="#344866"/>
        <path id="Trazado_1034286" data-name="Trazado 1034286" d="M22.354,56.516H21.063V54.74H13.891v1.776H12.6a.441.441,0,1,0,0,.882h9.755a.441.441,0,1,0,0-.882Z" transform="translate(-8.011 -39.317)" fill="#344866"/>
      </g>
      <path id="Trazado_1034287" data-name="Trazado 1034287" d="M48.033,7.23H39.7A1.879,1.879,0,0,0,37.82,9.108v2.759h1.556a2.794,2.794,0,0,1,2.143,1h5.892a.441.441,0,0,1,0,.882H42.018a2.78,2.78,0,0,1,.157.915v1.155h5.237a.441.441,0,1,1,0,.882H42.175v2.071h5.237a.441.441,0,1,1,0,.882H42.175v5.713a2.8,2.8,0,0,1-2.8,2.8H37.82v.339A1.879,1.879,0,0,0,39.7,30.389h8.335a1.879,1.879,0,0,0,1.878-1.878V9.108A1.879,1.879,0,0,0,48.033,7.23ZM43.867,26.539A1.533,1.533,0,1,1,45.4,25.007,1.534,1.534,0,0,1,43.867,26.539ZM47.412,10.8H40.486a.441.441,0,1,1,0-.882h6.925a.441.441,0,1,1,0,.882Z" transform="translate(-22.361 -7.23)" fill="#344866"/>
    </g>
    <ellipse id="Elipse_13746" data-name="Elipse 13746" cx="21.5" cy="8" rx="21.5" ry="8" transform="translate(-12449 -591)" fill="#7ea295"/>
    <ellipse id="Elipse_13747" data-name="Elipse 13747" cx="44.5" cy="8" rx="44.5" ry="8" transform="translate(-12392 -609)" fill="#7ea295"/>
    <ellipse id="Elipse_13748" data-name="Elipse 13748" cx="53.5" cy="8" rx="53.5" ry="8" transform="translate(-12287 -609)" fill="#7ea295"/>
    <g id="torre-de-senal" transform="translate(-12385.885 -732.498)">
      <g id="Grupo_1187015" data-name="Grupo 1187015" transform="translate(20.996 14.653)">
        <path id="Trazado_1033936" data-name="Trazado 1033936" d="M228.812,174.827l-11.246-11.246,8.957-8.957-2.684-2.684-8.957,8.957-8.957-8.957-2.684,2.684,8.957,8.957-11.246,11.246,2.684,2.684,11.246-11.246,11.246,11.246Z" transform="translate(-195.115 -128.145)" fill="#b5adb6"/>
        <path id="Trazado_1033937" data-name="Trazado 1033937" d="M232.947,81.9l-9.429-12.429,7.03-9.267-3.024-2.294-6.388,8.421-6.388-8.421L211.723,60.2l7.03,9.267L209.324,81.9l3.024,2.294,8.787-11.583,8.787,11.583Z" transform="translate(-201.368 -57.906)" fill="#b5adb6"/>
        <path id="Trazado_1033938" data-name="Trazado 1033938" d="M223.988,267.483,210.4,255.06l11.054-10.106-2.561-2.8-11.306,10.336-11.306-10.336-2.561,2.8,11.055,10.106-13.589,12.423,2.561,2.8,13.84-12.653,13.84,12.653Z" transform="translate(-187.819 -195.529)" fill="#b5adb6"/>
        <path id="Trazado_1033939" data-name="Trazado 1033939" d="M217.419,375.578,200.353,358.73l13.753-13.578-2.667-2.7-13.787,13.612-13.788-13.612-2.667,2.7,13.753,13.578-17.066,16.848,2.667,2.7,17.1-16.882,17.1,16.882Z" transform="translate(-177.885 -270.447)" fill="#b5adb6"/>
      </g>
      <g id="Grupo_1187016" data-name="Grupo 1187016" transform="translate(32.863 0)">
        <ellipse id="Elipse_13741" data-name="Elipse 13741" cx="7.9" cy="7.9" rx="7.9" ry="7.9" fill="#ffd15b"/>
      </g>
      <g id="Grupo_1187017" data-name="Grupo 1187017" transform="translate(33.332 0.469)">
        <path id="Trazado_1033940" data-name="Trazado 1033940" d="M236.75,1.854a7.9,7.9,0,0,1-10.117,10.117A7.9,7.9,0,1,0,236.75,1.854Z" transform="translate(-226.633 -1.854)" fill="#ffc344"/>
      </g>
      <g id="Grupo_1187018" data-name="Grupo 1187018" transform="translate(20.138 13.902)">
        <path id="Trazado_1033941" data-name="Trazado 1033941" d="M213.845,167a1.9,1.9,0,0,1-1.886-1.709L201.3,58.735H188.937L178.282,165.291a1.9,1.9,0,0,1-3.777-.378L185.331,56.648a1.9,1.9,0,0,1,1.888-1.709h15.8a1.9,1.9,0,0,1,1.889,1.709l10.827,108.266a1.9,1.9,0,0,1-1.7,2.077,1.865,1.865,0,0,1-.191.01Z" transform="translate(-174.495 -54.939)" fill="#838383"/>
      </g>
      <g id="Grupo_1187019" data-name="Grupo 1187019" transform="translate(22.128 60.78)">
        <path id="Trazado_1033942" data-name="Trazado 1033942" d="M217.8,243.984H184.257a1.9,1.9,0,1,1,0-3.8H217.8a1.9,1.9,0,1,1,0,3.8Z" transform="translate(-182.359 -240.188)" fill="#9c9c9c"/>
      </g>
      <g id="Grupo_1187020" data-name="Grupo 1187020" transform="translate(18.544 37.893)">
        <path id="Trazado_1033943" data-name="Trazado 1033943" d="M210.8,153.54H170.094a1.9,1.9,0,0,1,0-3.8H210.8a1.9,1.9,0,1,1,0,3.8Z" transform="translate(-168.196 -149.744)" fill="#9c9c9c"/>
      </g>
      <g id="Grupo_1187021" data-name="Grupo 1187021" transform="translate(19.495 86.11)">
        <path id="Trazado_1033944" data-name="Trazado 1033944" d="M212.655,344.084H173.85a1.9,1.9,0,0,1,0-3.8h38.805a1.9,1.9,0,0,1,0,3.8Z" transform="translate(-171.952 -340.288)" fill="#9c9c9c"/>
      </g>
      <g id="Grupo_1187026" data-name="Grupo 1187026" transform="translate(3.896 121.135)">
        <path id="Trazado_1033949" data-name="Trazado 1033949" d="M181.937,487.127H112.416a2.107,2.107,0,0,1-2.107-2.107v-4.213a2.107,2.107,0,0,1,2.107-2.107h69.521a2.107,2.107,0,0,1,2.107,2.107v4.213A2.107,2.107,0,0,1,181.937,487.127Z" transform="translate(-110.309 -478.7)" fill="#1f3596"/>
      </g>
      <g id="Grupo_1187027" data-name="Grupo 1187027" transform="translate(64.99 121.135)">
        <path id="Trazado_1033950" data-name="Trazado 1033950" d="M362.273,478.7H351.74a2.107,2.107,0,0,1,2.107,2.107v4.213a2.107,2.107,0,0,1-2.107,2.107h10.533a2.107,2.107,0,0,0,2.107-2.107v-4.213A2.107,2.107,0,0,0,362.273,478.7Z" transform="translate(-351.74 -478.699)" fill="#192a7d"/>
      </g>
      <g id="Grupo_1187028" data-name="Grupo 1187028" transform="translate(63.195 37.893)">
        <path id="Trazado_1033951" data-name="Trazado 1033951" d="M357.765,153.54H346.544a1.9,1.9,0,0,1,0-3.8h11.221a1.9,1.9,0,1,1,0,3.8Z" transform="translate(-344.646 -149.744)" fill="#9c9c9c"/>
      </g>
      <g id="Grupo_1187066" data-name="Grupo 1187066" transform="translate(16.541 41.689) rotate(180)">
        <path id="Trazado_1033951-2" data-name="Trazado 1033951" d="M13.119,3.8H1.9A1.9,1.9,0,0,1,1.9,0H13.119a1.9,1.9,0,0,1,0,3.8Z" transform="translate(0 0)" fill="#9c9c9c"/>
      </g>
      <g id="Grupo_1187030" data-name="Grupo 1187030" transform="translate(59.197 27.151)">
        <path id="Trazado_1033953" data-name="Trazado 1033953" d="M335.692,132.573h-1.58a5.267,5.267,0,0,1-5.267-5.267V112.56a5.267,5.267,0,0,1,5.267-5.267h1.58a1.58,1.58,0,0,1,1.58,1.58v22.12a1.58,1.58,0,0,1-1.58,1.58Z" transform="translate(-328.845 -107.293)" fill="#cbc4cc"/>
      </g>
      <g id="Grupo_1187031" data-name="Grupo 1187031" transform="translate(59.197 38.314)">
        <path id="Trazado_1033954" data-name="Trazado 1033954" d="M328.845,155.892v4.367a5.267,5.267,0,0,0,5.267,5.267h1.58a1.58,1.58,0,0,0,1.58-1.58V151.408A13.255,13.255,0,0,1,328.845,155.892Z" transform="translate(-328.845 -151.408)" fill="#b5adb6"/>
      </g>
      <g id="Grupo_1187032" data-name="Grupo 1187032" transform="translate(72.891 36.367)">
        <ellipse id="Elipse_13742" data-name="Elipse 13742" cx="3.423" cy="3.423" rx="3.423" ry="3.423" fill="#fe646f"/>
      </g>
      <g id="Grupo_1187067" data-name="Grupo 1187067" transform="translate(6.847 43.214) rotate(180)">
        <ellipse id="Elipse_13742-2" data-name="Elipse 13742" cx="3.423" cy="3.423" rx="3.423" ry="3.423" fill="#fe646f"/>
      </g>
      <g id="Grupo_1187033" data-name="Grupo 1187033" transform="translate(13.903 27.151)">
        <path id="Trazado_1033955" data-name="Trazado 1033955" d="M151.433,132.573h1.58a5.267,5.267,0,0,0,5.267-5.267V112.56a5.267,5.267,0,0,0-5.267-5.267h-1.58a1.58,1.58,0,0,0-1.58,1.58v22.12a1.58,1.58,0,0,0,1.58,1.58Z" transform="translate(-149.853 -107.293)" fill="#cbc4cc"/>
      </g>
      <g id="Grupo_1187034" data-name="Grupo 1187034" transform="translate(13.903 38.385)">
        <path id="Trazado_1033956" data-name="Trazado 1033956" d="M149.853,156.109v8.046a1.58,1.58,0,0,0,1.58,1.58h1.58a5.267,5.267,0,0,0,5.267-5.267v-8.779A13.254,13.254,0,0,1,149.853,156.109Z" transform="translate(-149.853 -151.689)" fill="#b5adb6"/>
      </g>
    </g>
    <g id="torre-de-senal-2" data-name="torre-de-senal" transform="translate(-12288.241 -769.11)">
      <g id="Grupo_1187015-2" data-name="Grupo 1187015" transform="translate(26.929 18.794)">
        <path id="Trazado_1033936-2" data-name="Trazado 1033936" d="M236.685,181.295l-14.424-14.424,11.488-11.488-3.443-3.443-11.488,11.488L207.33,151.94l-3.443,3.443,11.488,11.488-14.423,14.424,3.442,3.443,14.424-14.424,14.423,14.424Z" transform="translate(-193.465 -121.421)" fill="#b5adb6"/>
        <path id="Trazado_1033937-2" data-name="Trazado 1033937" d="M239.622,88.676,227.529,72.734l9.017-11.885-3.879-2.943-8.193,10.8-8.193-10.8L212.4,60.849l9.017,11.885L209.324,88.676l3.879,2.942,11.27-14.856,11.27,14.856Z" transform="translate(-199.12 -57.906)" fill="#b5adb6"/>
        <path id="Trazado_1033938-2" data-name="Trazado 1033938" d="M233.258,274.641l-17.429-15.934,14.178-12.962-3.285-3.593-14.5,13.257-14.5-13.257-3.285,3.593,14.178,12.962-17.429,15.934,3.285,3.593,17.751-16.229,17.751,16.229Z" transform="translate(-186.868 -182.354)" fill="#b5adb6"/>
        <path id="Trazado_1033939-2" data-name="Trazado 1033939" d="M228.591,384.939,206.7,363.33l17.639-17.414-3.421-3.464-17.684,17.458-17.684-17.458-3.42,3.464,17.639,17.414-21.888,21.609,3.42,3.464,21.933-21.653L225.17,388.4Z" transform="translate(-177.885 -250.1)" fill="#b5adb6"/>
      </g>
      <g id="Grupo_1187016-2" data-name="Grupo 1187016" transform="translate(42.149 0)">
        <ellipse id="Elipse_13741-2" data-name="Elipse 13741" cx="10.133" cy="10.133" rx="10.133" ry="10.133" fill="#ffd15b"/>
      </g>
      <g id="Grupo_1187017-2" data-name="Grupo 1187017" transform="translate(42.751 0.602)">
        <path id="Trazado_1033940-2" data-name="Trazado 1033940" d="M239.609,1.854A10.137,10.137,0,0,1,226.633,14.83,10.134,10.134,0,1,0,239.609,1.854Z" transform="translate(-226.633 -1.854)" fill="#ffc344"/>
      </g>
      <g id="Grupo_1187018-2" data-name="Grupo 1187018" transform="translate(25.829 17.831)">
        <path id="Trazado_1033941-2" data-name="Trazado 1033941" d="M224.964,198.667a2.435,2.435,0,0,1-2.419-2.192L208.878,59.807h-15.86L179.352,196.475a2.434,2.434,0,0,1-4.844-.484L188.393,57.131a2.434,2.434,0,0,1,2.422-2.192h20.265a2.434,2.434,0,0,1,2.422,2.192L227.389,195.99a2.434,2.434,0,0,1-2.18,2.664,2.39,2.39,0,0,1-.245.012Z" transform="translate(-174.495 -54.939)" fill="#838383"/>
      </g>
      <g id="Grupo_1187019-2" data-name="Grupo 1187019" transform="translate(28.381 77.955)">
        <path id="Trazado_1033942-2" data-name="Trazado 1033942" d="M227.809,245.056H184.793a2.434,2.434,0,1,1,0-4.868h43.016a2.434,2.434,0,1,1,0,4.868Z" transform="translate(-182.359 -240.188)" fill="#9c9c9c"/>
      </g>
      <g id="Grupo_1187020-2" data-name="Grupo 1187020" transform="translate(23.784 48.601)">
        <path id="Trazado_1033943-2" data-name="Trazado 1033943" d="M222.839,154.612H170.63a2.434,2.434,0,0,1,0-4.868h52.209a2.434,2.434,0,1,1,0,4.868Z" transform="translate(-168.196 -149.744)" fill="#9c9c9c"/>
      </g>
      <g id="Grupo_1187021-2" data-name="Grupo 1187021" transform="translate(25.004 110.443)">
        <path id="Trazado_1033944-2" data-name="Trazado 1033944" d="M224.157,345.156H174.386a2.434,2.434,0,0,1,0-4.868h49.771a2.434,2.434,0,0,1,0,4.868Z" transform="translate(-171.952 -340.288)" fill="#9c9c9c"/>
      </g>
      <g id="Grupo_1187026-2" data-name="Grupo 1187026" transform="translate(4.997 155.366)">
        <path id="Trazado_1033949-2" data-name="Trazado 1033949" d="M202.178,489.508H113.011a2.7,2.7,0,0,1-2.7-2.7v-5.4a2.7,2.7,0,0,1,2.7-2.7h89.167a2.7,2.7,0,0,1,2.7,2.7v5.4A2.7,2.7,0,0,1,202.178,489.508Z" transform="translate(-110.309 -478.7)" fill="#1f3596"/>
      </g>
      <g id="Grupo_1187027-2" data-name="Grupo 1187027" transform="translate(83.355 155.366)">
        <path id="Trazado_1033950-2" data-name="Trazado 1033950" d="M365.25,478.7H351.74a2.7,2.7,0,0,1,2.7,2.7v5.4a2.7,2.7,0,0,1-2.7,2.7h13.51a2.7,2.7,0,0,0,2.7-2.7v-5.4A2.7,2.7,0,0,0,365.25,478.7Z" transform="translate(-351.74 -478.699)" fill="#192a7d"/>
      </g>
      <g id="Grupo_1187028-2" data-name="Grupo 1187028" transform="translate(81.053 48.601)">
        <path id="Trazado_1033951-3" data-name="Trazado 1033951" d="M361.472,154.612H347.08a2.434,2.434,0,0,1,0-4.868h14.392a2.434,2.434,0,1,1,0,4.868Z" transform="translate(-344.646 -149.744)" fill="#9c9c9c"/>
      </g>
      <g id="Grupo_1187066-2" data-name="Grupo 1187066" transform="translate(21.216 53.469) rotate(180)">
        <path id="Trazado_1033951-4" data-name="Trazado 1033951" d="M16.826,4.868H2.434A2.434,2.434,0,0,1,2.434,0H16.826a2.434,2.434,0,0,1,0,4.868Z" transform="translate(0 0)" fill="#9c9c9c"/>
      </g>
      <g id="Grupo_1187030-2" data-name="Grupo 1187030" transform="translate(75.925 34.823)">
        <path id="Trazado_1033953-2" data-name="Trazado 1033953" d="M337.627,139.717H335.6a6.755,6.755,0,0,1-6.755-6.755V114.048a6.755,6.755,0,0,1,6.755-6.755h2.027a2.027,2.027,0,0,1,2.027,2.027v28.371a2.026,2.026,0,0,1-2.027,2.026Z" transform="translate(-328.845 -107.293)" fill="#cbc4cc"/>
      </g>
      <g id="Grupo_1187031-2" data-name="Grupo 1187031" transform="translate(75.925 49.141)">
        <path id="Trazado_1033954-2" data-name="Trazado 1033954" d="M328.845,157.159v5.6a6.755,6.755,0,0,0,6.755,6.755h2.027a2.027,2.027,0,0,0,2.027-2.027v-16.08A17,17,0,0,1,328.845,157.159Z" transform="translate(-328.845 -151.408)" fill="#b5adb6"/>
      </g>
      <g id="Grupo_1187032-2" data-name="Grupo 1187032" transform="translate(93.488 46.644)">
        <ellipse id="Elipse_13742-3" data-name="Elipse 13742" cx="4.391" cy="4.391" rx="4.391" ry="4.391" fill="#fe646f"/>
      </g>
      <g id="Grupo_1187067-2" data-name="Grupo 1187067" transform="translate(8.781 55.425) rotate(180)">
        <ellipse id="Elipse_13742-4" data-name="Elipse 13742" cx="4.391" cy="4.391" rx="4.391" ry="4.391" fill="#fe646f"/>
      </g>
      <g id="Grupo_1187033-2" data-name="Grupo 1187033" transform="translate(17.831 34.823)">
        <path id="Trazado_1033955-2" data-name="Trazado 1033955" d="M151.88,139.717h2.027a6.755,6.755,0,0,0,6.755-6.755V114.048a6.755,6.755,0,0,0-6.755-6.755H151.88a2.027,2.027,0,0,0-2.027,2.027v28.371a2.026,2.026,0,0,0,2.027,2.026Z" transform="translate(-149.853 -107.293)" fill="#cbc4cc"/>
      </g>
      <g id="Grupo_1187034-2" data-name="Grupo 1187034" transform="translate(17.831 49.232)">
        <path id="Trazado_1033956-2" data-name="Trazado 1033956" d="M149.853,157.358v10.319a2.027,2.027,0,0,0,2.027,2.027h2.027a6.755,6.755,0,0,0,6.755-6.755v-11.26A17,17,0,0,1,149.853,157.358Z" transform="translate(-149.853 -151.689)" fill="#b5adb6"/>
      </g>
    </g>
    <g id="Grupo_1187070" data-name="Grupo 1187070" transform="translate(-12477.78 -679.119)">
      <g id="Grupo_1187069" data-name="Grupo 1187069" transform="translate(0)" clip-path="url(#clip-path-7)">
        <path id="Trazado_1034100" data-name="Trazado 1034100" d="M56.48,430.786v3.139c.007,2.321,1.529,4.639,4.57,6.406,6.09,3.539,16.082,3.539,22.244-.018,3.084-1.781,4.625-4.131,4.619-6.478V430.7c.006,2.347-1.534,4.7-4.619,6.478-6.162,3.558-16.154,3.557-22.244.018-3.041-1.767-4.563-4.085-4.57-6.406" transform="translate(-22.057 -343.688)" fill="#4c5671"/>
        <path id="Trazado_1034101" data-name="Trazado 1034101" d="M61.124,388.508c-6.162,3.558-6.194,9.345-.073,12.9,6.09,3.539,16.082,3.539,22.244-.018,6.13-3.539,6.162-9.327.072-12.866C77.246,384.969,67.254,384.969,61.124,388.508Z" transform="translate(-22.059 -307.907)" fill="#e2e5ef"/>
        <path id="Trazado_1034102" data-name="Trazado 1034102" d="M112.411,280.529l-.068,30.512a2.187,2.187,0,0,0,1.278,1.792,6.874,6.874,0,0,0,6.223-.005,2.2,2.2,0,0,0,1.292-1.812L121.2,280.5a2.2,2.2,0,0,1-1.292,1.812,6.873,6.873,0,0,1-6.223.005A2.187,2.187,0,0,1,112.411,280.529Z" transform="translate(-66.635 -223.837)" fill="#383f51"/>
        <path id="Trazado_1034103" data-name="Trazado 1034103" d="M116.29,288.366c-1.5.868-1.511,2.279-.018,3.146a5.993,5.993,0,0,0,5.424,0c1.495-.863,1.5-2.275.018-3.138A5.991,5.991,0,0,0,116.29,288.366Z" transform="translate(-68.821 -229.595)" fill="#e2e5ef"/>
        <path id="Trazado_1034104" data-name="Trazado 1034104" d="M1.134,85.986c14.544,8.4,35.429.232,46.638-18.234,10.912-17.975,8.639-39.1-4.9-47.95l4.022,2.629c13.544,8.855,15.817,29.976,4.905,47.951C40.585,88.846,19.7,97.012,5.156,88.615q-.58-.335-1.134-.7L0,85.289Q.555,85.651,1.134,85.986Z" transform="translate(18.555 -15.801)" fill="#4c5671"/>
        <path id="Trazado_1034105" data-name="Trazado 1034105" d="M73.464,3.3c-14.544-8.4-35.429-.232-46.639,18.234S18.32,61.788,32.864,70.185s35.429.232,46.638-18.234S88.008,11.7,73.464,3.3Z" transform="translate(-13.175 0)" fill="#e2e5ef"/>
        <path id="Trazado_1034106" data-name="Trazado 1034106" d="M103.743,83.178c-9.375-5.413-22.838-.149-30.064,11.754S68.2,120.878,77.573,126.29s22.838.149,30.064-11.754S113.119,88.591,103.743,83.178Z" transform="translate(-48.813 -64.675)" fill="#d3dae8"/>
        <path id="Trazado_1034107" data-name="Trazado 1034107" d="M115.269,108.349c-7.558-4.364-18.411-.12-24.236,9.476s-4.42,20.917,3.138,25.28,18.411.12,24.236-9.476,4.42-20.917-3.138-25.28" transform="translate(-62.399 -85.091)" fill="#e2e5ef"/>
        <path id="Trazado_1034108" data-name="Trazado 1034108" d="M136.021,174.424c-3.081-1.779-7.507-.049-9.882,3.864s-1.8,8.528,1.279,10.307,7.507.049,9.882-3.863,1.8-8.528-1.279-10.307" transform="translate(-86.687 -138.629)" fill="#d3dae8"/>
        <path id="Trazado_1034109" data-name="Trazado 1034109" d="M148.991,76.716c1.079.623,2.63.017,3.462-1.354.81-1.334.641-2.9-.364-3.559l39.434,25.775c1.005.657,1.174,2.225.364,3.559-.832,1.37-2.382,1.977-3.462,1.354q-.043-.025-.084-.052L148.906,76.664Z" transform="translate(-145.217 -57.298)" fill="#383f51"/>
        <path id="Trazado_1034110" data-name="Trazado 1034110" d="M188.032,99.113,149.8,74.124a2.237,2.237,0,0,0-.806-2.321l39.434,25.775a2.547,2.547,0,0,1,.443,3.369A2.089,2.089,0,0,0,188.032,99.113Z" transform="translate(-142.123 -57.298)" fill="#4c5671"/>
        <path id="Trazado_1034111" data-name="Trazado 1034111" d="M350.433,67.721c-1.079-.623-2.63-.017-3.462,1.354s-.631,2.988.448,3.611,2.63.017,3.462-1.353.631-2.988-.448-3.611" transform="translate(-344.121 -53.844)" fill="#e2e5ef"/>
        <path id="Trazado_1034112" data-name="Trazado 1034112" d="M315.049,68.124c1.71.987,4.165.027,5.483-2.144,1.283-2.113,1.016-4.6-.577-5.637l5.827,3.809c1.593,1.041,1.86,3.524.577,5.638-1.318,2.171-3.774,3.131-5.483,2.144-.045-.026-.09-.054-.133-.082l-5.827-3.808q.065.042.133.082" transform="translate(-313.526 -48.153)" fill="#f38faa"/>
        <path id="Trazado_1034113" data-name="Trazado 1034113" d="M350.057,58.4c-1.71-.987-4.165-.027-5.483,2.144s-1,4.732.71,5.72,4.165.027,5.483-2.144,1-4.732-.71-5.72" transform="translate(-343.76 -46.294)" fill="#ec5d71"/>
      </g>
    </g>
    <g id="router-de-wifi_2_" data-name="router-de-wifi (2)" transform="translate(-12465.058 -792.443)">
      <ellipse id="Elipse_13749" data-name="Elipse 13749" cx="0.757" cy="0.757" rx="0.757" ry="0.757" transform="translate(18.64 16.306)" fill="#344866"/>
      <path id="Trazado_1034288" data-name="Trazado 1034288" d="M24.27,43.548H24.2V32.965a.757.757,0,0,0-1.514,0V43.548H3.144V32.965a.757.757,0,0,0-1.514,0V43.548H1.564A1.566,1.566,0,0,0,0,45.112v8.116a1.565,1.565,0,0,0,1.564,1.564H24.27a1.565,1.565,0,0,0,1.564-1.564V45.112a1.566,1.566,0,0,0-1.564-1.564ZM5.733,51.541h-.81a.757.757,0,1,1,0-1.514h.81a.757.757,0,1,1,0,1.514Zm0-3.24h-.81a.757.757,0,0,1,0-1.514h.81a.757.757,0,0,1,0,1.514Zm4.05,3.24h-.81a.757.757,0,1,1,0-1.514h.81a.757.757,0,1,1,0,1.514Zm0-3.24h-.81a.757.757,0,0,1,0-1.514h.81a.757.757,0,0,1,0,1.514Zm4.05,3.24h-.81a.757.757,0,1,1,0-1.514h.81a.757.757,0,1,1,0,1.514Zm0-3.24h-.81a.757.757,0,0,1,0-1.514h.81a.757.757,0,0,1,0,1.514Zm5.564,3.24a2.271,2.271,0,1,1,2.271-2.271A2.273,2.273,0,0,1,19.4,51.541Z" transform="translate(0 -32.208)" fill="#344866"/>
      <path id="Trazado_1034289" data-name="Trazado 1034289" d="M117.765,54.661a8.139,8.139,0,0,1,11.5,0,.757.757,0,0,0,1.07-1.07,9.652,9.652,0,0,0-13.637,0,.757.757,0,1,0,1.07,1.07Z" transform="translate(-110.597 -49.834)" fill="#344866"/>
      <path id="Trazado_1034290" data-name="Trazado 1034290" d="M171,117.668a.757.757,0,0,0,0-1.07,6.422,6.422,0,0,0-9.072,0,.757.757,0,0,0,1.07,1.07,4.907,4.907,0,0,1,6.931,0A.757.757,0,0,0,171,117.668Z" transform="translate(-153.55 -110.558)" fill="#344866"/>
      <path id="Trazado_1034291" data-name="Trazado 1034291" d="M207.167,179.6a.757.757,0,0,0,1.07,1.07,1.675,1.675,0,0,1,2.366,0,.757.757,0,0,0,1.07-1.07A3.19,3.19,0,0,0,207.167,179.6Z" transform="translate(-196.504 -171.275)" fill="#344866"/>
    </g>
    <g id="Grupo_1187147" data-name="Grupo 1187147" transform="translate(-12431.02 -789.578)">
      <path id="Trazado_1034096" data-name="Trazado 1034096" d="M24.994,34.627l-4.937,3.1-.184.787.427.687.787.184,4.469-2.806h5.636l4.47,2.806.787-.184.427-.687-.183-.787-4.938-3.1Z" transform="translate(-13.295 -23.166)" fill="#1f3596"/>
      <path id="Trazado_1034097" data-name="Trazado 1034097" d="M24.925,17.076H15.511l-7.645,4.8-.183.787.427.686.787.184,7.177-4.506h8.289l7.177,4.506.788-.184.427-.686-.183-.787Z" transform="translate(-5.14 -11.424)" fill="#1f3596"/>
      <path id="Trazado_1034098" data-name="Trazado 1034098" d="M9.421,0,.184,5.8,0,6.588l.427.686.787.184L9.983,1.952H20.175l8.768,5.506.787-.184.427-.686L29.973,5.8,20.737,0Z" fill="#1f3596"/>
    </g>
  </g>
</svg>
