<svg xmlns="http://www.w3.org/2000/svg" width="90" height="90" viewBox="0 0 90 90">
  <g id="Grupo_1186436" data-name="Grupo 1186436" transform="translate(-332.711 -1334)">
    <circle id="Elipse_13738" data-name="Elipse 13738" cx="45" cy="45" r="45" transform="translate(332.711 1334)" fill="#fff"/>
    <g id="codigo-binario" transform="translate(350.859 1351.817)">
      <path id="Trazado_1032702" data-name="Trazado 1032702" d="M18,46H39.4v5.349H18Z" transform="translate(-1.845 -4.884)" fill="#afb5bf"/>
      <path id="Trazado_1032703" data-name="Trazado 1032703" d="M44.706,54.566a.769.769,0,0,0-.276-.259L38.635,51H17.24l-5.794,3.307a.769.769,0,0,0-.276.259.891.891,0,0,0-.169.517V57.24a.891.891,0,0,0,.891.891H43.984a.891.891,0,0,0,.891-.891V55.083A.891.891,0,0,0,44.706,54.566Z" transform="translate(-1.085 -5.427)" fill="#ccd0da"/>
      <path id="Trazado_1032704" data-name="Trazado 1032704" d="M44.875,55.517v2.157a.891.891,0,0,1-.891.891H11.891A.891.891,0,0,1,11,57.674V55.517A.891.891,0,0,1,11.169,55H44.706A.891.891,0,0,1,44.875,55.517Z" transform="translate(-1.085 -5.861)" fill="#afb5bf"/>
      <path id="Trazado_1032705" data-name="Trazado 1032705" d="M52.7,38.783V43.24a2.674,2.674,0,0,1-2.674,2.674H3.674A2.674,2.674,0,0,1,1,43.24V38.783L2.783,37h49.03Z" transform="translate(0 -3.908)" fill="#ccd0da"/>
      <path id="Trazado_1032706" data-name="Trazado 1032706" d="M52.7,3.674v31.2H1V3.674A2.674,2.674,0,0,1,3.674,1H50.03A2.674,2.674,0,0,1,52.7,3.674Z" transform="translate(0 0)" fill="#276f82"/>
      <path id="Trazado_1032707" data-name="Trazado 1032707" d="M31.457,43.783H27.891a.891.891,0,1,1,0-1.783h3.566a.891.891,0,1,1,0,1.783Z" transform="translate(-2.822 -4.45)" fill="#8991a0"/>
      <g id="Grupo_1186435" data-name="Grupo 1186435" transform="translate(7.24 5.457)">
        <path id="Trazado_1032708" data-name="Trazado 1032708" d="M10.674,6A2.674,2.674,0,0,0,8,8.674v1.783a2.674,2.674,0,0,0,5.349,0V8.674A2.674,2.674,0,0,0,10.674,6Zm.891,4.457a.891.891,0,0,1-1.783,0V8.674a.891.891,0,0,1,1.783,0Z" transform="translate(-8 -6)" fill="#f0f2f5"/>
        <path id="Trazado_1032709" data-name="Trazado 1032709" d="M18.674,11.349V6.891a.891.891,0,0,0-1.522-.63l-.891.891a.891.891,0,0,0,.63,1.522v2.674a.891.891,0,1,0,0,1.783h1.783a.891.891,0,1,0,0-1.783Z" transform="translate(-8.868 -6)" fill="#f0f2f5"/>
        <path id="Trazado_1032710" data-name="Trazado 1032710" d="M23.674,6A2.674,2.674,0,0,0,21,8.674v1.783a2.674,2.674,0,1,0,5.349,0V8.674A2.674,2.674,0,0,0,23.674,6Zm.891,4.457a.891.891,0,1,1-1.783,0V8.674a.891.891,0,0,1,1.783,0Z" transform="translate(-9.411 -6)" fill="#f0f2f5"/>
        <path id="Trazado_1032711" data-name="Trazado 1032711" d="M48.674,6A2.674,2.674,0,0,0,46,8.674v1.783a2.674,2.674,0,0,0,5.349,0V8.674A2.674,2.674,0,0,0,48.674,6Zm.891,4.457a.891.891,0,1,1-1.783,0V8.674a.891.891,0,0,1,1.783,0Z" transform="translate(-12.125 -6)" fill="#f0f2f5"/>
        <path id="Trazado_1032712" data-name="Trazado 1032712" d="M31.674,11.349V6.891a.891.891,0,0,0-1.522-.63l-.891.891a.891.891,0,0,0,.63,1.522v2.674a.891.891,0,1,0,0,1.783h1.783a.891.891,0,1,0,0-1.783Z" transform="translate(-10.279 -6)" fill="#f0f2f5"/>
        <path id="Trazado_1032713" data-name="Trazado 1032713" d="M37.674,11.349V6.891a.891.891,0,0,0-1.522-.63l-.891.891a.891.891,0,0,0,.63,1.522v2.674a.891.891,0,0,0,0,1.783h1.783a.891.891,0,1,0,0-1.783Z" transform="translate(-10.931 -6)" fill="#f0f2f5"/>
        <path id="Trazado_1032714" data-name="Trazado 1032714" d="M43.674,11.349V6.891a.891.891,0,0,0-1.522-.63l-.891.891a.891.891,0,0,0,.63,1.522v2.674a.891.891,0,0,0,0,1.783h1.783a.891.891,0,0,0,0-1.783Z" transform="translate(-11.582 -6)" fill="#f0f2f5"/>
      </g>
      <path id="Trazado_1032715" data-name="Trazado 1032715" d="M48.681,17.783H5.891a.891.891,0,0,1,0-1.783h42.79a.891.891,0,1,1,0,1.783Z" transform="translate(-0.434 -1.628)" fill="#1e505b"/>
      <path id="Trazado_1032716" data-name="Trazado 1032716" d="M12.783,22.783h-.891a.891.891,0,1,1,0-1.783h.891a.891.891,0,0,1,0,1.783Z" transform="translate(-1.085 -2.171)" fill="#f0f2f5"/>
      <path id="Trazado_1032717" data-name="Trazado 1032717" d="M12.783,26.783h-.891a.891.891,0,1,1,0-1.783h.891a.891.891,0,0,1,0,1.783Z" transform="translate(-1.085 -2.605)" fill="#f0f2f5"/>
      <path id="Trazado_1032718" data-name="Trazado 1032718" d="M12.783,30.783h-.891a.891.891,0,1,1,0-1.783h.891a.891.891,0,0,1,0,1.783Z" transform="translate(-1.085 -3.039)" fill="#f0f2f5"/>
      <path id="Trazado_1032719" data-name="Trazado 1032719" d="M12.783,34.783h-.891a.891.891,0,1,1,0-1.783h.891a.891.891,0,0,1,0,1.783Z" transform="translate(-1.085 -3.473)" fill="#f0f2f5"/>
      <path id="Trazado_1032720" data-name="Trazado 1032720" d="M21.783,34.783h-.891a.891.891,0,1,1,0-1.783h.891a.891.891,0,1,1,0,1.783Z" transform="translate(-2.062 -3.473)" fill="#40ccf1"/>
      <path id="Trazado_1032721" data-name="Trazado 1032721" d="M32.132,34.783h-6.24a.891.891,0,1,1,0-1.783h6.24a.891.891,0,0,1,0,1.783Z" transform="translate(-2.605 -3.473)" fill="#9e82ec"/>
      <path id="Trazado_1032722" data-name="Trazado 1032722" d="M46.7,34.783H36.891a.891.891,0,1,1,0-1.783H46.7a.891.891,0,0,1,0,1.783Z" transform="translate(-3.799 -3.473)" fill="#fccb55"/>
      <path id="Trazado_1032723" data-name="Trazado 1032723" d="M45.612,26.783H26.891a.891.891,0,0,1,0-1.783H45.612a.891.891,0,0,1,0,1.783Z" transform="translate(-2.714 -2.605)" fill="#9e82ec"/>
      <path id="Trazado_1032724" data-name="Trazado 1032724" d="M22.674,26.783H20.891a.891.891,0,1,1,0-1.783h1.783a.891.891,0,1,1,0,1.783Z" transform="translate(-2.062 -2.605)" fill="#40ccf1"/>
      <path id="Trazado_1032725" data-name="Trazado 1032725" d="M24.457,30.783H20.891a.891.891,0,0,1,0-1.783h3.566a.891.891,0,0,1,0,1.783Z" transform="translate(-2.062 -3.039)" fill="#40ccf1"/>
      <path id="Trazado_1032726" data-name="Trazado 1032726" d="M32.457,30.783H28.891a.891.891,0,0,1,0-1.783h3.566a.891.891,0,1,1,0,1.783Z" transform="translate(-2.931 -3.039)" fill="#9e82ec"/>
      <path id="Trazado_1032727" data-name="Trazado 1032727" d="M24.457,22.783H20.891a.891.891,0,0,1,0-1.783h3.566a.891.891,0,0,1,0,1.783Z" transform="translate(-2.062 -2.171)" fill="#40ccf1"/>
      <path id="Trazado_1032728" data-name="Trazado 1032728" d="M37.806,22.783H28.891a.891.891,0,0,1,0-1.783h8.915a.891.891,0,0,1,0,1.783Z" transform="translate(-2.931 -2.171)" fill="#9e82ec"/>
      <path id="Trazado_1032729" data-name="Trazado 1032729" d="M40.457,30.783H36.891a.891.891,0,1,1,0-1.783h3.566a.891.891,0,0,1,0,1.783Z" transform="translate(-3.799 -3.039)" fill="#fccb55"/>
      <path id="Trazado_1032730" data-name="Trazado 1032730" d="M16,36.5V16.891a.891.891,0,1,1,1.783,0V36.5Z" transform="translate(-1.628 -1.628)" fill="#1e505b"/>
    </g>
  </g>
</svg>
