<svg xmlns="http://www.w3.org/2000/svg" xmlns:xlink="http://www.w3.org/1999/xlink" width="130" height="130" viewBox="0 0 130 130">
  <defs>
    <clipPath id="clip-path">
      <rect id="Rectángulo_454829" data-name="Rectángulo 454829" width="130" height="130" fill="#1e535a"/>
    </clipPath>
  </defs>
  <g id="Grupo_1186402" data-name="Grupo 1186402" transform="translate(-186 -4323.945)">
    <g id="Grupo_1177591" data-name="Grupo 1177591" transform="translate(186 4323.945)">
      <g id="Grupo_1177589" data-name="Grupo 1177589" transform="translate(0 0)">
        <g id="Grupo_1177587" data-name="Grupo 1177587" clip-path="url(#clip-path)">
          <path id="Trazado_997422" data-name="Trazado 997422" d="M124.692,57.54a59.768,59.768,0,0,0-13.5-31.1,6.874,6.874,0,0,0-9.672-9.26,59.68,59.68,0,0,0-30.9-12.073,6.875,6.875,0,0,0-13.353.271A59.762,59.762,0,0,0,27.622,18.05a6.877,6.877,0,0,0-9.545,9.61A59.712,59.712,0,0,0,5.568,57.481,6.88,6.88,0,0,0,5.4,70.954,59.7,59.7,0,0,0,17.522,101.38a6.876,6.876,0,0,0,9.342,9.709,59.757,59.757,0,0,0,30.35,13.274,6.877,6.877,0,0,0,13.473.271,59.706,59.706,0,0,0,31.125-12.3,6.875,6.875,0,0,0,9.624-9.308,59.783,59.783,0,0,0,13.418-32.141,6.877,6.877,0,0,0-.161-13.35M105.274,29.825a6.838,6.838,0,0,0,3.808-1.153,56.758,56.758,0,0,1,12.526,28.85,6.887,6.887,0,0,0-4.395,3.184L99.637,54.116c.014-.192.027-.388.027-.587a6.877,6.877,0,0,0-2.913-5.62L104.44,29.77a7.449,7.449,0,0,0,.834.055m-3.716-1.094L93.917,46.749a6.806,6.806,0,0,0-7.575,4.374L54.544,43.8A6.691,6.691,0,0,0,54.4,42.43L99.523,26.716a6.9,6.9,0,0,0,2.035,2.014M63.979,13.765a6.883,6.883,0,0,0,6.755-5.582A56.663,56.663,0,0,1,99.386,19.388a6.844,6.844,0,0,0-.995,3.554,7.226,7.226,0,0,0,.065.909L53.107,39.641A6.9,6.9,0,0,0,51.861,38.4L63.756,13.754c.075,0,.148.01.223.01M57.286,8.454a6.884,6.884,0,0,0,3.462,4.5L49.086,37.109a6.9,6.9,0,0,0-1.42-.148,6.832,6.832,0,0,0-3.922,1.232L29.921,26.648a6.842,6.842,0,0,0-.233-6.333,56.709,56.709,0,0,1,27.6-11.861M13.6,62.741l28.59-14.746a6.857,6.857,0,0,0,5.424,2.728l9.8,31.321a7,7,0,0,0-1.516,1.678L13.511,66.062a6.836,6.836,0,0,0,.254-1.825,6.916,6.916,0,0,0-.168-1.5m6.752-33.029a6.877,6.877,0,0,0,7.682-.655l13.648,11.4a6.863,6.863,0,0,0-.758,4.755L12.283,59.976a6.88,6.88,0,0,0-3.644-2.388,56.684,56.684,0,0,1,11.71-27.876M23.2,98.391a6.862,6.862,0,0,0-3.417.913,56.633,56.633,0,0,1-11.3-28.38,6.888,6.888,0,0,0,3.572-2.155L54.857,86.6a7.38,7.38,0,0,0-.055.827,6.881,6.881,0,0,0,.412,2.326l-25.886,12.4A6.881,6.881,0,0,0,23.2,98.391M57.347,121.3A56.765,56.765,0,0,1,29.029,108.91a6.81,6.81,0,0,0,1.05-3.637l0-.079,26.8-12.845a6.882,6.882,0,0,0,2.429,1.534l1.606,23.08a6.882,6.882,0,0,0-3.565,4.337M60.2,80.715,50.609,50.057a6.892,6.892,0,0,0,3.27-3.27l32.055,7.38A6.842,6.842,0,0,0,87.028,57.3L65.043,81.426a6.8,6.8,0,0,0-4.844-.71M70.68,121.567a6.88,6.88,0,0,0-6.7-5.332l-.051,0L62.4,94.278a6.87,6.87,0,0,0,4.206-2.041l32.048,14.135c0,.062-.01.117-.01.178a6.848,6.848,0,0,0,1.019,3.589A56.66,56.66,0,0,1,70.68,121.567m28.747-18.2L68.213,89.6a6.842,6.842,0,0,0-.9-6.121l21.92-24.061a6.841,6.841,0,0,0,3.551.995,7.576,7.576,0,0,0,.844-.055l8.193,40.4a6.867,6.867,0,0,0-2.391,2.611M109.3,100.8a6.84,6.84,0,0,0-4.573-1.081L96.532,59.3A6.91,6.91,0,0,0,98.7,57.032l17.566,6.587a6.1,6.1,0,0,0-.031.618,6.88,6.88,0,0,0,5.531,6.745A56.707,56.707,0,0,1,109.3,100.8" transform="translate(0 0.001)" fill="#1e535a"/>
        </g>
      </g>
    </g>
    <g id="Elipse_13614" data-name="Elipse 13614" transform="translate(210.273 4348.213)" fill="#fff" stroke="#1e535a" stroke-width="3">
      <ellipse cx="40.732" cy="40.733" rx="40.732" ry="40.733" stroke="none"/>
      <ellipse cx="40.732" cy="40.733" rx="39.232" ry="39.233" fill="none"/>
    </g>
    <g id="engranaje_3_" data-name="engranaje (3)" transform="translate(225.711 4362.646)">
      <path id="Trazado_1033144" data-name="Trazado 1033144" d="M47.211,7H41.351V8.256a2.93,2.93,0,0,1-5.861,0V7H15.4V8.256a2.93,2.93,0,0,1-5.861,0V7H3.674A1.676,1.676,0,0,0,2,8.674v4.186H48.886V8.674A1.676,1.676,0,0,0,47.211,7Z" transform="translate(0 -0.814)" fill="#1e535a"/>
      <path id="Trazado_1033145" data-name="Trazado 1033145" d="M3.674,51.164H47.211a1.676,1.676,0,0,0,1.674-1.674V16H2V49.49A1.676,1.676,0,0,0,3.674,51.164Zm6.7-18.389A2.109,2.109,0,0,1,11.7,30.808l1.673-.669a12.437,12.437,0,0,1,1.1-2.654l-.71-1.656a2.11,2.11,0,0,1,.448-2.332l1.143-1.143a2.11,2.11,0,0,1,2.332-.449l1.657.71A12.377,12.377,0,0,1,22,21.517l.669-1.673a2.109,2.109,0,0,1,1.968-1.332H26.25a2.109,2.109,0,0,1,1.968,1.332l.669,1.673a12.437,12.437,0,0,1,2.654,1.1l1.656-.71a2.11,2.11,0,0,1,2.332.448L36.671,23.5a2.11,2.11,0,0,1,.449,2.332l-.71,1.657a12.377,12.377,0,0,1,1.1,2.654l1.673.669a2.109,2.109,0,0,1,1.332,1.968v1.614a2.109,2.109,0,0,1-1.332,1.968l-1.673.669a12.437,12.437,0,0,1-1.1,2.654l.71,1.656a2.11,2.11,0,0,1-.448,2.332L35.529,44.81a2.106,2.106,0,0,1-2.332.45l-1.657-.71a12.377,12.377,0,0,1-2.654,1.1l-.669,1.673a2.109,2.109,0,0,1-1.968,1.332H24.636a2.109,2.109,0,0,1-1.968-1.332L22,45.648a12.437,12.437,0,0,1-2.654-1.1l-1.656.71a2.109,2.109,0,0,1-2.333-.45l-1.142-1.141a2.11,2.11,0,0,1-.449-2.332l.71-1.657a12.377,12.377,0,0,1-1.1-2.654L11.7,36.357a2.109,2.109,0,0,1-1.332-1.968V32.775Z" transform="translate(0 -2.279)" fill="#1e535a"/>
      <circle id="Elipse_13740" data-name="Elipse 13740" cx="6.5" cy="6.5" r="6.5" transform="translate(19 25)" fill="#1e535a"/>
      <path id="Trazado_1033146" data-name="Trazado 1033146" d="M14.279,35.615l2.063.825a.84.84,0,0,1,.5.576A10.808,10.808,0,0,0,18.083,40a.838.838,0,0,1,.052.763l-.876,2.042a.444.444,0,0,0,.095.489l1.141,1.14a.444.444,0,0,0,.489.095l2.041-.876a.829.829,0,0,1,.331-.068.843.843,0,0,1,.433.121,10.819,10.819,0,0,0,2.987,1.238.838.838,0,0,1,.576.5l.825,2.063a.442.442,0,0,0,.412.279H28.2a.442.442,0,0,0,.412-.279l.825-2.063a.84.84,0,0,1,.576-.5A10.808,10.808,0,0,0,33,43.709a.833.833,0,0,1,.763-.052l2.042.876a.441.441,0,0,0,.488-.095L37.437,43.3a.445.445,0,0,0,.094-.489l-.876-2.041A.836.836,0,0,1,36.708,40a10.819,10.819,0,0,0,1.238-2.987.838.838,0,0,1,.5-.576l2.063-.825a.442.442,0,0,0,.279-.412V33.59a.442.442,0,0,0-.279-.412l-2.063-.825a.84.84,0,0,1-.5-.576,10.808,10.808,0,0,0-1.238-2.987.841.841,0,0,1-.053-.763l.876-2.042a.444.444,0,0,0-.095-.489L36.3,24.355a.448.448,0,0,0-.489-.094l-2.041.876A.84.84,0,0,1,33,25.085a10.819,10.819,0,0,0-2.987-1.238.838.838,0,0,1-.576-.5l-.825-2.063A.442.442,0,0,0,28.2,21H26.588a.442.442,0,0,0-.412.279l-.825,2.063a.84.84,0,0,1-.576.5,10.808,10.808,0,0,0-2.987,1.238.841.841,0,0,1-.763.052l-2.042-.876a.446.446,0,0,0-.489.095L17.353,25.5a.445.445,0,0,0-.094.489l.876,2.041a.838.838,0,0,1-.052.763,10.819,10.819,0,0,0-1.238,2.987.838.838,0,0,1-.5.576l-2.063.825A.442.442,0,0,0,14,33.59V35.2a.442.442,0,0,0,.279.412ZM27.4,26.024A8.372,8.372,0,1,1,19.024,34.4,8.382,8.382,0,0,1,27.4,26.024Z" transform="translate(-1.953 -3.093)" fill="#1e535a"/>
      <path id="Trazado_1033147" data-name="Trazado 1033147" d="M45.256,8.7a1.257,1.257,0,0,0,1.256-1.256V3.256a1.256,1.256,0,1,0-2.512,0V7.442A1.257,1.257,0,0,0,45.256,8.7Z" transform="translate(-6.836)" fill="#1e535a"/>
      <path id="Trazado_1033148" data-name="Trazado 1033148" d="M14.256,8.7a1.257,1.257,0,0,0,1.256-1.256V3.256a1.256,1.256,0,1,0-2.512,0V7.442A1.257,1.257,0,0,0,14.256,8.7Z" transform="translate(-1.79)" fill="#1e535a"/>
    </g>
  </g>
</svg>
