<svg xmlns="http://www.w3.org/2000/svg" width="84" height="95" viewBox="0 0 84 95">
  <g id="Grupo_1186715" data-name="Grupo 1186715" transform="translate(-289.711 -12963)">
    <g id="Grupo_1186711" data-name="Grupo 1186711" transform="translate(104 11826)">
      <g id="Grupo_1186453" data-name="Grupo 1186453">
        <rect id="Rectángulo_459208" data-name="Rectángulo 459208" width="84" height="95" transform="translate(185.711 1137)" fill="#ffe79e"/>
      </g>
    </g>
    <g id="_x32_2_setting" transform="translate(299.396 12978.669)">
      <g id="Grupo_1186714" data-name="Grupo 1186714" transform="translate(1 3.179)">
        <g id="Grupo_1186712" data-name="Grupo 1186712">
          <path id="Trazado_1033149" data-name="Trazado 1033149" d="M10.71,15.455A3.511,3.511,0,1,0,7.2,11.942,3.515,3.515,0,0,0,10.71,15.455Zm0-4.873a1.362,1.362,0,1,1-1.364,1.36A1.362,1.362,0,0,1,10.71,10.581Z" transform="translate(-0.537 -2.787)"/>
          <path id="Trazado_1033150" data-name="Trazado 1033150" d="M19.526,15.455a3.511,3.511,0,1,0-3.509-3.513A3.517,3.517,0,0,0,19.526,15.455Zm0-4.873a1.362,1.362,0,1,1-1.36,1.36A1.364,1.364,0,0,1,19.526,10.581Z" transform="translate(0.121 -2.787)"/>
          <path id="Trazado_1033151" data-name="Trazado 1033151" d="M32.622,15.455H51.576a3.511,3.511,0,1,0,0-7.023H32.622a3.511,3.511,0,0,0,0,7.023Zm0-4.873H51.576a1.362,1.362,0,1,1,0,2.724H32.622a1.362,1.362,0,0,1,0-2.724Z" transform="translate(1.099 -2.787)"/>
          <path id="Trazado_1033152" data-name="Trazado 1033152" d="M45.669,43.125a2.391,2.391,0,0,0-.7-1.707l-.286-.286a11.324,11.324,0,0,0,.8-1.936h.4a2.409,2.409,0,0,0,2.406-2.406V34.848a2.409,2.409,0,0,0-2.406-2.406h-.4a11.32,11.32,0,0,0-.808-1.956l.284-.285a2.41,2.41,0,0,0,0-3.406l-1.372-1.372a2.392,2.392,0,0,0-1.7-.7h-.005a2.38,2.38,0,0,0-1.693.7l-.289.289a11.406,11.406,0,0,0-1.985-.82v-.384A2.409,2.409,0,0,0,35.511,22.1H33.566a2.409,2.409,0,0,0-2.406,2.406v.411a11.274,11.274,0,0,0-1.937.811l-.278-.277a2.381,2.381,0,0,0-1.7-.706h-.005a2.393,2.393,0,0,0-1.7.7l-1.368,1.372a2.41,2.41,0,0,0,0,3.406l.295.3a11.313,11.313,0,0,0-.79,1.919h-.407a2.409,2.409,0,0,0-2.406,2.406V36.79A2.409,2.409,0,0,0,23.264,39.2h.412a11.328,11.328,0,0,0,.8,1.936l-.286.286a2.408,2.408,0,0,0,0,3.4l1.373,1.373a2.381,2.381,0,0,0,1.7.707h0a2.391,2.391,0,0,0,1.7-.706l.284-.285a11.385,11.385,0,0,0,1.939.805v.417A2.409,2.409,0,0,0,33.6,49.539h1.946a2.409,2.409,0,0,0,2.406-2.407v-.415a11.3,11.3,0,0,0,1.948-.809l.285.285a2.382,2.382,0,0,0,1.7.707h.005a2.39,2.39,0,0,0,1.7-.705l1.368-1.372a2.381,2.381,0,0,0,.706-1.7ZM43.61,37.883a9.216,9.216,0,0,1-1.183,2.857,1.075,1.075,0,0,0,.151,1.331l.868.868a.258.258,0,0,1,.074.184.253.253,0,0,1-.075.181l-1.371,1.374a.259.259,0,0,1-.184.074c-.008-.029-.118-.012-.18-.074l-.872-.872a1.073,1.073,0,0,0-1.332-.15,9.192,9.192,0,0,1-2.865,1.19,1.075,1.075,0,0,0-.837,1.048v1.239a.26.26,0,0,1-.257.257H33.6a.26.26,0,0,1-.257-.257V45.893a1.074,1.074,0,0,0-.833-1.047,9.225,9.225,0,0,1-2.86-1.19,1.075,1.075,0,0,0-1.335.151l-.867.871a.258.258,0,0,1-.183.074c.008-.011-.115-.008-.181-.074L25.71,43.3a.249.249,0,0,1-.071-.177.259.259,0,0,1,.074-.184l.868-.868a1.075,1.075,0,0,0,.151-1.331,9.216,9.216,0,0,1-1.183-2.857,1.074,1.074,0,0,0-1.048-.836H23.264a.26.26,0,0,1-.257-.257V34.848a.26.26,0,0,1,.257-.257H24.5a1.075,1.075,0,0,0,1.048-.839,9.209,9.209,0,0,1,1.17-2.842,1.075,1.075,0,0,0-.153-1.328l-.875-.875a.258.258,0,0,1-.074-.184.255.255,0,0,1,.075-.181l1.37-1.374a.26.26,0,0,1,.184-.074c-.005.018.115.009.182.076l.868.864a1.073,1.073,0,0,0,1.336.145,9.1,9.1,0,0,1,2.849-1.194,1.074,1.074,0,0,0,.833-1.047V24.506a.26.26,0,0,1,.257-.257h1.946a.26.26,0,0,1,.257.257v1.21a1.075,1.075,0,0,0,.84,1.048,9.3,9.3,0,0,1,2.9,1.2,1.072,1.072,0,0,0,1.328-.15l.876-.872a.249.249,0,0,1,.177-.071h0a.26.26,0,0,1,.184.074l1.372,1.372a.258.258,0,0,1,.074.184.255.255,0,0,1-.076.182l-.868.872a1.075,1.075,0,0,0-.149,1.33,9.212,9.212,0,0,1,1.186,2.872,1.074,1.074,0,0,0,1.048.837h1.225a.26.26,0,0,1,.257.257V36.79a.26.26,0,0,1-.257.257H44.657a1.074,1.074,0,0,0-1.048.836Z" transform="translate(0.483 -1.766)"/>
          <path id="Trazado_1033153" data-name="Trazado 1033153" d="M34.029,29.445a5.826,5.826,0,1,0,5.826,5.826,5.835,5.835,0,0,0-5.826-5.826Zm0,9.5a3.677,3.677,0,1,1,3.677-3.677A3.683,3.683,0,0,1,34.029,38.948Z" transform="translate(1.031 -1.218)"/>
          <path id="Trazado_1033154" data-name="Trazado 1033154" d="M63.849,46.014V8.855a5.682,5.682,0,0,0-5.675-5.676H6.676A5.682,5.682,0,0,0,1,8.855v46.3a5.682,5.682,0,0,0,5.676,5.676H48.1A10.87,10.87,0,1,0,63.849,46.014ZM6.676,5.329h51.5A3.53,3.53,0,0,1,61.7,8.855V19.343H3.149V8.855A3.531,3.531,0,0,1,6.676,5.329Zm0,53.348A3.531,3.531,0,0,1,3.149,55.15V21.492H61.7V44.546c-.094-.048-.184-.077-.276-.116A10.868,10.868,0,0,0,46.771,58.578c.014.034.021.064.036.1H6.676Zm50.071,4.3a8.734,8.734,0,1,1,8.734-8.734A8.743,8.743,0,0,1,56.746,62.976Z" transform="translate(-1 -3.179)"/>
          <path id="Trazado_1033155" data-name="Trazado 1033155" d="M7.3,25.39H21.82a1.075,1.075,0,1,0,0-2.149H7.3a1.075,1.075,0,0,0,0,2.149Z" transform="translate(-0.61 -1.681)"/>
          <path id="Trazado_1033156" data-name="Trazado 1033156" d="M19.016,28.069H15.63a1.075,1.075,0,0,0,0,2.149h3.387a1.075,1.075,0,1,0,0-2.149Z" transform="translate(0.012 -1.321)"/>
          <path id="Trazado_1033157" data-name="Trazado 1033157" d="M7.3,30.218h3.759a1.075,1.075,0,1,0,0-2.149H7.3a1.075,1.075,0,0,0,0,2.149Z" transform="translate(-0.61 -1.321)"/>
          <path id="Trazado_1033158" data-name="Trazado 1033158" d="M7.3,35.047h10.15a1.075,1.075,0,0,0,0-2.149H7.3a1.075,1.075,0,0,0,0,2.149Z" transform="translate(-0.61 -0.96)"/>
          <path id="Trazado_1033159" data-name="Trazado 1033159" d="M7.3,39.876H18.752a1.075,1.075,0,1,0,0-2.149H7.3a1.075,1.075,0,0,0,0,2.149Z" transform="translate(-0.61 -0.599)"/>
          <path id="Trazado_1033160" data-name="Trazado 1033160" d="M18.975,42.559H16.184a1.075,1.075,0,1,0,0,2.149h2.791a1.075,1.075,0,0,0,0-2.149Z" transform="translate(0.054 -0.239)"/>
          <path id="Trazado_1033161" data-name="Trazado 1033161" d="M11.658,42.559H7.3a1.075,1.075,0,0,0,0,2.149h4.354a1.075,1.075,0,0,0,0-2.149Z" transform="translate(-0.61 -0.239)"/>
          <path id="Trazado_1033162" data-name="Trazado 1033162" d="M23.879,47.387H14.494a1.075,1.075,0,1,0,0,2.149h9.386a1.075,1.075,0,1,0,0-2.149Z" transform="translate(-0.073 0.122)"/>
          <path id="Trazado_1033163" data-name="Trazado 1033163" d="M9.841,47.387H7.3a1.075,1.075,0,1,0,0,2.149H9.841a1.075,1.075,0,1,0,0-2.149Z" transform="translate(-0.61 0.122)"/>
        </g>
        <g id="Grupo_1186713" data-name="Grupo 1186713" transform="translate(50.421 46.995)">
          <path id="Trazado_1033164" data-name="Trazado 1033164" d="M51.662,55.045a1.071,1.071,0,0,1-.749-.3l-2.67-2.593a1.075,1.075,0,0,1,1.5-1.542l1.9,1.845,5.084-5.219a1.075,1.075,0,0,1,1.54,1.5L52.432,54.72A1.072,1.072,0,0,1,51.662,55.045Z" transform="translate(-47.918 -46.908)"/>
        </g>
      </g>
    </g>
  </g>
</svg>
