<svg xmlns="http://www.w3.org/2000/svg" width="84" height="78" viewBox="0 0 84 78">
  <g id="Grupo_1184785" data-name="Grupo 1184785" transform="translate(-185.711 -4212)">
    <path id="Trazado_1033165" data-name="Trazado 1033165" d="M0,0H84V78H0Z" transform="translate(185.711 4212)" fill="#ffe79e"/>
    <g id="computadora_8_" data-name="computadora (8)" transform="translate(197.183 4222)">
      <g id="Grupo_1184784" data-name="Grupo 1184784" transform="translate(1.528)">
        <g id="Grupo_1184783" data-name="Grupo 1184783" transform="translate(0)">
          <rect id="Rectángulo_458423" data-name="Rectángulo 458423" width="1.879" height="1.879" transform="translate(13.154 53.196)"/>
          <rect id="Rectángulo_458424" data-name="Rectángulo 458424" width="1.879" height="1.879" transform="translate(16.912 53.196)"/>
          <path id="Trazado_1030652" data-name="Trazado 1030652" d="M48.506,34.07a4.7,4.7,0,0,0-4.7-4.7H31.035a15.967,15.967,0,1,0-18.232,6.8V53.8H9.044v4.7a4.7,4.7,0,0,0,4.7,4.7H47.566a4.7,4.7,0,0,0,4.7-4.7V53.8H48.506Zm-19.745-4.7H23.92a18.881,18.881,0,0,0,2-7.516h5.631A13.889,13.889,0,0,1,28.761,29.372Zm2.785-9.4H25.911a18.9,18.9,0,0,0-1.653-6.831,12.114,12.114,0,0,0,3.385-1.989A14.025,14.025,0,0,1,31.546,19.977Zm-5.3-10.092a10.387,10.387,0,0,1-2.837,1.584,22.779,22.779,0,0,0-3.234-4.384A14.03,14.03,0,0,1,26.246,9.885ZM18.44,8.014a21.578,21.578,0,0,1,3.087,4.016,17.481,17.481,0,0,1-3.087.4Zm0,6.3a19.011,19.011,0,0,0,4-.569,17.04,17.04,0,0,1,1.586,6.236H18.44V14.31Zm0,7.546h5.6a17.254,17.254,0,0,1-2.253,7.516H18.44Zm25.368,9.4a2.822,2.822,0,0,1,2.819,2.819V53.8H44.748V51.922H42.868V53.8H18.44V35.01H42.868V50.043h1.879V35.01a1.881,1.881,0,0,0-1.879-1.879H18.44a1.881,1.881,0,0,0-1.879,1.879V53.8H14.682V34.07A2.822,2.822,0,0,1,17.5,31.252ZM35.352,55.68v.94a.941.941,0,0,1-.94.94H26.9a.94.94,0,0,1-.94-.94v-.94ZM14.109,30.837a17.948,17.948,0,0,1-3.134-8.981h5.587v7.611A4.684,4.684,0,0,0,14.109,30.837Zm.723-23.753A22.788,22.788,0,0,0,11.6,11.471,10.386,10.386,0,0,1,8.755,9.885,14.026,14.026,0,0,1,14.832,7.084Zm1.729.925v4.423a17.4,17.4,0,0,1-3.1-.406A21.57,21.57,0,0,1,16.561,8.009Zm-9.2,3.148a12.12,12.12,0,0,0,3.4,1.994,19.611,19.611,0,0,0-1.032,2.817l1.811.5a17.425,17.425,0,0,1,1.022-2.73,18.978,18.978,0,0,0,4.006.569v5.667h-5.6a16.265,16.265,0,0,1,.179-1.727l-1.856-.3a18.273,18.273,0,0,0-.2,2.03H3.454A14.036,14.036,0,0,1,7.357,11.156Zm-3.91,10.7H9.07a18.881,18.881,0,0,0,1.686,6.834,12.138,12.138,0,0,0-3.4,2A14.076,14.076,0,0,1,3.447,21.856Zm5.3,10.115a10.616,10.616,0,0,1,2.863-1.6,22.383,22.383,0,0,0,1.446,2.237A4.66,4.66,0,0,0,12.8,34.07v.137A14,14,0,0,1,8.748,31.971ZM50.385,55.68V58.5a2.822,2.822,0,0,1-2.819,2.819H13.742A2.822,2.822,0,0,1,10.924,58.5V55.68H24.077v.94A2.822,2.822,0,0,0,26.9,59.438h7.516a2.822,2.822,0,0,0,2.819-2.819v-.94Z" transform="translate(-1.528 -4.363)"/>
          <path id="Trazado_1030653" data-name="Trazado 1030653" d="M429.286,279.452V268.944h-1.879v10.508a2.819,2.819,0,1,0,1.879,0Zm-.94,3.585a.94.94,0,1,1,.94-.94A.941.941,0,0,1,428.347,283.037Z" transform="translate(-375.732 -237.358)"/>
          <path id="Trazado_1030654" data-name="Trazado 1030654" d="M31.165,271.763a2.819,2.819,0,1,0-3.758,2.646v10.508h1.879V274.408A2.815,2.815,0,0,0,31.165,271.763Zm-2.819.94a.94.94,0,1,1,.94-.94A.94.94,0,0,1,28.347,272.7Z" transform="translate(-22.709 -237.358)"/>
          <path id="Trazado_1030655" data-name="Trazado 1030655" d="M193.044,276.944a7.516,7.516,0,1,0,7.516,7.516A7.525,7.525,0,0,0,193.044,276.944Zm-5.637,7.516a5.643,5.643,0,0,1,4.7-5.553v5.164l-3.65,3.65A5.6,5.6,0,0,1,187.407,284.46Zm5.637,5.637a5.6,5.6,0,0,1-3.261-1.048l3.65-3.65H198.6A5.643,5.643,0,0,1,193.044,290.1Zm.94-6.577v-4.613a5.645,5.645,0,0,1,4.613,4.613Z" transform="translate(-163.918 -244.419)"/>
          <path id="Trazado_1030656" data-name="Trazado 1030656" d="M300.076,9.037H312.29V7.158H298.2V9.4l-6.355-3.178L298.2,3.04V5.278H312.29V3.4H300.076V0L287.64,6.218l12.436,6.218Z" transform="translate(-254.038)"/>
          <path id="Trazado_1030657" data-name="Trazado 1030657" d="M314.178,118.218,301.742,112v3.4H289.528v1.879h14.093V115.04l6.355,3.178-6.355,3.178v-2.238H289.528v1.879h12.214v3.4Z" transform="translate(-255.704 -98.846)"/>
        </g>
      </g>
    </g>
  </g>
</svg>
