<svg xmlns="http://www.w3.org/2000/svg" width="94" height="94" viewBox="0 0 94 94">
  <g id="Grupo_1187279" data-name="Grupo 1187279" transform="translate(-339.711 -5641)">
    <rect id="Rectángulo_459490" data-name="Rectángulo 459490" width="94" height="94" transform="translate(339.711 5641)" fill="#ffe79e"/>
    <path id="compania" d="M78.6,36.834H59.943V30.655A1.157,1.157,0,0,0,58.786,29.5H56.022V26.344a1.157,1.157,0,0,0-1.157-1.157H50.037V22.762a1.157,1.157,0,1,0-2.315,0v2.424H42.895a1.157,1.157,0,0,0-1.157,1.157V29.5H38.974a1.157,1.157,0,0,0-1.157,1.157v6.179H19.163a1.157,1.157,0,0,0-1.157,1.157v25.8A7.626,7.626,0,0,0,17.3,76.449,13.924,13.924,0,0,0,8.007,88.142a1.157,1.157,0,0,0,1.151,1.28H34.629a1.157,1.157,0,0,0,1.151-1.28,14.076,14.076,0,0,0-.505-2.516H78.6a1.157,1.157,0,0,0,1.157-1.157V37.991A1.157,1.157,0,0,0,78.6,36.834ZM44.052,27.5h9.655v2H44.052Zm13.576,4.312v51.5H56.073V63.55a1.157,1.157,0,0,0-1.157-1.157H42.844a1.157,1.157,0,0,0-1.157,1.157V83.311H40.132v-51.5ZM47.723,64.707v18.6H44v-18.6Zm2.315,0h3.721v18.6H50.037Zm-28.144.331A5.319,5.319,0,0,1,21.9,75.677h-.011a5.319,5.319,0,0,1,.005-10.639Zm1.828,18.489-1.828,2.064-1.828-2.064,1.76-5.534h.136ZM19.305,78.28,17.66,83.452A1.158,1.158,0,0,0,17.9,84.57l2.248,2.538H10.517a11.617,11.617,0,0,1,8.788-8.828Zm4.337,8.828L25.89,84.57a1.158,1.158,0,0,0,.237-1.118L24.481,78.28a11.617,11.617,0,0,1,8.788,8.828Zm2.847-10.659A7.632,7.632,0,0,0,20.32,62.888V39.149h17.5V83.311H34.351A13.938,13.938,0,0,0,26.489,76.449ZM77.44,83.311h-17.5V39.149h17.5ZM35.1,41.4H23.036a1.157,1.157,0,0,0-1.157,1.157v4.43a1.157,1.157,0,0,0,1.157,1.157H35.1a1.157,1.157,0,0,0,1.157-1.157v-4.43A1.157,1.157,0,0,0,35.1,41.4Zm-1.157,4.43H24.193V43.717h9.751Zm28.143,2.524H75.3A1.157,1.157,0,0,0,76.453,47.2V42.35A1.157,1.157,0,0,0,75.3,41.192H62.087A1.157,1.157,0,0,0,60.93,42.35V47.2A1.157,1.157,0,0,0,62.087,48.356Zm1.157-4.849H74.138v2.535H63.245Zm-20.4-2.64H54.913a1.157,1.157,0,0,0,1.157-1.157v-4.43a1.157,1.157,0,0,0-1.157-1.157H42.847a1.157,1.157,0,0,0-1.157,1.157v4.43A1.157,1.157,0,0,0,42.847,40.867ZM44,36.437h9.751v2.115H44ZM42.847,51.194h4.6a1.157,1.157,0,0,0,1.157-1.157v-4.6a1.157,1.157,0,0,0-1.157-1.157h-4.6a1.157,1.157,0,0,0-1.157,1.157v4.6a1.157,1.157,0,0,0,1.157,1.157ZM44,46.592h2.287v2.287H44Zm10.909-2.315h-4.6a1.157,1.157,0,0,0-1.157,1.157v4.6a1.157,1.157,0,0,0,1.157,1.157h4.6a1.157,1.157,0,0,0,1.157-1.157v-4.6A1.157,1.157,0,0,0,54.913,44.278Zm-1.157,4.6H51.469V46.592h2.287ZM42.847,58.658h4.6A1.157,1.157,0,0,0,48.606,57.5V52.9a1.157,1.157,0,0,0-1.157-1.157h-4.6A1.157,1.157,0,0,0,41.69,52.9v4.6a1.157,1.157,0,0,0,1.157,1.157ZM44,54.057h2.287v2.287H44Zm10.909-2.315h-4.6A1.157,1.157,0,0,0,49.154,52.9v4.6a1.157,1.157,0,0,0,1.157,1.157h4.6A1.157,1.157,0,0,0,56.07,57.5V52.9A1.157,1.157,0,0,0,54.913,51.742Zm-1.157,4.6H51.469V54.057h2.287Zm13.5-5.369h-4.6A1.157,1.157,0,0,0,61.5,52.132v4.6a1.157,1.157,0,0,0,1.157,1.157h4.6a1.157,1.157,0,0,0,1.157-1.157v-4.6A1.157,1.157,0,0,0,67.26,50.975Zm-1.157,4.6H63.816V53.289H66.1Zm8.622-4.6h-4.6a1.157,1.157,0,0,0-1.157,1.157v4.6a1.157,1.157,0,0,0,1.157,1.157h4.6a1.157,1.157,0,0,0,1.157-1.157v-4.6A1.157,1.157,0,0,0,74.724,50.975Zm-1.157,4.6H71.28V53.289h2.287Zm-45.93-4.6h-4.6a1.157,1.157,0,0,0-1.157,1.157v4.6a1.157,1.157,0,0,0,1.157,1.157h4.6a1.157,1.157,0,0,0,1.157-1.157v-4.6A1.157,1.157,0,0,0,27.637,50.975Zm-1.157,4.6H24.193V53.289H26.48Zm8.622-4.6H30.5a1.157,1.157,0,0,0-1.157,1.157v4.6A1.157,1.157,0,0,0,30.5,57.891h4.6a1.157,1.157,0,0,0,1.157-1.157v-4.6A1.157,1.157,0,0,0,35.1,50.975Zm-1.157,4.6H31.657V53.289h2.287Zm33.316,2.8h-4.6A1.157,1.157,0,0,0,61.5,59.53v4.6a1.157,1.157,0,0,0,1.157,1.157h4.6a1.157,1.157,0,0,0,1.157-1.157v-4.6A1.157,1.157,0,0,0,67.26,58.373Zm-1.157,4.6H63.816V60.687H66.1Zm8.622-4.6h-4.6a1.157,1.157,0,0,0-1.157,1.157v4.6a1.157,1.157,0,0,0,1.157,1.157h4.6a1.157,1.157,0,0,0,1.157-1.157v-4.6A1.157,1.157,0,0,0,74.724,58.373Zm-1.157,4.6H71.28V60.687h2.287Z" transform="translate(342.478 5632.614)"/>
  </g>
</svg>
