<svg xmlns="http://www.w3.org/2000/svg" width="84" height="79" viewBox="0 0 84 79">
  <g id="Grupo_1186434" data-name="Grupo 1186434" transform="translate(-185.711 -1137)">
    <rect id="Rectángulo_459208" data-name="Rectángulo 459208" width="84" height="79" transform="translate(185.711 1137)" fill="#ffe79e"/>
    <g id="web_2_" data-name="web (2)" transform="translate(195.279 1145.518)">
      <path id="Trazado_1032678" data-name="Trazado 1032678" d="M153.5,64.742h-45.27a.952.952,0,1,1,0-1.9H153.5a3.257,3.257,0,0,0,3.254-3.254V21.724a3.257,3.257,0,0,0-3.254-3.254H130.368a.952.952,0,0,1,0-1.9H153.5a5.164,5.164,0,0,1,5.159,5.158V59.583a5.164,5.164,0,0,1-5.159,5.159Zm0,0" transform="translate(-93.661 -14.463)"/>
      <path id="Trazado_1032679" data-name="Trazado 1032679" d="M10.622,64.742H5.159A5.165,5.165,0,0,1,0,59.583V21.724a5.164,5.164,0,0,1,5.159-5.158H9.365a.952.952,0,0,1,0,1.9H5.159A3.258,3.258,0,0,0,1.9,21.724V59.583a3.258,3.258,0,0,0,3.254,3.254h5.463a.952.952,0,1,1,0,1.9Zm0,0" transform="translate(0 -14.463)"/>
      <path id="Trazado_1032680" data-name="Trazado 1032680" d="M162.933,453.412H133.487a.952.952,0,0,1-.952-.952v-4.206a.952.952,0,0,1,.952-.952h29.445a.952.952,0,0,1,.952.952v4.206A.952.952,0,0,1,162.933,453.412Zm-28.493-1.9H161.98v-2.3H134.439Zm0,0" transform="translate(-115.709 -390.514)"/>
      <path id="Trazado_1032681" data-name="Trazado 1032681" d="M179.044,391.349a.97.97,0,0,1-.12-.007.953.953,0,0,1-.827-1.063l1.052-8.412a.952.952,0,0,1,1.889.236l-1.051,8.413A.953.953,0,0,1,179.044,391.349Zm0,0" transform="translate(-155.481 -332.658)"/>
      <path id="Trazado_1032682" data-name="Trazado 1032682" d="M312.627,391.35a.953.953,0,0,1-.944-.834l-1.051-8.413a.952.952,0,0,1,1.889-.236l1.052,8.412a.953.953,0,0,1-.827,1.063A.969.969,0,0,1,312.627,391.35Zm0,0" transform="translate(-271.188 -332.659)"/>
      <path id="Trazado_1032683" data-name="Trazado 1032683" d="M237.092,387.142h-4.206a.952.952,0,0,1-.952-.952v-4.206a.952.952,0,1,1,1.9,0v3.254h2.3v-3.254a.952.952,0,1,1,1.9,0v4.206A.952.952,0,0,1,237.092,387.142Zm0,0" transform="translate(-202.488 -332.657)"/>
      <path id="Trazado_1032684" data-name="Trazado 1032684" d="M64.049,316.67H.952a.952.952,0,0,1,0-1.9h63.1a.952.952,0,0,1,0,1.9Zm0,0" transform="translate(0 -274.805)"/>
      <path id="Trazado_1032685" data-name="Trazado 1032685" d="M234.989,337.444a3.056,3.056,0,1,1,3.055-3.056A3.059,3.059,0,0,1,234.989,337.444Zm0-4.207a1.151,1.151,0,1,0,1.151,1.151A1.152,1.152,0,0,0,234.989,333.237Zm0,0" transform="translate(-202.488 -289.268)"/>
      <path id="Trazado_1032686" data-name="Trazado 1032686" d="M305.721,85.256a.952.952,0,0,1-.952-.952V51.6H282.585a.952.952,0,0,1,0-1.9h23.136a.952.952,0,0,1,.952.952V84.3A.952.952,0,0,1,305.721,85.256Zm0,0" transform="translate(-245.878 -43.39)"/>
      <path id="Trazado_1032687" data-name="Trazado 1032687" d="M34.085,85.256a.952.952,0,0,1-.952-.952V50.652a.952.952,0,0,1,.952-.952h4.206a.952.952,0,0,1,0,1.9H35.037V84.3A.952.952,0,0,1,34.085,85.256Zm0,0" transform="translate(-28.926 -43.39)"/>
      <path id="Trazado_1032688" data-name="Trazado 1032688" d="M67.222,41.866a.952.952,0,0,1-.952-.952V.952A.952.952,0,0,1,67.222,0H94.563a.952.952,0,0,1,.952.952V13.571a.952.952,0,1,1-1.9,0V1.9H68.174V40.914A.952.952,0,0,1,67.222,41.866Zm0,0" transform="translate(-57.856)"/>
      <path id="Trazado_1032689" data-name="Trazado 1032689" d="M258.124,128.645H232.885a.952.952,0,0,1-.952-.952V100.351a.952.952,0,0,1,.952-.952h25.239a.952.952,0,0,1,.952.952v27.342A.953.953,0,0,1,258.124,128.645Zm-24.286-1.9h23.335V101.3H233.837Zm0,0" transform="translate(-202.488 -86.78)"/>
      <path id="Trazado_1032690" data-name="Trazado 1032690" d="M131.644,39.244H116.921a.952.952,0,0,1-.952-.952V34.085a.952.952,0,0,1,.952-.952h14.722a.952.952,0,0,1,.952.952v4.206A.952.952,0,0,1,131.644,39.244Zm-13.77-1.9h12.818v-2.3H117.873Zm0,0" transform="translate(-101.246 -28.926)"/>
      <path id="Trazado_1032691" data-name="Trazado 1032691" d="M112.971,132.46h-12.62a.952.952,0,0,1-.952-.952V125.2a.952.952,0,0,1,.952-.952H112.97a.952.952,0,0,1,.952.952v6.31A.951.951,0,0,1,112.971,132.46Zm-11.668-1.9h10.715V126.15H101.3Zm0,0" transform="translate(-86.779 -108.472)"/>
      <path id="Trazado_1032692" data-name="Trazado 1032692" d="M106.661,101.3h-6.31a.952.952,0,0,1,0-1.9h6.31a.952.952,0,0,1,0,1.9Zm0,0" transform="translate(-86.78 -86.779)"/>
      <path id="Trazado_1032693" data-name="Trazado 1032693" d="M112.971,240.148h-12.62a.952.952,0,0,1-.952-.952v-6.31a.952.952,0,0,1,.952-.952H112.97a.952.952,0,0,1,.952.952v6.31A.952.952,0,0,1,112.971,240.148Zm-11.668-1.9h10.715v-4.405H101.3Zm0,0" transform="translate(-86.779 -202.488)"/>
      <path id="Trazado_1032694" data-name="Trazado 1032694" d="M106.661,208.986h-6.31a.952.952,0,0,1,0-1.9h6.31a.952.952,0,0,1,0,1.9Zm0,0" transform="translate(-86.78 -180.792)"/>
      <path id="Trazado_1032695" data-name="Trazado 1032695" d="M307.565,134.435h-8.413a.952.952,0,0,1,0-1.9h8.413a.952.952,0,1,1,0,1.9Zm0,0" transform="translate(-260.341 -115.705)"/>
      <path id="Trazado_1032696" data-name="Trazado 1032696" d="M267.072,191.434a.952.952,0,0,1-.673-.279l-1.052-1.052a.952.952,0,0,1,1.347-1.346l.378.378,2.481-2.482A.952.952,0,0,1,270.9,188l-3.155,3.155A.952.952,0,0,1,267.072,191.434Zm0,0" transform="translate(-231.416 -162.713)"/>
      <path id="Trazado_1032697" data-name="Trazado 1032697" d="M328.21,184.138H324a.952.952,0,0,1,0-1.9h4.206a.952.952,0,0,1,0,1.9Zm0,0" transform="translate(-282.038 -159.098)"/>
      <path id="Trazado_1032698" data-name="Trazado 1032698" d="M333.468,217.271H324a.952.952,0,0,1,0-1.9h9.465a.952.952,0,1,1,0,1.9Zm0,0" transform="translate(-282.038 -188.025)"/>
      <path id="Trazado_1032699" data-name="Trazado 1032699" d="M267.072,257.7a.952.952,0,0,1-.673-.279l-1.052-1.052a.952.952,0,0,1,1.347-1.346l.378.378,2.481-2.482a.952.952,0,0,1,1.347,1.346l-3.155,3.155A.951.951,0,0,1,267.072,257.7Zm0,0" transform="translate(-231.416 -220.564)"/>
      <path id="Trazado_1032700" data-name="Trazado 1032700" d="M328.21,250.4H324a.952.952,0,0,1,0-1.9h4.206a.952.952,0,0,1,0,1.9Zm0,0" transform="translate(-282.038 -216.951)"/>
      <path id="Trazado_1032701" data-name="Trazado 1032701" d="M333.468,283.537H324a.952.952,0,0,1,0-1.9h9.465a.952.952,0,1,1,0,1.9Zm0,0" transform="translate(-282.038 -245.878)"/>
    </g>
  </g>
</svg>
