<svg xmlns="http://www.w3.org/2000/svg" width="90" height="90" viewBox="0 0 90 90">
  <g id="Grupo_1186441" data-name="Grupo 1186441" transform="translate(-332.711 -1334)">
    <circle id="Elipse_13738" data-name="Elipse 13738" cx="45" cy="45" r="45" transform="translate(332.711 1334)" fill="#fff"/>
    <g id="optimizacion-web" transform="translate(349.456 1351)">
      <path id="Trazado_1032779" data-name="Trazado 1032779" d="M43.632,8.9v37.84l-.9.9H13.9l-.9-.9V8.9l.9-.9h28.83Z" transform="translate(-1.189 -0.693)" fill="#2c7e9b"/>
      <path id="Trazado_1032780" data-name="Trazado 1032780" d="M43.632,3.7v4.5H13V3.7A2.7,2.7,0,0,1,15.7,1H40.929A2.7,2.7,0,0,1,43.632,3.7Z" transform="translate(-1.189)" fill="#b9bfcc"/>
      <path id="Trazado_1032781" data-name="Trazado 1032781" d="M13,51H43.632v4.5a2.7,2.7,0,0,1-2.7,2.7H15.7A2.7,2.7,0,0,1,13,55.5Z" transform="translate(-1.189 -4.953)" fill="#b9bfcc"/>
      <path id="Trazado_1032782" data-name="Trazado 1032782" d="M56.226,21V39.92a2.7,2.7,0,0,1-2.7,2.7H33.7a2.7,2.7,0,0,1-2.7-2.7V21Z" transform="translate(-2.972 -1.981)" fill="#d6dbe3"/>
      <path id="Trazado_1032783" data-name="Trazado 1032783" d="M56.226,15.7v4.5H31V15.7A2.7,2.7,0,0,1,33.7,13H53.524a2.7,2.7,0,0,1,2.7,2.7Z" transform="translate(-2.972 -1.189)" fill="#235f6d"/>
      <path id="Trazado_1032784" data-name="Trazado 1032784" d="M24.38,27.712a.675.675,0,0,0-.432-.568l-1.883-.757a9.622,9.622,0,0,0-1.1-2.64l.8-1.874a.664.664,0,0,0-.1-.7,7.461,7.461,0,0,0-.676-.739,7.461,7.461,0,0,0-.739-.676.664.664,0,0,0-.7-.1l-1.874.8a9.622,9.622,0,0,0-2.64-1.1l-.757-1.883a.675.675,0,0,0-.568-.432c-.333-.027-.667-.045-1-.045s-.667.018-1,.045a.675.675,0,0,0-.568.432l-.757,1.883a9.622,9.622,0,0,0-2.64,1.1l-1.874-.8a.664.664,0,0,0-.7.1,7.461,7.461,0,0,0-.739.676,7.461,7.461,0,0,0-.676.739.664.664,0,0,0-.1.7l.8,1.874a9.622,9.622,0,0,0-1.1,2.64l-1.883.757a.675.675,0,0,0-.432.568c-.027.333-.045.667-.045,1s.018.667.045,1a.675.675,0,0,0,.432.568l1.883.757a9.622,9.622,0,0,0,1.1,2.64l-.8,1.874a.664.664,0,0,0,.1.7,7.461,7.461,0,0,0,.676.739,7.46,7.46,0,0,0,.739.676.664.664,0,0,0,.7.1l1.874-.8a9.622,9.622,0,0,0,2.64,1.1l.757,1.883a.675.675,0,0,0,.568.432c.333.027.667.045,1,.045s.667-.018,1-.045a.675.675,0,0,0,.568-.432l.757-1.883a9.622,9.622,0,0,0,2.64-1.1l1.874.8a.664.664,0,0,0,.7-.1,7.461,7.461,0,0,0,.739-.676,7.461,7.461,0,0,0,.676-.739.664.664,0,0,0,.1-.7l-.8-1.874a9.622,9.622,0,0,0,1.1-2.64l1.883-.757a.675.675,0,0,0,.432-.568c.027-.333.045-.667.045-1s-.018-.667-.045-1ZM12.712,35.019a6.3,6.3,0,1,1,4.461-1.846,6.307,6.307,0,0,1-4.461,1.846Z" transform="translate(0 -1.585)" fill="#ccd0da"/>
      <path id="Trazado_1032785" data-name="Trazado 1032785" d="M13.208,36.415a7.208,7.208,0,1,1,7.208-7.208,7.208,7.208,0,0,1-7.208,7.208Zm0-12.613a5.406,5.406,0,1,0,5.406,5.406A5.406,5.406,0,0,0,13.208,23.8Z" transform="translate(-0.495 -2.08)" fill="#b9bfcc"/>
      <ellipse id="Elipse_13739" data-name="Elipse 13739" cx="2.5" cy="3" rx="2.5" ry="3" transform="translate(10.255 24)" fill="#ccd0da"/>
      <rect id="Rectángulo_459318" data-name="Rectángulo 459318" width="18" height="5" rx="1" transform="translate(31.255 23)" fill="#b9bfcc"/>
      <path id="Trazado_1032786" data-name="Trazado 1032786" d="M26.8,5.8h-.9a.9.9,0,0,1,0-1.8h.9a.9.9,0,0,1,0,1.8Z" transform="translate(-2.377 -0.297)" fill="#8991a0"/>
      <path id="Trazado_1032787" data-name="Trazado 1032787" d="M33.6,5.8H30.9a.9.9,0,1,1,0-1.8h2.7a.9.9,0,0,1,0,1.8Z" transform="translate(-2.873 -0.297)" fill="#8991a0"/>
      <path id="Trazado_1032788" data-name="Trazado 1032788" d="M31.5,55.8H27.9a.9.9,0,0,1,0-1.8h3.6a.9.9,0,1,1,0,1.8Z" transform="translate(-2.575 -5.25)" fill="#8991a0"/>
      <path id="Trazado_1032789" data-name="Trazado 1032789" d="M35.8,17.8h-.9a.9.9,0,1,1,0-1.8h.9a.9.9,0,1,1,0,1.8Z" transform="translate(-3.269 -1.486)" fill="#f8536c"/>
      <path id="Trazado_1032790" data-name="Trazado 1032790" d="M40.8,17.8h-.9a.9.9,0,1,1,0-1.8h.9a.9.9,0,1,1,0,1.8Z" transform="translate(-3.764 -1.486)" fill="#a9dc62"/>
      <path id="Trazado_1032791" data-name="Trazado 1032791" d="M54.406,17.8H49.9a.9.9,0,1,1,0-1.8h4.5a.9.9,0,1,1,0,1.8Z" transform="translate(-4.755 -1.486)" fill="#1e505b"/>
      <g id="Grupo_1186444" data-name="Grupo 1186444" transform="translate(32.533 30.731)">
        <path id="Trazado_1032792" data-name="Trazado 1032792" d="M45.009,35.8H36.9a.9.9,0,1,1,0-1.8h8.109a.9.9,0,1,1,0,1.8Z" transform="translate(-36 -34)" fill="#a7adb7"/>
        <path id="Trazado_1032793" data-name="Trazado 1032793" d="M43.208,39.8H36.9a.9.9,0,0,1,0-1.8h6.307a.9.9,0,1,1,0,1.8Z" transform="translate(-36 -34.396)" fill="#a7adb7"/>
        <path id="Trazado_1032794" data-name="Trazado 1032794" d="M52.6,35.8H49.9a.9.9,0,1,1,0-1.8h2.7a.9.9,0,1,1,0,1.8Z" transform="translate(-37.288 -34)" fill="#a7adb7"/>
        <path id="Trazado_1032795" data-name="Trazado 1032795" d="M50.6,39.8H47.9a.9.9,0,0,1,0-1.8h2.7a.9.9,0,0,1,0,1.8Z" transform="translate(-37.09 -34.396)" fill="#a7adb7"/>
      </g>
    </g>
  </g>
</svg>
