<svg xmlns="http://www.w3.org/2000/svg" xmlns:xlink="http://www.w3.org/1999/xlink" width="812" height="300" viewBox="0 0 812 300">
  <defs>
    <clipPath id="clip-path">
      <rect id="Rectángulo_459430" data-name="Rectángulo 459430" width="812" height="300" transform="translate(-11308 -3144)" fill="#fff"/>
    </clipPath>
  </defs>
  <g id="Grupo_1187148" data-name="Grupo 1187148" transform="translate(12671 -21)">
    <g id="Grupo_1187143" data-name="Grupo 1187143">
      <g id="Grupo_1187060" data-name="Grupo 1187060" transform="translate(-1363 3165)">
        <rect id="Rectángulo_458295" data-name="Rectángulo 458295" width="812" height="300" transform="translate(-11308 -3144)" fill="#fff"/>
      </g>
    </g>
    <g id="Grupo_1187152" data-name="Grupo 1187152" transform="translate(3 7.558)">
      <g id="router-de-wifi_1_" data-name="router-de-wifi (1)" transform="translate(-12336 112.845)">
        <g id="Grupo_1184565" data-name="Grupo 1184565" transform="translate(0 0)">
          <g id="Grupo_1184564" data-name="Grupo 1184564">
            <g id="Grupo_1184561" data-name="Grupo 1184561">
              <path id="Trazado_1030333" data-name="Trazado 1030333" d="M144.788,73.393h0A71.378,71.378,0,0,1,73.41,144.771h-.033A71.378,71.378,0,0,1,2,73.393H2A71.378,71.378,0,0,1,73.377,2.015h.033a71.378,71.378,0,0,1,71.378,71.378Z" transform="translate(-1.999 -2.015)" fill="#c9eaf5"/>
            </g>
            <g id="Grupo_1184562" data-name="Grupo 1184562" transform="translate(0.002 28.868)" opacity="0.25">
              <path id="Trazado_1030334" data-name="Trazado 1030334" d="M128.091,108.047a83.392,83.392,0,0,1-.535,8.88,71.227,71.227,0,0,1-47.5,24.542H66.725A71.366,71.366,0,0,1,2,70.409V70.4a71,71,0,0,1,7.887-32.63,79.337,79.337,0,0,1,40.807-9.839c43.038,1.238,77.608,37.058,77.4,80.118Z" transform="translate(-2.001 -27.893)" fill="#fff"/>
            </g>
            <g id="Grupo_1184563" data-name="Grupo 1184563" transform="translate(82.709 5.756)" opacity="0.25">
              <path id="Trazado_1030335" data-name="Trazado 1030335" d="M136.224,72.791V72.8a71.176,71.176,0,0,1-21.887,51.427A79.759,79.759,0,0,1,92.952,7.175a71.367,71.367,0,0,1,43.272,65.616Z" transform="translate(-76.141 -7.175)" fill="#fff"/>
            </g>
          </g>
        </g>
        <g id="Grupo_1184606" data-name="Grupo 1184606" transform="translate(12.231 17.832)">
          <g id="Grupo_1184566" data-name="Grupo 1184566" transform="translate(20.275 12.481)">
            <path id="Trazado_1030336" data-name="Trazado 1030336" d="M31.138,29.188h8.775V52.643H31.138Z" transform="translate(-31.138 -29.188)" fill="#f9b938"/>
          </g>
          <g id="Grupo_1184567" data-name="Grupo 1184567" transform="translate(15.699 35.935)">
            <path id="Trazado_1030337" data-name="Trazado 1030337" d="M44.96,52.885v23.1H27.036v-23.1a2.672,2.672,0,0,1,2.672-2.672h12.58a2.672,2.672,0,0,1,2.672,2.672Z" transform="translate(-27.036 -50.213)" fill="#f9b938"/>
          </g>
          <g id="Grupo_1184568" data-name="Grupo 1184568" transform="translate(15.704 35.936)">
            <path id="Trazado_1030338" data-name="Trazado 1030338" d="M44.957,52.883v23.1H27.04V72.635H37.608A4.291,4.291,0,0,0,41.9,68.344V50.214h.389a2.669,2.669,0,0,1,2.669,2.669Z" transform="translate(-27.04 -50.214)" fill="#e5a320"/>
          </g>
          <g id="Grupo_1184569" data-name="Grupo 1184569" transform="translate(20.275 12.481)">
            <path id="Trazado_1030339" data-name="Trazado 1030339" d="M36.854,29.188V46.741A2.555,2.555,0,0,1,34.3,49.3H31.138v3.348h8.775V29.188Z" transform="translate(-31.138 -29.188)" fill="#e5a320"/>
          </g>
          <g id="Grupo_1184570" data-name="Grupo 1184570" transform="translate(15.103)">
            <path id="Trazado_1030340" data-name="Trazado 1030340" d="M45.619,27.554A9.559,9.559,0,1,1,36.056,18a9.557,9.557,0,0,1,9.563,9.554Z" transform="translate(-26.502 -18)" fill="#474646"/>
          </g>
          <g id="Grupo_1184571" data-name="Grupo 1184571" transform="translate(16.193 0.915)">
            <path id="Trazado_1030341" data-name="Trazado 1030341" d="M45.507,27.461a9.559,9.559,0,0,1-18.028,4.426,9.426,9.426,0,0,0,4.082.912,9.566,9.566,0,0,0,8.475-13.98A9.559,9.559,0,0,1,45.507,27.461Z" transform="translate(-27.479 -18.82)" fill="#2d2c2c"/>
          </g>
          <g id="Grupo_1184586" data-name="Grupo 1184586" transform="translate(0 61.701)">
            <path id="Trazado_1030348" data-name="Trazado 1030348" d="M119.64,80.052v23.1a6.741,6.741,0,0,1-6.741,6.741H19.7a6.741,6.741,0,0,1-6.741-6.741v-23.1A6.741,6.741,0,0,1,19.7,73.311h93.2A6.741,6.741,0,0,1,119.64,80.052Z" transform="translate(-12.963 -73.311)" fill="#407093"/>
          </g>
          <g id="Grupo_1184587" data-name="Grupo 1184587" transform="translate(8.875 71.512)">
            <path id="Trazado_1030349" data-name="Trazado 1030349" d="M65.383,84.978V96.191a2.874,2.874,0,0,1-2.874,2.874H23.792a2.874,2.874,0,0,1-2.874-2.874V84.978A2.874,2.874,0,0,1,23.792,82.1H62.509a2.874,2.874,0,0,1,2.874,2.874Z" transform="translate(-20.919 -82.105)" fill="#fff"/>
          </g>
          <g id="Grupo_1184588" data-name="Grupo 1184588" transform="translate(89.832 74.259)">
            <path id="Trazado_1030350" data-name="Trazado 1030350" d="M103.2,89.42a4.857,4.857,0,1,1-4.862-4.852A4.856,4.856,0,0,1,103.2,89.42Z" transform="translate(-93.49 -84.568)" fill="#f7f363"/>
          </g>
          <g id="Grupo_1184589" data-name="Grupo 1184589" transform="translate(72.682 74.259)">
            <path id="Trazado_1030351" data-name="Trazado 1030351" d="M87.831,89.42a4.857,4.857,0,1,1-4.862-4.852A4.856,4.856,0,0,1,87.831,89.42Z" transform="translate(-78.117 -84.568)" fill="#f7f363"/>
          </g>
          <g id="Grupo_1184590" data-name="Grupo 1184590" transform="translate(14.895 75.972)">
            <ellipse id="Elipse_13709" data-name="Elipse 13709" cx="4.02" cy="4.02" rx="4.02" ry="4.02" fill="#fc6559"/>
          </g>
          <g id="Grupo_1184591" data-name="Grupo 1184591" transform="translate(8.875 71.547)">
            <path id="Trazado_1030352" data-name="Trazado 1030352" d="M65.383,84.973v11.21a2.879,2.879,0,0,1-2.869,2.88H23.788a2.879,2.879,0,0,1-2.869-2.88v-.767a2.471,2.471,0,0,0,.411.033H60.044a2.881,2.881,0,0,0,2.88-2.88V82.137a2.865,2.865,0,0,1,2.458,2.836Z" transform="translate(-20.919 -82.137)" fill="#e4e3ff"/>
          </g>
          <g id="Grupo_1184592" data-name="Grupo 1184592" transform="translate(89.873 74.873)">
            <path id="Trazado_1030353" data-name="Trazado 1030353" d="M103.2,89.355a4.859,4.859,0,0,1-9.676.634,4.758,4.758,0,0,0,2.347.612,4.851,4.851,0,0,0,4.86-4.86,3.823,3.823,0,0,0-.044-.623,4.8,4.8,0,0,1,2.513,4.237Z" transform="translate(-93.527 -85.117)" fill="#f7e839"/>
          </g>
          <g id="Grupo_1184593" data-name="Grupo 1184593" transform="translate(72.724 74.873)">
            <path id="Trazado_1030354" data-name="Trazado 1030354" d="M87.83,89.355a4.858,4.858,0,0,1-9.676.634A4.758,4.758,0,0,0,80.5,90.6a4.851,4.851,0,0,0,4.86-4.86,3.823,3.823,0,0,0-.044-.623A4.8,4.8,0,0,1,87.83,89.355Z" transform="translate(-78.154 -85.117)" fill="#f7e839"/>
          </g>
          <g id="Grupo_1184594" data-name="Grupo 1184594" transform="translate(0.211 62.183)">
            <path id="Trazado_1030355" data-name="Trazado 1030355" d="M119.618,80v23.1a6.735,6.735,0,0,1-6.74,6.74h-93.2a6.732,6.732,0,0,1-6.528-5.06,6.624,6.624,0,0,0,2.491.478h93.2a6.742,6.742,0,0,0,6.74-6.74v-23.1a6.946,6.946,0,0,0-.211-1.679A6.729,6.729,0,0,1,119.618,80Z" transform="translate(-13.152 -73.742)" fill="#365e7d"/>
          </g>
          <g id="Grupo_1184596" data-name="Grupo 1184596" transform="translate(17.803 79.184)">
            <g id="Grupo_1184595" data-name="Grupo 1184595">
              <path id="Trazado_1030356" data-name="Trazado 1030356" d="M30.034,94.924a1.112,1.112,0,0,1-1.112-1.112V90.095a1.112,1.112,0,0,1,2.224,0v3.717A1.112,1.112,0,0,1,30.034,94.924Z" transform="translate(-28.922 -88.983)" fill="#474646"/>
            </g>
          </g>
          <g id="Grupo_1184599" data-name="Grupo 1184599" transform="translate(13.046 98.284)">
            <g id="Grupo_1184597" data-name="Grupo 1184597">
              <path id="Trazado_1030357" data-name="Trazado 1030357" d="M39.372,106.1l-4.426,6.8a1.975,1.975,0,0,1-1.655.9H26.633a1.975,1.975,0,0,1-1.975-1.975V106.1H39.371Z" transform="translate(-24.658 -106.104)" fill="#2d2c2c"/>
            </g>
            <g id="Grupo_1184598" data-name="Grupo 1184598" transform="translate(65.872)">
              <path id="Trazado_1030358" data-name="Trazado 1030358" d="M83.707,106.1l4.426,6.8a1.975,1.975,0,0,0,1.655.9h6.657a1.975,1.975,0,0,0,1.975-1.975V106.1H83.707Z" transform="translate(-83.707 -106.104)" fill="#2d2c2c"/>
            </g>
          </g>
          <g id="Grupo_1184601" data-name="Grupo 1184601" transform="translate(46.559 104.868)">
            <g id="Grupo_1184600" data-name="Grupo 1184600">
              <path id="Trazado_1030359" data-name="Trazado 1030359" d="M111.59,114.23H55.811a1.112,1.112,0,0,1,0-2.224H111.59a1.112,1.112,0,1,1,0,2.224Z" transform="translate(-54.699 -112.006)" fill="#474646"/>
            </g>
          </g>
          <g id="Grupo_1184603" data-name="Grupo 1184603" transform="translate(4.541 104.868)">
            <g id="Grupo_1184602" data-name="Grupo 1184602">
              <path id="Trazado_1030360" data-name="Trazado 1030360" d="M50.723,114.23H18.146a1.112,1.112,0,1,1,0-2.224H50.723a1.112,1.112,0,1,1,0,2.224Z" transform="translate(-17.034 -112.006)" fill="#474646"/>
            </g>
          </g>
          <g id="Grupo_1184605" data-name="Grupo 1184605" transform="translate(62.409 65.89)">
            <g id="Grupo_1184604" data-name="Grupo 1184604">
              <path id="Trazado_1030361" data-name="Trazado 1030361" d="M86.706,79.3H70.024a1.116,1.116,0,0,1,0-2.231H86.706a1.116,1.116,0,0,1,0,2.231Z" transform="translate(-68.908 -77.066)" fill="#fff"/>
            </g>
          </g>
        </g>
      </g>
      <g id="Grupo_1187145" data-name="Grupo 1187145" transform="translate(-13436.701 -1835.976)">
        <g id="computadora_7_" data-name="computadora (7)" transform="translate(907.701 1894.549)">
          <path id="Trazado_1030401" data-name="Trazado 1030401" d="M257,295h18.185v10.608H257Zm0,0" transform="translate(-218.055 -250.296)" fill="#3e5959"/>
          <path id="Trazado_1030402" data-name="Trazado 1030402" d="M317,295h9.092v10.608H317Zm0,0" transform="translate(-268.962 -250.296)" fill="#25597e"/>
          <path id="Trazado_1030403" data-name="Trazado 1030403" d="M25,84.554H2.273A2.273,2.273,0,0,1,0,82.281V32.273A2.273,2.273,0,0,1,2.273,30H25a2.273,2.273,0,0,1,2.273,2.273V82.281A2.273,2.273,0,0,1,25,84.554Zm0,0" transform="translate(0 -25.454)" fill="#3e5959"/>
          <path id="Trazado_1030404" data-name="Trazado 1030404" d="M103.638,32.273V82.281a2.274,2.274,0,0,1-2.273,2.273H90V30h11.365A2.274,2.274,0,0,1,103.638,32.273Zm0,0" transform="translate(-76.362 -25.454)" fill="#293939"/>
          <path id="Trazado_1030405" data-name="Trazado 1030405" d="M0,105H27.277v9.092H0Zm0,0" transform="translate(0 -89.088)" fill="#547983"/>
          <path id="Trazado_1030406" data-name="Trazado 1030406" d="M90,105h13.638v9.092H90Zm0,0" transform="translate(-76.362 -89.088)" fill="#3e5959"/>
          <path id="Trazado_1030407" data-name="Trazado 1030407" d="M79.546,335.273A2.273,2.273,0,1,1,77.273,333,2.273,2.273,0,0,1,79.546,335.273Zm0,0" transform="translate(-63.635 -282.538)" fill="#81e885"/>
          <path id="Trazado_1030408" data-name="Trazado 1030408" d="M92.273,335.273A2.274,2.274,0,0,1,90,337.546V333A2.274,2.274,0,0,1,92.273,335.273Zm0,0" transform="translate(-76.362 -282.538)" fill="#5dc983"/>
          <path id="Trazado_1030409" data-name="Trazado 1030409" d="M176.554,45.462H126.546A4.551,4.551,0,0,1,122,40.915V4.546A4.551,4.551,0,0,1,126.546,0h50.008A4.551,4.551,0,0,1,181.1,4.546V40.915A4.551,4.551,0,0,1,176.554,45.462Zm0,0" transform="translate(-103.512)" fill="#365e7d"/>
          <path id="Trazado_1030410" data-name="Trazado 1030410" d="M346.55,4.546V40.915A4.552,4.552,0,0,1,342,45.462H317V0h25A4.552,4.552,0,0,1,346.55,4.546Zm0,0" transform="translate(-268.962)" fill="#407093"/>
          <path id="Trazado_1030411" data-name="Trazado 1030411" d="M152,30h50.008V66.369H152Zm0,0" transform="translate(-128.966 -25.454)" fill="#19c0ef"/>
          <path id="Trazado_1030413" data-name="Trazado 1030413" d="M241.55,364.546H214.273a2.273,2.273,0,1,1,0-4.546H241.55a2.273,2.273,0,0,1,0,4.546Zm0,0" transform="translate(-179.874 -305.446)" fill="#365e7d"/>
          <path id="Trazado_1030414" data-name="Trazado 1030414" d="M332.912,362.273a2.274,2.274,0,0,1-2.273,2.273H317V360h13.638A2.274,2.274,0,0,1,332.912,362.273Zm0,0" transform="translate(-268.962 -305.446)" fill="#407093"/>
        </g>
        <g id="analitica_2_" data-name="analitica (2)" transform="translate(916.206 1833.758)">
          <path id="Trazado_1030223" data-name="Trazado 1030223" d="M113.263,121.588h-50.1l-.867.905v30.881a.857.857,0,0,0,.857.857h49.839a.857.857,0,0,0,.857-.857V122.493Z" transform="translate(-48.179 -51.989)" fill="#e4f6ff"/>
          <path id="Trazado_1030224" data-name="Trazado 1030224" d="M67.865,153.374V122.493l.867-.905H63.159l-.867.905v30.881a.857.857,0,0,0,.857.857h5.573A.857.857,0,0,1,67.865,153.374Z" transform="translate(-48.179 -51.989)" fill="#d3effb"/>
          <path id="Trazado_1030225" data-name="Trazado 1030225" d="M67.865,90.183H63.149a.857.857,0,0,0-.857.857v4.227h5.573l.367-.391V90.455Z" transform="translate(-48.179 -24.763)" fill="#dd636e"/>
          <path id="Trazado_1030226" data-name="Trazado 1030226" d="M149.293,90.182H104.17v5.084h45.98V91.039A.857.857,0,0,0,149.293,90.182Z" transform="translate(-84.484 -24.762)" fill="#b1e4f9"/>
          <path id="Trazado_1030227" data-name="Trazado 1030227" d="M115.07,174.4H105.06a.89.89,0,0,0-.89.89v18.6h11.789v-18.6A.89.89,0,0,0,115.07,174.4Z" transform="translate(-84.484 -97.778)" fill="#3f6d8e"/>
          <path id="Trazado_1030228" data-name="Trazado 1030228" d="M108.167,174.4H105.06a.89.89,0,0,0-.89.89v18.6h3.107v-18.6A.89.89,0,0,1,108.167,174.4Z" transform="translate(-84.484 -97.778)" fill="#365e7d"/>
          <path id="Trazado_1030229" data-name="Trazado 1030229" d="M137.266,295.027v-3.662a.307.307,0,0,0-.307-.307H133.51a.307.307,0,0,0-.307.307v3.662Z" transform="translate(-109.654 -198.908)" fill="#e4f6ff"/>
          <path id="Trazado_1030230" data-name="Trazado 1030230" d="M135.54,291.057h-2.031a.307.307,0,0,0-.307.307v3.662h2.031v-3.662A.307.307,0,0,1,135.54,291.057Z" transform="translate(-109.653 -198.907)" fill="#d3effb"/>
          <path id="Trazado_1030235" data-name="Trazado 1030235" d="M252.494,251.046V240.633a.307.307,0,0,0-.307-.307h-3.449a.307.307,0,0,0-.307.307v10.413Z" transform="translate(-209.549 -154.927)" fill="#dd636e"/>
          <path id="Trazado_1030236" data-name="Trazado 1030236" d="M313.557,226.484V212.3a.307.307,0,0,0-.307-.307H309.8a.307.307,0,0,0-.307.307v14.183Z" transform="translate(-262.486 -130.365)" fill="#ffaa5b"/>
          <path id="Trazado_1030237" data-name="Trazado 1030237" d="M374.619,201.922V183.969a.307.307,0,0,0-.307-.307h-3.449a.307.307,0,0,0-.307.307v17.953Z" transform="translate(-315.423 -105.803)" fill="#b3e59f"/>
          <path id="Trazado_1030238" data-name="Trazado 1030238" d="M251.045,240.326h-2.308a.307.307,0,0,0-.307.307v10.413h2.308V240.633A.306.306,0,0,1,251.045,240.326Z" transform="translate(-209.549 -154.927)" fill="#da4a54"/>
          <path id="Trazado_1030239" data-name="Trazado 1030239" d="M312.107,211.994H309.8a.307.307,0,0,0-.307.307v14.183H311.8V212.3A.307.307,0,0,1,312.107,211.994Z" transform="translate(-262.485 -130.365)" fill="#ff9838"/>
          <path id="Trazado_1030240" data-name="Trazado 1030240" d="M373.169,183.662h-2.308a.307.307,0,0,0-.307.307v17.953h2.308V183.969A.307.307,0,0,1,373.169,183.662Z" transform="translate(-315.422 -105.803)" fill="#95d6a4"/>
          <g id="Grupo_1184547" data-name="Grupo 1184547" transform="translate(36.822 95.091)">
            <path id="Trazado_1030241" data-name="Trazado 1030241" d="M256.354,315.214H233.975a1.028,1.028,0,0,1,0-2.056h22.379a1.028,1.028,0,1,1,0,2.056Z" transform="translate(-232.947 -313.158)" fill="#b1e4f9"/>
          </g>
          <g id="Grupo_1184548" data-name="Grupo 1184548" transform="translate(17.664 95.091)">
            <path id="Trazado_1030242" data-name="Trazado 1030242" d="M103.819,315.214H90.008a1.028,1.028,0,1,1,0-2.056h13.811a1.028,1.028,0,0,1,0,2.056Z" transform="translate(-88.98 -313.158)" fill="#b3e59f"/>
          </g>
          <g id="Grupo_1184549" data-name="Grupo 1184549" transform="translate(22.267 87.273)">
            <path id="Trazado_1030243" data-name="Trazado 1030243" d="M129.169,256.462H124.6a1.028,1.028,0,1,1,0-2.056h4.57a1.028,1.028,0,0,1,0,2.056Z" transform="translate(-123.571 -254.406)" fill="#b1e4f9"/>
          </g>
          <g id="Grupo_1184550" data-name="Grupo 1184550" transform="translate(22.267 83.502)">
            <path id="Trazado_1030244" data-name="Trazado 1030244" d="M129.169,228.129H124.6a1.028,1.028,0,1,1,0-2.056h4.57a1.028,1.028,0,0,1,0,2.056Z" transform="translate(-123.571 -226.073)" fill="#b1e4f9"/>
          </g>
          <g id="Grupo_1184551" data-name="Grupo 1184551" transform="translate(22.267 79.732)">
            <path id="Trazado_1030245" data-name="Trazado 1030245" d="M129.169,199.8H124.6a1.028,1.028,0,1,1,0-2.056h4.57a1.028,1.028,0,0,1,0,2.056Z" transform="translate(-123.571 -197.741)" fill="#b1e4f9"/>
          </g>
        </g>
      </g>
      <g id="hogar" transform="translate(-12557.293 208.216)">
        <g id="Grupo_1184613" data-name="Grupo 1184613" transform="translate(39.293 0)">
          <path id="Trazado_1030366" data-name="Trazado 1030366" d="M39.293,225.325c0,2.239,1.815,5.233,4.054,5.233H91.981c2.239,0,4.054-2.993,4.054-5.233V193.658a4.054,4.054,0,0,0-4.054-4.054H43.347a4.054,4.054,0,0,0-4.054,4.054Z" transform="translate(-39.293 -164.781)" fill="#407093"/>
          <path id="Trazado_1030367" data-name="Trazado 1030367" d="M325.2,330.625c0,2.8,3.09,6.2,6.118,6.2s6.118-3.338,6.118-6.2a6.238,6.238,0,0,0-12.237,0Z" transform="translate(-287.767 -282.976)" fill="#f6e080"/>
          <path id="Trazado_1030368" data-name="Trazado 1030368" d="M358.887,358.953c.831,0,1.965-1.61,1.965-2.275a2.308,2.308,0,0,0-3.93,0C356.922,357.381,358.056,358.953,358.887,358.953Z" transform="translate(-315.338 -309.029)" fill="#dc4955"/>
          <path id="Trazado_1030369" data-name="Trazado 1030369" d="M88.663,58.554h16.847c3.355,0,4.054-2.993,4.054-5.233V4.054A4.054,4.054,0,0,0,105.511,0H88.663a4.054,4.054,0,0,0-4.054,4.054V53.322C84.609,55.561,85.383,58.554,88.663,58.554Z" transform="translate(-78.676 0)" fill="#80b5db"/>
          <path id="Trazado_1030370" data-name="Trazado 1030370" d="M124.751,81h12.1c.746,0,1.351-1.783,1.351-2.529v-8.9a1.351,1.351,0,0,0-1.351-1.351h-12.1A1.352,1.352,0,0,0,123.4,69.57v8.9C123.4,79.218,124.005,81,124.751,81Z" transform="translate(-112.389 -59.288)" fill="#b3e59f"/>
          <path id="Trazado_1030371" data-name="Trazado 1030371" d="M159.49,207.558c1.4,0,3.078-2.055,3.078-3.271a3.309,3.309,0,0,0-6.155,0C156.412,205.5,158.091,207.558,159.49,207.558Z" transform="translate(-141.079 -175.722)" fill="#f6e080"/>
          <path id="Trazado_1030372" data-name="Trazado 1030372" d="M136.847,147.877h-12.1a1.352,1.352,0,0,1-1.351-1.351v2.433a1.352,1.352,0,0,0,1.351,1.351h12.1a1.352,1.352,0,0,0,1.351-1.351v-2.433A1.352,1.352,0,0,1,136.847,147.877Z" transform="translate(-112.388 -127.343)" fill="#95d6a4"/>
          <path id="Trazado_1030373" data-name="Trazado 1030373" d="M157.951,220.274a3.31,3.31,0,0,1-3.078-2.093,3.309,3.309,0,1,0,6.155,0A3.31,3.31,0,0,1,157.951,220.274Z" transform="translate(-139.541 -189.617)" fill="#eccd61"/>
          <path id="Trazado_1030374" data-name="Trazado 1030374" d="M105.511,411.339H88.663a4.054,4.054,0,0,1-4.054-4.054v2.433a4.054,4.054,0,0,0,4.054,4.054h16.847a4.054,4.054,0,0,0,4.054-4.054v-2.433A4.054,4.054,0,0,1,105.511,411.339Z" transform="translate(-78.676 -353.964)" fill="#313e4b"/>
          <path id="Trazado_1030375" data-name="Trazado 1030375" d="M356.575,365.056a2.309,2.309,0,0,1-1.965-1.1,2.313,2.313,0,1,0,3.93,0A2.309,2.309,0,0,1,356.575,365.056Z" transform="translate(-313.026 -316.31)" fill="#d82f3c"/>
          <path id="Trazado_1030376" data-name="Trazado 1030376" d="M330.523,368.98a6.239,6.239,0,0,1-6.118-5.021,6.238,6.238,0,1,0,12.236,0A6.239,6.239,0,0,1,330.523,368.98Z" transform="translate(-286.974 -316.31)" fill="#eccd61"/>
          <path id="Trazado_1030377" data-name="Trazado 1030377" d="M91.981,466.505H43.347a4.054,4.054,0,0,1-4.054-4.054v2.433a4.054,4.054,0,0,0,4.054,4.054H91.981a4.054,4.054,0,0,0,4.054-4.054v-2.433a4.054,4.054,0,0,1-4.054,4.054Z" transform="translate(-39.293 -401.907)" fill="#365e7d"/>
        </g>
        <g id="Grupo_1184615" data-name="Grupo 1184615" transform="translate(49.255 3.767)">
          <g id="Grupo_1184614" data-name="Grupo 1184614">
            <path id="Trazado_1030378" data-name="Trazado 1030378" d="M154.666,30.805h4.808a1.016,1.016,0,1,0,0-2.031h-4.808a1.016,1.016,0,1,0,0,2.031Z" transform="translate(-148.64 -28.774)" fill="#fff"/>
            <path id="Trazado_1030379" data-name="Trazado 1030379" d="M116.4,273.834h2.23a1.016,1.016,0,1,0,0-2.031H116.4a1.016,1.016,0,1,0,0,2.031Z" transform="translate(-115.383 -239.986)" fill="#fff"/>
            <path id="Trazado_1030380" data-name="Trazado 1030380" d="M166.743,271.8h-2.23a1.016,1.016,0,1,0,0,2.031h2.23a1.016,1.016,0,1,0,0-2.031Z" transform="translate(-157.198 -239.986)" fill="#fff"/>
            <path id="Trazado_1030381" data-name="Trazado 1030381" d="M214.856,271.8h-2.23a1.016,1.016,0,1,0,0,2.031h2.23a1.016,1.016,0,1,0,0-2.031Z" transform="translate(-199.013 -239.986)" fill="#fff"/>
            <path id="Trazado_1030382" data-name="Trazado 1030382" d="M116.4,313.982h2.23a1.016,1.016,0,0,0,0-2.031H116.4a1.016,1.016,0,1,0,0,2.031Z" transform="translate(-115.383 -274.878)" fill="#fff"/>
            <path id="Trazado_1030383" data-name="Trazado 1030383" d="M166.743,311.951h-2.23a1.016,1.016,0,1,0,0,2.031h2.23a1.016,1.016,0,1,0,0-2.031Z" transform="translate(-157.198 -274.878)" fill="#fff"/>
            <path id="Trazado_1030384" data-name="Trazado 1030384" d="M214.856,311.951h-2.23a1.016,1.016,0,1,0,0,2.031h2.23a1.016,1.016,0,1,0,0-2.031Z" transform="translate(-199.013 -274.878)" fill="#fff"/>
            <path id="Trazado_1030385" data-name="Trazado 1030385" d="M116.4,354.131h2.23a1.016,1.016,0,1,0,0-2.031H116.4a1.016,1.016,0,1,0,0,2.031Z" transform="translate(-115.383 -309.77)" fill="#fff"/>
            <path id="Trazado_1030386" data-name="Trazado 1030386" d="M166.743,352.1h-2.23a1.016,1.016,0,1,0,0,2.031h2.23a1.016,1.016,0,1,0,0-2.031Z" transform="translate(-157.198 -309.77)" fill="#fff"/>
            <path id="Trazado_1030387" data-name="Trazado 1030387" d="M214.856,352.1h-2.23a1.016,1.016,0,1,0,0,2.031h2.23a1.016,1.016,0,1,0,0-2.031Z" transform="translate(-199.013 -309.77)" fill="#fff"/>
            <path id="Trazado_1030388" data-name="Trazado 1030388" d="M116.4,394.28h2.23a1.016,1.016,0,0,0,0-2.031H116.4a1.016,1.016,0,1,0,0,2.031Z" transform="translate(-115.383 -344.663)" fill="#fff"/>
            <path id="Trazado_1030389" data-name="Trazado 1030389" d="M166.743,392.249h-2.23a1.016,1.016,0,1,0,0,2.031h2.23a1.016,1.016,0,0,0,0-2.031Z" transform="translate(-157.198 -344.663)" fill="#fff"/>
            <path id="Trazado_1030390" data-name="Trazado 1030390" d="M214.856,392.249h-2.23a1.016,1.016,0,1,0,0,2.031h2.23a1.016,1.016,0,0,0,0-2.031Z" transform="translate(-199.013 -344.663)" fill="#fff"/>
            <path id="Trazado_1030391" data-name="Trazado 1030391" d="M116.4,221.69h1.115a1.016,1.016,0,1,0,0-2.031H116.4a1.016,1.016,0,1,0,0,2.031Z" transform="translate(-115.383 -194.668)" fill="#fff"/>
            <path id="Trazado_1030392" data-name="Trazado 1030392" d="M222.258,219.659h-1.115a1.016,1.016,0,0,0,0,2.031h1.115a1.016,1.016,0,1,0,0-2.031Z" transform="translate(-206.414 -194.668)" fill="#fff"/>
          </g>
          <path id="Trazado_1030393" data-name="Trazado 1030393" d="M342.75,252.348h-8.04a1.016,1.016,0,1,0,0,2.031h8.04a1.016,1.016,0,0,0,0-2.031Z" transform="translate(-305.114 -223.078)" fill="#e7ecf1"/>
          <path id="Trazado_1030394" data-name="Trazado 1030394" d="M352.264,225.813H347.6a1.016,1.016,0,1,0,0,2.031h4.665a1.016,1.016,0,0,0,0-2.031Z" transform="translate(-316.314 -200.017)" fill="#e7ecf1"/>
          <path id="Trazado_1030395" data-name="Trazado 1030395" d="M352.264,280.914a1.016,1.016,0,0,0,0-2.031H347.6a1.016,1.016,0,1,0,0,2.031Z" transform="translate(-316.314 -246.139)" fill="#e7ecf1"/>
          <path id="Trazado_1030396" data-name="Trazado 1030396" d="M307.886,455.233a1.016,1.016,0,0,0,0,2.031h2.23a1.016,1.016,0,1,0,0-2.031Z" transform="translate(-281.801 -399.401)" fill="#e7ecf1"/>
          <path id="Trazado_1030397" data-name="Trazado 1030397" d="M356.261,455.233a1.016,1.016,0,1,0,0,2.031h2.23a1.016,1.016,0,1,0,0-2.031Z" transform="translate(-323.842 -399.401)" fill="#e7ecf1"/>
          <path id="Trazado_1030398" data-name="Trazado 1030398" d="M403.621,456.249a1.015,1.015,0,0,0,1.016,1.016h2.23a1.016,1.016,0,1,0,0-2.031h-2.23A1.015,1.015,0,0,0,403.621,456.249Z" transform="translate(-365.885 -399.401)" fill="#e7ecf1"/>
        </g>
      </g>
      <g id="impresora" transform="translate(-12081.089 200.773)">
        <path id="Trazado_1030420" data-name="Trazado 1030420" d="M116.862,90.7H59.778V71.074a2.247,2.247,0,0,1,2.247-2.247h52.59a2.247,2.247,0,0,1,2.247,2.247V90.7Z" transform="translate(-51.007 -58.816)" fill="#444"/>
        <path id="Trazado_1030421" data-name="Trazado 1030421" d="M148.29,29.984H104.1V1.5A1.5,1.5,0,0,1,105.6,0h41.194a1.5,1.5,0,0,1,1.5,1.5Z" transform="translate(-88.883)" fill="#9ed7ef"/>
        <path id="Trazado_1030422" data-name="Trazado 1030422" d="M70.343,235.7H4.283A4.194,4.194,0,0,1,.089,231.5V206.137H74.537V231.5A4.194,4.194,0,0,1,70.343,235.7Z" transform="translate(0 -176.153)" fill="#bfbfbf"/>
        <path id="Trazado_1030423" data-name="Trazado 1030423" d="M65.482,300.232V283.455a1.8,1.8,0,0,1,1.8-1.8h51.829a1.8,1.8,0,0,1,1.8,1.8v16.778Z" transform="translate(-55.881 -240.688)" fill="#5a5a5a"/>
        <path id="Trazado_1030424" data-name="Trazado 1030424" d="M146.793,344.584H105.6a1.5,1.5,0,0,1-1.5-1.5v-27H148.29v27A1.5,1.5,0,0,1,146.793,344.584Z" transform="translate(-88.883 -270.11)" fill="#9ed7ef"/>
        <g id="Grupo_1184618" data-name="Grupo 1184618" transform="translate(21.546 51.013)">
          <path id="Trazado_1030425" data-name="Trazado 1030425" d="M178.014,352.955H148.727a1.124,1.124,0,1,1,0-2.247h29.287a1.124,1.124,0,1,1,0,2.247Z" transform="translate(-147.604 -350.708)" fill="#528fd8"/>
        </g>
        <g id="Grupo_1184619" data-name="Grupo 1184619" transform="translate(37.088 56.406)">
          <path id="Trazado_1030426" data-name="Trazado 1030426" d="M269.323,390.029H255.578a1.124,1.124,0,0,1,0-2.247h13.745a1.124,1.124,0,0,1,0,2.247Z" transform="translate(-254.455 -387.782)" fill="#528fd8"/>
        </g>
        <g id="Grupo_1184620" data-name="Grupo 1184620" transform="translate(37.088 61.798)">
          <path id="Trazado_1030427" data-name="Trazado 1030427" d="M269.323,427.1H255.578a1.124,1.124,0,0,1,0-2.247h13.745a1.124,1.124,0,0,1,0,2.247Z" transform="translate(-254.455 -424.856)" fill="#528fd8"/>
        </g>
        <g id="Grupo_1184621" data-name="Grupo 1184621" transform="translate(37.088 67.191)">
          <path id="Trazado_1030428" data-name="Trazado 1030428" d="M269.323,464.176H255.578a1.124,1.124,0,1,1,0-2.247h13.745a1.124,1.124,0,1,1,0,2.247Z" transform="translate(-254.455 -461.929)" fill="#528fd8"/>
        </g>
        <path id="Trazado_1030429" data-name="Trazado 1030429" d="M165.364,406.292h-9.287a.749.749,0,0,1-.749-.749v-9.287a.749.749,0,0,1,.749-.749h9.287a.749.749,0,0,1,.749.749v9.287A.749.749,0,0,1,165.364,406.292Z" transform="translate(-132.658 -337.978)" fill="#528fd8"/>
        <path id="Trazado_1030430" data-name="Trazado 1030430" d="M446.4,206.136V231.5a4.194,4.194,0,0,1-4.194,4.194h5.945a4.194,4.194,0,0,0,4.194-4.194V206.136Z" transform="translate(-377.81 -176.152)" fill="#acacac"/>
        <path id="Trazado_1030431" data-name="Trazado 1030431" d="M74.537,165.361H.089v-7.888a4.194,4.194,0,0,1,4.194-4.194h66.06a4.194,4.194,0,0,1,4.194,4.194v7.888Z" transform="translate(0 -130.983)" fill="#838383"/>
        <path id="Trazado_1030432" data-name="Trazado 1030432" d="M448.152,153.277h-5.945a4.194,4.194,0,0,1,4.194,4.194v7.888h5.945v-7.888A4.194,4.194,0,0,0,448.152,153.277Z" transform="translate(-377.809 -130.982)" fill="#5a5a5a"/>
        <path id="Trazado_1030433" data-name="Trazado 1030433" d="M412.183,184.587h-5.468a2.1,2.1,0,1,1,0-4.194h5.468a2.1,2.1,0,1,1,0,4.194Z" transform="translate(-345.688 -154.154)" fill="#e94444"/>
      </g>
      <g id="videollamada" transform="translate(-12177.781 51.442)">
        <path id="Trazado_1030202" data-name="Trazado 1030202" d="M149.019,0H118.133A5.032,5.032,0,0,0,113.1,5.032v63.3a5.032,5.032,0,0,0,5.032,5.032h30.886a5.032,5.032,0,0,0,5.032-5.032V5.032A5.032,5.032,0,0,0,149.019,0Z" transform="translate(-0.001)" fill="#3f6d8e"/>
        <path id="Trazado_1030203" data-name="Trazado 1030203" d="M117.913,68.329V5.032A5.032,5.032,0,0,1,122.946,0h-4.813A5.032,5.032,0,0,0,113.1,5.032v63.3a5.032,5.032,0,0,0,5.032,5.032h4.813A5.032,5.032,0,0,1,117.913,68.329Z" fill="#365e7d"/>
        <g id="Grupo_1184544" data-name="Grupo 1184544" transform="translate(128.762 2.691)">
          <path id="Trazado_1030204" data-name="Trazado 1030204" d="M230.926,21h-7.413a1.107,1.107,0,0,1,0-2.214h7.413a1.107,1.107,0,1,1,0,2.214Z" transform="translate(-222.406 -18.781)" fill="#365e7d"/>
        </g>
        <path id="Trazado_1030205" data-name="Trazado 1030205" d="M145.1,90.264h31.78v39.613H145.1Z" transform="translate(-27.416 -77.331)" fill="#e4f6ff"/>
        <path id="Trazado_1030206" data-name="Trazado 1030206" d="M145.1,90.264h5.757v39.613H145.1Z" transform="translate(-27.416 -77.331)" fill="#d3effb"/>
        <circle id="Elipse_13695" data-name="Elipse 13695" cx="2.366" cy="2.366" r="2.366" transform="translate(131.21 64.802)" fill="#365e7d"/>
        <g id="Grupo_1184545" data-name="Grupo 1184545" transform="translate(117.685 44.299)">
          <path id="Trazado_1030207" data-name="Trazado 1030207" d="M173.518,312.022l-7.312-2.832a6.129,6.129,0,0,1-5.126,2.777,6.2,6.2,0,0,1-5.318-2.8l-7.3,2.85a5.759,5.759,0,0,0-3.363,5.217V321.2h5.625v4.643h20.53V321.2h5.625v-3.964A5.741,5.741,0,0,0,173.518,312.022Z" transform="translate(-145.102 -309.172)" fill="#ffd453"/>
        </g>
        <path id="Trazado_1030208" data-name="Trazado 1030208" d="M150.859,337.3V322.538l-2.394.935a5.759,5.759,0,0,0-3.363,5.217v3.964h5.625V337.3h.132Z" transform="translate(-27.417 -276.323)" fill="#ffd453"/>
        <path id="Trazado_1030209" data-name="Trazado 1030209" d="M326.61,396.9h5.326a.447.447,0,0,0,.447-.447v-4.344H326.61Z" transform="translate(-182.917 -335.923)" fill="#ffcebe"/>
        <path id="Trazado_1030210" data-name="Trazado 1030210" d="M145.1,396.449a.448.448,0,0,0,.447.447h5.326v-4.791H145.1Z" transform="translate(-27.416 -335.923)" fill="#ffb1a0"/>
        <path id="Trazado_1030211" data-name="Trazado 1030211" d="M227.711,288.8v-2.119a6.478,6.478,0,0,1-3.344.926,6.877,6.877,0,0,1-3.537-.937V288.8a.572.572,0,0,1-.265.5l-1.6.624a6.2,6.2,0,0,0,5.4,2.913,6.134,6.134,0,0,0,5.2-2.894l-1.457-.564A.622.622,0,0,1,227.711,288.8Z" transform="translate(-90.697 -245.596)" fill="#ffcebe"/>
        <path id="Trazado_1030212" data-name="Trazado 1030212" d="M224.265,287.606a6.863,6.863,0,0,1-3.436-.934V288.8a.572.572,0,0,1-.265.5l-1.6.624a6.186,6.186,0,0,0,5.3,2.91Z" transform="translate(-90.696 -245.596)" fill="#ffb1a0"/>
        <path id="Trazado_1030213" data-name="Trazado 1030213" d="M150.858,53.256h-5.31a.447.447,0,0,0-.447.447V59h5.757l.341-.315V53.668Z" transform="translate(-27.416 -45.625)" fill="#6cb9ff"/>
        <path id="Trazado_1030214" data-name="Trazado 1030214" d="M210.858,53.256H185.282V59H211.3V53.7a.447.447,0,0,0-.447-.447Z" transform="translate(-61.839 -45.625)" fill="#b1e4f9"/>
        <path id="Trazado_1030215" data-name="Trazado 1030215" d="M179.878,367.246V358.6a1.107,1.107,0,0,0-2.214,0v8.642Z" transform="translate(-55.313 -306.273)" fill="#d4953a"/>
        <path id="Trazado_1030216" data-name="Trazado 1030216" d="M321.1,367.246V358.6a1.107,1.107,0,0,0-2.214,0v8.642Z" transform="translate(-176.298 -306.273)" fill="#d4953a"/>
        <path id="Trazado_1030217" data-name="Trazado 1030217" d="M220.912,202.374a.115.115,0,0,0-.217-.055,4.329,4.329,0,0,1-3.821,2.292h-7.022v4.309a6.613,6.613,0,0,0,13.225,0v-4.313a2.242,2.242,0,0,1-2.165-2.233Z" transform="translate(-82.889 -173.278)" fill="#ffdecf"/>
        <path id="Trazado_1030218" data-name="Trazado 1030218" d="M213.984,222.989V218.68h-4.133v4.309a6.681,6.681,0,0,0,8.706,6.2A6.475,6.475,0,0,1,213.984,222.989Z" transform="translate(-82.888 -187.347)" fill="#ffcebe"/>
        <path id="Trazado_1030219" data-name="Trazado 1030219" d="M209.134,147.439a1.145,1.145,0,0,1-1.237-.9c-.19-.971-.671-1.935-2.55-1.935h-6.518a4.331,4.331,0,0,0-4.331,4.331v4.754a1.824,1.824,0,0,0,1.824,1.824h7.4a4.329,4.329,0,0,0,3.821-2.292.115.115,0,0,1,.217.055,2.243,2.243,0,0,0,2.237,2.237,1.176,1.176,0,0,0,1.173-1.173v-4.961A1.943,1.943,0,0,0,209.134,147.439Z" transform="translate(-69.735 -123.884)" fill="#b06c6c"/>
        <g id="Grupo_1184546" data-name="Grupo 1184546" transform="translate(124.763 20.719)">
          <path id="Trazado_1030220" data-name="Trazado 1030220" d="M198.63,153.689v-4.754a4.332,4.332,0,0,1,4.331-4.331h-4.133a4.331,4.331,0,0,0-4.331,4.331v4.754a1.824,1.824,0,0,0,1.824,1.824h4.133A1.824,1.824,0,0,1,198.63,153.689Z" transform="translate(-194.497 -144.604)" fill="#9d5e5e"/>
        </g>
      </g>
      <g id="Grupo_1187146" data-name="Grupo 1187146" transform="translate(-12277 107.995)">
        <path id="Trazado_1034096" data-name="Trazado 1034096" d="M37.893,34.627,20.52,45.542l-.648,2.768,1.5,2.417,2.77.646L39.871,41.5H59.7l15.728,9.875,2.768-.646,1.5-2.417-.645-2.768L61.681,34.627Z" transform="translate(3.272 5.701)" fill="#7dd2e3"/>
        <path id="Trazado_1034097" data-name="Trazado 1034097" d="M68.358,17.076H35.231l-26.9,16.9-.645,2.771,1.5,2.415,2.77.646L37.209,23.946h29.17L91.634,39.8l2.772-.646,1.5-2.415-.645-2.771Z" transform="translate(1.265 2.811)" fill="#7dd2e3"/>
        <path id="Trazado_1034098" data-name="Trazado 1034098" d="M33.151,0,.646,20.414,0,23.183,1.5,25.6l2.771.646L35.127,6.87H70.992l30.855,19.375,2.771-.646,1.5-2.415-.648-2.77L72.971,0Z" fill="#7dd2e3"/>
      </g>
      <g id="Grupo_1187148-2" data-name="Grupo 1187148" transform="matrix(0.914, 0.407, -0.407, 0.914, -1005.002, 5035.877)">
        <path id="Trazado_1034012" data-name="Trazado 1034012" d="M62.582,4.466H59.549V0h3.033Zm-8.988,0H47.641V0h5.953Zm-11.908,0H35.73V0h5.955Zm-11.91,0H23.82V0h5.955Zm-11.91,0H11.91V0h5.955Zm-11.91,0H0V0H5.955Z" transform="matrix(1, -0.017, 0.017, 1, -12433.396, 127.354)" fill="#1f3596"/>
        <path id="Trazado_1034012-2" data-name="Trazado 1034012" d="M62.582,4.466H59.549V0h3.033Zm-8.988,0H47.641V0h5.953Zm-11.908,0H35.73V0h5.955Zm-11.91,0H23.82V0h5.955Zm-11.91,0H11.91V0h5.955Zm-11.91,0H0V0H5.955Z" transform="matrix(-1, 0.017, -0.017, -1, -12362.934, 152.316)" fill="#1f3596"/>
        <path id="Polígono_14" data-name="Polígono 14" d="M7.444,0l7.444,13.4H0Z" transform="matrix(-0.017, -1, 1, -0.017, -12444.324, 136.894)" fill="#1f3596"/>
        <path id="Polígono_15" data-name="Polígono 15" d="M7.444,0l7.444,13.4H0Z" transform="matrix(0.017, 1, -1, 0.017, -12352.005, 142.776)" fill="#1f3596"/>
      </g>
      <g id="Grupo_1187151" data-name="Grupo 1187151" transform="matrix(-0.914, -0.407, 0.407, -0.914, -23515.377, -4677.032)">
        <path id="Trazado_1034012-3" data-name="Trazado 1034012" d="M62.582,4.466H59.549V0h3.033Zm-8.988,0H47.641V0h5.953Zm-11.908,0H35.73V0h5.955Zm-11.91,0H23.82V0h5.955Zm-11.91,0H11.91V0h5.955Zm-11.91,0H0V0H5.955Z" transform="matrix(1, -0.017, 0.017, 1, -12433.396, 127.354)" fill="#1f3596"/>
        <path id="Trazado_1034012-4" data-name="Trazado 1034012" d="M62.582,4.466H59.549V0h3.033Zm-8.988,0H47.641V0h5.953Zm-11.908,0H35.73V0h5.955Zm-11.91,0H23.82V0h5.955Zm-11.91,0H11.91V0h5.955Zm-11.91,0H0V0H5.955Z" transform="matrix(-1, 0.017, -0.017, -1, -12362.934, 152.316)" fill="#1f3596"/>
        <path id="Polígono_14-2" data-name="Polígono 14" d="M7.444,0l7.444,13.4H0Z" transform="matrix(-0.017, -1, 1, -0.017, -12444.324, 136.894)" fill="#1f3596"/>
        <path id="Polígono_15-2" data-name="Polígono 15" d="M7.444,0l7.444,13.4H0Z" transform="matrix(0.017, 1, -1, 0.017, -12352.005, 142.776)" fill="#1f3596"/>
      </g>
      <g id="Grupo_1187149" data-name="Grupo 1187149" transform="matrix(-0.914, 0.407, -0.407, -0.914, -12068.966, 118.453)">
        <path id="Trazado_1034012-5" data-name="Trazado 1034012" d="M62.582,0H59.549V4.466h3.033ZM53.594,0H47.641V4.466h5.953ZM41.686,0H35.731V4.466h5.955ZM29.776,0H23.82V4.466h5.955ZM17.865,0H11.91V4.466h5.955ZM5.955,0H0V4.466H5.955Z" transform="matrix(1, 0.017, -0.017, 1, 11.266, 26.075)" fill="#1f3596"/>
        <path id="Trazado_1034012-6" data-name="Trazado 1034012" d="M62.582,0H59.549V4.466h3.033ZM53.594,0H47.641V4.466h5.953ZM41.686,0H35.731V4.466h5.955ZM29.776,0H23.82V4.466h5.955ZM17.865,0H11.91V4.466h5.955ZM5.955,0H0V4.466H5.955Z" transform="matrix(-1, -0.017, 0.017, -1, 81.573, 10.045)" fill="#1f3596"/>
        <path id="Polígono_14-3" data-name="Polígono 14" d="M7.444,0l7.444,13.4H0Z" transform="matrix(0.017, -1, 1, 0.017, 0, 35.885)" fill="#1f3596"/>
        <path id="Polígono_15-3" data-name="Polígono 15" d="M7.444,0l7.444,13.4H0Z" transform="matrix(-0.017, 1, -1, -0.017, 92.839, 0.234)" fill="#1f3596"/>
      </g>
      <g id="Grupo_1187150" data-name="Grupo 1187150" transform="matrix(0.914, -0.407, 0.407, 0.914, -12451.412, 240.392)">
        <path id="Trazado_1034012-7" data-name="Trazado 1034012" d="M62.582,0H59.549V4.466h3.033ZM53.594,0H47.641V4.466h5.953ZM41.686,0H35.731V4.466h5.955ZM29.776,0H23.82V4.466h5.955ZM17.865,0H11.91V4.466h5.955ZM5.955,0H0V4.466H5.955Z" transform="matrix(1, 0.017, -0.017, 1, 11.266, 26.075)" fill="#1f3596"/>
        <path id="Trazado_1034012-8" data-name="Trazado 1034012" d="M62.582,0H59.549V4.466h3.033ZM53.594,0H47.641V4.466h5.953ZM41.686,0H35.731V4.466h5.955ZM29.776,0H23.82V4.466h5.955ZM17.865,0H11.91V4.466h5.955ZM5.955,0H0V4.466H5.955Z" transform="matrix(-1, -0.017, 0.017, -1, 81.573, 10.045)" fill="#1f3596"/>
        <path id="Polígono_14-4" data-name="Polígono 14" d="M7.444,0l7.444,13.4H0Z" transform="matrix(0.017, -1, 1, 0.017, 0, 35.885)" fill="#1f3596"/>
        <path id="Polígono_15-4" data-name="Polígono 15" d="M7.444,0l7.444,13.4H0Z" transform="matrix(-0.017, 1, -1, -0.017, 92.839, 0.234)" fill="#1f3596"/>
      </g>
    </g>
  </g>
</svg>
