<svg xmlns="http://www.w3.org/2000/svg" width="90" height="90" viewBox="0 0 90 90">
  <g id="Grupo_1186443" data-name="Grupo 1186443" transform="translate(-332.711 -1334)">
    <circle id="Elipse_13738" data-name="Elipse 13738" cx="45" cy="45" r="45" transform="translate(332.711 1334)" fill="#fff"/>
    <g id="desarrollo-web_3_" data-name="desarrollo-web (3)" transform="translate(350.676 1352)">
      <path id="Trazado_1032819" data-name="Trazado 1032819" d="M18,46H39.153v5.288H18Z" transform="translate(-1.542 -5.338)" fill="#afb5bf"/>
      <path id="Trazado_1032820" data-name="Trazado 1032820" d="M44.325,54.526a.761.761,0,0,0-.273-.256L38.323,51H17.17l-5.729,3.27a.761.761,0,0,0-.273.256.881.881,0,0,0-.167.511V57.17a.881.881,0,0,0,.881.881h31.73a.881.881,0,0,0,.881-.881V55.037A.881.881,0,0,0,44.325,54.526Z" transform="translate(-0.712 -5.931)" fill="#ccd0da"/>
      <path id="Trazado_1032821" data-name="Trazado 1032821" d="M44.493,55.511v2.133a.881.881,0,0,1-.881.881H11.881A.881.881,0,0,1,11,57.644V55.511A.881.881,0,0,1,11.167,55H44.325A.881.881,0,0,1,44.493,55.511Z" transform="translate(-0.712 -6.405)" fill="#afb5bf"/>
      <path id="Trazado_1032822" data-name="Trazado 1032822" d="M49.069,38.763V43.17a2.644,2.644,0,0,1-2.644,2.644H7.644A2.644,2.644,0,0,1,5,43.17V38.763L6.763,37H48.188Z" transform="translate(0 -4.27)" fill="#ccd0da"/>
      <path id="Trazado_1032823" data-name="Trazado 1032823" d="M49.069,7.644V34.967H5V7.644A2.644,2.644,0,0,1,7.644,5H46.425A2.644,2.644,0,0,1,49.069,7.644Z" transform="translate(0 -0.474)" fill="#2c7e9b"/>
      <path id="Trazado_1032824" data-name="Trazado 1032824" d="M45.255,9V28.391a1.768,1.768,0,0,1-1.763,1.763H11.763A1.768,1.768,0,0,1,10,28.391V9Z" transform="translate(-0.593 -0.949)" fill="#d6dbe3"/>
      <g id="Grupo_1186446" data-name="Grupo 1186446" transform="translate(9.407 1)">
        <path id="Trazado_1032825" data-name="Trazado 1032825" d="M45.255,2.763V8.051H10V2.763A1.768,1.768,0,0,1,11.763,1h31.73a1.768,1.768,0,0,1,1.763,1.763Z" transform="translate(-10 -1)" fill="#235f6d"/>
        <path id="Trazado_1032826" data-name="Trazado 1032826" d="M20.288,25.579a1.754,1.754,0,0,1-1.246-.516l-3.526-3.526a1.763,1.763,0,0,1,0-2.493l3.459-3.459a1.826,1.826,0,0,1,2.332-.258,1.763,1.763,0,0,1,.227,2.685l-1.967,1.967a.441.441,0,0,0,0,.624l1.888,1.891a1.839,1.839,0,0,1,.176,2.468,1.757,1.757,0,0,1-1.343.617Z" transform="translate(-10.593 -2.663)" fill="#235f6d"/>
        <path id="Trazado_1032827" data-name="Trazado 1032827" d="M38.763,25.579a1.754,1.754,0,0,0,1.246-.516l3.526-3.526a1.763,1.763,0,0,0,0-2.493l-3.459-3.459a1.828,1.828,0,0,0-2.333-.258,1.763,1.763,0,0,0-.226,2.685l1.967,1.967a.441.441,0,0,1,0,.624L37.6,22.494a1.839,1.839,0,0,0-.176,2.468,1.757,1.757,0,0,0,1.343.617Z" transform="translate(-13.202 -2.663)" fill="#235f6d"/>
        <path id="Trazado_1032828" data-name="Trazado 1032828" d="M28.763,25.577a1.763,1.763,0,0,1-1.711-2.19l1.763-7.051a1.763,1.763,0,1,1,3.42.855l-1.763,7.051a1.763,1.763,0,0,1-1.709,1.335Z" transform="translate(-12.016 -2.661)" fill="#235f6d"/>
      </g>
      <path id="Trazado_1032829" data-name="Trazado 1032829" d="M31.407,43.763H27.881a.881.881,0,1,1,0-1.763h3.526a.881.881,0,1,1,0,1.763Z" transform="translate(-2.609 -4.863)" fill="#8991a0"/>
      <path id="Trazado_1032830" data-name="Trazado 1032830" d="M14.763,5.763h-.881a.881.881,0,0,1,0-1.763h.881a.881.881,0,0,1,0,1.763Z" transform="translate(-0.949 -0.356)" fill="#f8536c"/>
      <path id="Trazado_1032831" data-name="Trazado 1032831" d="M19.763,5.763h-.881a.881.881,0,0,1,0-1.763h.881a.881.881,0,1,1,0,1.763Z" transform="translate(-1.542 -0.356)" fill="#fccb55"/>
      <path id="Trazado_1032832" data-name="Trazado 1032832" d="M24.763,5.763h-.881a.881.881,0,0,1,0-1.763h.881a.881.881,0,0,1,0,1.763Z" transform="translate(-2.135 -0.356)" fill="#a9dc62"/>
      <path id="Trazado_1032833" data-name="Trazado 1032833" d="M44.814,5.763H36.881a.881.881,0,0,1,0-1.763h7.932a.881.881,0,0,1,0,1.763Z" transform="translate(-3.677 -0.356)" fill="#1e505b"/>
    </g>
  </g>
</svg>
