<svg xmlns="http://www.w3.org/2000/svg" xmlns:xlink="http://www.w3.org/1999/xlink" width="292" height="224" viewBox="0 0 292 224">
  <defs>
    <clipPath id="clip-path">
      <rect id="Rectángulo_458416" data-name="Rectángulo 458416" width="283.289" height="204.726" fill="none"/>
    </clipPath>
    <clipPath id="clip-path-3">
      <rect id="Rectángulo_458386" data-name="Rectángulo 458386" width="45.815" height="47.152" fill="none"/>
    </clipPath>
    <clipPath id="clip-path-4">
      <rect id="Rectángulo_458387" data-name="Rectángulo 458387" width="64.337" height="31.101" fill="none"/>
    </clipPath>
    <clipPath id="clip-path-5">
      <path id="Trazado_1030597" data-name="Trazado 1030597" d="M111.309,356l3.471,27.288h18.368L136.619,356Z" transform="translate(-111.309 -356.003)" fill="none"/>
    </clipPath>
    <clipPath id="clip-path-7">
      <rect id="Rectángulo_458399" data-name="Rectángulo 458399" width="8.921" height="8.921" fill="none"/>
    </clipPath>
    <clipPath id="clip-path-8">
      <rect id="Rectángulo_458400" data-name="Rectángulo 458400" width="5.82" height="5.82" fill="none"/>
    </clipPath>
    <clipPath id="clip-path-9">
      <rect id="Rectángulo_458401" data-name="Rectángulo 458401" width="2.81" height="2.81" fill="none"/>
    </clipPath>
    <clipPath id="clip-path-10">
      <rect id="Rectángulo_458402" data-name="Rectángulo 458402" width="7.233" height="7.233" fill="none"/>
    </clipPath>
    <clipPath id="clip-path-11">
      <rect id="Rectángulo_458403" data-name="Rectángulo 458403" width="16.054" height="16.054" fill="none"/>
    </clipPath>
    <clipPath id="clip-path-12">
      <rect id="Rectángulo_458404" data-name="Rectángulo 458404" width="2.253" height="2.253" fill="none"/>
    </clipPath>
    <clipPath id="clip-path-13">
      <rect id="Rectángulo_458405" data-name="Rectángulo 458405" width="31.127" height="3.694" fill="none"/>
    </clipPath>
  </defs>
  <g id="Grupo_1184782" data-name="Grupo 1184782" transform="translate(-289.711 -1964)">
    <rect id="Rectángulo_458322" data-name="Rectángulo 458322" width="292" height="224" transform="translate(289.711 1964)" fill="#a4e7f0"/>
    <g id="Grupo_1184781" data-name="Grupo 1184781" transform="translate(-213 -243)">
      <g id="Grupo_1184780" data-name="Grupo 1184780" transform="translate(506.711 2217)">
        <g id="Grupo_1184779" data-name="Grupo 1184779" clip-path="url(#clip-path)">
          <g id="Grupo_1184753" data-name="Grupo 1184753">
            <g id="Grupo_1184752" data-name="Grupo 1184752" clip-path="url(#clip-path)">
              <g id="Grupo_1184748" data-name="Grupo 1184748" transform="translate(153.866)" opacity="0.3">
                <g id="Grupo_1184747" data-name="Grupo 1184747">
                  <g id="Grupo_1184746" data-name="Grupo 1184746" clip-path="url(#clip-path-3)">
                    <path id="Trazado_1030535" data-name="Trazado 1030535" d="M359.726,23.575a17.789,17.789,0,0,0-.767-5.176l5.87-2.3-4.98-8.625-4.93,3.938a17.784,17.784,0,0,0-8.963-5.178L346.9,0h-9.96l.945,6.235a17.787,17.787,0,0,0-8.964,5.177l-4.929-3.937L319.013,16.1l5.867,2.3a17.858,17.858,0,0,0,0,10.357l-5.867,2.3,4.979,8.625,4.928-3.936a17.783,17.783,0,0,0,8.965,5.178l-.945,6.233h9.96l-.945-6.233a17.773,17.773,0,0,0,8.963-5.18l4.929,3.938,4.98-8.625-5.87-2.3a17.808,17.808,0,0,0,.767-5.179m-17.8,11.669A11.669,11.669,0,1,1,353.59,23.575a11.667,11.667,0,0,1-11.669,11.669" transform="translate(-319.013)" fill="#8f93f9"/>
                  </g>
                </g>
              </g>
              <path id="Trazado_1030536" data-name="Trazado 1030536" d="M194.374,217.2a6.729,6.729,0,0,0-.29-1.955l2.217-.868-1.881-3.258-1.862,1.487a6.719,6.719,0,0,0-3.386-1.956l.357-2.356h-3.763l.357,2.356a6.722,6.722,0,0,0-3.386,1.956l-1.862-1.487-1.882,3.258,2.217.868a6.746,6.746,0,0,0,0,3.913l-2.217.868,1.882,3.259,1.861-1.487a6.718,6.718,0,0,0,3.387,1.956l-.357,2.355h3.763l-.357-2.355a6.718,6.718,0,0,0,3.386-1.957l1.862,1.487,1.881-3.259-2.217-.868a6.733,6.733,0,0,0,.29-1.956m-6.726,4.408a4.408,4.408,0,1,1,4.408-4.408,4.408,4.408,0,0,1-4.408,4.408" transform="translate(-92.662 -107.83)" fill="#4d89f5"/>
              <path id="Trazado_1030537" data-name="Trazado 1030537" d="M290.94,196.887H228.172A5.882,5.882,0,0,1,222.29,191V69.133a5.882,5.882,0,0,1,5.882-5.882H290.94a5.882,5.882,0,0,1,5.882,5.882V191a5.882,5.882,0,0,1-5.882,5.882" transform="translate(-115.075 -32.744)" fill="#fff"/>
              <path id="Trazado_1030538" data-name="Trazado 1030538" d="M379.616,114.161h-2.67V100.529h2.67a.843.843,0,0,1,.843.843v11.946a.843.843,0,0,1-.843.843" transform="translate(-195.138 -52.042)" fill="#0e1530"/>
              <path id="Trazado_1030539" data-name="Trazado 1030539" d="M215.722,114.161h2.67V100.529h-2.67a.843.843,0,0,0-.843.843v11.946a.843.843,0,0,0,.843.843" transform="translate(-111.239 -52.042)" fill="#0e1530"/>
              <path id="Trazado_1030540" data-name="Trazado 1030540" d="M379.616,146.941h-2.67V133.309h2.67a.843.843,0,0,1,.843.843V146.1a.843.843,0,0,1-.843.843" transform="translate(-195.138 -69.012)" fill="#0e1530"/>
              <path id="Trazado_1030541" data-name="Trazado 1030541" d="M287.831,46.334H227.378a8.858,8.858,0,0,0-8.857,8.858v136.3a8.859,8.859,0,0,0,8.859,8.859h60.451a8.858,8.858,0,0,0,8.858-8.858V55.192a8.858,8.858,0,0,0-8.858-8.858M222.157,181.953V60.474a4.019,4.019,0,0,1,4.02-4.02h62.857a4.019,4.019,0,0,1,4.02,4.02v121.48a4.02,4.02,0,0,1-4.02,4.02H226.176a4.019,4.019,0,0,1-4.02-4.02" transform="translate(-113.124 -23.986)" fill="#8f93f9"/>
              <path id="Trazado_1030542" data-name="Trazado 1030542" d="M300.253,56.906H278.326a.843.843,0,1,1,0-1.685h21.927a.843.843,0,0,1,0,1.685" transform="translate(-143.648 -28.587)" fill="#0e1530"/>
              <path id="Trazado_1030543" data-name="Trazado 1030543" d="M296.032,348.734H281.378a2.781,2.781,0,0,1-2.781-2.781h0a2.781,2.781,0,0,1,2.781-2.781h14.655a2.781,2.781,0,0,1,2.781,2.781h0a2.781,2.781,0,0,1-2.781,2.781" transform="translate(-144.224 -177.654)" fill="#0e1530"/>
              <path id="Trazado_1030544" data-name="Trazado 1030544" d="M372,80.448H326.545a3.056,3.056,0,0,0-3.056,3.056V94.116a3.056,3.056,0,0,0,3.056,3.056h1.932V100.8a.5.5,0,0,0,.852.353l3.978-3.977H372a3.056,3.056,0,0,0,3.056-3.056V83.5A3.056,3.056,0,0,0,372,80.448" transform="translate(-167.464 -41.646)" fill="#4d89f5"/>
              <path id="Trazado_1030545" data-name="Trazado 1030545" d="M388,91.046H356.847a.806.806,0,0,1,0-1.611H388a.806.806,0,0,1,0,1.611" transform="translate(-184.316 -46.299)" fill="#fff"/>
              <path id="Trazado_1030546" data-name="Trazado 1030546" d="M376.253,98.024h-19.4a.806.806,0,0,1,0-1.611h19.4a.806.806,0,0,1,0,1.611" transform="translate(-184.317 -49.911)" fill="#fff"/>
              <path id="Trazado_1030547" data-name="Trazado 1030547" d="M412.515,98.024h-8.309a.806.806,0,0,1,0-1.611h8.309a.806.806,0,0,1,0,1.611" transform="translate(-208.833 -49.911)" fill="#fff"/>
              <path id="Trazado_1030548" data-name="Trazado 1030548" d="M371.618,105h-14.77a.806.806,0,1,1,0-1.611h14.77a.806.806,0,0,1,0,1.611" transform="translate(-184.316 -53.524)" fill="#fff"/>
              <path id="Trazado_1030549" data-name="Trazado 1030549" d="M334.6,96.96h0a3.98,3.98,0,0,0-3.98,3.98v.4a.333.333,0,0,0,.333.333h7.293a.333.333,0,0,0,.333-.333v-.4a3.98,3.98,0,0,0-3.98-3.98" transform="translate(-171.156 -50.194)" fill="#0e1530"/>
              <path id="Trazado_1030550" data-name="Trazado 1030550" d="M338.747,89.74c0,.936-.759,2.124-1.694,2.124s-1.694-1.188-1.694-2.124a1.694,1.694,0,1,1,3.389,0" transform="translate(-173.608 -45.58)" fill="#0e1530"/>
              <path id="Trazado_1030551" data-name="Trazado 1030551" d="M152.154,150.573v8.6a2.214,2.214,0,0,0,2.218,2.217h33.785a2.214,2.214,0,0,0,2.218-2.217v-8.6a2.218,2.218,0,0,0-2.223-2.217H154.376a2.217,2.217,0,0,0-2.222,2.217" transform="translate(-78.767 -76.801)" fill="#fff"/>
              <path id="Trazado_1030552" data-name="Trazado 1030552" d="M152.154,150.573v8.6a2.214,2.214,0,0,0,2.218,2.217h33.785a2.214,2.214,0,0,0,2.218-2.217v-8.6a2.218,2.218,0,0,0-2.223-2.217H154.376A2.217,2.217,0,0,0,152.154,150.573Z" transform="translate(-78.767 -76.801)" fill="none" stroke="#000" stroke-miterlimit="10" stroke-width="0.75"/>
              <path id="Trazado_1030553" data-name="Trazado 1030553" d="M200.483,156.037H182.417a.667.667,0,0,1,0-1.335h18.066a.667.667,0,0,1,0,1.335" transform="translate(-94.089 -80.086)" fill="#0e1530"/>
              <path id="Trazado_1030554" data-name="Trazado 1030554" d="M190.753,161.817h-8.336a.667.667,0,0,1,0-1.335h8.336a.667.667,0,0,1,0,1.335" transform="translate(-94.089 -83.078)" fill="#0e1530"/>
              <path id="Trazado_1030555" data-name="Trazado 1030555" d="M212.486,161.817H205.6a.667.667,0,0,1,0-1.335h6.883a.667.667,0,0,1,0,1.335" transform="translate(-106.091 -83.078)" fill="#0e1530"/>
              <path id="Trazado_1030556" data-name="Trazado 1030556" d="M186.915,167.6h-4.5a.667.667,0,0,1,0-1.335h4.5a.667.667,0,0,1,0,1.335" transform="translate(-94.089 -86.071)" fill="#0e1530"/>
              <path id="Trazado_1030557" data-name="Trazado 1030557" d="M163.99,160.935h0a3.3,3.3,0,0,0-3.3,3.3v.332a.276.276,0,0,0,.276.276h6.041a.276.276,0,0,0,.276-.276v-.332a3.3,3.3,0,0,0-3.3-3.3" transform="translate(-83.188 -83.313)" fill="#0e1530"/>
              <path id="Trazado_1030558" data-name="Trazado 1030558" d="M167.425,155.332c0,.775-.628,1.759-1.4,1.759s-1.4-.984-1.4-1.759a1.4,1.4,0,1,1,2.807,0" transform="translate(-85.22 -79.686)" fill="#0e1530"/>
              <path id="Trazado_1030559" data-name="Trazado 1030559" d="M300.41,224.559a10.173,10.173,0,1,1-10.173-10.173,10.173,10.173,0,0,1,10.173,10.173" transform="translate(-144.984 -110.984)" fill="#4d89f5"/>
              <path id="Trazado_1030560" data-name="Trazado 1030560" d="M282.526,185.14a24.172,24.172,0,0,0-16,6.036,3.967,3.967,0,1,0,5.261,5.937,16.31,16.31,0,0,1,21.48,0,3.967,3.967,0,1,0,5.261-5.937,24.172,24.172,0,0,0-16-6.036" transform="translate(-137.273 -95.843)" fill="#4d89f5"/>
              <path id="Trazado_1030561" data-name="Trazado 1030561" d="M272.149,156.833a37.792,37.792,0,0,0-25.763,10.114,3.963,3.963,0,0,0-.1,5.705l0,0a3.958,3.958,0,0,0,5.487.113,29.936,29.936,0,0,1,40.739,0,3.958,3.958,0,0,0,5.487-.113l0,0a3.963,3.963,0,0,0-.1-5.705,37.792,37.792,0,0,0-25.763-10.114" transform="translate(-126.897 -81.189)" fill="#4d89f5"/>
              <line id="Línea_3276" data-name="Línea 3276" y1="0.965" transform="translate(145.253 69.618)" fill="none" stroke="#0e1530" stroke-linecap="round" stroke-linejoin="round" stroke-width="0.5"/>
              <path id="Trazado_1030562" data-name="Trazado 1030562" d="M252.062,106.875V94a4.867,4.867,0,0,0-4.867-4.867H229.769a3.629,3.629,0,0,1-3.629-3.629V79.23a3.565,3.565,0,0,0-3.565-3.564H206.323" transform="translate(-106.81 -39.171)" fill="none" stroke="#0e1530" stroke-linecap="round" stroke-linejoin="round" stroke-width="0.5" stroke-dasharray="3.967 3.967"/>
              <line id="Línea_3277" data-name="Línea 3277" x1="0.965" transform="translate(97.592 36.495)" fill="none" stroke="#0e1530" stroke-linecap="round" stroke-linejoin="round" stroke-width="0.5"/>
              <path id="Trazado_1030563" data-name="Trazado 1030563" d="M202.275,74.717a.884.884,0,1,1-.885-.885.884.884,0,0,1,.885.885" transform="translate(-103.798 -38.221)" fill="#0e1530"/>
              <g id="Grupo_1184751" data-name="Grupo 1184751" transform="translate(29.015 14.957)" opacity="0.5">
                <g id="Grupo_1184750" data-name="Grupo 1184750">
                  <g id="Grupo_1184749" data-name="Grupo 1184749" clip-path="url(#clip-path-4)">
                    <path id="Trazado_1030564" data-name="Trazado 1030564" d="M119.114,62.111H64.446s-8-10.226-2.153-15.224c5.661-4.841,14.3.923,14.3.923s-.384-15.3,11.149-16.685c14.821-1.779,17.146,17.608,17.146,17.608s6.843-10.457,14.917-6.151c10.938,5.834-.692,19.53-.692,19.53" transform="translate(-60.157 -31.01)" fill="#8f93f9"/>
                  </g>
                </g>
              </g>
              <path id="Trazado_1030565" data-name="Trazado 1030565" d="M138.72,199.825h-29.7a3.512,3.512,0,0,1-3.512-3.511V174.729" transform="translate(-54.622 -90.454)" fill="none" stroke="#0e1530" stroke-linecap="round" stroke-linejoin="round" stroke-width="0.5" stroke-dasharray="4 4"/>
              <path id="Trazado_1030566" data-name="Trazado 1030566" d="M103.679,173.78a.884.884,0,1,0,.884-.885.884.884,0,0,0-.884.885" transform="translate(-53.673 -89.504)" fill="#0e1530"/>
              <path id="Trazado_1030567" data-name="Trazado 1030567" d="M81.557,124.057s13.83-2.165,26.267-5.244l-2.154,11.432H81.557Z" transform="translate(-42.221 -61.507)"/>
              <path id="Trazado_1030568" data-name="Trazado 1030568" d="M102.382,126.852,100.07,146.4H70.16L67,123.755H78.468l1.064,3.1Z" transform="translate(-34.684 -64.066)" fill="#e9a134"/>
              <path id="Trazado_1030569" data-name="Trazado 1030569" d="M541.248,180.127H522.36a2.758,2.758,0,0,1-2.759-2.758v-8.228a2.759,2.759,0,0,1,2.759-2.759h18.888a2.759,2.759,0,0,1,2.759,2.759v8.228a2.759,2.759,0,0,1-2.759,2.758" transform="translate(-268.988 -86.133)" fill="#4d89f5"/>
              <path id="Trazado_1030570" data-name="Trazado 1030570" d="M533.036,180.278a.721.721,0,0,1-.512-.212l-4.1-4.1a.724.724,0,0,1,0-1.023l4.1-4.1a.724.724,0,0,1,1.023,1.023l-3.586,3.585,3.586,3.585a.723.723,0,0,1-.512,1.235" transform="translate(-273.447 -88.336)" fill="#fff"/>
              <path id="Trazado_1030571" data-name="Trazado 1030571" d="M550.817,180.278a.723.723,0,0,1-.511-1.235l3.585-3.585-3.585-3.585a.723.723,0,0,1,1.023-1.023l4.1,4.1a.724.724,0,0,1,0,1.023l-4.1,4.1a.721.721,0,0,1-.512.212" transform="translate(-284.773 -88.336)" fill="#fff"/>
              <path id="Trazado_1030572" data-name="Trazado 1030572" d="M280.389,289.939v8.554a3.651,3.651,0,0,1-3.651,3.651h-15.7" transform="translate(-135.136 -150.096)" fill="none" stroke="#0e1530" stroke-linecap="round" stroke-linejoin="round" stroke-width="0.5" stroke-dasharray="4 4"/>
              <path id="Trazado_1030573" data-name="Trazado 1030573" d="M257.5,314.295a.884.884,0,1,1-.885-.885.885.885,0,0,1,.885.885" transform="translate(-132.388 -162.246)" fill="#0e1530"/>
              <path id="Trazado_1030574" data-name="Trazado 1030574" d="M218.918,314.563H196.083a2.361,2.361,0,0,1-2.361-2.361V294.008a2.361,2.361,0,0,1,2.361-2.361h22.835a2.361,2.361,0,0,1,2.361,2.361V312.2a2.361,2.361,0,0,1-2.361,2.361" transform="translate(-100.286 -150.98)" fill="#e9a134"/>
              <path id="Trazado_1030575" data-name="Trazado 1030575" d="M221.505,275.4h-2.894v-4.439a7.8,7.8,0,0,0-15.606,0V275.4h-2.894v-4.439a10.7,10.7,0,0,1,21.394,0Z" transform="translate(-103.594 -134.735)" fill="#0f0e13"/>
              <path id="Trazado_1030576" data-name="Trazado 1030576" d="M221.967,302.884a4.392,4.392,0,1,0-6.016,4.074v7.356H219.2v-7.356a4.387,4.387,0,0,0,2.769-4.074" transform="translate(-110.361 -154.524)" fill="#0f0e13"/>
              <path id="Trazado_1030577" data-name="Trazado 1030577" d="M297.65,276.483H254.7a1.8,1.8,0,0,1-1.8-1.8v-5.821a1.8,1.8,0,0,1,1.8-1.8H297.65a1.8,1.8,0,0,1,1.8,1.8v5.821a1.8,1.8,0,0,1-1.8,1.8" transform="translate(-130.922 -138.253)" fill="#fff"/>
              <rect id="Rectángulo_458388" data-name="Rectángulo 458388" width="46.549" height="9.421" rx="3.732" transform="translate(121.979 128.809)" fill="none" stroke="#000" stroke-miterlimit="10" stroke-width="0.75"/>
              <path id="Trazado_1030578" data-name="Trazado 1030578" d="M269.8,274.771a.554.554,0,0,0-.554-.554h-.025l.017-.017a.554.554,0,1,0-.783-.783l-.017.017v-.025a.554.554,0,0,0-1.108,0v.025l-.017-.017a.554.554,0,0,0-.784.783l.017.017h-.025a.554.554,0,0,0,0,1.108h.025l-.017.017a.554.554,0,0,0,.784.784l.017-.018v.025a.554.554,0,0,0,1.108,0v-.025l.017.018a.554.554,0,0,0,.783-.784l-.017-.017h.025a.554.554,0,0,0,.554-.554" transform="translate(-137.685 -141.252)"/>
              <path id="Trazado_1030579" data-name="Trazado 1030579" d="M282.162,274.771a.554.554,0,0,0-.554-.554h-.025l.017-.017a.554.554,0,1,0-.783-.783l-.017.017v-.025a.554.554,0,0,0-1.108,0v.025l-.017-.017a.554.554,0,0,0-.784.783l.017.017h-.025a.554.554,0,0,0,0,1.108h.025l-.017.017a.554.554,0,0,0,.784.784l.017-.018v.025a.554.554,0,0,0,1.108,0v-.025l.017.018a.554.554,0,0,0,.783-.784l-.017-.017h.025a.554.554,0,0,0,.554-.554" transform="translate(-144.086 -141.252)"/>
              <path id="Trazado_1030580" data-name="Trazado 1030580" d="M294.526,274.771a.554.554,0,0,0-.554-.554h-.025l.017-.017a.554.554,0,1,0-.783-.783l-.018.017v-.025a.554.554,0,1,0-1.108,0v.025l-.017-.017a.554.554,0,1,0-.784.783l.017.017h-.025a.554.554,0,1,0,0,1.108h.025l-.017.017a.554.554,0,0,0,.784.784l.017-.018v.025a.554.554,0,0,0,1.108,0v-.025l.018.018a.554.554,0,0,0,.783-.784l-.017-.017h.025a.554.554,0,0,0,.554-.554" transform="translate(-150.486 -141.252)"/>
              <path id="Trazado_1030581" data-name="Trazado 1030581" d="M306.89,274.771a.554.554,0,0,0-.555-.554h-.025l.018-.017a.554.554,0,1,0-.784-.783l-.017.017v-.025a.554.554,0,0,0-1.108,0v.025l-.018-.017a.554.554,0,1,0-.784.783l.018.017h-.025a.554.554,0,1,0,0,1.108h.025l-.018.017a.554.554,0,0,0,.784.784l.018-.018v.025a.554.554,0,0,0,1.108,0v-.025l.017.018a.554.554,0,0,0,.784-.784l-.018-.017h.025a.554.554,0,0,0,.555-.554" transform="translate(-156.887 -141.252)"/>
              <path id="Trazado_1030582" data-name="Trazado 1030582" d="M319.253,274.771a.554.554,0,0,0-.554-.554h-.025l.017-.017a.554.554,0,0,0-.783-.783l-.018.017v-.025a.554.554,0,1,0-1.108,0v.025l-.017-.017a.554.554,0,1,0-.784.783l.017.017h-.025a.554.554,0,0,0,0,1.108H316l-.017.017a.554.554,0,0,0,.784.784l.017-.018v.025a.554.554,0,0,0,1.108,0v-.025l.018.018a.554.554,0,0,0,.783-.784l-.017-.017h.025a.554.554,0,0,0,.554-.554" transform="translate(-163.287 -141.252)"/>
              <path id="Trazado_1030583" data-name="Trazado 1030583" d="M331.617,274.771a.554.554,0,0,0-.554-.554h-.025l.017-.017a.554.554,0,1,0-.783-.783l-.017.017v-.025a.554.554,0,0,0-1.108,0v.025l-.017-.017a.554.554,0,1,0-.784.783l.017.017h-.025a.554.554,0,1,0,0,1.108h.025l-.017.017a.554.554,0,1,0,.784.784l.017-.018v.025a.554.554,0,0,0,1.108,0v-.025l.017.018a.554.554,0,1,0,.783-.784l-.017-.017h.025a.554.554,0,0,0,.554-.554" transform="translate(-169.688 -141.252)"/>
              <path id="Trazado_1030584" data-name="Trazado 1030584" d="M398.459,163.249h0c-1.216,1.857-5.65,3.011-8.929,2.688,0,0-.061,14.97,8.929,15.8,8.989-.831,8.928-15.8,8.928-15.8C404.108,166.26,399.675,165.106,398.459,163.249Z" transform="translate(-201.652 -84.511)" fill="none" stroke="#0f0e13" stroke-linejoin="round" stroke-width="1"/>
              <line id="Línea_3278" data-name="Línea 3278" y2="40.607" transform="translate(66.341 139.843)" fill="none" stroke="#0f0e13" stroke-linecap="round" stroke-linejoin="round" stroke-width="1"/>
              <path id="Trazado_1030585" data-name="Trazado 1030585" d="M117.393,292.712s-.631-13.022-13.753-14.407c-4.941,15.239,13.753,14.407,13.753,14.407" transform="translate(-53.222 -144.073)" fill="#5ebdc4"/>
              <path id="Trazado_1030586" data-name="Trazado 1030586" d="M109.956,282.758s12.114,9.374,13.307,18.056" transform="translate(-56.922 -146.378)" fill="none" stroke="#0f0e13" stroke-linecap="round" stroke-linejoin="round" stroke-width="0.5"/>
              <path id="Trazado_1030587" data-name="Trazado 1030587" d="M123.394,331.142s-.443-9.145-9.658-10.118c-3.47,10.7,9.658,10.118,9.658,10.118" transform="translate(-58.576 -166.188)" fill="#5ebdc4"/>
              <path id="Trazado_1030588" data-name="Trazado 1030588" d="M118.171,324.151s8.508,6.584,9.345,12.68" transform="translate(-61.175 -167.807)" fill="none" stroke="#0f0e13" stroke-linecap="round" stroke-linejoin="round" stroke-width="0.5"/>
              <path id="Trazado_1030589" data-name="Trazado 1030589" d="M156.518,302.406c-1.432-.1-4.114-.063-4.519,1.5-.328,1.278,1.466,1.862,2.981,2.132-3.82,4.944-12.931,4.539-12.931,4.539s.632-13.023,13.751-14.412a13.509,13.509,0,0,1,.719,6.236" transform="translate(-73.536 -153.322)" fill="#5ebdc4"/>
              <path id="Trazado_1030590" data-name="Trazado 1030590" d="M150.854,300.628S138.74,310,137.547,318.684" transform="translate(-71.205 -155.629)" fill="none" stroke="#0f0e13" stroke-linecap="round" stroke-linejoin="round" stroke-width="0.5"/>
              <path id="Trazado_1030591" data-name="Trazado 1030591" d="M139.151,329.408s1.4-3.31,7.1-2.232" transform="translate(-72.036 -169.261)" fill="none" stroke="#0f0e13" stroke-linecap="round" stroke-linejoin="round" stroke-width="0.5"/>
              <path id="Trazado_1030592" data-name="Trazado 1030592" d="M133.148,383.291H114.78L111.309,356h25.31Z" transform="translate(-57.623 -184.296)" fill="#4d89f5"/>
            </g>
          </g>
          <g id="Grupo_1184755" data-name="Grupo 1184755" transform="translate(53.686 171.707)">
            <g id="Grupo_1184754" data-name="Grupo 1184754" clip-path="url(#clip-path-5)">
              <path id="Trazado_1030593" data-name="Trazado 1030593" d="M104.385,361.237a15.877,15.877,0,0,0,4.593.721,12.183,12.183,0,0,0,4.191-.693,8.923,8.923,0,0,0,3.458-2.2,8.128,8.128,0,0,0,1.906-3.336,6.607,6.607,0,0,0,0-3.756c-.05-.158-.107-.314-.168-.467a.24.24,0,0,0-.325-.1.246.246,0,0,0-.1.324l.024.061c.026.065-.01-.026,0,.013l.037.1c.027.075.051.151.074.226.045.148.084.3.116.449s.058.295.079.443c.01.071.018.142.025.213,0-.05,0,0,0,.011l0,.053c0,.043.006.085.009.128a6.3,6.3,0,0,1-.012.9q-.019.231-.055.46c0,.018-.005.035-.008.053s-.014.078,0,.022c-.006.035-.013.071-.02.106-.014.078-.031.156-.048.233a7.389,7.389,0,0,1-.256.877q-.077.216-.168.427l-.044.1-.027.06c-.019.042-.006.013,0,0q-.051.11-.106.218a8.029,8.029,0,0,1-.475.818q-.128.192-.267.378-.067.088-.135.175l-.069.086s-.049.059-.017.021l-.043.05a8.146,8.146,0,0,1-3.148,2.241c-.078.033-.157.064-.235.1l-.01,0-.068.026-.136.049q-.24.085-.484.158-.49.148-.992.248t-1.027.162l-.122.014-.061.006-.034,0-.269.022c-.172.013-.344.021-.516.027a14.92,14.92,0,0,1-4.349-.524c-.2-.052-.392-.109-.586-.168a.239.239,0,1,0-.143.457" transform="translate(-107.639 -353.609)" fill="#fff"/>
              <path id="Trazado_1030594" data-name="Trazado 1030594" d="M142.077,354.934a8.448,8.448,0,0,0-1.264.738,9.724,9.724,0,0,0-1.172.97,11.151,11.151,0,0,0-1.019,1.141,12.169,12.169,0,0,0-.849,1.244,13.883,13.883,0,0,0-.72,1.383,14.416,14.416,0,0,0-.555,1.413,14.777,14.777,0,0,0-.655,2.939,12.753,12.753,0,0,0-.088,1.409,11.348,11.348,0,0,0,.077,1.4,8.756,8.756,0,0,0,.235,1.251,7.153,7.153,0,0,0,.42,1.162,5.386,5.386,0,0,0,.6,1,4.308,4.308,0,0,0,.78.785,3.9,3.9,0,0,0,.967.546,4.262,4.262,0,0,0,1.145.268,5.526,5.526,0,0,0,1.329-.042,7.75,7.75,0,0,0,1.455-.366,12.269,12.269,0,0,0,1.684-.745,5.414,5.414,0,0,0,1.842-1.509,3.623,3.623,0,0,0,.718-1.809,2.751,2.751,0,0,0-.356-1.661,2.57,2.57,0,0,0-1.16-1.014,2.244,2.244,0,0,0-.8-.2,1.938,1.938,0,0,0-.751.1,2.476,2.476,0,0,0-.721.4,3.319,3.319,0,0,0-.582.615,4.549,4.549,0,0,0-.452.755,6.566,6.566,0,0,0-.372.954,8.006,8.006,0,0,0-.237,1.066,8.356,8.356,0,0,0-.1,1.091,8.891,8.891,0,0,0,.054,1.177,7.884,7.884,0,0,0,.2,1.125,7.546,7.546,0,0,0,.4,1.142,6.424,6.424,0,0,0,.559,1.016,6.174,6.174,0,0,0,.789.954,6.09,6.09,0,0,0,1,.795,6.569,6.569,0,0,0,1.238.605,7.771,7.771,0,0,0,1.472.372,9.714,9.714,0,0,0,1.678.11,13.7,13.7,0,0,0,1.9-.175.24.24,0,0,0,.177-.288.245.245,0,0,0-.288-.177q-.25.04-.5.071l-.24.028-.061.006-.027,0,.02,0-.13.012q-.454.04-.911.045a9.575,9.575,0,0,1-1.64-.116l-.024,0-.016,0-.1-.019c-.061-.011-.121-.023-.181-.036-.12-.026-.239-.054-.357-.085a6.957,6.957,0,0,1-.665-.211q-.158-.059-.314-.127l-.072-.032-.039-.017.007,0c-.05-.024-.1-.048-.15-.073a5.911,5.911,0,0,1-.551-.313,5.742,5.742,0,0,1-.5-.36l-.055-.045.013.011-.034-.029-.111-.1c-.074-.067-.147-.135-.218-.205a5.86,5.86,0,0,1-.4-.436q-.09-.111-.176-.226l-.044-.06.011.015-.025-.034-.081-.118a6.41,6.41,0,0,1-.547-1.005q-.057-.131-.109-.265c-.014-.036,0,0,.007.019,0-.012-.008-.023-.013-.034l-.025-.068c-.017-.046-.033-.092-.048-.137q-.091-.268-.161-.542a8.016,8.016,0,0,1-.2-1.11c0-.022,0-.044-.007-.066.011.1,0,0,0-.023,0-.046-.008-.092-.011-.137q-.01-.139-.016-.279-.011-.275,0-.549a8.311,8.311,0,0,1,.1-1.072l.01-.062c0-.011,0-.022.005-.033s-.012.069,0,.016.015-.084.023-.127c.016-.085.034-.169.053-.254q.056-.245.128-.486t.158-.463c.028-.074.058-.147.089-.22.015-.035.03-.07.046-.105l.011-.023c.019-.042-.015.031-.01.022s.016-.036.025-.053a4.541,4.541,0,0,1,.445-.747l.064-.083.03-.038.014-.017c.026-.032-.042.05-.016.019.043-.05.087-.1.133-.149a2.792,2.792,0,0,1,.277-.257c.025-.02.049-.039.075-.058l.016-.012c.033-.025-.017.013-.026.018l.038-.027c.05-.034.1-.066.152-.1s.1-.056.157-.081l.079-.034.021-.009-.034.013.041-.015a1.775,1.775,0,0,1,.334-.082l.041-.005.022,0c.029,0-.074.006-.036,0l.089-.006a1.714,1.714,0,0,1,.173,0c.06,0,.12.011.18.019.044.006-.074-.014-.014,0l.05.01.09.022a2.747,2.747,0,0,1,.371.134c-.089-.037-.023-.01,0,0l.048.024c.039.02.078.041.115.063.057.033.113.069.168.108l.082.061.034.027c.014.011.031.014-.014-.012a.134.134,0,0,1,.022.019,2.31,2.31,0,0,1,.273.281l.057.072c.022.03.019.011,0,0,.013.008.024.034.032.046.035.053.068.107.1.163s.062.117.089.177c.013.028.024.056.036.085l.008.02c.01.024-.011-.027-.01-.025a.179.179,0,0,1,.019.054,2.441,2.441,0,0,1,.1.384q.008.047.014.094c0,.017,0,.034.006.051.007.055,0-.038,0,0,.006.07.01.139.011.209a2.818,2.818,0,0,1-.026.413c0,.018,0,.036-.008.054-.008.057.007-.036,0,.007s-.013.073-.022.109c-.015.071-.033.141-.054.211a3.5,3.5,0,0,1-.159.431c-.018.042.017-.036,0,.006l-.027.055c-.018.037-.037.073-.056.108q-.059.11-.126.216c-.044.07-.09.138-.138.2-.024.033-.048.066-.072.1l-.041.052-.028.036c.018-.022-.024.027-.03.035l-.045.051c-.03.034-.061.068-.093.1-.062.066-.126.13-.192.191a4.919,4.919,0,0,1-.447.372l-.03.022-.055.038-.131.088c-.091.059-.183.115-.277.169-.147.084-.3.163-.448.24-.271.138-.546.269-.826.387l-.2.081-.093.037-.05.02.023-.009c-.012,0-.024.009-.036.014q-.19.072-.384.135a7.387,7.387,0,0,1-1.408.323l-.084.01-.036,0,.028,0-.024,0c-.053,0-.106.009-.159.012q-.158.01-.315.01a4.672,4.672,0,0,1-.6-.037l-.14-.02c-.011,0-.051-.009,0,0s0,0-.009,0l-.07-.014c-.091-.018-.182-.039-.271-.063a3.813,3.813,0,0,1-.5-.176l-.061-.027-.027-.012s.061.029.03.013l-.017-.008-.115-.057q-.117-.061-.227-.129c-.149-.091-.283-.2-.422-.3.054.041.019.016-.007-.006l-.05-.044c-.032-.028-.064-.057-.095-.086q-.095-.09-.184-.186a4.98,4.98,0,0,1-.336-.411l.013.018-.02-.028-.039-.057-.073-.111c-.049-.077-.1-.155-.141-.235-.092-.163-.176-.331-.251-.5-.038-.086-.073-.174-.108-.262-.017-.045.008.021.005.013l-.013-.035-.026-.07c-.016-.045-.032-.091-.047-.137q-.1-.286-.168-.578a8.931,8.931,0,0,1-.214-1.241c0-.012,0-.024,0-.035s.006.067,0,.028c0-.006,0-.012,0-.017l-.007-.083c0-.054-.009-.108-.013-.162q-.012-.166-.018-.333-.014-.34-.007-.68a12.856,12.856,0,0,1,.1-1.395c.015-.117.031-.233.049-.35l.029-.181c0-.013,0-.026.007-.039-.006.039-.007.04,0,0s.011-.061.016-.091q.064-.36.148-.717a14.529,14.529,0,0,1,.407-1.42q.119-.351.258-.7c.046-.116.095-.232.144-.346.024-.056.049-.112.074-.169l.037-.081.02-.043c0-.01.03-.066.013-.028s0-.006.007-.015l.02-.043.041-.086.081-.165c.056-.112.113-.223.172-.333q.175-.331.369-.65a12.036,12.036,0,0,1,.842-1.215l.113-.141.03-.036c.006-.007.036-.044.011-.013l.014-.018.035-.041c.078-.092.157-.182.238-.272q.246-.271.511-.525t.54-.479c.094-.077.189-.152.285-.225l.143-.106c.03-.022.03-.018,0,0,.011-.007.022-.015.032-.023l.081-.056a8.362,8.362,0,0,1,1.2-.7.241.241,0,0,0,.1-.324.245.245,0,0,0-.324-.1" transform="translate(-123.964 -355.436)" fill="#fff"/>
              <path id="Trazado_1030595" data-name="Trazado 1030595" d="M112.248,393.35a10.836,10.836,0,0,1,2.2-.842q.568-.151,1.148-.246.3-.049.606-.083l.122-.013.033,0,.073-.007c.106-.009.212-.017.317-.024a12.375,12.375,0,0,1,2.372.081,10.826,10.826,0,0,1,1.141.209q.572.134,1.129.324a11.4,11.4,0,0,1,1.112.445l.032.015.067.032.11.054q.143.07.284.145.255.135.5.284.479.286.928.619.22.163.431.336l.053.043.023.019.1.088q.108.093.213.189a12.067,12.067,0,0,1,1.5,1.633c.051.067.1.133.15.2l.041.055.017.024.092.131q.156.225.3.457.3.473.552.971t.453,1c.068.17.117.3.185.5q.09.258.167.52.158.535.266,1.083.052.268.092.539.02.135.037.271l.013.113.007.068c0,.015,0,.03,0,.045,0-.026,0-.025,0,0,.016.182.03.364.038.546a.245.245,0,0,0,.231.247.242.242,0,0,0,.247-.231,12.081,12.081,0,0,0-1.082-4.433,12.482,12.482,0,0,0-2.575-3.7,11.746,11.746,0,0,0-3.906-2.563,12.414,12.414,0,0,0-9.532.184c-.179.08-.356.164-.531.253a.239.239,0,0,0,.227.422" transform="translate(-111.612 -374.446)" fill="#fff"/>
              <path id="Trazado_1030596" data-name="Trazado 1030596" d="M114.35,396.983a6.8,6.8,0,0,1,.72-.168q.187-.033.377-.055l.08-.009c.048-.005.015,0,0,0l.046,0,.2-.014a7.279,7.279,0,0,1,1.485.063l.08.012.046.007.026,0,.025,0,.034.006.114.022q.182.035.361.081c.24.059.477.131.71.213.117.041.232.085.347.132l.171.072.074.033.042.019.017.008q.336.158.656.347a7.521,7.521,0,0,1,.628.415c.1.073.2.149.293.227l.021.017.021.017.062.053c.05.043.1.087.148.131a7.737,7.737,0,0,1,1.008,1.127l.005.007.027.039.047.067c.038.055.075.11.112.166q.1.157.2.319c.127.216.245.438.352.665q.08.17.153.344c.024.058.048.116.07.175l.017.044c0-.01-.014-.037,0,.008s.025.066.037.1c.085.236.161.477.226.72s.119.49.162.738c.022.128.042.256.058.385.008.059.014.117.021.176,0,.011.008.083,0,.042,0,.039.007.079.01.118a8.48,8.48,0,0,1-.01,1.509c-.012.125-.027.25-.045.375a.239.239,0,0,0,.231.247.246.246,0,0,0,.247-.231,8.761,8.761,0,0,0-.13-3.126,8.6,8.6,0,0,0-1.211-2.874,7.805,7.805,0,0,0-2.2-2.208,7.9,7.9,0,0,0-2.84-1.16,7.449,7.449,0,0,0-3.094.037q-.18.042-.358.094a.239.239,0,1,0,.111.465" transform="translate(-112.73 -376.834)" fill="#fff"/>
            </g>
          </g>
          <g id="Grupo_1184778" data-name="Grupo 1184778">
            <g id="Grupo_1184777" data-name="Grupo 1184777" clip-path="url(#clip-path)">
              <path id="Trazado_1030598" data-name="Trazado 1030598" d="M148.012,383.291,151.483,356h2.181l-3.471,27.289Z" transform="translate(-76.623 -184.296)"/>
              <rect id="Rectángulo_458390" data-name="Rectángulo 458390" width="33.21" height="48.727" transform="translate(210.458 150.268)" fill="#8f93f9"/>
              <path id="Trazado_1030599" data-name="Trazado 1030599" d="M358.434,369.79,356.6,379.925a30.077,30.077,0,0,0,10.672,1.442l3.609-8.723Z" transform="translate(-184.606 -191.433)" fill="#f39c94"/>
              <path id="Trazado_1030600" data-name="Trazado 1030600" d="M437.79,373.685l-1.946,7.771a13.085,13.085,0,0,1-9.672.421l.938-10.555" transform="translate(-220.621 -192.226)" fill="#f39c94"/>
              <path id="Trazado_1030601" data-name="Trazado 1030601" d="M430.5,398.3H410.091s-.669-5.534,2.731-8.028a20.406,20.406,0,0,1,3.505-1.919c.229-1.751.326-3.084.414-3.264.171-.334,5.752.271,7.659.677.515.109,1.294,2.444,1.294,2.444l1.8.326c3.875,3.594,3.013,9.765,3.013,9.765" transform="translate(-212.269 -199.301)" fill="#4d89f5"/>
              <path id="Trazado_1030602" data-name="Trazado 1030602" d="M406.548,290.721H390.7c-3.671.77-6.888,3.868-11.8,4.2a188.989,188.989,0,0,1-6.456,29.212,55.547,55.547,0,0,1-16.717-2.771c2.849-14.347,6.4-33.213,7.562-37.786,1.66-6.532,42.992-12.268,42.992-12.268s.254,1.573.476,3.72c1.45,6.235,1.269,13.265-.2,15.69" transform="translate(-184.152 -140.453)" fill="#181e4c"/>
              <path id="Trazado_1030603" data-name="Trazado 1030603" d="M460.8,289.93h-7.282a13.722,13.722,0,0,1-6.95,3.953c1.686,5.356-2.3,28.753-2.3,28.753-10.991.7-17.778-1.2-17.778-1.2s1.7-21.639,2.186-26.178c.18-1.754,1.114-8.038,1.459-9.594a9.581,9.581,0,0,1,4.629-6.309c.025-.008,1.9-3.08,3.819-3.506l10.324-2.352,11.356-3.711a16.908,16.908,0,0,1,1.27,4.457,19.637,19.637,0,0,1-.727,15.69" transform="translate(-220.782 -139.662)" fill="#181e4c"/>
              <path id="Trazado_1030604" data-name="Trazado 1030604" d="M414.379,209.7l-4.125,15.621-7.477,10.366s-4.46,1.417-4.977,2.03c-1.456,1.728-4.355,5.522-4.394,5.755s.35.712.933.648,4.588-4.214,4.588-4.214-1.05,3.313-1.05,3.586-.194.568.369.634,1.147-.556,1.147-.556l1.614-3.48a8.444,8.444,0,0,0,1.46.221,6.31,6.31,0,0,0-1.207,1.587c-.187.415-.408,1.273.525,1.205a9.777,9.777,0,0,0,3.092-1.9,4.948,4.948,0,0,0,1.049-1.933s9.539-5.453,12.507-10.547c3.429-5.884,5.584-15.926,5.584-15.926Z" transform="translate(-203.657 -108.56)" fill="#eaaca8"/>
              <path id="Trazado_1030605" data-name="Trazado 1030605" d="M444.743,207.645l-3.82,11.527a50.062,50.062,0,0,1-11.325-3.661c1.63-6.965,3.14-12.27,4.746-14.045,1.515-1.394,10.4,6.179,10.4,6.179" transform="translate(-222.395 -104.207)" fill="#dd3d60"/>
              <path id="Trazado_1030606" data-name="Trazado 1030606" d="M468.362,196.321c-.112,2.856,1.157,15.284.641,25.984-.182,3.775-1,8.7-1,9.309,0,.421-.546.862-.763.981a12.872,12.872,0,0,1-4.192,1h-.007a108.6,108.6,0,0,1-11.634.533c-4.021,0-10.055-.638-10.819-1.651-.7-.928-.058-2.278.276-4.139,3.319-18.454-1.885-29.357-1.451-32.246,2.2-2.592,10.891-4.591,11-4.624,1.073-.066,1.286-.588,2.543-.555,1.092.033,3.5.177,5.315.415.006,0,6.633,1.625,10.09,4.994" transform="translate(-227.461 -98.831)" fill="#dd3d60"/>
              <path id="Trazado_1030607" data-name="Trazado 1030607" d="M489.233,221.632l2.19,13.866,4.629-2.4-4.11-11.074" transform="translate(-253.267 -114.735)"/>
              <path id="Trazado_1030608" data-name="Trazado 1030608" d="M477.058,164.355s1.541-.556,2.046,1.339c.461,1.729-1.819,3.209-1.819,3.209a1.619,1.619,0,0,1,.632,1.718c-.505,2.072-3.032,1.01-3.032,1.01l-.429-4.977Z" transform="translate(-245.617 -85.044)"/>
              <path id="Trazado_1030609" data-name="Trazado 1030609" d="M444.073,159.312s.507,6.132,2.54,6.545,1.534-2.194,1.534-2.194l-.285-2.912Z" transform="translate(-229.888 -82.473)"/>
              <path id="Trazado_1030610" data-name="Trazado 1030610" d="M462.155,160.208c.846-1.311,1.25-3.446.307-4.107a13.06,13.06,0,0,0-.825-5.927c-1.555-3.782-13.675-7.112-13.822,2.1,0,0-.64,13.15,4.1,14.036a7.359,7.359,0,0,0,3.012-.207c-.05.5-.082,1.6-.16,2.29-1.27,1.163-2.663,4.687,1.344,4.85,4.08.172,7.128-3.335,6.514-4.99-.2-2.608-.363-6.048-.467-8.042" transform="translate(-231.81 -75.758)" fill="#f39c94"/>
              <path id="Trazado_1030611" data-name="Trazado 1030611" d="M455.772,143.981a2.961,2.961,0,0,0-3.43-4.186,3.781,3.781,0,0,0-3.294-3.048,2.237,2.237,0,0,0-2.26,1.582l-.017,0c-.15-.066-3.731-1.608-5.782.491a2.438,2.438,0,0,0-.858,2.313c-4.624-.418-4.2,3.6-2.944,4.41-2.047,1.349,1.3,4.443,6.149,4,3.68-.333,8.009-2.5,8.415-2.453-.764,3.355.617,6.246,1.836,6.409.065-.244.764-2.769,2.437-2.575.918.106,1.17,1.032,1.023,2.079,2.06-2.9,3.492-8.309-1.275-9.032" transform="translate(-225.888 -70.792)"/>
              <path id="Trazado_1030612" data-name="Trazado 1030612" d="M467.769,179.4a10.284,10.284,0,0,1-5.286,3.817l-.1,1.518s4.737-.856,5.384-5.335" transform="translate(-239.368 -92.873)"/>
              <path id="Trazado_1030613" data-name="Trazado 1030613" d="M482.806,214.161l-9.232,4.529a80.364,80.364,0,0,1,4.362,9.272s-8.082,9.426-9.362,10.434a32.252,32.252,0,0,0-5.372.7c-.874.239-5.655,5.1-5.616,5.385s.413.617,1.037.489a3.4,3.4,0,0,0,1.132-.706s-.506.539-.5.764.3.408.782.332a2.745,2.745,0,0,0,1.358-.918c-.079.13-.141.233-.159.266-.09.163.2.609,1.017.434.58-.125,1.838-1.663,2.125-1.886a1.765,1.765,0,0,1,.847-.112,9.112,9.112,0,0,0-1.1,2.006,1.038,1.038,0,0,0,1.3.338,6.267,6.267,0,0,0,1.88-2.118,4.445,4.445,0,0,0,4.173-1.4l0-.009c15.413-5.44,16.243-10.548,16.3-10.9.781-4.749-4.97-16.892-4.97-16.892" transform="translate(-236.883 -110.867)" fill="#f39c94"/>
              <path id="Trazado_1030614" data-name="Trazado 1030614" d="M499.778,242.069s3.055-1.481,5.232,0" transform="translate(-258.726 -124.974)" fill="none" stroke="#000" stroke-linecap="round" stroke-linejoin="round" stroke-width="0.4"/>
              <path id="Trazado_1030615" data-name="Trazado 1030615" d="M465.884,272.83s2.122-2.447,2.507-2.8a5.636,5.636,0,0,1,1.974-.531" transform="translate(-241.179 -139.514)" fill="none" stroke="#000" stroke-linecap="round" stroke-linejoin="round" stroke-width="0.4"/>
              <path id="Trazado_1030616" data-name="Trazado 1030616" d="M473.759,272.683a12.565,12.565,0,0,1,.748-1.135" transform="translate(-245.256 -140.575)" fill="none" stroke="#000" stroke-linecap="round" stroke-linejoin="round" stroke-width="0.4"/>
              <path id="Trazado_1030617" data-name="Trazado 1030617" d="M462.393,271.21s2.817-3.233,3.217-3.54a8.494,8.494,0,0,1,1.909-.678" transform="translate(-239.372 -138.217)" fill="none" stroke="#000" stroke-linecap="round" stroke-linejoin="round" stroke-width="0.4"/>
              <path id="Trazado_1030618" data-name="Trazado 1030618" d="M497.857,209.674a48.923,48.923,0,0,1-11.437,3.941c-2.1-5.242-7.081-21.632-7.081-21.632,2.213.412,9.594,1.988,12.007,4.492,1.632,1.693,4.11,6.3,6.511,13.2" transform="translate(-248.145 -99.386)" fill="#dd3d60"/>
              <path id="Trazado_1030619" data-name="Trazado 1030619" d="M504.993,226.695a51.473,51.473,0,0,1-11.685,4.079c-.2-.492-.42-1.235-.661-1.9,2.223-.617,7.553-2.488,11.729-4.041.225.664.41,1.2.616,1.863" transform="translate(-255.035 -116.391)" fill="#e9a134"/>
              <path id="Trazado_1030620" data-name="Trazado 1030620" d="M466.389,280.458H452.514V279.1h13.875a.679.679,0,0,1,0,1.358" transform="translate(-234.258 -144.485)" fill="#fff"/>
              <path id="Trazado_1030621" data-name="Trazado 1030621" d="M418.854,250.474l-7.085-25.505a1.742,1.742,0,0,0-1.679-1.276h-33.6a.878.878,0,0,0-.608.246l-.814.643.616.421,7.06,25.414a.926.926,0,0,0,.892.678h34.741a.49.49,0,0,0,.472-.621" transform="translate(-194.167 -115.802)" fill="#fff"/>
              <path id="Trazado_1030622" data-name="Trazado 1030622" d="M417.2,252.5H382.454a.926.926,0,0,1-.892-.678l-7.111-25.6a.889.889,0,0,1,.857-1.127h33.6a1.743,1.743,0,0,1,1.679,1.276l7.085,25.505a.49.49,0,0,1-.472.621" transform="translate(-193.829 -116.531)" fill="#e9a134"/>
              <path id="Trazado_1030623" data-name="Trazado 1030623" d="M326.45,398.38h29.288s.492-6.6-3.141-11.313l-5.365,1.165s-1.785-2.479-2.595-2.68-4.655-.4-4.655-.4l-.7,2.775-.593,1.557-2.282.722c-2.9-1.078-5.4-1.088-6.339-.723-3.517,1.388-3.613,8.9-3.613,8.9" transform="translate(-168.997 -199.385)" fill="#4d89f5"/>
              <path id="Trazado_1030624" data-name="Trazado 1030624" d="M432.713,296.668c.172-1.157.341-2.258.469-3.032a9.407,9.407,0,0,1,1.3-3.751,66.879,66.879,0,0,1,7.512-6.394" transform="translate(-224.007 -146.758)" fill="none" stroke="#fff" stroke-linecap="round" stroke-linejoin="round" stroke-width="0.5"/>
              <path id="Trazado_1030625" data-name="Trazado 1030625" d="M475.794,280.46v41.423s0,4.526,4.579,4.526c4.254,0,4.593,2.487,4.593,5.911v11.865" transform="translate(-246.31 -145.189)" fill="none" stroke="#fff" stroke-linejoin="round" stroke-width="0.75"/>
              <rect id="Rectángulo_458391" data-name="Rectángulo 458391" width="2.079" height="2.5" transform="translate(30.716 119.863)" fill="#8f93f9"/>
              <rect id="Rectángulo_458392" data-name="Rectángulo 458392" width="2.079" height="2.5" transform="translate(35.087 119.863)" fill="#8f93f9"/>
              <rect id="Rectángulo_458393" data-name="Rectángulo 458393" width="2.079" height="2.5" transform="translate(39.459 119.863)" fill="#8f93f9"/>
              <rect id="Rectángulo_458394" data-name="Rectángulo 458394" width="2.079" height="2.5" transform="translate(43.831 119.863)" fill="#8f93f9"/>
              <rect id="Rectángulo_458395" data-name="Rectángulo 458395" width="2.079" height="2.5" transform="translate(48.202 119.863)" fill="#8f93f9"/>
              <rect id="Rectángulo_458396" data-name="Rectángulo 458396" width="2.079" height="2.5" transform="translate(52.574 119.863)" fill="#8f93f9"/>
              <rect id="Rectángulo_458397" data-name="Rectángulo 458397" width="2.079" height="2.5" transform="translate(56.945 119.863)" fill="#8f93f9"/>
              <rect id="Rectángulo_458398" data-name="Rectángulo 458398" width="2.079" height="2.5" transform="translate(61.317 119.863)" fill="#8f93f9"/>
              <g id="Grupo_1184758" data-name="Grupo 1184758" transform="translate(217.029 30.122)" opacity="0.3">
                <g id="Grupo_1184757" data-name="Grupo 1184757">
                  <g id="Grupo_1184756" data-name="Grupo 1184756" clip-path="url(#clip-path-7)">
                    <circle id="Elipse_13713" data-name="Elipse 13713" cx="4.219" cy="4.219" r="4.219" transform="translate(-0.615 7.597) rotate(-76.717)" fill="none" stroke="#8f93f9" stroke-miterlimit="10" stroke-width="1"/>
                  </g>
                </g>
              </g>
              <path id="Trazado_1030626" data-name="Trazado 1030626" d="M482.586,18.267a5.429,5.429,0,1,1-5.429-5.428A5.428,5.428,0,0,1,482.586,18.267Z" transform="translate(-244.205 -6.647)" fill="none" stroke="#8f93f9" stroke-miterlimit="10" stroke-width="1"/>
              <path id="Trazado_1030627" data-name="Trazado 1030627" d="M37.415,214.007a4.755,4.755,0,1,1-4.755-4.755,4.755,4.755,0,0,1,4.755,4.755" transform="translate(-14.446 -108.326)" fill="#8f93f9"/>
              <g id="Grupo_1184761" data-name="Grupo 1184761" transform="translate(235.135 12.772)" opacity="0.3">
                <g id="Grupo_1184760" data-name="Grupo 1184760">
                  <g id="Grupo_1184759" data-name="Grupo 1184759" clip-path="url(#clip-path-8)">
                    <path id="Trazado_1030628" data-name="Trazado 1030628" d="M493.329,29.389a2.91,2.91,0,1,1-2.91-2.91,2.911,2.911,0,0,1,2.91,2.91" transform="translate(-487.509 -26.479)" fill="#8f93f9"/>
                  </g>
                </g>
              </g>
              <g id="Grupo_1184764" data-name="Grupo 1184764" transform="translate(187.97 3.02)" opacity="0.3">
                <g id="Grupo_1184763" data-name="Grupo 1184763">
                  <g id="Grupo_1184762" data-name="Grupo 1184762" clip-path="url(#clip-path-9)">
                    <path id="Trazado_1030629" data-name="Trazado 1030629" d="M392.532,7.667a1.4,1.4,0,1,1-1.4-1.4,1.4,1.4,0,0,1,1.4,1.4" transform="translate(-389.722 -6.262)" fill="#8f93f9"/>
                  </g>
                </g>
              </g>
              <path id="Trazado_1030630" data-name="Trazado 1030630" d="M37.37,88.351a5.363,5.363,0,1,1-5.363-5.362A5.362,5.362,0,0,1,37.37,88.351Z" transform="translate(-13.794 -42.962)" fill="none" stroke="#8f93f9" stroke-miterlimit="10" stroke-width="1"/>
              <path id="Trazado_1030631" data-name="Trazado 1030631" d="M516.845,263.888a3.187,3.187,0,1,1-3.187-3.187,3.187,3.187,0,0,1,3.187,3.187" transform="translate(-264.261 -134.96)" fill="#8f93f9"/>
              <path id="Trazado_1030632" data-name="Trazado 1030632" d="M56.2,211.148a1.81,1.81,0,1,1-1.81-1.81,1.81,1.81,0,0,1,1.81,1.81" transform="translate(-27.221 -108.37)" fill="#8f93f9"/>
              <path id="Trazado_1030633" data-name="Trazado 1030633" d="M530.062,275.726a1.81,1.81,0,1,1-1.81-1.81,1.81,1.81,0,0,1,1.81,1.81" transform="translate(-272.529 -141.801)" fill="#8f93f9"/>
              <path id="Trazado_1030634" data-name="Trazado 1030634" d="M173.651,9.635a1.81,1.81,0,1,1-1.81-1.81,1.81,1.81,0,0,1,1.81,1.81" transform="translate(-88.022 -4.051)" fill="#8f93f9"/>
              <g id="Grupo_1184767" data-name="Grupo 1184767" transform="translate(0 163.367)" opacity="0.3">
                <g id="Grupo_1184766" data-name="Grupo 1184766">
                  <g id="Grupo_1184765" data-name="Grupo 1184765" clip-path="url(#clip-path-10)">
                    <path id="Trazado_1030635" data-name="Trazado 1030635" d="M7.233,342.329a3.617,3.617,0,1,1-3.617-3.617,3.617,3.617,0,0,1,3.617,3.617" transform="translate(0 -338.712)" fill="#8f93f9"/>
                  </g>
                </g>
              </g>
              <g id="Grupo_1184770" data-name="Grupo 1184770" transform="translate(67.777 117.714)" opacity="0.3">
                <g id="Grupo_1184769" data-name="Grupo 1184769">
                  <g id="Grupo_1184768" data-name="Grupo 1184768" clip-path="url(#clip-path-11)">
                    <path id="Trazado_1030636" data-name="Trazado 1030636" d="M156.577,252.085a8.027,8.027,0,1,1-8.027-8.027,8.027,8.027,0,0,1,8.027,8.027" transform="translate(-140.523 -244.058)" fill="#8f93f9"/>
                  </g>
                </g>
              </g>
              <path id="Trazado_1030637" data-name="Trazado 1030637" d="M220.43,369.922a4.337,4.337,0,1,1-4.337-4.337,4.337,4.337,0,0,1,4.337,4.337" transform="translate(-109.622 -189.256)" fill="#fff"/>
              <g id="Grupo_1184773" data-name="Grupo 1184773" transform="translate(145.723 13.594)" opacity="0.3">
                <g id="Grupo_1184772" data-name="Grupo 1184772">
                  <g id="Grupo_1184771" data-name="Grupo 1184771" clip-path="url(#clip-path-12)">
                    <path id="Trazado_1030638" data-name="Trazado 1030638" d="M304.384,29.311a1.126,1.126,0,1,1-1.127-1.127,1.127,1.127,0,0,1,1.127,1.127" transform="translate(-302.131 -28.184)" fill="#8f93f9"/>
                  </g>
                </g>
              </g>
              <g id="Grupo_1184776" data-name="Grupo 1184776" transform="translate(114.125 181.281)" opacity="0.3">
                <g id="Grupo_1184775" data-name="Grupo 1184775">
                  <g id="Grupo_1184774" data-name="Grupo 1184774" clip-path="url(#clip-path-13)">
                    <path id="Trazado_1030639" data-name="Trazado 1030639" d="M265.9,379.547H238.465a1.847,1.847,0,0,1,0-3.695H265.9a1.847,1.847,0,1,1,0,3.695" transform="translate(-236.618 -375.852)" fill="#8f93f9"/>
                  </g>
                </g>
              </g>
              <path id="Trazado_1030640" data-name="Trazado 1030640" d="M514.09,115.465H486.657a1.847,1.847,0,1,1,0-3.695H514.09a1.847,1.847,0,0,1,0,3.695Z" transform="translate(-250.977 -57.861)" fill="none" stroke="#0f0e13" stroke-linejoin="round" stroke-width="0.5"/>
              <path id="Trazado_1030641" data-name="Trazado 1030641" d="M237.055,38.412H199.317a1.847,1.847,0,1,1,0-3.695h37.738a1.847,1.847,0,0,1,0,3.695Z" transform="translate(-102.226 -17.972)" fill="none" stroke="#0f0e13" stroke-linejoin="round" stroke-width="0.5"/>
              <path id="Trazado_1030642" data-name="Trazado 1030642" d="M289.893,38.412h-1.356a1.847,1.847,0,1,1,0-3.695h1.356a1.847,1.847,0,1,1,0,3.695Z" transform="translate(-148.413 -17.972)" fill="none" stroke="#0f0e13" stroke-linejoin="round" stroke-width="0.5"/>
              <rect id="Rectángulo_458406" data-name="Rectángulo 458406" width="2.079" height="9.298" transform="translate(241.192 34.153)" fill="#8f93f9"/>
              <rect id="Rectángulo_458407" data-name="Rectángulo 458407" width="2.079" height="9.298" transform="translate(245.564 34.153)" fill="#8f93f9"/>
              <rect id="Rectángulo_458408" data-name="Rectángulo 458408" width="2.079" height="9.298" transform="translate(249.936 34.153)" fill="#8f93f9"/>
              <rect id="Rectángulo_458409" data-name="Rectángulo 458409" width="2.079" height="9.298" transform="translate(254.307 34.153)" fill="#8f93f9"/>
              <rect id="Rectángulo_458410" data-name="Rectángulo 458410" width="2.079" height="9.298" transform="translate(258.679 34.153)" fill="#8f93f9"/>
              <rect id="Rectángulo_458411" data-name="Rectángulo 458411" width="2.079" height="9.298" transform="translate(263.05 34.153)" fill="#8f93f9"/>
              <rect id="Rectángulo_458412" data-name="Rectángulo 458412" width="2.079" height="9.298" transform="translate(267.422 34.153)" fill="#8f93f9"/>
              <rect id="Rectángulo_458413" data-name="Rectángulo 458413" width="2.079" height="9.298" transform="translate(271.794 34.153)" fill="#8f93f9"/>
              <rect id="Rectángulo_458414" data-name="Rectángulo 458414" width="282.618" height="1.908" transform="translate(0.671 198.997)"/>
              <line id="Línea_3279" data-name="Línea 3279" x2="64.403" transform="translate(190.365 204.484)" fill="none" stroke="#0f0e13" stroke-linejoin="round" stroke-width="1"/>
              <line id="Línea_3280" data-name="Línea 3280" x2="28.798" transform="translate(157.453 204.484)" fill="none" stroke="#0f0e13" stroke-linejoin="round" stroke-width="1"/>
              <line id="Línea_3281" data-name="Línea 3281" x2="35.149" transform="translate(47.056 204.484)" fill="none" stroke="#0f0e13" stroke-linejoin="round" stroke-width="1"/>
            </g>
          </g>
        </g>
      </g>
    </g>
  </g>
</svg>
