<svg xmlns="http://www.w3.org/2000/svg" width="84" height="97" viewBox="0 0 84 97">
  <g id="Grupo_1186414" data-name="Grupo 1186414" transform="translate(-289.711 -3086)">
    <rect id="Rectángulo_459289" data-name="Rectángulo 459289" width="84" height="97" transform="translate(289.711 3086)" fill="#ffe79e"/>
    <path id="sistema-informatico" d="M67.88,20.265H47.959a9.155,9.155,0,0,0-.54-1.217l.468-1.054a1.057,1.057,0,0,0-.219-1.177L45.849,15a1.057,1.057,0,0,0-1.177-.219l-1.054.468a9.158,9.158,0,0,0-1.642-.681l-.414-1.076a1.057,1.057,0,0,0-.987-.678H38a1.057,1.057,0,0,0-.987.678L36.6,14.566a9.158,9.158,0,0,0-1.642.681L33.9,14.779A1.057,1.057,0,0,0,32.727,15l-1.82,1.82a1.058,1.058,0,0,0-.219,1.177l.468,1.054a9.156,9.156,0,0,0-.54,1.216H16.963a5.689,5.689,0,0,0-5.683,5.683v5.877l-.534.534a1.057,1.057,0,0,0-.219,1.177l.672,1.512a11.578,11.578,0,0,0-.979,2.361L8.678,38A1.058,1.058,0,0,0,8,38.99v3.345a1.057,1.057,0,0,0,.678.987l1.544.594a11.573,11.573,0,0,0,.979,2.361l-.672,1.513a1.058,1.058,0,0,0,.219,1.177l.534.534v8.268a5.689,5.689,0,0,0,5.683,5.683H31.909v5.234H25.926c-2.758,0-5,1.888-5,4.209v3.152A1.058,1.058,0,0,0,21.981,77.1h40.88a1.058,1.058,0,0,0,1.057-1.057V72.895c0-2.321-2.244-4.209-5-4.209H52.934V63.452H67.88a5.689,5.689,0,0,0,5.683-5.683V25.948A5.689,5.689,0,0,0,67.88,20.265Zm-35.5,1.465a7.049,7.049,0,0,1,.857-2.067,1.058,1.058,0,0,0,.066-.984l-.391-.88.793-.793.88.391a1.057,1.057,0,0,0,.983-.066,7.05,7.05,0,0,1,2.067-.857,1.057,1.057,0,0,0,.742-.649l.346-.9h1.121l.346.9a1.057,1.057,0,0,0,.742.649A7.054,7.054,0,0,1,43,17.332a1.057,1.057,0,0,0,.983.066l.88-.391.793.793-.391.88a1.058,1.058,0,0,0,.066.984,7.045,7.045,0,0,1,.857,2.067,1.057,1.057,0,0,0,.649.742l.9.346v1.121l-.9.346a1.057,1.057,0,0,0-.649.742,7.056,7.056,0,0,1-.857,2.067,1.057,1.057,0,0,0-.066.983l.391.88-.793.793-.88-.391a1.058,1.058,0,0,0-.984.066,7.043,7.043,0,0,1-2.067.857,1.057,1.057,0,0,0-.742.649l-.345.9H38.728l-.346-.9a1.057,1.057,0,0,0-.742-.649,7.05,7.05,0,0,1-2.067-.857,1.057,1.057,0,0,0-.984-.066l-.88.391-.793-.793.391-.88a1.058,1.058,0,0,0-.066-.984,7.045,7.045,0,0,1-.857-2.067,1.057,1.057,0,0,0-.649-.742l-.9-.346V22.818l.9-.346a1.057,1.057,0,0,0,.649-.742Zm1.624,34.794a.97.97,0,1,1-1.41-.864h.88A.97.97,0,0,1,34.009,56.524ZM17.263,51.556q.443.169.9.3l.594,1.544a1.054,1.054,0,0,0,.069.144H17.263Zm12.456-.224.4-.4L31.981,52.4v1.147H24.007a1.062,1.062,0,0,0,.069-.144l.594-1.544a11.58,11.58,0,0,0,2.36-.979l1.513.672a1.058,1.058,0,0,0,1.177-.219ZM34.1,53.545V51.887a1.057,1.057,0,0,0-.4-.829l-2.066-1.636.456-.456A1.057,1.057,0,0,0,32.3,47.79l-.672-1.512a11.578,11.578,0,0,0,.979-2.361l1.543-.594a1.057,1.057,0,0,0,.678-.987v-.615h2.635a3.085,3.085,0,1,0,0-2.115H34.832v-.615A1.057,1.057,0,0,0,34.154,38L32.61,37.41a11.575,11.575,0,0,0-.979-2.36l.672-1.513a1.058,1.058,0,0,0-.219-1.177L29.72,29.994a1.058,1.058,0,0,0-1.177-.219l-1.512.672a11.563,11.563,0,0,0-2.361-.979l-.594-1.543a1.057,1.057,0,0,0-.987-.678H19.743a1.057,1.057,0,0,0-.987.678l-.594,1.544q-.456.132-.9.3V26.248H30.536a9.135,9.135,0,0,0,.621,1.461l-.468,1.054a1.057,1.057,0,0,0,.219,1.177l1.82,1.82a1.057,1.057,0,0,0,1.177.219l1.054-.468a9.138,9.138,0,0,0,1.642.681l.414,1.076a1.057,1.057,0,0,0,.987.678h2.573a1.057,1.057,0,0,0,.987-.678l.414-1.075a9.161,9.161,0,0,0,1.643-.681l1.054.468a1.058,1.058,0,0,0,1.177-.219l1.82-1.82a1.057,1.057,0,0,0,.219-1.177l-.468-1.054a9.155,9.155,0,0,0,.62-1.46H67.58v27.3H34.1Zm5.3-12.882a.97.97,0,1,1,.97.97A.972.972,0,0,1,39.4,40.663ZM16.963,22.38h11.76v1.753H16.847a1.7,1.7,0,0,0-1.7,1.7v4.325l-.859-.382a1.056,1.056,0,0,0-.894.018V25.948A3.572,3.572,0,0,1,16.963,22.38ZM10.115,41.609V39.716l1.37-.527a1.057,1.057,0,0,0,.649-.742,9.477,9.477,0,0,1,1.152-2.779,1.058,1.058,0,0,0,.066-.984l-.6-1.343L14.094,32l1.343.6a1.057,1.057,0,0,0,.984-.066A9.48,9.48,0,0,1,19.2,31.382a1.057,1.057,0,0,0,.742-.649l.527-1.37h1.893l.527,1.37a1.057,1.057,0,0,0,.742.649,9.474,9.474,0,0,1,2.779,1.152,1.057,1.057,0,0,0,.984.066l1.343-.6,1.338,1.338-.6,1.343a1.058,1.058,0,0,0,.066.984A9.479,9.479,0,0,1,30.7,38.447a1.057,1.057,0,0,0,.649.742l1.37.528v1.893l-1.37.527a1.057,1.057,0,0,0-.649.742,9.47,9.47,0,0,1-1.152,2.779,1.058,1.058,0,0,0-.066.984l.6,1.343-1.338,1.338-1.343-.6a1.058,1.058,0,0,0-.984.066,9.48,9.48,0,0,1-2.779,1.152,1.057,1.057,0,0,0-.742.649l-.528,1.37H20.469l-.528-1.37a1.057,1.057,0,0,0-.742-.649,9.481,9.481,0,0,1-2.779-1.152,1.058,1.058,0,0,0-.984-.066l-1.343.6-1.338-1.338.6-1.343a1.058,1.058,0,0,0-.066-.984,9.478,9.478,0,0,1-1.152-2.779,1.057,1.057,0,0,0-.649-.742ZM61.8,72.895v2.094H23.039V72.895c0-1.135,1.322-2.094,2.887-2.094H58.917C60.482,70.8,61.8,71.759,61.8,72.895ZM50.819,68.685H34.024V63.452H50.819ZM71.448,57.769a3.572,3.572,0,0,1-3.568,3.568H16.963A3.572,3.572,0,0,1,13.4,57.769V51.533a1.055,1.055,0,0,0,.893.018l.86-.382V54.6a1.058,1.058,0,0,0,1.057,1.057H30.077a3.085,3.085,0,1,0,5.923,0H68.638A1.058,1.058,0,0,0,69.7,54.6V25.832a1.7,1.7,0,0,0-1.7-1.7H49.853V22.38H67.88a3.572,3.572,0,0,1,3.568,3.568V57.769ZM64.365,29.293a1.058,1.058,0,0,1-1.057,1.057H50.247a1.057,1.057,0,0,1,0-2.115h13.06A1.058,1.058,0,0,1,64.365,29.293Zm0,4.657a1.058,1.058,0,0,1-1.057,1.057H50.247a1.057,1.057,0,1,1,0-2.115h13.06A1.058,1.058,0,0,1,64.365,33.951Zm0,4.657a1.058,1.058,0,0,1-1.057,1.057H50.247a1.057,1.057,0,1,1,0-2.115h13.06A1.058,1.058,0,0,1,64.365,38.608Zm0,4.658a1.058,1.058,0,0,1-1.057,1.057H50.247a1.057,1.057,0,1,1,0-2.115h13.06A1.058,1.058,0,0,1,64.365,43.266Zm0,4.657a1.058,1.058,0,0,1-1.057,1.057H50.247a1.057,1.057,0,1,1,0-2.115h13.06A1.058,1.058,0,0,1,64.365,47.923Zm-25.076-19.4a5.149,5.149,0,1,0-5.149-5.149A5.155,5.155,0,0,0,39.288,28.527Zm0-8.183a3.034,3.034,0,1,1-3.034,3.034,3.037,3.037,0,0,1,3.034-3.034ZM21.416,47.36a6.7,6.7,0,1,0-6.7-6.7A6.7,6.7,0,0,0,21.416,47.36Zm0-11.279a4.582,4.582,0,1,1-4.582,4.582A4.587,4.587,0,0,1,21.416,36.081Z" transform="translate(291.064 3089.669)"/>
  </g>
</svg>
