<svg xmlns="http://www.w3.org/2000/svg" xmlns:xlink="http://www.w3.org/1999/xlink" width="130" height="130" viewBox="0 0 130 130">
  <defs>
    <clipPath id="clip-path">
      <rect id="Rectángulo_454829" data-name="Rectángulo 454829" width="130" height="130" fill="#1e535a"/>
    </clipPath>
  </defs>
  <g id="Grupo_1186406" data-name="Grupo 1186406" transform="translate(-186 -4323.945)">
    <g id="Grupo_1177591" data-name="Grupo 1177591" transform="translate(186 4323.945)">
      <g id="Grupo_1177589" data-name="Grupo 1177589" transform="translate(0 0)">
        <g id="Grupo_1177587" data-name="Grupo 1177587" clip-path="url(#clip-path)">
          <path id="Trazado_997422" data-name="Trazado 997422" d="M124.692,57.54a59.768,59.768,0,0,0-13.5-31.1,6.874,6.874,0,0,0-9.672-9.26,59.68,59.68,0,0,0-30.9-12.073,6.875,6.875,0,0,0-13.353.271A59.762,59.762,0,0,0,27.622,18.05a6.877,6.877,0,0,0-9.545,9.61A59.712,59.712,0,0,0,5.568,57.481,6.88,6.88,0,0,0,5.4,70.954,59.7,59.7,0,0,0,17.522,101.38a6.876,6.876,0,0,0,9.342,9.709,59.757,59.757,0,0,0,30.35,13.274,6.877,6.877,0,0,0,13.473.271,59.706,59.706,0,0,0,31.125-12.3,6.875,6.875,0,0,0,9.624-9.308,59.783,59.783,0,0,0,13.418-32.141,6.877,6.877,0,0,0-.161-13.35M105.274,29.825a6.838,6.838,0,0,0,3.808-1.153,56.758,56.758,0,0,1,12.526,28.85,6.887,6.887,0,0,0-4.395,3.184L99.637,54.116c.014-.192.027-.388.027-.587a6.877,6.877,0,0,0-2.913-5.62L104.44,29.77a7.449,7.449,0,0,0,.834.055m-3.716-1.094L93.917,46.749a6.806,6.806,0,0,0-7.575,4.374L54.544,43.8A6.691,6.691,0,0,0,54.4,42.43L99.523,26.716a6.9,6.9,0,0,0,2.035,2.014M63.979,13.765a6.883,6.883,0,0,0,6.755-5.582A56.663,56.663,0,0,1,99.386,19.388a6.844,6.844,0,0,0-.995,3.554,7.226,7.226,0,0,0,.065.909L53.107,39.641A6.9,6.9,0,0,0,51.861,38.4L63.756,13.754c.075,0,.148.01.223.01M57.286,8.454a6.884,6.884,0,0,0,3.462,4.5L49.086,37.109a6.9,6.9,0,0,0-1.42-.148,6.832,6.832,0,0,0-3.922,1.232L29.921,26.648a6.842,6.842,0,0,0-.233-6.333,56.709,56.709,0,0,1,27.6-11.861M13.6,62.741l28.59-14.746a6.857,6.857,0,0,0,5.424,2.728l9.8,31.321a7,7,0,0,0-1.516,1.678L13.511,66.062a6.836,6.836,0,0,0,.254-1.825,6.916,6.916,0,0,0-.168-1.5m6.752-33.029a6.877,6.877,0,0,0,7.682-.655l13.648,11.4a6.863,6.863,0,0,0-.758,4.755L12.283,59.976a6.88,6.88,0,0,0-3.644-2.388,56.684,56.684,0,0,1,11.71-27.876M23.2,98.391a6.862,6.862,0,0,0-3.417.913,56.633,56.633,0,0,1-11.3-28.38,6.888,6.888,0,0,0,3.572-2.155L54.857,86.6a7.38,7.38,0,0,0-.055.827,6.881,6.881,0,0,0,.412,2.326l-25.886,12.4A6.881,6.881,0,0,0,23.2,98.391M57.347,121.3A56.765,56.765,0,0,1,29.029,108.91a6.81,6.81,0,0,0,1.05-3.637l0-.079,26.8-12.845a6.882,6.882,0,0,0,2.429,1.534l1.606,23.08a6.882,6.882,0,0,0-3.565,4.337M60.2,80.715,50.609,50.057a6.892,6.892,0,0,0,3.27-3.27l32.055,7.38A6.842,6.842,0,0,0,87.028,57.3L65.043,81.426a6.8,6.8,0,0,0-4.844-.71M70.68,121.567a6.88,6.88,0,0,0-6.7-5.332l-.051,0L62.4,94.278a6.87,6.87,0,0,0,4.206-2.041l32.048,14.135c0,.062-.01.117-.01.178a6.848,6.848,0,0,0,1.019,3.589A56.66,56.66,0,0,1,70.68,121.567m28.747-18.2L68.213,89.6a6.842,6.842,0,0,0-.9-6.121l21.92-24.061a6.841,6.841,0,0,0,3.551.995,7.576,7.576,0,0,0,.844-.055l8.193,40.4a6.867,6.867,0,0,0-2.391,2.611M109.3,100.8a6.84,6.84,0,0,0-4.573-1.081L96.532,59.3A6.91,6.91,0,0,0,98.7,57.032l17.566,6.587a6.1,6.1,0,0,0-.031.618,6.88,6.88,0,0,0,5.531,6.745A56.707,56.707,0,0,1,109.3,100.8" transform="translate(0 0.001)" fill="#1e535a"/>
        </g>
      </g>
    </g>
    <g id="Elipse_13614" data-name="Elipse 13614" transform="translate(210.273 4348.213)" fill="#fff" stroke="#1e535a" stroke-width="3">
      <ellipse cx="40.732" cy="40.733" rx="40.732" ry="40.733" stroke="none"/>
      <ellipse cx="40.732" cy="40.733" rx="39.232" ry="39.233" fill="none"/>
    </g>
    <g id="lista-de-verificacion_3_" data-name="lista-de-verificacion (3)" transform="translate(224.801 4362.316)">
      <path id="Trazado_1033133" data-name="Trazado 1033133" d="M45.212,5.457A3.457,3.457,0,0,0,41.755,2H5.457A3.457,3.457,0,0,0,2,5.457V7.185H45.212Zm-38.891,0H5.457a.864.864,0,1,1,0-1.728h.864a.864.864,0,0,1,0,1.728Zm4.321,0H9.778a.864.864,0,0,1,0-1.728h.864a.864.864,0,0,1,0,1.728Zm4.321,0H14.1a.864.864,0,0,1,0-1.728h.864a.864.864,0,0,1,0,1.728Zm22.47,0H23.606a.864.864,0,0,1,0-1.728H37.434a.864.864,0,0,1,0,1.728Z" fill="#1e535a"/>
      <path id="Trazado_1033134" data-name="Trazado 1033134" d="M44.642,15.593h-.864a.864.864,0,0,1-.864-.864c0-.937-1.187-1.728-2.593-1.728s-2.593.792-2.593,1.728a.864.864,0,0,1-.864.864H36V19.05h8.642Z" transform="translate(-4.616 -1.493)" fill="#1e535a"/>
      <path id="Trazado_1033135" data-name="Trazado 1033135" d="M45.212,10H2V42.841A3.457,3.457,0,0,0,5.457,46.3H19.285V18.642a4.326,4.326,0,0,1,4.321-4.321H29.9a1.722,1.722,0,0,1,1.488-.864h.131a4.2,4.2,0,0,1,4.191-2.593A4.2,4.2,0,0,1,39.9,13.457h.13a1.722,1.722,0,0,1,1.488.864h3.7Zm-36.3,8.642a.864.864,0,0,1-.864.864H7.185a.864.864,0,1,1,0-1.728H8.05A.864.864,0,0,1,8.914,18.642ZM8.05,29.878H7.185a.864.864,0,0,1,0-1.728H8.05a.864.864,0,0,1,0,1.728Zm.864,2.593a.864.864,0,0,1-.864.864H7.185a.864.864,0,1,1,0-1.728H8.05A.864.864,0,0,1,8.914,32.47ZM8.05,22.964H7.185a.864.864,0,1,1,0-1.728H8.05a.864.864,0,1,1,0,1.728ZM5.457,14.321h.864a.864.864,0,0,1,0,1.728H5.457a.864.864,0,1,1,0-1.728Zm0,10.371h.864a.864.864,0,1,1,0,1.728H5.457a.864.864,0,1,1,0-1.728ZM4.593,35.927a.864.864,0,0,1,.864-.864h.864a.864.864,0,0,1,0,1.728H5.457A.864.864,0,0,1,4.593,35.927ZM8.05,43.705H7.185a.864.864,0,0,1,0-1.728H8.05a.864.864,0,0,1,0,1.728Zm0-3.457H7.185a.864.864,0,0,1,0-1.728H8.05a.864.864,0,0,1,0,1.728Zm8.642,3.457H11.507a.864.864,0,0,1,0-1.728h5.185a.864.864,0,0,1,0,1.728Zm0-3.457H11.507a.864.864,0,0,1,0-1.728h5.185a.864.864,0,0,1,0,1.728Zm0-3.457H9.778a.864.864,0,0,1,0-1.728h6.914a.864.864,0,0,1,0,1.728Zm0-3.457H11.507a.864.864,0,1,1,0-1.728h5.185a.864.864,0,1,1,0,1.728Zm0-3.457H11.507a.864.864,0,0,1,0-1.728h5.185a.864.864,0,0,1,0,1.728Zm0-3.457H9.778a.864.864,0,1,1,0-1.728h6.914a.864.864,0,1,1,0,1.728Zm0-3.457H11.507a.864.864,0,1,1,0-1.728h5.185a.864.864,0,1,1,0,1.728Zm0-3.457H11.507a.864.864,0,1,1,0-1.728h5.185a.864.864,0,1,1,0,1.728Zm0-3.457H9.778a.864.864,0,0,1,0-1.728h6.914a.864.864,0,1,1,0,1.728Z" transform="translate(0 -1.086)" fill="#1e535a"/>
      <path id="Trazado_1033136" data-name="Trazado 1033136" d="M33.426,21H28V49.52H50.47V21H45.045a1.722,1.722,0,0,1-1.488.864H34.914A1.722,1.722,0,0,1,33.426,21Zm5.809,7.778h7.778a.864.864,0,0,1,0,1.728H39.235a.864.864,0,1,1,0-1.728Zm0,6.914h7.778a.864.864,0,1,1,0,1.728H39.235a.864.864,0,1,1,0-1.728Zm0,6.914h7.778a.864.864,0,0,1,0,1.728H39.235a.864.864,0,1,1,0-1.728Zm-3.63-1.21-2.593,3.457a.864.864,0,0,1-.63.346h-.061a.864.864,0,0,1-.611-.253l-.864-.864a.864.864,0,1,1,1.222-1.222l.16.16,1.995-2.66A.864.864,0,1,1,35.605,41.4Zm0-6.914-2.593,3.457a.864.864,0,0,1-.63.346h-.061a.864.864,0,0,1-.611-.253l-.864-.864a.864.864,0,1,1,1.222-1.222l.16.16,1.995-2.66a.864.864,0,1,1,1.383,1.037Zm0-6.914-2.593,3.457a.864.864,0,0,1-.63.346h-.061a.864.864,0,0,1-.611-.253l-.864-.864a.864.864,0,1,1,1.222-1.222l.16.16,1.995-2.66a.864.864,0,1,1,1.383,1.037Z" transform="translate(-3.53 -2.579)" fill="#1e535a"/>
      <path id="Trazado_1033137" data-name="Trazado 1033137" d="M53.384,19.593A2.593,2.593,0,0,0,50.791,17h-6.05v1.728h5.185a1.728,1.728,0,0,1,1.728,1.728v28.52a1.728,1.728,0,0,1-1.728,1.728H27.457a1.728,1.728,0,0,1-1.728-1.728V20.457a1.728,1.728,0,0,1,1.728-1.728h5.185V17h-6.05A2.593,2.593,0,0,0,24,19.593V49.841a2.593,2.593,0,0,0,2.593,2.593h24.2a2.593,2.593,0,0,0,2.593-2.593Z" transform="translate(-2.987 -2.036)" fill="#1e535a"/>
    </g>
  </g>
</svg>
