<svg xmlns="http://www.w3.org/2000/svg" width="102.275" height="102.275" viewBox="0 0 102.275 102.275">
  <g id="pruebas_2_" data-name="pruebas (2)" transform="translate(-2 -2)">
    <path id="Trazado_1034323" data-name="Trazado 1034323" d="M6,21H94.639V80.661H6Z" transform="translate(2.818 13.387)" fill="#8892a0"/>
    <path id="Trazado_1034324" data-name="Trazado 1034324" d="M9,24H87.411V73.433H9Z" transform="translate(4.932 15.501)" fill="#c7e2fc"/>
    <path id="Trazado_1034325" data-name="Trazado 1034325" d="M9,24V57.362A49.609,49.609,0,0,0,35.421,64.91C60.155,64.91,80.557,47.07,83.6,24Z" transform="translate(4.932 15.501)" fill="#ebf7fe"/>
    <path id="Trazado_1034326" data-name="Trazado 1034326" d="M104.275,56H2v6.818a3.408,3.408,0,0,0,3.409,3.409h95.457a3.408,3.408,0,0,0,3.409-3.409Z" transform="translate(0 38.048)" fill="#4d5d7a"/>
    <path id="Trazado_1034327" data-name="Trazado 1034327" d="M13,35H36.864V58.864H13Z" transform="translate(7.75 23.251)" fill="#c66b60"/>
    <path id="Trazado_1034328" data-name="Trazado 1034328" d="M13,17H36.864V40.864H13Z" transform="translate(7.75 10.569)" fill="#78b75b"/>
    <g id="Grupo_1187258" data-name="Grupo 1187258" transform="translate(24.501 31.777)">
      <path id="Trazado_1034329" data-name="Trazado 1034329" d="M21.677,35.715c.024,0,.048,0,.072,0a1.7,1.7,0,0,0,1.374-.8l8.523-13.637-2.889-1.809L21.55,31,17.927,26.17,15.2,28.215l5.114,6.818a1.7,1.7,0,0,0,1.364.682Z" transform="translate(-15.2 -19.469)" fill="#fff"/>
      <path id="Trazado_1034330" data-name="Trazado 1034330" d="M28.93,37.293l-5.613,5.613L17.7,37.293l-2.41,2.41,5.613,5.613L15.293,50.93l2.41,2.41,5.613-5.613L28.93,53.34l2.41-2.41-5.613-5.613L31.34,39.7Z" transform="translate(-15.134 -6.91)" fill="#fff"/>
    </g>
    <g id="Grupo_1187259" data-name="Grupo 1187259" transform="translate(65.07 46.319)">
      <path id="Trazado_1034331" data-name="Trazado 1034331" d="M59.455,38.228A10.228,10.228,0,1,0,49.228,48.455,10.227,10.227,0,0,0,59.455,38.228Zm-15.341,0a5.114,5.114,0,1,1,5.114,5.114A5.113,5.113,0,0,1,44.114,38.228Z" transform="translate(-39 -28)" fill="#8892a0"/>
    </g>
    <path id="Trazado_1034332" data-name="Trazado 1034332" d="M53.341,39.5H60.16V35.7a15.244,15.244,0,0,0,4.747-1.971L67.6,36.419,72.419,31.6l-2.692-2.692A15.243,15.243,0,0,0,71.7,24.16h3.8V17.341H71.7a15.244,15.244,0,0,0-1.97-4.747L72.419,9.9,67.6,5.082,64.907,7.773A15.244,15.244,0,0,0,60.16,5.8V2H53.341V5.8a15.244,15.244,0,0,0-4.747,1.971L45.9,5.082,41.082,9.9l2.692,2.692a15.243,15.243,0,0,0-1.97,4.747H38V24.16h3.8a15.244,15.244,0,0,0,1.97,4.747L41.082,31.6,45.9,36.419l2.692-2.692A15.244,15.244,0,0,0,53.341,35.7ZM46.523,20.75A10.228,10.228,0,1,1,56.75,30.978,10.227,10.227,0,0,1,46.523,20.75Z" transform="translate(25.365)" fill="#4d5d7a"/>
    <g id="Grupo_1187260" data-name="Grupo 1187260" transform="translate(61.661 54.842)">
      <path id="Trazado_1034333" data-name="Trazado 1034333" d="M37,33h3.409v3.409H37Z" transform="translate(-37 -33)" fill="#8892a0"/>
    </g>
    <g id="Grupo_1187261" data-name="Grupo 1187261" transform="translate(85.525 54.842)">
      <path id="Trazado_1034334" data-name="Trazado 1034334" d="M51,33h3.409v3.409H51Z" transform="translate(-51 -33)" fill="#8892a0"/>
    </g>
    <g id="Grupo_1187262" data-name="Grupo 1187262" transform="translate(73.593 66.774)">
      <path id="Trazado_1034335" data-name="Trazado 1034335" d="M44,40h3.409v3.409H44Z" transform="translate(-44 -40)" fill="#8892a0"/>
    </g>
    <g id="Grupo_1187263" data-name="Grupo 1187263" transform="translate(73.593 42.91)">
      <path id="Trazado_1034336" data-name="Trazado 1034336" d="M44,26h3.409v3.409H44Z" transform="translate(-44 -26)" fill="#8892a0"/>
    </g>
    <g id="Grupo_1187264" data-name="Grupo 1187264" transform="translate(80.893 62.164)">
      <path id="Trazado_1034337" data-name="Trazado 1034337" d="M0,0H3.409V3.994H0Z" transform="translate(0 2.41) rotate(-45)" fill="#8892a0"/>
    </g>
    <g id="Grupo_1187265" data-name="Grupo 1187265" transform="translate(64.438 45.701)">
      <path id="Trazado_1034338" data-name="Trazado 1034338" d="M0,0H3.409V3.994H0Z" transform="translate(0 2.41) rotate(-45)" fill="#8892a0"/>
    </g>
    <g id="Grupo_1187266" data-name="Grupo 1187266" transform="translate(80.899 45.716)">
      <path id="Trazado_1034339" data-name="Trazado 1034339" d="M0,0H3.994V3.409H0Z" transform="translate(0 2.824) rotate(-45)" fill="#8892a0"/>
    </g>
    <g id="Grupo_1187267" data-name="Grupo 1187267" transform="translate(64.436 62.176)">
      <path id="Trazado_1034340" data-name="Trazado 1034340" d="M0,0H3.994V3.409H0Z" transform="translate(0 2.824) rotate(-45)" fill="#8892a0"/>
    </g>
    <g id="Grupo_1187269" data-name="Grupo 1187269" transform="translate(63.365 44.615)">
      <g id="Grupo_1187268" data-name="Grupo 1187268">
        <path id="Trazado_1034341" data-name="Trazado 1034341" d="M38,38.932A11.932,11.932,0,1,1,49.932,50.864,11.946,11.946,0,0,1,38,38.932Zm20.455,0a8.523,8.523,0,1,0-8.523,8.523A8.533,8.533,0,0,0,58.455,38.932Z" transform="translate(-38 -27)" fill="#4d5d7a"/>
      </g>
    </g>
  </g>
</svg>
